M48
;DRILL file {pcbnew (2015-04-22 BZR 5620)-product} date 07/05/2015 20:47:54
;FORMAT={-:-/ absolute / metric / decimal}
FMAT,2
METRIC,TZ
T1C0.400
T2C0.700
T3C0.800
T4C0.998
T5C1.000
T6C1.001
T7C1.016
T8C1.100
T9C1.200
T10C3.000
%
G90
G05
M71
T1
X99.Y-85.
X99.Y-95.
X99.Y-96.
X99.Y-106.5
X99.Y-111.5
X99.5Y-106.
X100.Y-84.5
X100.Y-94.63
X100.Y-95.5
X100.Y-111.5
X100.5Y-106.
X101.Y-85.
X101.Y-97.1
X101.Y-106.5
X101.Y-111.
X101.2Y-90.2
X101.5Y-105.5
X101.519Y-94.618
X101.8Y-89.6
X102.Y-86.
X102.Y-97.1
X102.Y-106.
X102.Y-107.
X102.Y-111.
X102.5Y-87.
X102.5Y-88.9
X102.5Y-93.
X102.5Y-94.
X102.6Y-88.
X103.Y-95.
X103.Y-97.1
X103.Y-110.5
X103.6Y-91.3
X104.Y-94.5
X104.2Y-90.7
X104.4Y-91.5
X104.484Y-81.8
X104.5Y-110.5
X105.Y-94.5
X105.1Y-90.6
X105.1Y-91.4
X106.Y-110.5
X106.Y-111.5
X106.Y-112.5
X106.Y-113.5
X106.2Y-81.8
X106.5Y-90.7
X106.5Y-114.5
X106.75Y-94.75
X107.Y-115.5
X107.5Y-116.5
X107.5Y-117.5
X107.9Y-88.3
X108.5Y-109.7
X108.928Y-89.101
X110.264Y-79.76
X110.5Y-100.5
X111.Y-101.
X111.5Y-76.
X111.5Y-78.
X112.Y-101.5
X112.459Y-75.851
X112.5Y-78.5
X112.5Y-79.5
X112.5Y-102.
X112.5Y-104.
X113.Y-79.
X113.Y-99.
X113.Y-103.
X113.Y-105.
X113.75Y-99.
X114.5Y-89.5
X114.5Y-99.
X115.Y-90.
X115.25Y-99.25
X116.Y-90.
X116.Y-96.25
X116.Y-99.25
X116.5Y-116.
X116.75Y-99.25
X117.Y-85.5
X117.Y-89.
X117.Y-91.
X117.Y-115.5
X117.5Y-85.
X117.5Y-86.
X117.5Y-87.
X117.5Y-88.
X117.5Y-99.25
X117.5Y-115.
X118.Y-90.
X118.Y-91.
X118.Y-116.4
X118.25Y-99.25
X118.5Y-85.
X118.5Y-115.
X118.75Y-80.
X119.Y-86.
X119.Y-87.
X119.Y-88.
X119.Y-89.
X119.Y-90.
X119.Y-91.
X119.Y-99.25
X119.Y-116.4
X119.5Y-115.
X120.Y-99.25
X120.Y-100.
X120.Y-104.
X120.Y-105.
X120.Y-106.
X120.Y-107.
X120.Y-108.
X120.Y-116.4
X120.5Y-77.
X120.5Y-78.
X120.5Y-79.
X120.5Y-103.
X120.5Y-115.
X121.Y-81.
X121.Y-108.5
X121.Y-109.5
X121.Y-116.4
X121.5Y-77.
X121.5Y-114.5
X122.Y-79.
X122.Y-102.5
X122.Y-116.4
X122.5Y-77.
X122.5Y-80.5
X122.5Y-89.5
X122.5Y-93.
X122.5Y-113.5
X123.Y-87.5
X123.Y-88.5
X123.Y-92.
X123.Y-109.
X123.Y-116.4
X123.5Y-77.
X123.5Y-78.5
X123.5Y-79.5
X123.5Y-93.
X123.5Y-108.
X123.5Y-110.
X123.5Y-111.
X123.5Y-112.
X123.5Y-113.
X123.8Y-85.3
X123.981Y-95.906
X124.Y-91.5
X124.Y-106.
X124.Y-107.
X124.Y-116.4
X124.1Y-97.1
X124.5Y-77.
X124.5Y-93.
X125.Y-79.5
X125.Y-91.
X125.Y-107.
X125.Y-114.5
X125.Y-115.5
X125.Y-116.4
X125.5Y-87.5
X125.5Y-90.
X125.5Y-92.
X125.5Y-93.
X125.5Y-113.5
X126.Y-77.
X126.Y-78.
X126.Y-79.5
X126.Y-88.5
X126.Y-108.
X126.5Y-109.
X126.5Y-110.
X126.5Y-111.
X126.5Y-112.
X126.5Y-113.
X129.4Y-103.7
X129.4Y-104.7
X129.4Y-105.7
X129.5Y-95.9
X129.6Y-95.2
X129.6Y-102.8
X130.3Y-106.2
X130.5Y-96.8
X130.5Y-102.4
X130.6Y-90.2
X130.6Y-92.
X130.6Y-95.2
X130.7Y-91.1
X130.7Y-92.8
X131.Y-80.
X131.Y-117.5
X131.2Y-104.8
X131.25Y-116.25
X131.3Y-89.6
X131.3Y-103.8
X131.4Y-102.6
X131.4Y-106.
X131.5Y-77.
X131.5Y-78.
X131.5Y-79.
X131.5Y-113.6
X131.6Y-111.1
X131.8Y-92.8
X131.9Y-95.2
X132.Y-91.
X132.Y-96.7
X132.Y-103.2
X132.2Y-99.5
X132.3Y-89.7
X132.5Y-77.
X132.5Y-79.
X132.7Y-92.8
X133.1Y-95.3
X133.2Y-89.6
X133.2Y-96.6
X133.25Y-100.
X133.3Y-98.9
X133.5Y-77.
X133.5Y-79.
X133.5Y-84.
X133.5Y-91.5
X133.6Y-90.4
X133.6Y-92.8
X133.7Y-96.
X134.Y-83.5
X134.Y-100.
X134.Y-100.75
X134.Y-101.5
X134.2Y-95.3
X134.5Y-77.
X134.5Y-79.
X134.5Y-102.25
X134.7Y-96.8
X135.Y-82.5
X135.1Y-95.3
X135.5Y-77.
X135.5Y-79.
X135.5Y-84.5
X135.5Y-85.5
X135.5Y-86.5
X135.5Y-87.5
X135.5Y-88.5
X135.5Y-102.5
X135.7Y-96.1
X136.25Y-102.75
X136.5Y-78.
X136.5Y-82.
X136.5Y-88.5
X136.5Y-96.8
X136.75Y-108.5
X137.Y-79.
X137.25Y-103.
X137.25Y-106.
X137.25Y-109.
X137.5Y-80.
X137.5Y-81.
X137.5Y-88.5
X137.5Y-94.
X137.5Y-103.75
X137.5Y-104.5
X137.5Y-105.25
X137.5Y-107.
X137.5Y-109.75
X137.5Y-110.5
X137.5Y-111.25
X137.5Y-112.
X137.5Y-112.75
X137.5Y-113.5
X137.5Y-117.5
X137.5Y-118.5
X137.9Y-94.8
X138.25Y-107.75
X138.25Y-113.5
X138.3Y-92.5
X138.3Y-93.5
X138.5Y-80.5
X138.5Y-89.5
X138.5Y-91.6
X138.5Y-116.5
X138.5Y-119.
X138.75Y-100.
X138.75Y-100.75
X138.75Y-101.5
X138.8Y-95.3
X139.Y-108.25
X139.25Y-113.5
X139.5Y-80.5
X139.5Y-101.5
X139.5Y-116.5
X139.5Y-119.
X139.75Y-109.
X140.Y-95.2
X140.25Y-101.5
X140.25Y-113.5
X140.5Y-80.5
X140.5Y-104.75
X140.5Y-109.75
X140.5Y-116.5
X140.5Y-119.
X140.75Y-103.25
X140.75Y-105.5
X141.Y-102.25
X141.Y-104.25
X141.Y-106.25
X141.Y-110.25
X141.1Y-95.3
X141.25Y-113.5
X141.5Y-80.5
X141.5Y-84.5
X141.5Y-89.5
X141.5Y-116.5
X141.5Y-119.
X142.Y-80.
X142.Y-111.
X142.25Y-113.5
X142.5Y-76.5
X142.5Y-77.5
X142.5Y-78.5
X142.5Y-84.5
X142.5Y-116.5
X142.5Y-119.
X142.7Y-95.3
X142.75Y-111.75
X143.Y-89.5
X143.Y-90.5
X143.25Y-113.5
X143.5Y-76.
X143.5Y-79.5
X143.5Y-80.5
X143.5Y-81.5
X143.5Y-82.5
X143.5Y-83.5
X143.5Y-84.5
X143.5Y-85.5
X143.5Y-86.5
X143.5Y-87.5
X143.5Y-88.5
X143.5Y-94.5
X143.5Y-116.5
X143.5Y-119.
X143.75Y-112.5
X144.Y-78.5
X144.Y-90.
X144.Y-92.
X144.Y-93.5
X144.Y-100.5
X144.Y-102.
X144.Y-103.
X144.25Y-113.5
X144.5Y-76.
X144.5Y-77.5
X144.5Y-91.
X144.5Y-104.
X144.5Y-105.
X144.5Y-106.
X144.5Y-107.
X144.5Y-108.
X144.5Y-116.5
X144.5Y-119.
X145.Y-108.5
X145.5Y-76.5
X145.5Y-102.5
X145.5Y-117.
X145.5Y-119.
X146.Y-105.
X146.5Y-103.
X146.5Y-117.
X146.5Y-119.
X147.5Y-90.5
X147.5Y-91.5
X147.5Y-92.5
X147.5Y-103.5
X147.5Y-117.
X147.5Y-119.
X148.Y-91.
X148.Y-104.5
X148.Y-105.5
X148.Y-107.
X148.04Y-111.54
X148.5Y-80.5
X148.5Y-81.5
X148.5Y-114.5
X148.5Y-115.5
X148.5Y-116.5
X148.5Y-119.
X148.94Y-111.39
X149.Y-106.
X149.5Y-80.5
X149.5Y-82.5
X149.5Y-106.5
X149.5Y-114.4
X149.5Y-119.
X150.Y-76.
X150.Y-77.
X150.Y-78.
X150.Y-79.
X150.Y-80.
X150.14Y-111.42
X150.4Y-114.4
X150.5Y-83.5
X150.5Y-84.5
X150.5Y-85.5
X150.5Y-86.5
X150.5Y-108.5
X150.5Y-119.
X151.Y-87.
X151.Y-88.
X151.Y-89.
X151.Y-90.
X151.Y-91.
X151.Y-92.5
X151.Y-106.
X151.35Y-111.39
X151.5Y-92.
X151.5Y-114.4
X151.5Y-119.
X152.Y-105.5
X152.2Y-114.4
X152.5Y-91.
X152.5Y-119.
X152.71Y-111.3
X153.Y-89.5
X153.Y-106.5
X153.Y-107.5
X153.Y-108.5
X153.1Y-114.4
X153.5Y-109.5
X153.5Y-119.
X153.7Y-110.77
X153.8Y-114.4
X154.Y-89.5
X154.5Y-97.5
X154.5Y-109.5
X154.5Y-119.
X154.6Y-114.3
X154.6Y-115.1
X154.6Y-115.9
X154.64Y-110.74
X155.Y-89.5
X155.5Y-97.5
X155.5Y-98.5
X155.5Y-109.5
X155.5Y-110.5
X155.5Y-119.
X156.Y-89.5
X156.5Y-97.5
X156.5Y-99.5
X156.5Y-100.5
X156.5Y-101.5
X156.5Y-109.5
X156.5Y-111.
X156.5Y-119.
X157.Y-89.5
X157.Y-90.5
X157.Y-91.5
X157.Y-95.5
X157.Y-96.5
X157.Y-110.5
X157.5Y-102.5
X157.5Y-103.5
X157.5Y-108.
X157.5Y-119.
X158.Y-91.5
X158.Y-95.5
X158.Y-111.
X158.5Y-103.5
X158.5Y-108.
X158.5Y-119.
X159.Y-91.5
X159.Y-95.5
X159.Y-110.5
X159.5Y-103.5
X159.5Y-108.
X159.5Y-119.
X160.Y-91.5
X160.Y-95.5
X160.Y-111.
X160.5Y-92.
X160.5Y-93.
X160.5Y-94.
X160.5Y-95.
X160.5Y-103.5
X160.5Y-108.
X160.5Y-119.
X161.Y-104.5
X161.Y-105.5
X161.Y-106.5
X161.Y-107.5
X161.Y-111.
X161.5Y-119.
X162.Y-111.
X162.5Y-119.
X163.Y-115.
X163.Y-116.
X163.Y-117.
X163.Y-118.
T2
X145.7Y-89.6
X145.7Y-92.14
X145.7Y-94.68
T3
X99.5Y-97.5
X104.5Y-97.5
X113.5Y-96.5
X115.1Y-77.4
X117.6Y-77.4
X118.5Y-96.5
X119.5Y-111.5
X122.Y-111.5
X126.5Y-115.
X126.5Y-117.5
X133.Y-80.5
X135.5Y-80.5
T4
X100.104Y-82.3
X100.104Y-87.38
X100.104Y-92.46
X100.104Y-103.8
X100.104Y-108.88
X100.104Y-113.96
X105.184Y-79.76
X105.184Y-101.26
X105.184Y-116.5
X110.264Y-79.76
X110.264Y-95.
X110.264Y-116.5
X115.344Y-82.3
X115.344Y-87.38
X115.344Y-92.46
X115.344Y-103.8
X115.344Y-108.88
X115.344Y-113.96
T5
X132.86Y-104.78
X132.86Y-107.32
X132.86Y-109.86
X132.86Y-112.4
X132.86Y-114.94
X132.86Y-117.48
X135.4Y-104.78
X135.4Y-107.32
X135.4Y-109.86
X135.4Y-112.4
X135.4Y-114.94
X135.4Y-117.48
T6
X106.26Y-76.8
X107.56Y-98.2
X108.8Y-76.8
X110.1Y-98.2
T7
X154.7Y-91.8
X154.7Y-95.3
X155.1Y-103.9
X155.1Y-107.4
X156.7Y-116.5
X158.3Y-93.5
X158.6Y-105.7
X160.22Y-116.49
T8
X124.5Y-81.5
X127.648Y-104.5
X146.852Y-81.5
X150.Y-104.5
T9
X146.5Y-110.
X146.5Y-115.
T10
X95.5Y-78.5
X95.5Y-116.7
X141.2Y-92.7
X160.3Y-80.8
X160.3Y-99.6
T0
M30
