G04 #@! TF.FileFunction,Legend,Top*
%FSLAX46Y46*%
G04 Gerber Fmt 4.6, Leading zero omitted, Abs format (unit mm)*
G04 Created by KiCad (PCBNEW (2015-04-22 BZR 5620)-product) date 07/05/2015 20:47:48*
%MOMM*%
G01*
G04 APERTURE LIST*
%ADD10C,0.100000*%
%ADD11C,0.150000*%
G04 APERTURE END LIST*
D10*
D11*
X140250000Y-112425000D02*
X152750000Y-112425000D01*
X140254000Y-112285000D02*
X152746000Y-112285000D01*
X140260000Y-112145000D02*
X152740000Y-112145000D01*
X140270000Y-112005000D02*
X152730000Y-112005000D01*
X140282000Y-111865000D02*
X152718000Y-111865000D01*
X140298000Y-111725000D02*
X152702000Y-111725000D01*
X140317000Y-111585000D02*
X152683000Y-111585000D01*
X140340000Y-111445000D02*
X152660000Y-111445000D01*
X140365000Y-111305000D02*
X152635000Y-111305000D01*
X140394000Y-111165000D02*
X152606000Y-111165000D01*
X140427000Y-111025000D02*
X145979000Y-111025000D01*
X147021000Y-111025000D02*
X152573000Y-111025000D01*
X140462000Y-110885000D02*
X145766000Y-110885000D01*
X147234000Y-110885000D02*
X152538000Y-110885000D01*
X140501000Y-110745000D02*
X145624000Y-110745000D01*
X147376000Y-110745000D02*
X152499000Y-110745000D01*
X140544000Y-110605000D02*
X145522000Y-110605000D01*
X147478000Y-110605000D02*
X152456000Y-110605000D01*
X140591000Y-110465000D02*
X145448000Y-110465000D01*
X147552000Y-110465000D02*
X152409000Y-110465000D01*
X140641000Y-110325000D02*
X145397000Y-110325000D01*
X147603000Y-110325000D02*
X152359000Y-110325000D01*
X140695000Y-110185000D02*
X145365000Y-110185000D01*
X147635000Y-110185000D02*
X152305000Y-110185000D01*
X140752000Y-110045000D02*
X145351000Y-110045000D01*
X147649000Y-110045000D02*
X152248000Y-110045000D01*
X140814000Y-109905000D02*
X145354000Y-109905000D01*
X147646000Y-109905000D02*
X152186000Y-109905000D01*
X140880000Y-109765000D02*
X145374000Y-109765000D01*
X147626000Y-109765000D02*
X152120000Y-109765000D01*
X140951000Y-109625000D02*
X145413000Y-109625000D01*
X147587000Y-109625000D02*
X152049000Y-109625000D01*
X141025000Y-109485000D02*
X145472000Y-109485000D01*
X147528000Y-109485000D02*
X151975000Y-109485000D01*
X141105000Y-109345000D02*
X145555000Y-109345000D01*
X147445000Y-109345000D02*
X151895000Y-109345000D01*
X141189000Y-109205000D02*
X145669000Y-109205000D01*
X147331000Y-109205000D02*
X151811000Y-109205000D01*
X141279000Y-109065000D02*
X145830000Y-109065000D01*
X147170000Y-109065000D02*
X151721000Y-109065000D01*
X141373000Y-108925000D02*
X146091000Y-108925000D01*
X146909000Y-108925000D02*
X151627000Y-108925000D01*
X141474000Y-108785000D02*
X151526000Y-108785000D01*
X141581000Y-108645000D02*
X151419000Y-108645000D01*
X141693000Y-108505000D02*
X151307000Y-108505000D01*
X141813000Y-108365000D02*
X151187000Y-108365000D01*
X141941000Y-108225000D02*
X151059000Y-108225000D01*
X142076000Y-108085000D02*
X150924000Y-108085000D01*
X142220000Y-107945000D02*
X150780000Y-107945000D01*
X142375000Y-107805000D02*
X150625000Y-107805000D01*
X142540000Y-107665000D02*
X150460000Y-107665000D01*
X142717000Y-107525000D02*
X150283000Y-107525000D01*
X142908000Y-107385000D02*
X150092000Y-107385000D01*
X143117000Y-107245000D02*
X149883000Y-107245000D01*
X143345000Y-107105000D02*
X149655000Y-107105000D01*
X143597000Y-106965000D02*
X149403000Y-106965000D01*
X143881000Y-106825000D02*
X149119000Y-106825000D01*
X144209000Y-106685000D02*
X148791000Y-106685000D01*
X144603000Y-106545000D02*
X148397000Y-106545000D01*
X145117000Y-106405000D02*
X147883000Y-106405000D01*
X146067000Y-106265000D02*
X146933000Y-106265000D01*
X147650000Y-110000000D02*
G75*
G03X147650000Y-110000000I-1150000J0D01*
G01*
X152787500Y-112500000D02*
G75*
G03X152787500Y-112500000I-6287500J0D01*
G01*
X156650000Y-105450000D02*
X155100000Y-105450000D01*
X155100000Y-102350000D02*
X156650000Y-102350000D01*
X156650000Y-102350000D02*
X156650000Y-105450000D01*
X153830000Y-102630000D02*
X153830000Y-105170000D01*
X129450000Y-89675000D02*
X134650000Y-89675000D01*
X134650000Y-93325000D02*
X129450000Y-93325000D01*
X126675000Y-85600000D02*
X126675000Y-80400000D01*
X130325000Y-80400000D02*
X130325000Y-85600000D01*
X134400000Y-85175000D02*
X139600000Y-85175000D01*
X139600000Y-88825000D02*
X134400000Y-88825000D01*
X156650000Y-108950000D02*
X155100000Y-108950000D01*
X155100000Y-105850000D02*
X156650000Y-105850000D01*
X156650000Y-105850000D02*
X156650000Y-108950000D01*
X153830000Y-106130000D02*
X153830000Y-108670000D01*
X155150000Y-114950000D02*
X156700000Y-114950000D01*
X156700000Y-118050000D02*
X155150000Y-118050000D01*
X155150000Y-118050000D02*
X155150000Y-114950000D01*
X157970000Y-117770000D02*
X157970000Y-115230000D01*
X160150000Y-107250000D02*
X158600000Y-107250000D01*
X158600000Y-104150000D02*
X160150000Y-104150000D01*
X160150000Y-104150000D02*
X160150000Y-107250000D01*
X157330000Y-104430000D02*
X157330000Y-106970000D01*
X159850000Y-95050000D02*
X158300000Y-95050000D01*
X158300000Y-91950000D02*
X159850000Y-91950000D01*
X159850000Y-91950000D02*
X159850000Y-95050000D01*
X157030000Y-92230000D02*
X157030000Y-94770000D01*
X158670000Y-114940000D02*
X160220000Y-114940000D01*
X160220000Y-118040000D02*
X158670000Y-118040000D01*
X158670000Y-118040000D02*
X158670000Y-114940000D01*
X161490000Y-117760000D02*
X161490000Y-115220000D01*
X156250000Y-96850000D02*
X154700000Y-96850000D01*
X154700000Y-93750000D02*
X156250000Y-93750000D01*
X156250000Y-93750000D02*
X156250000Y-96850000D01*
X153430000Y-94030000D02*
X153430000Y-96570000D01*
X156250000Y-93350000D02*
X154700000Y-93350000D01*
X154700000Y-90250000D02*
X156250000Y-90250000D01*
X156250000Y-90250000D02*
X156250000Y-93350000D01*
X153430000Y-90530000D02*
X153430000Y-93070000D01*
X129900000Y-98175000D02*
X135100000Y-98175000D01*
X135100000Y-101825000D02*
X129900000Y-101825000D01*
X123351000Y-116175000D02*
X129649000Y-116175000D01*
X123357000Y-116035000D02*
X129643000Y-116035000D01*
X123370000Y-115895000D02*
X126054000Y-115895000D01*
X126946000Y-115895000D02*
X129630000Y-115895000D01*
X123389000Y-115755000D02*
X125844000Y-115755000D01*
X127156000Y-115755000D02*
X129611000Y-115755000D01*
X123415000Y-115615000D02*
X125711000Y-115615000D01*
X127289000Y-115615000D02*
X129585000Y-115615000D01*
X123447000Y-115475000D02*
X125620000Y-115475000D01*
X127380000Y-115475000D02*
X129553000Y-115475000D01*
X123486000Y-115335000D02*
X125558000Y-115335000D01*
X127442000Y-115335000D02*
X129514000Y-115335000D01*
X123532000Y-115195000D02*
X125519000Y-115195000D01*
X127481000Y-115195000D02*
X129468000Y-115195000D01*
X123585000Y-115055000D02*
X125502000Y-115055000D01*
X127498000Y-115055000D02*
X129415000Y-115055000D01*
X123647000Y-114915000D02*
X125504000Y-114915000D01*
X127496000Y-114915000D02*
X129353000Y-114915000D01*
X123717000Y-114775000D02*
X125526000Y-114775000D01*
X127474000Y-114775000D02*
X129283000Y-114775000D01*
X123796000Y-114635000D02*
X125569000Y-114635000D01*
X127431000Y-114635000D02*
X129204000Y-114635000D01*
X123884000Y-114495000D02*
X125637000Y-114495000D01*
X127363000Y-114495000D02*
X129116000Y-114495000D01*
X123984000Y-114355000D02*
X125736000Y-114355000D01*
X127264000Y-114355000D02*
X129016000Y-114355000D01*
X124096000Y-114215000D02*
X125881000Y-114215000D01*
X127119000Y-114215000D02*
X128904000Y-114215000D01*
X124221000Y-114075000D02*
X126120000Y-114075000D01*
X126880000Y-114075000D02*
X128779000Y-114075000D01*
X124364000Y-113935000D02*
X128636000Y-113935000D01*
X124526000Y-113795000D02*
X128474000Y-113795000D01*
X124714000Y-113655000D02*
X128286000Y-113655000D01*
X124937000Y-113515000D02*
X128063000Y-113515000D01*
X125213000Y-113375000D02*
X127787000Y-113375000D01*
X125588000Y-113235000D02*
X127412000Y-113235000D01*
X127500000Y-115000000D02*
G75*
G03X127500000Y-115000000I-1000000J0D01*
G01*
X129687500Y-116250000D02*
G75*
G03X129687500Y-116250000I-3187500J0D01*
G01*
X105000000Y-111425000D02*
X107000000Y-111425000D01*
X107000000Y-113575000D02*
X105000000Y-113575000D01*
X112075000Y-107500000D02*
X112075000Y-109500000D01*
X109925000Y-109500000D02*
X109925000Y-107500000D01*
X112500000Y-94750000D02*
X119500000Y-94750000D01*
X119500000Y-94750000D02*
X119500000Y-98250000D01*
X119500000Y-98250000D02*
X112500000Y-98250000D01*
X112500000Y-98250000D02*
X112500000Y-94750000D01*
X104900000Y-92125000D02*
X106100000Y-92125000D01*
X106100000Y-93875000D02*
X104900000Y-93875000D01*
X105500000Y-99250000D02*
X98500000Y-99250000D01*
X98500000Y-99250000D02*
X98500000Y-95750000D01*
X98500000Y-95750000D02*
X105500000Y-95750000D01*
X105500000Y-95750000D02*
X105500000Y-99250000D01*
X110100000Y-103875000D02*
X108900000Y-103875000D01*
X108900000Y-102125000D02*
X110100000Y-102125000D01*
X103425000Y-87500000D02*
X103425000Y-85500000D01*
X105575000Y-85500000D02*
X105575000Y-87500000D01*
X116425000Y-74251000D02*
X116425000Y-80549000D01*
X116565000Y-74257000D02*
X116565000Y-80543000D01*
X116705000Y-74270000D02*
X116705000Y-76954000D01*
X116705000Y-77846000D02*
X116705000Y-80530000D01*
X116845000Y-74289000D02*
X116845000Y-76744000D01*
X116845000Y-78056000D02*
X116845000Y-80511000D01*
X116985000Y-74315000D02*
X116985000Y-76611000D01*
X116985000Y-78189000D02*
X116985000Y-80485000D01*
X117125000Y-74347000D02*
X117125000Y-76520000D01*
X117125000Y-78280000D02*
X117125000Y-80453000D01*
X117265000Y-74386000D02*
X117265000Y-76458000D01*
X117265000Y-78342000D02*
X117265000Y-80414000D01*
X117405000Y-74432000D02*
X117405000Y-76419000D01*
X117405000Y-78381000D02*
X117405000Y-80368000D01*
X117545000Y-74485000D02*
X117545000Y-76402000D01*
X117545000Y-78398000D02*
X117545000Y-80315000D01*
X117685000Y-74547000D02*
X117685000Y-76404000D01*
X117685000Y-78396000D02*
X117685000Y-80253000D01*
X117825000Y-74617000D02*
X117825000Y-76426000D01*
X117825000Y-78374000D02*
X117825000Y-80183000D01*
X117965000Y-74696000D02*
X117965000Y-76469000D01*
X117965000Y-78331000D02*
X117965000Y-80104000D01*
X118105000Y-74784000D02*
X118105000Y-76537000D01*
X118105000Y-78263000D02*
X118105000Y-80016000D01*
X118245000Y-74884000D02*
X118245000Y-76636000D01*
X118245000Y-78164000D02*
X118245000Y-79916000D01*
X118385000Y-74996000D02*
X118385000Y-76781000D01*
X118385000Y-78019000D02*
X118385000Y-79804000D01*
X118525000Y-75121000D02*
X118525000Y-77020000D01*
X118525000Y-77780000D02*
X118525000Y-79679000D01*
X118665000Y-75264000D02*
X118665000Y-79536000D01*
X118805000Y-75426000D02*
X118805000Y-79374000D01*
X118945000Y-75614000D02*
X118945000Y-79186000D01*
X119085000Y-75837000D02*
X119085000Y-78963000D01*
X119225000Y-76113000D02*
X119225000Y-78687000D01*
X119365000Y-76488000D02*
X119365000Y-78312000D01*
X118600000Y-77400000D02*
G75*
G03X118600000Y-77400000I-1000000J0D01*
G01*
X119537500Y-77400000D02*
G75*
G03X119537500Y-77400000I-3187500J0D01*
G01*
X111000000Y-85075000D02*
X109000000Y-85075000D01*
X109000000Y-82925000D02*
X111000000Y-82925000D01*
X134175000Y-83649000D02*
X134175000Y-77351000D01*
X134035000Y-83643000D02*
X134035000Y-77357000D01*
X133895000Y-83630000D02*
X133895000Y-80946000D01*
X133895000Y-80054000D02*
X133895000Y-77370000D01*
X133755000Y-83611000D02*
X133755000Y-81156000D01*
X133755000Y-79844000D02*
X133755000Y-77389000D01*
X133615000Y-83585000D02*
X133615000Y-81289000D01*
X133615000Y-79711000D02*
X133615000Y-77415000D01*
X133475000Y-83553000D02*
X133475000Y-81380000D01*
X133475000Y-79620000D02*
X133475000Y-77447000D01*
X133335000Y-83514000D02*
X133335000Y-81442000D01*
X133335000Y-79558000D02*
X133335000Y-77486000D01*
X133195000Y-83468000D02*
X133195000Y-81481000D01*
X133195000Y-79519000D02*
X133195000Y-77532000D01*
X133055000Y-83415000D02*
X133055000Y-81498000D01*
X133055000Y-79502000D02*
X133055000Y-77585000D01*
X132915000Y-83353000D02*
X132915000Y-81496000D01*
X132915000Y-79504000D02*
X132915000Y-77647000D01*
X132775000Y-83283000D02*
X132775000Y-81474000D01*
X132775000Y-79526000D02*
X132775000Y-77717000D01*
X132635000Y-83204000D02*
X132635000Y-81431000D01*
X132635000Y-79569000D02*
X132635000Y-77796000D01*
X132495000Y-83116000D02*
X132495000Y-81363000D01*
X132495000Y-79637000D02*
X132495000Y-77884000D01*
X132355000Y-83016000D02*
X132355000Y-81264000D01*
X132355000Y-79736000D02*
X132355000Y-77984000D01*
X132215000Y-82904000D02*
X132215000Y-81119000D01*
X132215000Y-79881000D02*
X132215000Y-78096000D01*
X132075000Y-82779000D02*
X132075000Y-80880000D01*
X132075000Y-80120000D02*
X132075000Y-78221000D01*
X131935000Y-82636000D02*
X131935000Y-78364000D01*
X131795000Y-82474000D02*
X131795000Y-78526000D01*
X131655000Y-82286000D02*
X131655000Y-78714000D01*
X131515000Y-82063000D02*
X131515000Y-78937000D01*
X131375000Y-81787000D02*
X131375000Y-79213000D01*
X131235000Y-81412000D02*
X131235000Y-79588000D01*
X134000000Y-80500000D02*
G75*
G03X134000000Y-80500000I-1000000J0D01*
G01*
X137437500Y-80500000D02*
G75*
G03X137437500Y-80500000I-3187500J0D01*
G01*
X120675000Y-114649000D02*
X120675000Y-108351000D01*
X120535000Y-114643000D02*
X120535000Y-108357000D01*
X120395000Y-114630000D02*
X120395000Y-111946000D01*
X120395000Y-111054000D02*
X120395000Y-108370000D01*
X120255000Y-114611000D02*
X120255000Y-112156000D01*
X120255000Y-110844000D02*
X120255000Y-108389000D01*
X120115000Y-114585000D02*
X120115000Y-112289000D01*
X120115000Y-110711000D02*
X120115000Y-108415000D01*
X119975000Y-114553000D02*
X119975000Y-112380000D01*
X119975000Y-110620000D02*
X119975000Y-108447000D01*
X119835000Y-114514000D02*
X119835000Y-112442000D01*
X119835000Y-110558000D02*
X119835000Y-108486000D01*
X119695000Y-114468000D02*
X119695000Y-112481000D01*
X119695000Y-110519000D02*
X119695000Y-108532000D01*
X119555000Y-114415000D02*
X119555000Y-112498000D01*
X119555000Y-110502000D02*
X119555000Y-108585000D01*
X119415000Y-114353000D02*
X119415000Y-112496000D01*
X119415000Y-110504000D02*
X119415000Y-108647000D01*
X119275000Y-114283000D02*
X119275000Y-112474000D01*
X119275000Y-110526000D02*
X119275000Y-108717000D01*
X119135000Y-114204000D02*
X119135000Y-112431000D01*
X119135000Y-110569000D02*
X119135000Y-108796000D01*
X118995000Y-114116000D02*
X118995000Y-112363000D01*
X118995000Y-110637000D02*
X118995000Y-108884000D01*
X118855000Y-114016000D02*
X118855000Y-112264000D01*
X118855000Y-110736000D02*
X118855000Y-108984000D01*
X118715000Y-113904000D02*
X118715000Y-112119000D01*
X118715000Y-110881000D02*
X118715000Y-109096000D01*
X118575000Y-113779000D02*
X118575000Y-111880000D01*
X118575000Y-111120000D02*
X118575000Y-109221000D01*
X118435000Y-113636000D02*
X118435000Y-109364000D01*
X118295000Y-113474000D02*
X118295000Y-109526000D01*
X118155000Y-113286000D02*
X118155000Y-109714000D01*
X118015000Y-113063000D02*
X118015000Y-109937000D01*
X117875000Y-112787000D02*
X117875000Y-110213000D01*
X117735000Y-112412000D02*
X117735000Y-110588000D01*
X120500000Y-111500000D02*
G75*
G03X120500000Y-111500000I-1000000J0D01*
G01*
X123937500Y-111500000D02*
G75*
G03X123937500Y-111500000I-3187500J0D01*
G01*
X121762000Y-86828180D02*
X120238000Y-86828180D01*
X119857000Y-86955180D02*
X122143000Y-86955180D01*
X122397000Y-87082180D02*
X119603000Y-87082180D01*
X119349000Y-87209180D02*
X122651000Y-87209180D01*
X122778000Y-87336180D02*
X119222000Y-87336180D01*
X124048000Y-89749180D02*
G75*
G03X124048000Y-89749180I-3048000J0D01*
G01*
X124302000Y-86447180D02*
X117698000Y-86447180D01*
X117698000Y-86447180D02*
X117698000Y-92289180D01*
X117698000Y-92289180D02*
X118460000Y-93051180D01*
X118460000Y-93051180D02*
X123540000Y-93051180D01*
X123540000Y-93051180D02*
X124302000Y-92289180D01*
X124302000Y-92289180D02*
X124302000Y-86447180D01*
X121000000Y-91908180D02*
X121000000Y-91146180D01*
X121381000Y-91527180D02*
X120619000Y-91527180D01*
X122762000Y-99828180D02*
X121238000Y-99828180D01*
X120857000Y-99955180D02*
X123143000Y-99955180D01*
X123397000Y-100082180D02*
X120603000Y-100082180D01*
X120349000Y-100209180D02*
X123651000Y-100209180D01*
X123778000Y-100336180D02*
X120222000Y-100336180D01*
X125048000Y-102749180D02*
G75*
G03X125048000Y-102749180I-3048000J0D01*
G01*
X125302000Y-99447180D02*
X118698000Y-99447180D01*
X118698000Y-99447180D02*
X118698000Y-105289180D01*
X118698000Y-105289180D02*
X119460000Y-106051180D01*
X119460000Y-106051180D02*
X124540000Y-106051180D01*
X124540000Y-106051180D02*
X125302000Y-105289180D01*
X125302000Y-105289180D02*
X125302000Y-99447180D01*
X122000000Y-104908180D02*
X122000000Y-104146180D01*
X122381000Y-104527180D02*
X121619000Y-104527180D01*
X111800000Y-91250000D02*
X111800000Y-89750000D01*
X111800000Y-89750000D02*
X110900000Y-90500000D01*
X110900000Y-90500000D02*
X111750000Y-91250000D01*
X110900000Y-87250000D02*
X110900000Y-88750000D01*
X110900000Y-88750000D02*
X111800000Y-88000000D01*
X111800000Y-88000000D02*
X110950000Y-87250000D01*
X104550000Y-105250000D02*
X104550000Y-106750000D01*
X104550000Y-106750000D02*
X105450000Y-106000000D01*
X105450000Y-106000000D02*
X104600000Y-105250000D01*
X105450000Y-109750000D02*
X105450000Y-108250000D01*
X105450000Y-108250000D02*
X104550000Y-109000000D01*
X104550000Y-109000000D02*
X105400000Y-109750000D01*
X148225000Y-91800000D02*
X148225000Y-89800000D01*
X150375000Y-89800000D02*
X150375000Y-91800000D01*
X149200000Y-101675000D02*
X147200000Y-101675000D01*
X147200000Y-99525000D02*
X149200000Y-99525000D01*
X139875000Y-104050000D02*
X139875000Y-105250000D01*
X138125000Y-105250000D02*
X138125000Y-104050000D01*
X141300000Y-75975000D02*
X146500000Y-75975000D01*
X146500000Y-79625000D02*
X141300000Y-79625000D01*
X106825000Y-80900000D02*
X106825000Y-79700000D01*
X108575000Y-79700000D02*
X108575000Y-80900000D01*
X116700000Y-101775000D02*
X115500000Y-101775000D01*
X115500000Y-100025000D02*
X116700000Y-100025000D01*
X157820640Y-112830000D02*
X158370640Y-112380000D01*
X158370640Y-112380000D02*
X158370640Y-113280000D01*
X158370640Y-113280000D02*
X157820640Y-112830000D01*
X157820640Y-112280000D02*
X157820640Y-113380000D01*
X156271500Y-114580060D02*
X156271500Y-114229540D01*
X156271500Y-111079940D02*
X156271500Y-111430460D01*
X160321080Y-114580060D02*
X160321080Y-114229540D01*
X155820200Y-114580060D02*
X155820200Y-114229540D01*
X155820200Y-111079940D02*
X155820200Y-111430460D01*
X160321080Y-111079940D02*
X160321080Y-111430460D01*
X155820200Y-114580060D02*
X160321080Y-114580060D01*
X155820200Y-111079940D02*
X160321080Y-111079940D01*
X94166667Y-113151881D02*
X93833333Y-112675690D01*
X93595238Y-113151881D02*
X93595238Y-112151881D01*
X93976191Y-112151881D01*
X94071429Y-112199500D01*
X94119048Y-112247119D01*
X94166667Y-112342357D01*
X94166667Y-112485214D01*
X94119048Y-112580452D01*
X94071429Y-112628071D01*
X93976191Y-112675690D01*
X93595238Y-112675690D01*
X94595238Y-112628071D02*
X94928572Y-112628071D01*
X95071429Y-113151881D02*
X94595238Y-113151881D01*
X94595238Y-112151881D01*
X95071429Y-112151881D01*
X95833334Y-112628071D02*
X95500000Y-112628071D01*
X95500000Y-113151881D02*
X95500000Y-112151881D01*
X95976191Y-112151881D01*
X96500000Y-112151881D02*
X96500000Y-112389976D01*
X96261905Y-112294738D02*
X96500000Y-112389976D01*
X96738096Y-112294738D01*
X96357143Y-112580452D02*
X96500000Y-112389976D01*
X96642858Y-112580452D01*
X97261905Y-112151881D02*
X97261905Y-112389976D01*
X97023810Y-112294738D02*
X97261905Y-112389976D01*
X97500001Y-112294738D01*
X97119048Y-112580452D02*
X97261905Y-112389976D01*
X97404763Y-112580452D01*
X94166667Y-74951881D02*
X93833333Y-74475690D01*
X93595238Y-74951881D02*
X93595238Y-73951881D01*
X93976191Y-73951881D01*
X94071429Y-73999500D01*
X94119048Y-74047119D01*
X94166667Y-74142357D01*
X94166667Y-74285214D01*
X94119048Y-74380452D01*
X94071429Y-74428071D01*
X93976191Y-74475690D01*
X93595238Y-74475690D01*
X94595238Y-74428071D02*
X94928572Y-74428071D01*
X95071429Y-74951881D02*
X94595238Y-74951881D01*
X94595238Y-73951881D01*
X95071429Y-73951881D01*
X95833334Y-74428071D02*
X95500000Y-74428071D01*
X95500000Y-74951881D02*
X95500000Y-73951881D01*
X95976191Y-73951881D01*
X96500000Y-73951881D02*
X96500000Y-74189976D01*
X96261905Y-74094738D02*
X96500000Y-74189976D01*
X96738096Y-74094738D01*
X96357143Y-74380452D02*
X96500000Y-74189976D01*
X96642858Y-74380452D01*
X97261905Y-73951881D02*
X97261905Y-74189976D01*
X97023810Y-74094738D02*
X97261905Y-74189976D01*
X97500001Y-74094738D01*
X97119048Y-74380452D02*
X97261905Y-74189976D01*
X97404763Y-74380452D01*
X139257143Y-112666666D02*
X139304762Y-112714285D01*
X139352381Y-112857142D01*
X139352381Y-112952380D01*
X139304762Y-113095238D01*
X139209524Y-113190476D01*
X139114286Y-113238095D01*
X138923810Y-113285714D01*
X138780952Y-113285714D01*
X138590476Y-113238095D01*
X138495238Y-113190476D01*
X138400000Y-113095238D01*
X138352381Y-112952380D01*
X138352381Y-112857142D01*
X138400000Y-112714285D01*
X138447619Y-112666666D01*
X138685714Y-111809523D02*
X139352381Y-111809523D01*
X138304762Y-112047619D02*
X139019048Y-112285714D01*
X139019048Y-111666666D01*
X153352381Y-104600000D02*
X153352381Y-105076191D01*
X152352381Y-105076191D01*
X153447619Y-104504762D02*
X153447619Y-103742857D01*
X152352381Y-103314286D02*
X152352381Y-103123809D01*
X152400000Y-103028571D01*
X152495238Y-102933333D01*
X152685714Y-102885714D01*
X153019048Y-102885714D01*
X153209524Y-102933333D01*
X153304762Y-103028571D01*
X153352381Y-103123809D01*
X153352381Y-103314286D01*
X153304762Y-103409524D01*
X153209524Y-103504762D01*
X153019048Y-103552381D01*
X152685714Y-103552381D01*
X152495238Y-103504762D01*
X152400000Y-103409524D01*
X152352381Y-103314286D01*
X152352381Y-102457143D02*
X153161905Y-102457143D01*
X153257143Y-102409524D01*
X153304762Y-102361905D01*
X153352381Y-102266667D01*
X153352381Y-102076190D01*
X153304762Y-101980952D01*
X153257143Y-101933333D01*
X153161905Y-101885714D01*
X152352381Y-101885714D01*
X152352381Y-101552381D02*
X152352381Y-100980952D01*
X153352381Y-101266667D02*
X152352381Y-101266667D01*
X132533334Y-94652381D02*
X132200000Y-94176190D01*
X131961905Y-94652381D02*
X131961905Y-93652381D01*
X132342858Y-93652381D01*
X132438096Y-93700000D01*
X132485715Y-93747619D01*
X132533334Y-93842857D01*
X132533334Y-93985714D01*
X132485715Y-94080952D01*
X132438096Y-94128571D01*
X132342858Y-94176190D01*
X131961905Y-94176190D01*
X132866667Y-93652381D02*
X133485715Y-93652381D01*
X133152381Y-94033333D01*
X133295239Y-94033333D01*
X133390477Y-94080952D01*
X133438096Y-94128571D01*
X133485715Y-94223810D01*
X133485715Y-94461905D01*
X133438096Y-94557143D01*
X133390477Y-94604762D01*
X133295239Y-94652381D01*
X133009524Y-94652381D01*
X132914286Y-94604762D01*
X132866667Y-94557143D01*
X128952381Y-83066666D02*
X128476190Y-83400000D01*
X128952381Y-83638095D02*
X127952381Y-83638095D01*
X127952381Y-83257142D01*
X128000000Y-83161904D01*
X128047619Y-83114285D01*
X128142857Y-83066666D01*
X128285714Y-83066666D01*
X128380952Y-83114285D01*
X128428571Y-83161904D01*
X128476190Y-83257142D01*
X128476190Y-83638095D01*
X128952381Y-82114285D02*
X128952381Y-82685714D01*
X128952381Y-82400000D02*
X127952381Y-82400000D01*
X128095238Y-82495238D01*
X128190476Y-82590476D01*
X128238095Y-82685714D01*
X137333334Y-87352381D02*
X137000000Y-86876190D01*
X136761905Y-87352381D02*
X136761905Y-86352381D01*
X137142858Y-86352381D01*
X137238096Y-86400000D01*
X137285715Y-86447619D01*
X137333334Y-86542857D01*
X137333334Y-86685714D01*
X137285715Y-86780952D01*
X137238096Y-86828571D01*
X137142858Y-86876190D01*
X136761905Y-86876190D01*
X137904762Y-86780952D02*
X137809524Y-86733333D01*
X137761905Y-86685714D01*
X137714286Y-86590476D01*
X137714286Y-86542857D01*
X137761905Y-86447619D01*
X137809524Y-86400000D01*
X137904762Y-86352381D01*
X138095239Y-86352381D01*
X138190477Y-86400000D01*
X138238096Y-86447619D01*
X138285715Y-86542857D01*
X138285715Y-86590476D01*
X138238096Y-86685714D01*
X138190477Y-86733333D01*
X138095239Y-86780952D01*
X137904762Y-86780952D01*
X137809524Y-86828571D01*
X137761905Y-86876190D01*
X137714286Y-86971429D01*
X137714286Y-87161905D01*
X137761905Y-87257143D01*
X137809524Y-87304762D01*
X137904762Y-87352381D01*
X138095239Y-87352381D01*
X138190477Y-87304762D01*
X138238096Y-87257143D01*
X138285715Y-87161905D01*
X138285715Y-86971429D01*
X138238096Y-86876190D01*
X138190477Y-86828571D01*
X138095239Y-86780952D01*
X157700000Y-109552381D02*
X157366666Y-109076190D01*
X157128571Y-109552381D02*
X157128571Y-108552381D01*
X157509524Y-108552381D01*
X157604762Y-108600000D01*
X157652381Y-108647619D01*
X157700000Y-108742857D01*
X157700000Y-108885714D01*
X157652381Y-108980952D01*
X157604762Y-109028571D01*
X157509524Y-109076190D01*
X157128571Y-109076190D01*
X157890476Y-109647619D02*
X158652381Y-109647619D01*
X159080952Y-108552381D02*
X159271429Y-108552381D01*
X159366667Y-108600000D01*
X159461905Y-108695238D01*
X159509524Y-108885714D01*
X159509524Y-109219048D01*
X159461905Y-109409524D01*
X159366667Y-109504762D01*
X159271429Y-109552381D01*
X159080952Y-109552381D01*
X158985714Y-109504762D01*
X158890476Y-109409524D01*
X158842857Y-109219048D01*
X158842857Y-108885714D01*
X158890476Y-108695238D01*
X158985714Y-108600000D01*
X159080952Y-108552381D01*
X159938095Y-108552381D02*
X159938095Y-109361905D01*
X159985714Y-109457143D01*
X160033333Y-109504762D01*
X160128571Y-109552381D01*
X160319048Y-109552381D01*
X160414286Y-109504762D01*
X160461905Y-109457143D01*
X160509524Y-109361905D01*
X160509524Y-108552381D01*
X160842857Y-108552381D02*
X161414286Y-108552381D01*
X161128571Y-109552381D02*
X161128571Y-108552381D01*
X150666667Y-116500000D02*
X150571429Y-116452381D01*
X150428572Y-116452381D01*
X150285714Y-116500000D01*
X150190476Y-116595238D01*
X150142857Y-116690476D01*
X150095238Y-116880952D01*
X150095238Y-117023810D01*
X150142857Y-117214286D01*
X150190476Y-117309524D01*
X150285714Y-117404762D01*
X150428572Y-117452381D01*
X150523810Y-117452381D01*
X150666667Y-117404762D01*
X150714286Y-117357143D01*
X150714286Y-117023810D01*
X150523810Y-117023810D01*
X151142857Y-117452381D02*
X151142857Y-116452381D01*
X151714286Y-117452381D01*
X151714286Y-116452381D01*
X152190476Y-117452381D02*
X152190476Y-116452381D01*
X152428571Y-116452381D01*
X152571429Y-116500000D01*
X152666667Y-116595238D01*
X152714286Y-116690476D01*
X152761905Y-116880952D01*
X152761905Y-117023810D01*
X152714286Y-117214286D01*
X152666667Y-117309524D01*
X152571429Y-117404762D01*
X152428571Y-117452381D01*
X152190476Y-117452381D01*
X152952381Y-117547619D02*
X153714286Y-117547619D01*
X153952381Y-117452381D02*
X153952381Y-116785714D01*
X153952381Y-116452381D02*
X153904762Y-116500000D01*
X153952381Y-116547619D01*
X154000000Y-116500000D01*
X153952381Y-116452381D01*
X153952381Y-116547619D01*
X154428571Y-116785714D02*
X154428571Y-117452381D01*
X154428571Y-116880952D02*
X154476190Y-116833333D01*
X154571428Y-116785714D01*
X154714286Y-116785714D01*
X154809524Y-116833333D01*
X154857143Y-116928571D01*
X154857143Y-117452381D01*
X161600000Y-107533333D02*
X161552381Y-107628571D01*
X161552381Y-107771428D01*
X161600000Y-107914286D01*
X161695238Y-108009524D01*
X161790476Y-108057143D01*
X161980952Y-108104762D01*
X162123810Y-108104762D01*
X162314286Y-108057143D01*
X162409524Y-108009524D01*
X162504762Y-107914286D01*
X162552381Y-107771428D01*
X162552381Y-107676190D01*
X162504762Y-107533333D01*
X162457143Y-107485714D01*
X162123810Y-107485714D01*
X162123810Y-107676190D01*
X162552381Y-107057143D02*
X161552381Y-107057143D01*
X162552381Y-106485714D01*
X161552381Y-106485714D01*
X162552381Y-106009524D02*
X161552381Y-106009524D01*
X161552381Y-105771429D01*
X161600000Y-105628571D01*
X161695238Y-105533333D01*
X161790476Y-105485714D01*
X161980952Y-105438095D01*
X162123810Y-105438095D01*
X162314286Y-105485714D01*
X162409524Y-105533333D01*
X162504762Y-105628571D01*
X162552381Y-105771429D01*
X162552381Y-106009524D01*
X162647619Y-105247619D02*
X162647619Y-104485714D01*
X162552381Y-104247619D02*
X161885714Y-104247619D01*
X161552381Y-104247619D02*
X161600000Y-104295238D01*
X161647619Y-104247619D01*
X161600000Y-104200000D01*
X161552381Y-104247619D01*
X161647619Y-104247619D01*
X161885714Y-103771429D02*
X162552381Y-103771429D01*
X161980952Y-103771429D02*
X161933333Y-103723810D01*
X161885714Y-103628572D01*
X161885714Y-103485714D01*
X161933333Y-103390476D01*
X162028571Y-103342857D01*
X162552381Y-103342857D01*
X158869048Y-114952381D02*
X158297619Y-114952381D01*
X158583333Y-114952381D02*
X158583333Y-113952381D01*
X158488095Y-114095238D01*
X158392857Y-114190476D01*
X158297619Y-114238095D01*
X159773810Y-113952381D02*
X159297619Y-113952381D01*
X159250000Y-114428571D01*
X159297619Y-114380952D01*
X159392857Y-114333333D01*
X159630953Y-114333333D01*
X159726191Y-114380952D01*
X159773810Y-114428571D01*
X159821429Y-114523810D01*
X159821429Y-114761905D01*
X159773810Y-114857143D01*
X159726191Y-114904762D01*
X159630953Y-114952381D01*
X159392857Y-114952381D01*
X159297619Y-114904762D01*
X159250000Y-114857143D01*
X160107143Y-113952381D02*
X160440476Y-114952381D01*
X160773810Y-113952381D01*
X161107143Y-114952381D02*
X161107143Y-113952381D01*
X161583333Y-114952381D02*
X161583333Y-113952381D01*
X162154762Y-114952381D01*
X162154762Y-113952381D01*
X152702381Y-96583333D02*
X152226190Y-96916667D01*
X152702381Y-97154762D02*
X151702381Y-97154762D01*
X151702381Y-96773809D01*
X151750000Y-96678571D01*
X151797619Y-96630952D01*
X151892857Y-96583333D01*
X152035714Y-96583333D01*
X152130952Y-96630952D01*
X152178571Y-96678571D01*
X152226190Y-96773809D01*
X152226190Y-97154762D01*
X152797619Y-96392857D02*
X152797619Y-95630952D01*
X152702381Y-95392857D02*
X151702381Y-95392857D01*
X152702381Y-94916667D02*
X151702381Y-94916667D01*
X152702381Y-94345238D01*
X151702381Y-94345238D01*
X154166667Y-88952381D02*
X153690476Y-88952381D01*
X153690476Y-87952381D01*
X154261905Y-89047619D02*
X155023810Y-89047619D01*
X155261905Y-88952381D02*
X155261905Y-87952381D01*
X155738095Y-88952381D02*
X155738095Y-87952381D01*
X156309524Y-88952381D01*
X156309524Y-87952381D01*
X131702381Y-100416666D02*
X131226190Y-100750000D01*
X131702381Y-100988095D02*
X130702381Y-100988095D01*
X130702381Y-100607142D01*
X130750000Y-100511904D01*
X130797619Y-100464285D01*
X130892857Y-100416666D01*
X131035714Y-100416666D01*
X131130952Y-100464285D01*
X131178571Y-100511904D01*
X131226190Y-100607142D01*
X131226190Y-100988095D01*
X130702381Y-99559523D02*
X130702381Y-99750000D01*
X130750000Y-99845238D01*
X130797619Y-99892857D01*
X130940476Y-99988095D01*
X131130952Y-100035714D01*
X131511905Y-100035714D01*
X131607143Y-99988095D01*
X131654762Y-99940476D01*
X131702381Y-99845238D01*
X131702381Y-99654761D01*
X131654762Y-99559523D01*
X131607143Y-99511904D01*
X131511905Y-99464285D01*
X131273810Y-99464285D01*
X131178571Y-99511904D01*
X131130952Y-99559523D01*
X131083333Y-99654761D01*
X131083333Y-99845238D01*
X131130952Y-99940476D01*
X131178571Y-99988095D01*
X131273810Y-100035714D01*
X128857143Y-112266666D02*
X128904762Y-112314285D01*
X128952381Y-112457142D01*
X128952381Y-112552380D01*
X128904762Y-112695238D01*
X128809524Y-112790476D01*
X128714286Y-112838095D01*
X128523810Y-112885714D01*
X128380952Y-112885714D01*
X128190476Y-112838095D01*
X128095238Y-112790476D01*
X128000000Y-112695238D01*
X127952381Y-112552380D01*
X127952381Y-112457142D01*
X128000000Y-112314285D01*
X128047619Y-112266666D01*
X128952381Y-111790476D02*
X128952381Y-111600000D01*
X128904762Y-111504761D01*
X128857143Y-111457142D01*
X128714286Y-111361904D01*
X128523810Y-111314285D01*
X128142857Y-111314285D01*
X128047619Y-111361904D01*
X128000000Y-111409523D01*
X127952381Y-111504761D01*
X127952381Y-111695238D01*
X128000000Y-111790476D01*
X128047619Y-111838095D01*
X128142857Y-111885714D01*
X128380952Y-111885714D01*
X128476190Y-111838095D01*
X128523810Y-111790476D01*
X128571429Y-111695238D01*
X128571429Y-111504761D01*
X128523810Y-111409523D01*
X128476190Y-111361904D01*
X128380952Y-111314285D01*
X108083334Y-114702381D02*
X107750000Y-114226190D01*
X107511905Y-114702381D02*
X107511905Y-113702381D01*
X107892858Y-113702381D01*
X107988096Y-113750000D01*
X108035715Y-113797619D01*
X108083334Y-113892857D01*
X108083334Y-114035714D01*
X108035715Y-114130952D01*
X107988096Y-114178571D01*
X107892858Y-114226190D01*
X107511905Y-114226190D01*
X108559524Y-114702381D02*
X108750000Y-114702381D01*
X108845239Y-114654762D01*
X108892858Y-114607143D01*
X108988096Y-114464286D01*
X109035715Y-114273810D01*
X109035715Y-113892857D01*
X108988096Y-113797619D01*
X108940477Y-113750000D01*
X108845239Y-113702381D01*
X108654762Y-113702381D01*
X108559524Y-113750000D01*
X108511905Y-113797619D01*
X108464286Y-113892857D01*
X108464286Y-114130952D01*
X108511905Y-114226190D01*
X108559524Y-114273810D01*
X108654762Y-114321429D01*
X108845239Y-114321429D01*
X108940477Y-114273810D01*
X108988096Y-114226190D01*
X109035715Y-114130952D01*
X110557143Y-108952381D02*
X110223809Y-108476190D01*
X109985714Y-108952381D02*
X109985714Y-107952381D01*
X110366667Y-107952381D01*
X110461905Y-108000000D01*
X110509524Y-108047619D01*
X110557143Y-108142857D01*
X110557143Y-108285714D01*
X110509524Y-108380952D01*
X110461905Y-108428571D01*
X110366667Y-108476190D01*
X109985714Y-108476190D01*
X111509524Y-108952381D02*
X110938095Y-108952381D01*
X111223809Y-108952381D02*
X111223809Y-107952381D01*
X111128571Y-108095238D01*
X111033333Y-108190476D01*
X110938095Y-108238095D01*
X112128571Y-107952381D02*
X112223810Y-107952381D01*
X112319048Y-108000000D01*
X112366667Y-108047619D01*
X112414286Y-108142857D01*
X112461905Y-108333333D01*
X112461905Y-108571429D01*
X112414286Y-108761905D01*
X112366667Y-108857143D01*
X112319048Y-108904762D01*
X112223810Y-108952381D01*
X112128571Y-108952381D01*
X112033333Y-108904762D01*
X111985714Y-108857143D01*
X111938095Y-108761905D01*
X111890476Y-108571429D01*
X111890476Y-108333333D01*
X111938095Y-108142857D01*
X111985714Y-108047619D01*
X112033333Y-108000000D01*
X112128571Y-107952381D01*
X145398095Y-97672381D02*
X145398095Y-98481905D01*
X145445714Y-98577143D01*
X145493333Y-98624762D01*
X145588571Y-98672381D01*
X145779048Y-98672381D01*
X145874286Y-98624762D01*
X145921905Y-98577143D01*
X145969524Y-98481905D01*
X145969524Y-97672381D01*
X146350476Y-97672381D02*
X146969524Y-97672381D01*
X146636190Y-98053333D01*
X146779048Y-98053333D01*
X146874286Y-98100952D01*
X146921905Y-98148571D01*
X146969524Y-98243810D01*
X146969524Y-98481905D01*
X146921905Y-98577143D01*
X146874286Y-98624762D01*
X146779048Y-98672381D01*
X146493333Y-98672381D01*
X146398095Y-98624762D01*
X146350476Y-98577143D01*
X115833334Y-93857143D02*
X115785715Y-93904762D01*
X115642858Y-93952381D01*
X115547620Y-93952381D01*
X115404762Y-93904762D01*
X115309524Y-93809524D01*
X115261905Y-93714286D01*
X115214286Y-93523810D01*
X115214286Y-93380952D01*
X115261905Y-93190476D01*
X115309524Y-93095238D01*
X115404762Y-93000000D01*
X115547620Y-92952381D01*
X115642858Y-92952381D01*
X115785715Y-93000000D01*
X115833334Y-93047619D01*
X116214286Y-93047619D02*
X116261905Y-93000000D01*
X116357143Y-92952381D01*
X116595239Y-92952381D01*
X116690477Y-93000000D01*
X116738096Y-93047619D01*
X116785715Y-93142857D01*
X116785715Y-93238095D01*
X116738096Y-93380952D01*
X116166667Y-93952381D01*
X116785715Y-93952381D01*
X105333334Y-95552381D02*
X105000000Y-95076190D01*
X104761905Y-95552381D02*
X104761905Y-94552381D01*
X105142858Y-94552381D01*
X105238096Y-94600000D01*
X105285715Y-94647619D01*
X105333334Y-94742857D01*
X105333334Y-94885714D01*
X105285715Y-94980952D01*
X105238096Y-95028571D01*
X105142858Y-95076190D01*
X104761905Y-95076190D01*
X105714286Y-94647619D02*
X105761905Y-94600000D01*
X105857143Y-94552381D01*
X106095239Y-94552381D01*
X106190477Y-94600000D01*
X106238096Y-94647619D01*
X106285715Y-94742857D01*
X106285715Y-94838095D01*
X106238096Y-94980952D01*
X105666667Y-95552381D01*
X106285715Y-95552381D01*
X101357143Y-98957143D02*
X101309524Y-99004762D01*
X101166667Y-99052381D01*
X101071429Y-99052381D01*
X100928571Y-99004762D01*
X100833333Y-98909524D01*
X100785714Y-98814286D01*
X100738095Y-98623810D01*
X100738095Y-98480952D01*
X100785714Y-98290476D01*
X100833333Y-98195238D01*
X100928571Y-98100000D01*
X101071429Y-98052381D01*
X101166667Y-98052381D01*
X101309524Y-98100000D01*
X101357143Y-98147619D01*
X102309524Y-99052381D02*
X101738095Y-99052381D01*
X102023809Y-99052381D02*
X102023809Y-98052381D01*
X101928571Y-98195238D01*
X101833333Y-98290476D01*
X101738095Y-98338095D01*
X102928571Y-98052381D02*
X103023810Y-98052381D01*
X103119048Y-98100000D01*
X103166667Y-98147619D01*
X103214286Y-98242857D01*
X103261905Y-98433333D01*
X103261905Y-98671429D01*
X103214286Y-98861905D01*
X103166667Y-98957143D01*
X103119048Y-99004762D01*
X103023810Y-99052381D01*
X102928571Y-99052381D01*
X102833333Y-99004762D01*
X102785714Y-98957143D01*
X102738095Y-98861905D01*
X102690476Y-98671429D01*
X102690476Y-98433333D01*
X102738095Y-98242857D01*
X102785714Y-98147619D01*
X102833333Y-98100000D01*
X102928571Y-98052381D01*
X109133334Y-102052381D02*
X108800000Y-101576190D01*
X108561905Y-102052381D02*
X108561905Y-101052381D01*
X108942858Y-101052381D01*
X109038096Y-101100000D01*
X109085715Y-101147619D01*
X109133334Y-101242857D01*
X109133334Y-101385714D01*
X109085715Y-101480952D01*
X109038096Y-101528571D01*
X108942858Y-101576190D01*
X108561905Y-101576190D01*
X109466667Y-101052381D02*
X110133334Y-101052381D01*
X109704762Y-102052381D01*
X104333334Y-86952381D02*
X104000000Y-86476190D01*
X103761905Y-86952381D02*
X103761905Y-85952381D01*
X104142858Y-85952381D01*
X104238096Y-86000000D01*
X104285715Y-86047619D01*
X104333334Y-86142857D01*
X104333334Y-86285714D01*
X104285715Y-86380952D01*
X104238096Y-86428571D01*
X104142858Y-86476190D01*
X103761905Y-86476190D01*
X105238096Y-85952381D02*
X104761905Y-85952381D01*
X104714286Y-86428571D01*
X104761905Y-86380952D01*
X104857143Y-86333333D01*
X105095239Y-86333333D01*
X105190477Y-86380952D01*
X105238096Y-86428571D01*
X105285715Y-86523810D01*
X105285715Y-86761905D01*
X105238096Y-86857143D01*
X105190477Y-86904762D01*
X105095239Y-86952381D01*
X104857143Y-86952381D01*
X104761905Y-86904762D01*
X104714286Y-86857143D01*
X116183334Y-73357143D02*
X116135715Y-73404762D01*
X115992858Y-73452381D01*
X115897620Y-73452381D01*
X115754762Y-73404762D01*
X115659524Y-73309524D01*
X115611905Y-73214286D01*
X115564286Y-73023810D01*
X115564286Y-72880952D01*
X115611905Y-72690476D01*
X115659524Y-72595238D01*
X115754762Y-72500000D01*
X115897620Y-72452381D01*
X115992858Y-72452381D01*
X116135715Y-72500000D01*
X116183334Y-72547619D01*
X117135715Y-73452381D02*
X116564286Y-73452381D01*
X116850000Y-73452381D02*
X116850000Y-72452381D01*
X116754762Y-72595238D01*
X116659524Y-72690476D01*
X116564286Y-72738095D01*
X110452381Y-84166666D02*
X109976190Y-84500000D01*
X110452381Y-84738095D02*
X109452381Y-84738095D01*
X109452381Y-84357142D01*
X109500000Y-84261904D01*
X109547619Y-84214285D01*
X109642857Y-84166666D01*
X109785714Y-84166666D01*
X109880952Y-84214285D01*
X109928571Y-84261904D01*
X109976190Y-84357142D01*
X109976190Y-84738095D01*
X109785714Y-83309523D02*
X110452381Y-83309523D01*
X109404762Y-83547619D02*
X110119048Y-83785714D01*
X110119048Y-83166666D01*
X139866667Y-89151881D02*
X139533333Y-88675690D01*
X139295238Y-89151881D02*
X139295238Y-88151881D01*
X139676191Y-88151881D01*
X139771429Y-88199500D01*
X139819048Y-88247119D01*
X139866667Y-88342357D01*
X139866667Y-88485214D01*
X139819048Y-88580452D01*
X139771429Y-88628071D01*
X139676191Y-88675690D01*
X139295238Y-88675690D01*
X140295238Y-88628071D02*
X140628572Y-88628071D01*
X140771429Y-89151881D02*
X140295238Y-89151881D01*
X140295238Y-88151881D01*
X140771429Y-88151881D01*
X141533334Y-88628071D02*
X141200000Y-88628071D01*
X141200000Y-89151881D02*
X141200000Y-88151881D01*
X141676191Y-88151881D01*
X142200000Y-88151881D02*
X142200000Y-88389976D01*
X141961905Y-88294738D02*
X142200000Y-88389976D01*
X142438096Y-88294738D01*
X142057143Y-88580452D02*
X142200000Y-88389976D01*
X142342858Y-88580452D01*
X142961905Y-88151881D02*
X142961905Y-88389976D01*
X142723810Y-88294738D02*
X142961905Y-88389976D01*
X143200001Y-88294738D01*
X142819048Y-88580452D02*
X142961905Y-88389976D01*
X143104763Y-88580452D01*
X133333334Y-82557143D02*
X133285715Y-82604762D01*
X133142858Y-82652381D01*
X133047620Y-82652381D01*
X132904762Y-82604762D01*
X132809524Y-82509524D01*
X132761905Y-82414286D01*
X132714286Y-82223810D01*
X132714286Y-82080952D01*
X132761905Y-81890476D01*
X132809524Y-81795238D01*
X132904762Y-81700000D01*
X133047620Y-81652381D01*
X133142858Y-81652381D01*
X133285715Y-81700000D01*
X133333334Y-81747619D01*
X134238096Y-81652381D02*
X133761905Y-81652381D01*
X133714286Y-82128571D01*
X133761905Y-82080952D01*
X133857143Y-82033333D01*
X134095239Y-82033333D01*
X134190477Y-82080952D01*
X134238096Y-82128571D01*
X134285715Y-82223810D01*
X134285715Y-82461905D01*
X134238096Y-82557143D01*
X134190477Y-82604762D01*
X134095239Y-82652381D01*
X133857143Y-82652381D01*
X133761905Y-82604762D01*
X133714286Y-82557143D01*
X125257143Y-111942857D02*
X125304762Y-111990476D01*
X125352381Y-112133333D01*
X125352381Y-112228571D01*
X125304762Y-112371429D01*
X125209524Y-112466667D01*
X125114286Y-112514286D01*
X124923810Y-112561905D01*
X124780952Y-112561905D01*
X124590476Y-112514286D01*
X124495238Y-112466667D01*
X124400000Y-112371429D01*
X124352381Y-112228571D01*
X124352381Y-112133333D01*
X124400000Y-111990476D01*
X124447619Y-111942857D01*
X125352381Y-110990476D02*
X125352381Y-111561905D01*
X125352381Y-111276191D02*
X124352381Y-111276191D01*
X124495238Y-111371429D01*
X124590476Y-111466667D01*
X124638095Y-111561905D01*
X124352381Y-110657143D02*
X124352381Y-110038095D01*
X124733333Y-110371429D01*
X124733333Y-110228571D01*
X124780952Y-110133333D01*
X124828571Y-110085714D01*
X124923810Y-110038095D01*
X125161905Y-110038095D01*
X125257143Y-110085714D01*
X125304762Y-110133333D01*
X125352381Y-110228571D01*
X125352381Y-110514286D01*
X125304762Y-110609524D01*
X125257143Y-110657143D01*
X125294143Y-89915846D02*
X125341762Y-89963465D01*
X125389381Y-90106322D01*
X125389381Y-90201560D01*
X125341762Y-90344418D01*
X125246524Y-90439656D01*
X125151286Y-90487275D01*
X124960810Y-90534894D01*
X124817952Y-90534894D01*
X124627476Y-90487275D01*
X124532238Y-90439656D01*
X124437000Y-90344418D01*
X124389381Y-90201560D01*
X124389381Y-90106322D01*
X124437000Y-89963465D01*
X124484619Y-89915846D01*
X124389381Y-89058703D02*
X124389381Y-89249180D01*
X124437000Y-89344418D01*
X124484619Y-89392037D01*
X124627476Y-89487275D01*
X124817952Y-89534894D01*
X125198905Y-89534894D01*
X125294143Y-89487275D01*
X125341762Y-89439656D01*
X125389381Y-89344418D01*
X125389381Y-89153941D01*
X125341762Y-89058703D01*
X125294143Y-89011084D01*
X125198905Y-88963465D01*
X124960810Y-88963465D01*
X124865571Y-89011084D01*
X124817952Y-89058703D01*
X124770333Y-89153941D01*
X124770333Y-89344418D01*
X124817952Y-89439656D01*
X124865571Y-89487275D01*
X124960810Y-89534894D01*
X124357143Y-103442857D02*
X124404762Y-103490476D01*
X124452381Y-103633333D01*
X124452381Y-103728571D01*
X124404762Y-103871429D01*
X124309524Y-103966667D01*
X124214286Y-104014286D01*
X124023810Y-104061905D01*
X123880952Y-104061905D01*
X123690476Y-104014286D01*
X123595238Y-103966667D01*
X123500000Y-103871429D01*
X123452381Y-103728571D01*
X123452381Y-103633333D01*
X123500000Y-103490476D01*
X123547619Y-103442857D01*
X124452381Y-102490476D02*
X124452381Y-103061905D01*
X124452381Y-102776191D02*
X123452381Y-102776191D01*
X123595238Y-102871429D01*
X123690476Y-102966667D01*
X123738095Y-103061905D01*
X123785714Y-101633333D02*
X124452381Y-101633333D01*
X123404762Y-101871429D02*
X124119048Y-102109524D01*
X124119048Y-101490476D01*
X110611905Y-93052381D02*
X110611905Y-92052381D01*
X110850000Y-92052381D01*
X110992858Y-92100000D01*
X111088096Y-92195238D01*
X111135715Y-92290476D01*
X111183334Y-92480952D01*
X111183334Y-92623810D01*
X111135715Y-92814286D01*
X111088096Y-92909524D01*
X110992858Y-93004762D01*
X110850000Y-93052381D01*
X110611905Y-93052381D01*
X112135715Y-93052381D02*
X111564286Y-93052381D01*
X111850000Y-93052381D02*
X111850000Y-92052381D01*
X111754762Y-92195238D01*
X111659524Y-92290476D01*
X111564286Y-92338095D01*
X110661905Y-87052381D02*
X110661905Y-86052381D01*
X110900000Y-86052381D01*
X111042858Y-86100000D01*
X111138096Y-86195238D01*
X111185715Y-86290476D01*
X111233334Y-86480952D01*
X111233334Y-86623810D01*
X111185715Y-86814286D01*
X111138096Y-86909524D01*
X111042858Y-87004762D01*
X110900000Y-87052381D01*
X110661905Y-87052381D01*
X111614286Y-86147619D02*
X111661905Y-86100000D01*
X111757143Y-86052381D01*
X111995239Y-86052381D01*
X112090477Y-86100000D01*
X112138096Y-86147619D01*
X112185715Y-86242857D01*
X112185715Y-86338095D01*
X112138096Y-86480952D01*
X111566667Y-87052381D01*
X112185715Y-87052381D01*
X104161905Y-105252381D02*
X104161905Y-104252381D01*
X104400000Y-104252381D01*
X104542858Y-104300000D01*
X104638096Y-104395238D01*
X104685715Y-104490476D01*
X104733334Y-104680952D01*
X104733334Y-104823810D01*
X104685715Y-105014286D01*
X104638096Y-105109524D01*
X104542858Y-105204762D01*
X104400000Y-105252381D01*
X104161905Y-105252381D01*
X105066667Y-104252381D02*
X105685715Y-104252381D01*
X105352381Y-104633333D01*
X105495239Y-104633333D01*
X105590477Y-104680952D01*
X105638096Y-104728571D01*
X105685715Y-104823810D01*
X105685715Y-105061905D01*
X105638096Y-105157143D01*
X105590477Y-105204762D01*
X105495239Y-105252381D01*
X105209524Y-105252381D01*
X105114286Y-105204762D01*
X105066667Y-105157143D01*
X102761905Y-108252381D02*
X102761905Y-107252381D01*
X103000000Y-107252381D01*
X103142858Y-107300000D01*
X103238096Y-107395238D01*
X103285715Y-107490476D01*
X103333334Y-107680952D01*
X103333334Y-107823810D01*
X103285715Y-108014286D01*
X103238096Y-108109524D01*
X103142858Y-108204762D01*
X103000000Y-108252381D01*
X102761905Y-108252381D01*
X104190477Y-107585714D02*
X104190477Y-108252381D01*
X103952381Y-107204762D02*
X103714286Y-107919048D01*
X104333334Y-107919048D01*
X148857143Y-95452381D02*
X148523809Y-94976190D01*
X148285714Y-95452381D02*
X148285714Y-94452381D01*
X148666667Y-94452381D01*
X148761905Y-94500000D01*
X148809524Y-94547619D01*
X148857143Y-94642857D01*
X148857143Y-94785714D01*
X148809524Y-94880952D01*
X148761905Y-94928571D01*
X148666667Y-94976190D01*
X148285714Y-94976190D01*
X149809524Y-95452381D02*
X149238095Y-95452381D01*
X149523809Y-95452381D02*
X149523809Y-94452381D01*
X149428571Y-94595238D01*
X149333333Y-94690476D01*
X149238095Y-94738095D01*
X150761905Y-95452381D02*
X150190476Y-95452381D01*
X150476190Y-95452381D02*
X150476190Y-94452381D01*
X150380952Y-94595238D01*
X150285714Y-94690476D01*
X150190476Y-94738095D01*
X147557143Y-98752381D02*
X147223809Y-98276190D01*
X146985714Y-98752381D02*
X146985714Y-97752381D01*
X147366667Y-97752381D01*
X147461905Y-97800000D01*
X147509524Y-97847619D01*
X147557143Y-97942857D01*
X147557143Y-98085714D01*
X147509524Y-98180952D01*
X147461905Y-98228571D01*
X147366667Y-98276190D01*
X146985714Y-98276190D01*
X148509524Y-98752381D02*
X147938095Y-98752381D01*
X148223809Y-98752381D02*
X148223809Y-97752381D01*
X148128571Y-97895238D01*
X148033333Y-97990476D01*
X147938095Y-98038095D01*
X148890476Y-97847619D02*
X148938095Y-97800000D01*
X149033333Y-97752381D01*
X149271429Y-97752381D01*
X149366667Y-97800000D01*
X149414286Y-97847619D01*
X149461905Y-97942857D01*
X149461905Y-98038095D01*
X149414286Y-98180952D01*
X148842857Y-98752381D01*
X149461905Y-98752381D01*
X138607143Y-105102381D02*
X138273809Y-104626190D01*
X138035714Y-105102381D02*
X138035714Y-104102381D01*
X138416667Y-104102381D01*
X138511905Y-104150000D01*
X138559524Y-104197619D01*
X138607143Y-104292857D01*
X138607143Y-104435714D01*
X138559524Y-104530952D01*
X138511905Y-104578571D01*
X138416667Y-104626190D01*
X138035714Y-104626190D01*
X139559524Y-105102381D02*
X138988095Y-105102381D01*
X139273809Y-105102381D02*
X139273809Y-104102381D01*
X139178571Y-104245238D01*
X139083333Y-104340476D01*
X138988095Y-104388095D01*
X139892857Y-104102381D02*
X140511905Y-104102381D01*
X140178571Y-104483333D01*
X140321429Y-104483333D01*
X140416667Y-104530952D01*
X140464286Y-104578571D01*
X140511905Y-104673810D01*
X140511905Y-104911905D01*
X140464286Y-105007143D01*
X140416667Y-105054762D01*
X140321429Y-105102381D01*
X140035714Y-105102381D01*
X139940476Y-105054762D01*
X139892857Y-105007143D01*
X151557143Y-78252381D02*
X151223809Y-77776190D01*
X150985714Y-78252381D02*
X150985714Y-77252381D01*
X151366667Y-77252381D01*
X151461905Y-77300000D01*
X151509524Y-77347619D01*
X151557143Y-77442857D01*
X151557143Y-77585714D01*
X151509524Y-77680952D01*
X151461905Y-77728571D01*
X151366667Y-77776190D01*
X150985714Y-77776190D01*
X152509524Y-78252381D02*
X151938095Y-78252381D01*
X152223809Y-78252381D02*
X152223809Y-77252381D01*
X152128571Y-77395238D01*
X152033333Y-77490476D01*
X151938095Y-77538095D01*
X153366667Y-77585714D02*
X153366667Y-78252381D01*
X153128571Y-77204762D02*
X152890476Y-77919048D01*
X153509524Y-77919048D01*
X109557143Y-82352381D02*
X109223809Y-81876190D01*
X108985714Y-82352381D02*
X108985714Y-81352381D01*
X109366667Y-81352381D01*
X109461905Y-81400000D01*
X109509524Y-81447619D01*
X109557143Y-81542857D01*
X109557143Y-81685714D01*
X109509524Y-81780952D01*
X109461905Y-81828571D01*
X109366667Y-81876190D01*
X108985714Y-81876190D01*
X110509524Y-82352381D02*
X109938095Y-82352381D01*
X110223809Y-82352381D02*
X110223809Y-81352381D01*
X110128571Y-81495238D01*
X110033333Y-81590476D01*
X109938095Y-81638095D01*
X111414286Y-81352381D02*
X110938095Y-81352381D01*
X110890476Y-81828571D01*
X110938095Y-81780952D01*
X111033333Y-81733333D01*
X111271429Y-81733333D01*
X111366667Y-81780952D01*
X111414286Y-81828571D01*
X111461905Y-81923810D01*
X111461905Y-82161905D01*
X111414286Y-82257143D01*
X111366667Y-82304762D01*
X111271429Y-82352381D01*
X111033333Y-82352381D01*
X110938095Y-82304762D01*
X110890476Y-82257143D01*
X133438095Y-118452381D02*
X133438095Y-119261905D01*
X133485714Y-119357143D01*
X133533333Y-119404762D01*
X133628571Y-119452381D01*
X133819048Y-119452381D01*
X133914286Y-119404762D01*
X133961905Y-119357143D01*
X134009524Y-119261905D01*
X134009524Y-118452381D01*
X135009524Y-119452381D02*
X134438095Y-119452381D01*
X134723809Y-119452381D02*
X134723809Y-118452381D01*
X134628571Y-118595238D01*
X134533333Y-118690476D01*
X134438095Y-118738095D01*
X116552381Y-101542857D02*
X116076190Y-101876191D01*
X116552381Y-102114286D02*
X115552381Y-102114286D01*
X115552381Y-101733333D01*
X115600000Y-101638095D01*
X115647619Y-101590476D01*
X115742857Y-101542857D01*
X115885714Y-101542857D01*
X115980952Y-101590476D01*
X116028571Y-101638095D01*
X116076190Y-101733333D01*
X116076190Y-102114286D01*
X116552381Y-100590476D02*
X116552381Y-101161905D01*
X116552381Y-100876191D02*
X115552381Y-100876191D01*
X115695238Y-100971429D01*
X115790476Y-101066667D01*
X115838095Y-101161905D01*
X115552381Y-99733333D02*
X115552381Y-99923810D01*
X115600000Y-100019048D01*
X115647619Y-100066667D01*
X115790476Y-100161905D01*
X115980952Y-100209524D01*
X116361905Y-100209524D01*
X116457143Y-100161905D01*
X116504762Y-100114286D01*
X116552381Y-100019048D01*
X116552381Y-99828571D01*
X116504762Y-99733333D01*
X116457143Y-99685714D01*
X116361905Y-99638095D01*
X116123810Y-99638095D01*
X116028571Y-99685714D01*
X115980952Y-99733333D01*
X115933333Y-99828571D01*
X115933333Y-100019048D01*
X115980952Y-100114286D01*
X116028571Y-100161905D01*
X116123810Y-100209524D01*
X151861905Y-113352381D02*
X151861905Y-112352381D01*
X152100000Y-112352381D01*
X152242858Y-112400000D01*
X152338096Y-112495238D01*
X152385715Y-112590476D01*
X152433334Y-112780952D01*
X152433334Y-112923810D01*
X152385715Y-113114286D01*
X152338096Y-113209524D01*
X152242858Y-113304762D01*
X152100000Y-113352381D01*
X151861905Y-113352381D01*
X152766667Y-112352381D02*
X153433334Y-112352381D01*
X153004762Y-113352381D01*
X160882545Y-115846667D02*
X161358736Y-115846667D01*
X160787307Y-116132381D02*
X161120640Y-115132381D01*
X161453974Y-116132381D01*
M02*
