G04 #@! TF.FileFunction,Legend,Bot*
%FSLAX46Y46*%
G04 Gerber Fmt 4.6, Leading zero omitted, Abs format (unit mm)*
G04 Created by KiCad (PCBNEW (2015-04-22 BZR 5620)-product) date 07/05/2015 20:47:48*
%MOMM*%
G01*
G04 APERTURE LIST*
%ADD10C,0.100000*%
%ADD11C,0.150000*%
G04 APERTURE END LIST*
D10*
D11*
X115806231Y-87380000D02*
G75*
G03X115806231Y-87380000I-8082231J0D01*
G01*
X115806231Y-108880000D02*
G75*
G03X115806231Y-108880000I-8082231J0D01*
G01*
X125148000Y-110000000D02*
X152148000Y-110000000D01*
X152148000Y-110000000D02*
X152148000Y-99000000D01*
X152148000Y-99000000D02*
X125148000Y-99000000D01*
X125148000Y-99000000D02*
X125148000Y-110000000D01*
X122000000Y-87000000D02*
X149000000Y-87000000D01*
X149000000Y-87000000D02*
X149000000Y-76000000D01*
X149000000Y-76000000D02*
X122000000Y-76000000D01*
X122000000Y-76000000D02*
X122000000Y-87000000D01*
X109030000Y-78080000D02*
X109030000Y-77860000D01*
X109030000Y-75480000D02*
X109030000Y-75730000D01*
X105776576Y-75841928D02*
G75*
G02X109030000Y-75480000I1753424J-958072D01*
G01*
X106387065Y-75818472D02*
G75*
G02X108570000Y-75710000I1142935J-981528D01*
G01*
X109017220Y-78106726D02*
G75*
G02X105780000Y-77760000I-1497220J1306726D01*
G01*
X108577812Y-77874518D02*
G75*
G02X106360000Y-77740000I-1047812J1074518D01*
G01*
X107330000Y-96920000D02*
X107330000Y-97140000D01*
X107330000Y-99520000D02*
X107330000Y-99270000D01*
X110583424Y-99158072D02*
G75*
G02X107330000Y-99520000I-1753424J958072D01*
G01*
X109972935Y-99181528D02*
G75*
G02X107790000Y-99290000I-1142935J981528D01*
G01*
X107342780Y-96893274D02*
G75*
G02X110580000Y-97240000I1497220J-1306726D01*
G01*
X107782188Y-97125482D02*
G75*
G02X110000000Y-97260000I1047812J-1074518D01*
G01*
X97055905Y-76545381D02*
X97055905Y-77354905D01*
X97008286Y-77450143D01*
X96960667Y-77497762D01*
X96865429Y-77545381D01*
X96674952Y-77545381D01*
X96579714Y-77497762D01*
X96532095Y-77450143D01*
X96484476Y-77354905D01*
X96484476Y-76545381D01*
X96055905Y-76640619D02*
X96008286Y-76593000D01*
X95913048Y-76545381D01*
X95674952Y-76545381D01*
X95579714Y-76593000D01*
X95532095Y-76640619D01*
X95484476Y-76735857D01*
X95484476Y-76831095D01*
X95532095Y-76973952D01*
X96103524Y-77545381D01*
X95484476Y-77545381D01*
X95881285Y-94055381D02*
X96452714Y-94055381D01*
X96167000Y-94055381D02*
X96167000Y-93055381D01*
X96262238Y-93198238D01*
X96357476Y-93293476D01*
X96452714Y-93341095D01*
X94547714Y-86800619D02*
X94500095Y-86753000D01*
X94404857Y-86705381D01*
X94166761Y-86705381D01*
X94071523Y-86753000D01*
X94023904Y-86800619D01*
X93976285Y-86895857D01*
X93976285Y-86991095D01*
X94023904Y-87133952D01*
X94595333Y-87705381D01*
X93976285Y-87705381D01*
X97135333Y-79085381D02*
X96516285Y-79085381D01*
X96849619Y-79466333D01*
X96706761Y-79466333D01*
X96611523Y-79513952D01*
X96563904Y-79561571D01*
X96516285Y-79656810D01*
X96516285Y-79894905D01*
X96563904Y-79990143D01*
X96611523Y-80037762D01*
X96706761Y-80085381D01*
X96992476Y-80085381D01*
X97087714Y-80037762D01*
X97135333Y-79990143D01*
X102961523Y-74973714D02*
X102961523Y-75640381D01*
X103199619Y-74592762D02*
X103437714Y-75307048D01*
X102818666Y-75307048D01*
X111168904Y-74640381D02*
X111645095Y-74640381D01*
X111692714Y-75116571D01*
X111645095Y-75068952D01*
X111549857Y-75021333D01*
X111311761Y-75021333D01*
X111216523Y-75068952D01*
X111168904Y-75116571D01*
X111121285Y-75211810D01*
X111121285Y-75449905D01*
X111168904Y-75545143D01*
X111216523Y-75592762D01*
X111311761Y-75640381D01*
X111549857Y-75640381D01*
X111645095Y-75592762D01*
X111692714Y-75545143D01*
X118201523Y-79085381D02*
X118392000Y-79085381D01*
X118487238Y-79133000D01*
X118534857Y-79180619D01*
X118630095Y-79323476D01*
X118677714Y-79513952D01*
X118677714Y-79894905D01*
X118630095Y-79990143D01*
X118582476Y-80037762D01*
X118487238Y-80085381D01*
X118296761Y-80085381D01*
X118201523Y-80037762D01*
X118153904Y-79990143D01*
X118106285Y-79894905D01*
X118106285Y-79656810D01*
X118153904Y-79561571D01*
X118201523Y-79513952D01*
X118296761Y-79466333D01*
X118487238Y-79466333D01*
X118582476Y-79513952D01*
X118630095Y-79561571D01*
X118677714Y-79656810D01*
X120630333Y-86705381D02*
X119963666Y-86705381D01*
X120392238Y-87705381D01*
X118487238Y-95388952D02*
X118582476Y-95341333D01*
X118630095Y-95293714D01*
X118677714Y-95198476D01*
X118677714Y-95150857D01*
X118630095Y-95055619D01*
X118582476Y-95008000D01*
X118487238Y-94960381D01*
X118296761Y-94960381D01*
X118201523Y-95008000D01*
X118153904Y-95055619D01*
X118106285Y-95150857D01*
X118106285Y-95198476D01*
X118153904Y-95293714D01*
X118201523Y-95341333D01*
X118296761Y-95388952D01*
X118487238Y-95388952D01*
X118582476Y-95436571D01*
X118630095Y-95484190D01*
X118677714Y-95579429D01*
X118677714Y-95769905D01*
X118630095Y-95865143D01*
X118582476Y-95912762D01*
X118487238Y-95960381D01*
X118296761Y-95960381D01*
X118201523Y-95912762D01*
X118153904Y-95865143D01*
X118106285Y-95769905D01*
X118106285Y-95579429D01*
X118153904Y-95484190D01*
X118201523Y-95436571D01*
X118296761Y-95388952D01*
X112232476Y-100405381D02*
X112042000Y-100405381D01*
X111946761Y-100357762D01*
X111899142Y-100310143D01*
X111803904Y-100167286D01*
X111756285Y-99976810D01*
X111756285Y-99595857D01*
X111803904Y-99500619D01*
X111851523Y-99453000D01*
X111946761Y-99405381D01*
X112137238Y-99405381D01*
X112232476Y-99453000D01*
X112280095Y-99500619D01*
X112327714Y-99595857D01*
X112327714Y-99833952D01*
X112280095Y-99929190D01*
X112232476Y-99976810D01*
X112137238Y-100024429D01*
X111946761Y-100024429D01*
X111851523Y-99976810D01*
X111803904Y-99929190D01*
X111756285Y-99833952D01*
X91777334Y-83260381D02*
X91777334Y-82260381D01*
X91205905Y-83260381D01*
X91205905Y-82260381D01*
X90586858Y-83260381D02*
X90682096Y-83212762D01*
X90729715Y-83165143D01*
X90777334Y-83069905D01*
X90777334Y-82784190D01*
X90729715Y-82688952D01*
X90682096Y-82641333D01*
X90586858Y-82593714D01*
X90444000Y-82593714D01*
X90348762Y-82641333D01*
X90301143Y-82688952D01*
X90253524Y-82784190D01*
X90253524Y-83069905D01*
X90301143Y-83165143D01*
X90348762Y-83212762D01*
X90444000Y-83260381D01*
X90586858Y-83260381D01*
X89920191Y-82593714D02*
X89682096Y-83260381D01*
X89444000Y-82593714D01*
X88634476Y-83260381D02*
X88634476Y-82736571D01*
X88682095Y-82641333D01*
X88777333Y-82593714D01*
X88967810Y-82593714D01*
X89063048Y-82641333D01*
X88634476Y-83212762D02*
X88729714Y-83260381D01*
X88967810Y-83260381D01*
X89063048Y-83212762D01*
X89110667Y-83117524D01*
X89110667Y-83022286D01*
X89063048Y-82927048D01*
X88967810Y-82879429D01*
X88729714Y-82879429D01*
X88634476Y-82831810D01*
X88015429Y-83260381D02*
X88110667Y-83212762D01*
X88158286Y-83117524D01*
X88158286Y-82260381D01*
X119915905Y-118619381D02*
X119915905Y-119428905D01*
X119868286Y-119524143D01*
X119820667Y-119571762D01*
X119725429Y-119619381D01*
X119534952Y-119619381D01*
X119439714Y-119571762D01*
X119392095Y-119524143D01*
X119344476Y-119428905D01*
X119344476Y-118619381D01*
X118439714Y-118952714D02*
X118439714Y-119619381D01*
X118677810Y-118571762D02*
X118915905Y-119286048D01*
X118296857Y-119286048D01*
X118995285Y-103109381D02*
X119566714Y-103109381D01*
X119281000Y-103109381D02*
X119281000Y-102109381D01*
X119376238Y-102252238D01*
X119471476Y-102347476D01*
X119566714Y-102395095D01*
X121471714Y-108554619D02*
X121424095Y-108507000D01*
X121328857Y-108459381D01*
X121090761Y-108459381D01*
X120995523Y-108507000D01*
X120947904Y-108554619D01*
X120900285Y-108649857D01*
X120900285Y-108745095D01*
X120947904Y-108887952D01*
X121519333Y-109459381D01*
X120900285Y-109459381D01*
X118979333Y-116079381D02*
X118360285Y-116079381D01*
X118693619Y-116460333D01*
X118550761Y-116460333D01*
X118455523Y-116507952D01*
X118407904Y-116555571D01*
X118360285Y-116650810D01*
X118360285Y-116888905D01*
X118407904Y-116984143D01*
X118455523Y-117031762D01*
X118550761Y-117079381D01*
X118836476Y-117079381D01*
X118931714Y-117031762D01*
X118979333Y-116984143D01*
X112105523Y-120857714D02*
X112105523Y-121524381D01*
X112343619Y-120476762D02*
X112581714Y-121191048D01*
X111962666Y-121191048D01*
X103802904Y-120524381D02*
X104279095Y-120524381D01*
X104326714Y-121000571D01*
X104279095Y-120952952D01*
X104183857Y-120905333D01*
X103945761Y-120905333D01*
X103850523Y-120952952D01*
X103802904Y-121000571D01*
X103755285Y-121095810D01*
X103755285Y-121333905D01*
X103802904Y-121429143D01*
X103850523Y-121476762D01*
X103945761Y-121524381D01*
X104183857Y-121524381D01*
X104279095Y-121476762D01*
X104326714Y-121429143D01*
X96865523Y-116079381D02*
X97056000Y-116079381D01*
X97151238Y-116127000D01*
X97198857Y-116174619D01*
X97294095Y-116317476D01*
X97341714Y-116507952D01*
X97341714Y-116888905D01*
X97294095Y-116984143D01*
X97246476Y-117031762D01*
X97151238Y-117079381D01*
X96960761Y-117079381D01*
X96865523Y-117031762D01*
X96817904Y-116984143D01*
X96770285Y-116888905D01*
X96770285Y-116650810D01*
X96817904Y-116555571D01*
X96865523Y-116507952D01*
X96960761Y-116460333D01*
X97151238Y-116460333D01*
X97246476Y-116507952D01*
X97294095Y-116555571D01*
X97341714Y-116650810D01*
X95484333Y-108459381D02*
X94817666Y-108459381D01*
X95246238Y-109459381D01*
X97151238Y-100632952D02*
X97246476Y-100585333D01*
X97294095Y-100537714D01*
X97341714Y-100442476D01*
X97341714Y-100394857D01*
X97294095Y-100299619D01*
X97246476Y-100252000D01*
X97151238Y-100204381D01*
X96960761Y-100204381D01*
X96865523Y-100252000D01*
X96817904Y-100299619D01*
X96770285Y-100394857D01*
X96770285Y-100442476D01*
X96817904Y-100537714D01*
X96865523Y-100585333D01*
X96960761Y-100632952D01*
X97151238Y-100632952D01*
X97246476Y-100680571D01*
X97294095Y-100728190D01*
X97341714Y-100823429D01*
X97341714Y-101013905D01*
X97294095Y-101109143D01*
X97246476Y-101156762D01*
X97151238Y-101204381D01*
X96960761Y-101204381D01*
X96865523Y-101156762D01*
X96817904Y-101109143D01*
X96770285Y-101013905D01*
X96770285Y-100823429D01*
X96817904Y-100728190D01*
X96865523Y-100680571D01*
X96960761Y-100632952D01*
X103596476Y-96759381D02*
X103406000Y-96759381D01*
X103310761Y-96711762D01*
X103263142Y-96664143D01*
X103167904Y-96521286D01*
X103120285Y-96330810D01*
X103120285Y-95949857D01*
X103167904Y-95854619D01*
X103215523Y-95807000D01*
X103310761Y-95759381D01*
X103501238Y-95759381D01*
X103596476Y-95807000D01*
X103644095Y-95854619D01*
X103691714Y-95949857D01*
X103691714Y-96187952D01*
X103644095Y-96283190D01*
X103596476Y-96330810D01*
X103501238Y-96378429D01*
X103310761Y-96378429D01*
X103215523Y-96330810D01*
X103167904Y-96283190D01*
X103120285Y-96187952D01*
X127337334Y-113904381D02*
X127337334Y-112904381D01*
X126765905Y-113904381D01*
X126765905Y-112904381D01*
X126146858Y-113904381D02*
X126242096Y-113856762D01*
X126289715Y-113809143D01*
X126337334Y-113713905D01*
X126337334Y-113428190D01*
X126289715Y-113332952D01*
X126242096Y-113285333D01*
X126146858Y-113237714D01*
X126004000Y-113237714D01*
X125908762Y-113285333D01*
X125861143Y-113332952D01*
X125813524Y-113428190D01*
X125813524Y-113713905D01*
X125861143Y-113809143D01*
X125908762Y-113856762D01*
X126004000Y-113904381D01*
X126146858Y-113904381D01*
X125480191Y-113237714D02*
X125242096Y-113904381D01*
X125004000Y-113237714D01*
X124194476Y-113904381D02*
X124194476Y-113380571D01*
X124242095Y-113285333D01*
X124337333Y-113237714D01*
X124527810Y-113237714D01*
X124623048Y-113285333D01*
X124194476Y-113856762D02*
X124289714Y-113904381D01*
X124527810Y-113904381D01*
X124623048Y-113856762D01*
X124670667Y-113761524D01*
X124670667Y-113666286D01*
X124623048Y-113571048D01*
X124527810Y-113523429D01*
X124289714Y-113523429D01*
X124194476Y-113475810D01*
X123575429Y-113904381D02*
X123670667Y-113856762D01*
X123718286Y-113761524D01*
X123718286Y-112904381D01*
X139290857Y-111607143D02*
X139338476Y-111654762D01*
X139481333Y-111702381D01*
X139576571Y-111702381D01*
X139719429Y-111654762D01*
X139814667Y-111559524D01*
X139862286Y-111464286D01*
X139909905Y-111273810D01*
X139909905Y-111130952D01*
X139862286Y-110940476D01*
X139814667Y-110845238D01*
X139719429Y-110750000D01*
X139576571Y-110702381D01*
X139481333Y-110702381D01*
X139338476Y-110750000D01*
X139290857Y-110797619D01*
X138338476Y-111702381D02*
X138909905Y-111702381D01*
X138624191Y-111702381D02*
X138624191Y-110702381D01*
X138719429Y-110845238D01*
X138814667Y-110940476D01*
X138909905Y-110988095D01*
X137386095Y-111702381D02*
X137957524Y-111702381D01*
X137671810Y-111702381D02*
X137671810Y-110702381D01*
X137767048Y-110845238D01*
X137862286Y-110940476D01*
X137957524Y-110988095D01*
X139466666Y-83557143D02*
X139514285Y-83604762D01*
X139657142Y-83652381D01*
X139752380Y-83652381D01*
X139895238Y-83604762D01*
X139990476Y-83509524D01*
X140038095Y-83414286D01*
X140085714Y-83223810D01*
X140085714Y-83080952D01*
X140038095Y-82890476D01*
X139990476Y-82795238D01*
X139895238Y-82700000D01*
X139752380Y-82652381D01*
X139657142Y-82652381D01*
X139514285Y-82700000D01*
X139466666Y-82747619D01*
X139133333Y-82652381D02*
X138514285Y-82652381D01*
X138847619Y-83033333D01*
X138704761Y-83033333D01*
X138609523Y-83080952D01*
X138561904Y-83128571D01*
X138514285Y-83223810D01*
X138514285Y-83461905D01*
X138561904Y-83557143D01*
X138609523Y-83604762D01*
X138704761Y-83652381D01*
X138990476Y-83652381D01*
X139085714Y-83604762D01*
X139133333Y-83557143D01*
X104538095Y-77152381D02*
X104538095Y-76152381D01*
X104300000Y-76152381D01*
X104157142Y-76200000D01*
X104061904Y-76295238D01*
X104014285Y-76390476D01*
X103966666Y-76580952D01*
X103966666Y-76723810D01*
X104014285Y-76914286D01*
X104061904Y-77009524D01*
X104157142Y-77104762D01*
X104300000Y-77152381D01*
X104538095Y-77152381D01*
X103061904Y-76152381D02*
X103538095Y-76152381D01*
X103585714Y-76628571D01*
X103538095Y-76580952D01*
X103442857Y-76533333D01*
X103204761Y-76533333D01*
X103109523Y-76580952D01*
X103061904Y-76628571D01*
X103014285Y-76723810D01*
X103014285Y-76961905D01*
X103061904Y-77057143D01*
X103109523Y-77104762D01*
X103204761Y-77152381D01*
X103442857Y-77152381D01*
X103538095Y-77104762D01*
X103585714Y-77057143D01*
X109961905Y-78952381D02*
X109961905Y-77952381D01*
X109390476Y-78952381D02*
X109819048Y-78380952D01*
X109390476Y-77952381D02*
X109961905Y-78523810D01*
X109738095Y-100252381D02*
X109738095Y-99252381D01*
X109500000Y-99252381D01*
X109357142Y-99300000D01*
X109261904Y-99395238D01*
X109214285Y-99490476D01*
X109166666Y-99680952D01*
X109166666Y-99823810D01*
X109214285Y-100014286D01*
X109261904Y-100109524D01*
X109357142Y-100204762D01*
X109500000Y-100252381D01*
X109738095Y-100252381D01*
X108309523Y-99252381D02*
X108500000Y-99252381D01*
X108595238Y-99300000D01*
X108642857Y-99347619D01*
X108738095Y-99490476D01*
X108785714Y-99680952D01*
X108785714Y-100061905D01*
X108738095Y-100157143D01*
X108690476Y-100204762D01*
X108595238Y-100252381D01*
X108404761Y-100252381D01*
X108309523Y-100204762D01*
X108261904Y-100157143D01*
X108214285Y-100061905D01*
X108214285Y-99823810D01*
X108261904Y-99728571D01*
X108309523Y-99680952D01*
X108404761Y-99633333D01*
X108595238Y-99633333D01*
X108690476Y-99680952D01*
X108738095Y-99728571D01*
X108785714Y-99823810D01*
X106921905Y-96952381D02*
X106921905Y-95952381D01*
X106350476Y-96952381D02*
X106779048Y-96380952D01*
X106350476Y-95952381D02*
X106921905Y-96523810D01*
M02*
