G04 #@! TF.FileFunction,Soldermask,Bot*
%FSLAX46Y46*%
G04 Gerber Fmt 4.6, Leading zero omitted, Abs format (unit mm)*
G04 Created by KiCad (PCBNEW (2015-04-22 BZR 5620)-product) date 07/05/2015 20:47:48*
%MOMM*%
G01*
G04 APERTURE LIST*
%ADD10C,0.100000*%
%ADD11C,1.700000*%
%ADD12R,1.700000X1.700000*%
%ADD13R,2.235200X2.235200*%
%ADD14R,2.540000X2.540000*%
%ADD15C,2.540000*%
%ADD16C,1.300000*%
%ADD17R,1.300000X1.300000*%
%ADD18R,1.600000X1.600000*%
%ADD19C,1.600000*%
%ADD20C,1.524000*%
%ADD21R,1.699260X1.699260*%
%ADD22C,1.998980*%
%ADD23C,2.000000*%
G04 APERTURE END LIST*
D10*
D11*
X146500000Y-110000000D03*
D12*
X146500000Y-115000000D03*
D13*
X155100000Y-103900000D03*
X155100000Y-107400000D03*
X156700000Y-116500000D03*
D14*
X100104000Y-92460000D03*
D15*
X100104000Y-87380000D03*
X100104000Y-82300000D03*
X105184000Y-79760000D03*
X110264000Y-79760000D03*
X115344000Y-82300000D03*
X115344000Y-87380000D03*
X115344000Y-92460000D03*
X110264000Y-95000000D03*
D14*
X115344000Y-103800000D03*
D15*
X115344000Y-108880000D03*
X115344000Y-113960000D03*
X110264000Y-116500000D03*
X105184000Y-116500000D03*
X100104000Y-113960000D03*
X100104000Y-108880000D03*
X100104000Y-103800000D03*
X105184000Y-101260000D03*
D13*
X158600000Y-105700000D03*
X158300000Y-93500000D03*
X160220000Y-116490000D03*
X154700000Y-95300000D03*
X154700000Y-91800000D03*
D16*
X126500000Y-115000000D03*
D17*
X126500000Y-117500000D03*
D18*
X127648000Y-104500000D03*
D19*
X150000000Y-104500000D03*
D18*
X124500000Y-81500000D03*
D19*
X146852000Y-81500000D03*
D20*
X145700000Y-94680000D03*
X145700000Y-92140000D03*
X145700000Y-89600000D03*
D17*
X113500000Y-96500000D03*
D16*
X118500000Y-96500000D03*
D17*
X104500000Y-97500000D03*
D16*
X99500000Y-97500000D03*
X117600000Y-77400000D03*
D17*
X115100000Y-77400000D03*
D16*
X133000000Y-80500000D03*
D17*
X135500000Y-80500000D03*
D16*
X119500000Y-111500000D03*
D17*
X122000000Y-111500000D03*
D21*
X108800000Y-76800000D03*
D22*
X106260000Y-76800000D03*
D21*
X107560000Y-98200000D03*
D22*
X110100000Y-98200000D03*
D11*
X132860000Y-104780000D03*
X135400000Y-104780000D03*
D23*
X132860000Y-107320000D03*
D11*
X135400000Y-107320000D03*
D23*
X132860000Y-109860000D03*
X135400000Y-109860000D03*
X132860000Y-112400000D03*
X135400000Y-112400000D03*
X132860000Y-114940000D03*
X135400000Y-114940000D03*
X132860000Y-117480000D03*
X135400000Y-117480000D03*
M02*
