G04 #@! TF.FileFunction,Legend,Top*
%FSLAX46Y46*%
G04 Gerber Fmt 4.6, Leading zero omitted, Abs format (unit mm)*
G04 Created by KiCad (PCBNEW (2015-04-22 BZR 5620)-product) date 02/05/2015 11:23:22*
%MOMM*%
G01*
G04 APERTURE LIST*
%ADD10C,0.100000*%
%ADD11C,0.150000*%
%ADD12C,0.200000*%
G04 APERTURE END LIST*
D10*
D11*
X104770000Y-72020000D02*
X104770000Y-69480000D01*
X101950000Y-69200000D02*
X103500000Y-69200000D01*
X101950000Y-69200000D02*
X101950000Y-72300000D01*
X101950000Y-72300000D02*
X103500000Y-72300000D01*
X95520000Y-72020000D02*
X95520000Y-69480000D01*
X92700000Y-69200000D02*
X94250000Y-69200000D01*
X92700000Y-69200000D02*
X92700000Y-72300000D01*
X92700000Y-72300000D02*
X94250000Y-72300000D01*
X120000000Y-70750000D02*
X113000000Y-70750000D01*
X113000000Y-70750000D02*
X113000000Y-67250000D01*
X113000000Y-67250000D02*
X120000000Y-67250000D01*
X120000000Y-67250000D02*
X120000000Y-70750000D01*
X120000000Y-81250000D02*
X113000000Y-81250000D01*
X113000000Y-81250000D02*
X113000000Y-77750000D01*
X113000000Y-77750000D02*
X120000000Y-77750000D01*
X120000000Y-77750000D02*
X120000000Y-81250000D01*
X177750000Y-77950000D02*
X176750000Y-77950000D01*
X176750000Y-79650000D02*
X177750000Y-79650000D01*
X173050000Y-77950000D02*
X172050000Y-77950000D01*
X172050000Y-79650000D02*
X173050000Y-79650000D01*
X168850000Y-73250000D02*
X167850000Y-73250000D01*
X167850000Y-74950000D02*
X168850000Y-74950000D01*
X173050000Y-69550000D02*
X173050000Y-70550000D01*
X174750000Y-70550000D02*
X174750000Y-69550000D01*
X167850000Y-77050000D02*
X168850000Y-77050000D01*
X168850000Y-75350000D02*
X167850000Y-75350000D01*
X175750000Y-73250000D02*
X174750000Y-73250000D01*
X174750000Y-74950000D02*
X175750000Y-74950000D01*
X172750000Y-75350000D02*
X172750000Y-74350000D01*
X171050000Y-74350000D02*
X171050000Y-75350000D01*
X175750000Y-75250000D02*
X174750000Y-75250000D01*
X174750000Y-76950000D02*
X175750000Y-76950000D01*
X116948060Y-71250180D02*
X117649100Y-71250180D01*
X117649100Y-71250180D02*
X117649100Y-71499100D01*
X117649100Y-74049160D02*
X117649100Y-74249820D01*
X117649100Y-74249820D02*
X116948060Y-74249820D01*
X116948060Y-74500180D02*
X117649100Y-74500180D01*
X117649100Y-74500180D02*
X117649100Y-74749100D01*
X117649100Y-77299160D02*
X117649100Y-77499820D01*
X117649100Y-77499820D02*
X116948060Y-77499820D01*
X97270000Y-75520000D02*
X97270000Y-72980000D01*
X94450000Y-72700000D02*
X96000000Y-72700000D01*
X94450000Y-72700000D02*
X94450000Y-75800000D01*
X94450000Y-75800000D02*
X96000000Y-75800000D01*
X108270000Y-79520000D02*
X108270000Y-76980000D01*
X105450000Y-76700000D02*
X107000000Y-76700000D01*
X105450000Y-76700000D02*
X105450000Y-79800000D01*
X105450000Y-79800000D02*
X107000000Y-79800000D01*
X106520000Y-83020000D02*
X106520000Y-80480000D01*
X103700000Y-80200000D02*
X105250000Y-80200000D01*
X103700000Y-80200000D02*
X103700000Y-83300000D01*
X103700000Y-83300000D02*
X105250000Y-83300000D01*
X99020000Y-72020000D02*
X99020000Y-69480000D01*
X96200000Y-69200000D02*
X97750000Y-69200000D01*
X96200000Y-69200000D02*
X96200000Y-72300000D01*
X96200000Y-72300000D02*
X97750000Y-72300000D01*
X104770000Y-79520000D02*
X104770000Y-76980000D01*
X101950000Y-76700000D02*
X103500000Y-76700000D01*
X101950000Y-76700000D02*
X101950000Y-79800000D01*
X101950000Y-79800000D02*
X103500000Y-79800000D01*
X106520000Y-75520000D02*
X106520000Y-72980000D01*
X103700000Y-72700000D02*
X105250000Y-72700000D01*
X103700000Y-72700000D02*
X103700000Y-75800000D01*
X103700000Y-75800000D02*
X105250000Y-75800000D01*
X108270000Y-72020000D02*
X108270000Y-69480000D01*
X105450000Y-69200000D02*
X107000000Y-69200000D01*
X105450000Y-69200000D02*
X105450000Y-72300000D01*
X105450000Y-72300000D02*
X107000000Y-72300000D01*
X97270000Y-83020000D02*
X97270000Y-80480000D01*
X94450000Y-80200000D02*
X96000000Y-80200000D01*
X94450000Y-80200000D02*
X94450000Y-83300000D01*
X94450000Y-83300000D02*
X96000000Y-83300000D01*
X95520000Y-79520000D02*
X95520000Y-76980000D01*
X92700000Y-76700000D02*
X94250000Y-76700000D01*
X92700000Y-76700000D02*
X92700000Y-79800000D01*
X92700000Y-79800000D02*
X94250000Y-79800000D01*
X99020000Y-79520000D02*
X99020000Y-76980000D01*
X96200000Y-76700000D02*
X97750000Y-76700000D01*
X96200000Y-76700000D02*
X96200000Y-79800000D01*
X96200000Y-79800000D02*
X97750000Y-79800000D01*
X180570000Y-84070000D02*
X180570000Y-81530000D01*
X177750000Y-81250000D02*
X179300000Y-81250000D01*
X177750000Y-81250000D02*
X177750000Y-84350000D01*
X177750000Y-84350000D02*
X179300000Y-84350000D01*
X184070000Y-84070000D02*
X184070000Y-81530000D01*
X181250000Y-81250000D02*
X182800000Y-81250000D01*
X181250000Y-81250000D02*
X181250000Y-84350000D01*
X181250000Y-84350000D02*
X182800000Y-84350000D01*
X177070000Y-84070000D02*
X177070000Y-81530000D01*
X174250000Y-81250000D02*
X175800000Y-81250000D01*
X174250000Y-81250000D02*
X174250000Y-84350000D01*
X174250000Y-84350000D02*
X175800000Y-84350000D01*
X178570000Y-71070000D02*
X178570000Y-68530000D01*
X175750000Y-68250000D02*
X177300000Y-68250000D01*
X175750000Y-68250000D02*
X175750000Y-71350000D01*
X175750000Y-71350000D02*
X177300000Y-71350000D01*
X172300000Y-84010000D02*
X172300000Y-81470000D01*
X169480000Y-81190000D02*
X171030000Y-81190000D01*
X169480000Y-81190000D02*
X169480000Y-84290000D01*
X169480000Y-84290000D02*
X171030000Y-84290000D01*
X161070000Y-67030000D02*
X161070000Y-64490000D01*
X158250000Y-64210000D02*
X159800000Y-64210000D01*
X158250000Y-64210000D02*
X158250000Y-67310000D01*
X158250000Y-67310000D02*
X159800000Y-67310000D01*
X123270000Y-84020000D02*
X123270000Y-81480000D01*
X120450000Y-81200000D02*
X122000000Y-81200000D01*
X120450000Y-81200000D02*
X120450000Y-84300000D01*
X120450000Y-84300000D02*
X122000000Y-84300000D01*
X123270000Y-67020000D02*
X123270000Y-64480000D01*
X120450000Y-64200000D02*
X122000000Y-64200000D01*
X120450000Y-64200000D02*
X120450000Y-67300000D01*
X120450000Y-67300000D02*
X122000000Y-67300000D01*
X144020000Y-84020000D02*
X144020000Y-81480000D01*
X141200000Y-81200000D02*
X142750000Y-81200000D01*
X141200000Y-81200000D02*
X141200000Y-84300000D01*
X141200000Y-84300000D02*
X142750000Y-84300000D01*
X144020000Y-67020000D02*
X144020000Y-64480000D01*
X141200000Y-64200000D02*
X142750000Y-64200000D01*
X141200000Y-64200000D02*
X141200000Y-67300000D01*
X141200000Y-67300000D02*
X142750000Y-67300000D01*
X164570000Y-67030000D02*
X164570000Y-64490000D01*
X161750000Y-64210000D02*
X163300000Y-64210000D01*
X161750000Y-64210000D02*
X161750000Y-67310000D01*
X161750000Y-67310000D02*
X163300000Y-67310000D01*
X168810000Y-84010000D02*
X168810000Y-81470000D01*
X165990000Y-81190000D02*
X167540000Y-81190000D01*
X165990000Y-81190000D02*
X165990000Y-84290000D01*
X165990000Y-84290000D02*
X167540000Y-84290000D01*
X130270000Y-67020000D02*
X130270000Y-64480000D01*
X127450000Y-64200000D02*
X129000000Y-64200000D01*
X127450000Y-64200000D02*
X127450000Y-67300000D01*
X127450000Y-67300000D02*
X129000000Y-67300000D01*
X133770000Y-67020000D02*
X133770000Y-64480000D01*
X130950000Y-64200000D02*
X132500000Y-64200000D01*
X130950000Y-64200000D02*
X130950000Y-67300000D01*
X130950000Y-67300000D02*
X132500000Y-67300000D01*
X126770000Y-67020000D02*
X126770000Y-64480000D01*
X123950000Y-64200000D02*
X125500000Y-64200000D01*
X123950000Y-64200000D02*
X123950000Y-67300000D01*
X123950000Y-67300000D02*
X125500000Y-67300000D01*
X130270000Y-84020000D02*
X130270000Y-81480000D01*
X127450000Y-81200000D02*
X129000000Y-81200000D01*
X127450000Y-81200000D02*
X127450000Y-84300000D01*
X127450000Y-84300000D02*
X129000000Y-84300000D01*
X133770000Y-84020000D02*
X133770000Y-81480000D01*
X130950000Y-81200000D02*
X132500000Y-81200000D01*
X130950000Y-81200000D02*
X130950000Y-84300000D01*
X130950000Y-84300000D02*
X132500000Y-84300000D01*
X126770000Y-84020000D02*
X126770000Y-81480000D01*
X123950000Y-81200000D02*
X125500000Y-81200000D01*
X123950000Y-81200000D02*
X123950000Y-84300000D01*
X123950000Y-84300000D02*
X125500000Y-84300000D01*
X169070000Y-67070000D02*
X169070000Y-64530000D01*
X166250000Y-64250000D02*
X167800000Y-64250000D01*
X166250000Y-64250000D02*
X166250000Y-67350000D01*
X166250000Y-67350000D02*
X167800000Y-67350000D01*
X178570000Y-67070000D02*
X178570000Y-64530000D01*
X175750000Y-64250000D02*
X177300000Y-64250000D01*
X175750000Y-64250000D02*
X175750000Y-67350000D01*
X175750000Y-67350000D02*
X177300000Y-67350000D01*
X163070000Y-83970000D02*
X163070000Y-81430000D01*
X160250000Y-81150000D02*
X161800000Y-81150000D01*
X160250000Y-81150000D02*
X160250000Y-84250000D01*
X160250000Y-84250000D02*
X161800000Y-84250000D01*
X182070000Y-67070000D02*
X182070000Y-64530000D01*
X179250000Y-64250000D02*
X180800000Y-64250000D01*
X179250000Y-64250000D02*
X179250000Y-67350000D01*
X179250000Y-67350000D02*
X180800000Y-67350000D01*
X172570000Y-67070000D02*
X172570000Y-64530000D01*
X169750000Y-64250000D02*
X171300000Y-64250000D01*
X169750000Y-64250000D02*
X169750000Y-67350000D01*
X169750000Y-67350000D02*
X171300000Y-67350000D01*
X147520000Y-67020000D02*
X147520000Y-64480000D01*
X144700000Y-64200000D02*
X146250000Y-64200000D01*
X144700000Y-64200000D02*
X144700000Y-67300000D01*
X144700000Y-67300000D02*
X146250000Y-67300000D01*
X154520000Y-84020000D02*
X154520000Y-81480000D01*
X151700000Y-81200000D02*
X153250000Y-81200000D01*
X151700000Y-81200000D02*
X151700000Y-84300000D01*
X151700000Y-84300000D02*
X153250000Y-84300000D01*
X147520000Y-84020000D02*
X147520000Y-81480000D01*
X144700000Y-81200000D02*
X146250000Y-81200000D01*
X144700000Y-81200000D02*
X144700000Y-84300000D01*
X144700000Y-84300000D02*
X146250000Y-84300000D01*
X151020000Y-67020000D02*
X151020000Y-64480000D01*
X148200000Y-64200000D02*
X149750000Y-64200000D01*
X148200000Y-64200000D02*
X148200000Y-67300000D01*
X148200000Y-67300000D02*
X149750000Y-67300000D01*
X154520000Y-67020000D02*
X154520000Y-64480000D01*
X151700000Y-64200000D02*
X153250000Y-64200000D01*
X151700000Y-64200000D02*
X151700000Y-67300000D01*
X151700000Y-67300000D02*
X153250000Y-67300000D01*
X151020000Y-84020000D02*
X151020000Y-81480000D01*
X148200000Y-81200000D02*
X149750000Y-81200000D01*
X148200000Y-81200000D02*
X148200000Y-84300000D01*
X148200000Y-84300000D02*
X149750000Y-84300000D01*
X118450000Y-66375000D02*
X117250000Y-66375000D01*
X117250000Y-64625000D02*
X118450000Y-64625000D01*
X118500000Y-83875000D02*
X117300000Y-83875000D01*
X117300000Y-82125000D02*
X118500000Y-82125000D01*
X122125000Y-77550000D02*
X122125000Y-78750000D01*
X120375000Y-78750000D02*
X120375000Y-77550000D01*
X120375000Y-71000000D02*
X120375000Y-69800000D01*
X122125000Y-69800000D02*
X122125000Y-71000000D01*
X161425000Y-73450000D02*
X161425000Y-72250000D01*
X163175000Y-72250000D02*
X163175000Y-73450000D01*
X161350000Y-68425000D02*
X162550000Y-68425000D01*
X162550000Y-70175000D02*
X161350000Y-70175000D01*
X165275000Y-72250000D02*
X165275000Y-73450000D01*
X163525000Y-73450000D02*
X163525000Y-72250000D01*
X164200000Y-77575000D02*
X163000000Y-77575000D01*
X163000000Y-75825000D02*
X164200000Y-75825000D01*
X171025000Y-70750000D02*
X171025000Y-69550000D01*
X172775000Y-69550000D02*
X172775000Y-70750000D01*
X139350000Y-71925000D02*
X140550000Y-71925000D01*
X140550000Y-73675000D02*
X139350000Y-73675000D01*
X139350000Y-74825000D02*
X140550000Y-74825000D01*
X140550000Y-76575000D02*
X139350000Y-76575000D01*
X156850000Y-80625000D02*
X158050000Y-80625000D01*
X158050000Y-82375000D02*
X156850000Y-82375000D01*
X156850000Y-82625000D02*
X158050000Y-82625000D01*
X158050000Y-84375000D02*
X156850000Y-84375000D01*
X152150000Y-76825000D02*
X153350000Y-76825000D01*
X153350000Y-78575000D02*
X152150000Y-78575000D01*
X152150000Y-70025000D02*
X153350000Y-70025000D01*
X153350000Y-71775000D02*
X152150000Y-71775000D01*
X135125000Y-74800000D02*
X135125000Y-73600000D01*
X136875000Y-73600000D02*
X136875000Y-74800000D01*
X153225000Y-74900000D02*
X153225000Y-73700000D01*
X154975000Y-73700000D02*
X154975000Y-74900000D01*
X107708224Y-53587109D02*
G75*
G03X107708224Y-53587109I-3850000J0D01*
G01*
X117358224Y-53587109D02*
G75*
G03X117358224Y-53587109I-13500000J0D01*
G01*
X160875000Y-72125000D02*
X160730000Y-72125000D01*
X160875000Y-76275000D02*
X160730000Y-76275000D01*
X155725000Y-76275000D02*
X155870000Y-76275000D01*
X155725000Y-72125000D02*
X155870000Y-72125000D01*
X160875000Y-72125000D02*
X160875000Y-76275000D01*
X155725000Y-72125000D02*
X155725000Y-76275000D01*
X160730000Y-72125000D02*
X160730000Y-70725000D01*
X148375000Y-78760000D02*
X148375000Y-78645000D01*
X144225000Y-78760000D02*
X144225000Y-78645000D01*
X144225000Y-69860000D02*
X144225000Y-69975000D01*
X148375000Y-69860000D02*
X148375000Y-69975000D01*
X148375000Y-78760000D02*
X144225000Y-78760000D01*
X148375000Y-69860000D02*
X144225000Y-69860000D01*
X148375000Y-78645000D02*
X149750000Y-78645000D01*
X125225000Y-69610000D02*
X125225000Y-69725000D01*
X129375000Y-69610000D02*
X129375000Y-69725000D01*
X129375000Y-78510000D02*
X129375000Y-78395000D01*
X125225000Y-78510000D02*
X125225000Y-78395000D01*
X125225000Y-69610000D02*
X129375000Y-69610000D01*
X125225000Y-78510000D02*
X129375000Y-78510000D01*
X125225000Y-69725000D02*
X123850000Y-69725000D01*
X166300000Y-68730000D02*
X166300000Y-72130000D01*
X166302944Y-68732944D02*
G75*
G02X170400000Y-70430000I1697056J-1697056D01*
G01*
X166302944Y-72127056D02*
G75*
G03X170400000Y-70430000I1697056J1697056D01*
G01*
X135020000Y-82775000D02*
X135165000Y-82775000D01*
X135020000Y-78625000D02*
X135165000Y-78625000D01*
X140170000Y-78625000D02*
X140025000Y-78625000D01*
X140170000Y-82775000D02*
X140025000Y-82775000D01*
X135020000Y-82775000D02*
X135020000Y-78625000D01*
X140170000Y-82775000D02*
X140170000Y-78625000D01*
X135165000Y-82775000D02*
X135165000Y-84175000D01*
X140325000Y-65675000D02*
X140180000Y-65675000D01*
X140325000Y-69825000D02*
X140180000Y-69825000D01*
X135175000Y-69825000D02*
X135320000Y-69825000D01*
X135175000Y-65675000D02*
X135320000Y-65675000D01*
X140325000Y-65675000D02*
X140325000Y-69825000D01*
X135175000Y-65675000D02*
X135175000Y-69825000D01*
X140180000Y-65675000D02*
X140180000Y-64275000D01*
X184448000Y-74016000D02*
X183305000Y-74016000D01*
X184448000Y-77064000D02*
X183305000Y-77064000D01*
X183305000Y-80874000D02*
X179622000Y-80874000D01*
X179622000Y-80874000D02*
X179622000Y-70206000D01*
X179622000Y-70206000D02*
X183305000Y-70206000D01*
X184448000Y-80874000D02*
X183305000Y-80874000D01*
X183305000Y-80874000D02*
X183305000Y-70206000D01*
X183305000Y-70206000D02*
X184448000Y-70206000D01*
X184448000Y-75540000D02*
X184448000Y-70206000D01*
X184448000Y-75540000D02*
X184448000Y-80874000D01*
X102285714Y-66102381D02*
X102285714Y-65102381D01*
X102666667Y-65102381D01*
X102761905Y-65150000D01*
X102809524Y-65197619D01*
X102857143Y-65292857D01*
X102857143Y-65435714D01*
X102809524Y-65530952D01*
X102761905Y-65578571D01*
X102666667Y-65626190D01*
X102285714Y-65626190D01*
X103809524Y-66102381D02*
X103238095Y-66102381D01*
X103523809Y-66102381D02*
X103523809Y-65102381D01*
X103428571Y-65245238D01*
X103333333Y-65340476D01*
X103238095Y-65388095D01*
X104190476Y-65197619D02*
X104238095Y-65150000D01*
X104333333Y-65102381D01*
X104571429Y-65102381D01*
X104666667Y-65150000D01*
X104714286Y-65197619D01*
X104761905Y-65292857D01*
X104761905Y-65388095D01*
X104714286Y-65530952D01*
X104142857Y-66102381D01*
X104761905Y-66102381D01*
X93511905Y-66102381D02*
X93511905Y-65102381D01*
X93892858Y-65102381D01*
X93988096Y-65150000D01*
X94035715Y-65197619D01*
X94083334Y-65292857D01*
X94083334Y-65435714D01*
X94035715Y-65530952D01*
X93988096Y-65578571D01*
X93892858Y-65626190D01*
X93511905Y-65626190D01*
X94654762Y-65530952D02*
X94559524Y-65483333D01*
X94511905Y-65435714D01*
X94464286Y-65340476D01*
X94464286Y-65292857D01*
X94511905Y-65197619D01*
X94559524Y-65150000D01*
X94654762Y-65102381D01*
X94845239Y-65102381D01*
X94940477Y-65150000D01*
X94988096Y-65197619D01*
X95035715Y-65292857D01*
X95035715Y-65340476D01*
X94988096Y-65435714D01*
X94940477Y-65483333D01*
X94845239Y-65530952D01*
X94654762Y-65530952D01*
X94559524Y-65578571D01*
X94511905Y-65626190D01*
X94464286Y-65721429D01*
X94464286Y-65911905D01*
X94511905Y-66007143D01*
X94559524Y-66054762D01*
X94654762Y-66102381D01*
X94845239Y-66102381D01*
X94940477Y-66054762D01*
X94988096Y-66007143D01*
X95035715Y-65911905D01*
X95035715Y-65721429D01*
X94988096Y-65626190D01*
X94940477Y-65578571D01*
X94845239Y-65530952D01*
X116333334Y-72357143D02*
X116285715Y-72404762D01*
X116142858Y-72452381D01*
X116047620Y-72452381D01*
X115904762Y-72404762D01*
X115809524Y-72309524D01*
X115761905Y-72214286D01*
X115714286Y-72023810D01*
X115714286Y-71880952D01*
X115761905Y-71690476D01*
X115809524Y-71595238D01*
X115904762Y-71500000D01*
X116047620Y-71452381D01*
X116142858Y-71452381D01*
X116285715Y-71500000D01*
X116333334Y-71547619D01*
X117285715Y-72452381D02*
X116714286Y-72452381D01*
X117000000Y-72452381D02*
X117000000Y-71452381D01*
X116904762Y-71595238D01*
X116809524Y-71690476D01*
X116714286Y-71738095D01*
X116333334Y-82857143D02*
X116285715Y-82904762D01*
X116142858Y-82952381D01*
X116047620Y-82952381D01*
X115904762Y-82904762D01*
X115809524Y-82809524D01*
X115761905Y-82714286D01*
X115714286Y-82523810D01*
X115714286Y-82380952D01*
X115761905Y-82190476D01*
X115809524Y-82095238D01*
X115904762Y-82000000D01*
X116047620Y-81952381D01*
X116142858Y-81952381D01*
X116285715Y-82000000D01*
X116333334Y-82047619D01*
X116714286Y-82047619D02*
X116761905Y-82000000D01*
X116857143Y-81952381D01*
X117095239Y-81952381D01*
X117190477Y-82000000D01*
X117238096Y-82047619D01*
X117285715Y-82142857D01*
X117285715Y-82238095D01*
X117238096Y-82380952D01*
X116666667Y-82952381D01*
X117285715Y-82952381D01*
X177083334Y-77057143D02*
X177035715Y-77104762D01*
X176892858Y-77152381D01*
X176797620Y-77152381D01*
X176654762Y-77104762D01*
X176559524Y-77009524D01*
X176511905Y-76914286D01*
X176464286Y-76723810D01*
X176464286Y-76580952D01*
X176511905Y-76390476D01*
X176559524Y-76295238D01*
X176654762Y-76200000D01*
X176797620Y-76152381D01*
X176892858Y-76152381D01*
X177035715Y-76200000D01*
X177083334Y-76247619D01*
X177416667Y-76152381D02*
X178035715Y-76152381D01*
X177702381Y-76533333D01*
X177845239Y-76533333D01*
X177940477Y-76580952D01*
X177988096Y-76628571D01*
X178035715Y-76723810D01*
X178035715Y-76961905D01*
X177988096Y-77057143D01*
X177940477Y-77104762D01*
X177845239Y-77152381D01*
X177559524Y-77152381D01*
X177464286Y-77104762D01*
X177416667Y-77057143D01*
X172383334Y-77057143D02*
X172335715Y-77104762D01*
X172192858Y-77152381D01*
X172097620Y-77152381D01*
X171954762Y-77104762D01*
X171859524Y-77009524D01*
X171811905Y-76914286D01*
X171764286Y-76723810D01*
X171764286Y-76580952D01*
X171811905Y-76390476D01*
X171859524Y-76295238D01*
X171954762Y-76200000D01*
X172097620Y-76152381D01*
X172192858Y-76152381D01*
X172335715Y-76200000D01*
X172383334Y-76247619D01*
X173240477Y-76485714D02*
X173240477Y-77152381D01*
X173002381Y-76104762D02*
X172764286Y-76819048D01*
X173383334Y-76819048D01*
X168183334Y-72357143D02*
X168135715Y-72404762D01*
X167992858Y-72452381D01*
X167897620Y-72452381D01*
X167754762Y-72404762D01*
X167659524Y-72309524D01*
X167611905Y-72214286D01*
X167564286Y-72023810D01*
X167564286Y-71880952D01*
X167611905Y-71690476D01*
X167659524Y-71595238D01*
X167754762Y-71500000D01*
X167897620Y-71452381D01*
X167992858Y-71452381D01*
X168135715Y-71500000D01*
X168183334Y-71547619D01*
X169088096Y-71452381D02*
X168611905Y-71452381D01*
X168564286Y-71928571D01*
X168611905Y-71880952D01*
X168707143Y-71833333D01*
X168945239Y-71833333D01*
X169040477Y-71880952D01*
X169088096Y-71928571D01*
X169135715Y-72023810D01*
X169135715Y-72261905D01*
X169088096Y-72357143D01*
X169040477Y-72404762D01*
X168945239Y-72452381D01*
X168707143Y-72452381D01*
X168611905Y-72404762D01*
X168564286Y-72357143D01*
X172157143Y-70216666D02*
X172204762Y-70264285D01*
X172252381Y-70407142D01*
X172252381Y-70502380D01*
X172204762Y-70645238D01*
X172109524Y-70740476D01*
X172014286Y-70788095D01*
X171823810Y-70835714D01*
X171680952Y-70835714D01*
X171490476Y-70788095D01*
X171395238Y-70740476D01*
X171300000Y-70645238D01*
X171252381Y-70502380D01*
X171252381Y-70407142D01*
X171300000Y-70264285D01*
X171347619Y-70216666D01*
X171252381Y-69359523D02*
X171252381Y-69550000D01*
X171300000Y-69645238D01*
X171347619Y-69692857D01*
X171490476Y-69788095D01*
X171680952Y-69835714D01*
X172061905Y-69835714D01*
X172157143Y-69788095D01*
X172204762Y-69740476D01*
X172252381Y-69645238D01*
X172252381Y-69454761D01*
X172204762Y-69359523D01*
X172157143Y-69311904D01*
X172061905Y-69264285D01*
X171823810Y-69264285D01*
X171728571Y-69311904D01*
X171680952Y-69359523D01*
X171633333Y-69454761D01*
X171633333Y-69645238D01*
X171680952Y-69740476D01*
X171728571Y-69788095D01*
X171823810Y-69835714D01*
X168183334Y-78657143D02*
X168135715Y-78704762D01*
X167992858Y-78752381D01*
X167897620Y-78752381D01*
X167754762Y-78704762D01*
X167659524Y-78609524D01*
X167611905Y-78514286D01*
X167564286Y-78323810D01*
X167564286Y-78180952D01*
X167611905Y-77990476D01*
X167659524Y-77895238D01*
X167754762Y-77800000D01*
X167897620Y-77752381D01*
X167992858Y-77752381D01*
X168135715Y-77800000D01*
X168183334Y-77847619D01*
X168516667Y-77752381D02*
X169183334Y-77752381D01*
X168754762Y-78752381D01*
X175083334Y-72357143D02*
X175035715Y-72404762D01*
X174892858Y-72452381D01*
X174797620Y-72452381D01*
X174654762Y-72404762D01*
X174559524Y-72309524D01*
X174511905Y-72214286D01*
X174464286Y-72023810D01*
X174464286Y-71880952D01*
X174511905Y-71690476D01*
X174559524Y-71595238D01*
X174654762Y-71500000D01*
X174797620Y-71452381D01*
X174892858Y-71452381D01*
X175035715Y-71500000D01*
X175083334Y-71547619D01*
X175654762Y-71880952D02*
X175559524Y-71833333D01*
X175511905Y-71785714D01*
X175464286Y-71690476D01*
X175464286Y-71642857D01*
X175511905Y-71547619D01*
X175559524Y-71500000D01*
X175654762Y-71452381D01*
X175845239Y-71452381D01*
X175940477Y-71500000D01*
X175988096Y-71547619D01*
X176035715Y-71642857D01*
X176035715Y-71690476D01*
X175988096Y-71785714D01*
X175940477Y-71833333D01*
X175845239Y-71880952D01*
X175654762Y-71880952D01*
X175559524Y-71928571D01*
X175511905Y-71976190D01*
X175464286Y-72071429D01*
X175464286Y-72261905D01*
X175511905Y-72357143D01*
X175559524Y-72404762D01*
X175654762Y-72452381D01*
X175845239Y-72452381D01*
X175940477Y-72404762D01*
X175988096Y-72357143D01*
X176035715Y-72261905D01*
X176035715Y-72071429D01*
X175988096Y-71976190D01*
X175940477Y-71928571D01*
X175845239Y-71880952D01*
X174357143Y-75016666D02*
X174404762Y-75064285D01*
X174452381Y-75207142D01*
X174452381Y-75302380D01*
X174404762Y-75445238D01*
X174309524Y-75540476D01*
X174214286Y-75588095D01*
X174023810Y-75635714D01*
X173880952Y-75635714D01*
X173690476Y-75588095D01*
X173595238Y-75540476D01*
X173500000Y-75445238D01*
X173452381Y-75302380D01*
X173452381Y-75207142D01*
X173500000Y-75064285D01*
X173547619Y-75016666D01*
X174452381Y-74540476D02*
X174452381Y-74350000D01*
X174404762Y-74254761D01*
X174357143Y-74207142D01*
X174214286Y-74111904D01*
X174023810Y-74064285D01*
X173642857Y-74064285D01*
X173547619Y-74111904D01*
X173500000Y-74159523D01*
X173452381Y-74254761D01*
X173452381Y-74445238D01*
X173500000Y-74540476D01*
X173547619Y-74588095D01*
X173642857Y-74635714D01*
X173880952Y-74635714D01*
X173976190Y-74588095D01*
X174023810Y-74540476D01*
X174071429Y-74445238D01*
X174071429Y-74254761D01*
X174023810Y-74159523D01*
X173976190Y-74111904D01*
X173880952Y-74064285D01*
X174607143Y-74357143D02*
X174559524Y-74404762D01*
X174416667Y-74452381D01*
X174321429Y-74452381D01*
X174178571Y-74404762D01*
X174083333Y-74309524D01*
X174035714Y-74214286D01*
X173988095Y-74023810D01*
X173988095Y-73880952D01*
X174035714Y-73690476D01*
X174083333Y-73595238D01*
X174178571Y-73500000D01*
X174321429Y-73452381D01*
X174416667Y-73452381D01*
X174559524Y-73500000D01*
X174607143Y-73547619D01*
X175559524Y-74452381D02*
X174988095Y-74452381D01*
X175273809Y-74452381D02*
X175273809Y-73452381D01*
X175178571Y-73595238D01*
X175083333Y-73690476D01*
X174988095Y-73738095D01*
X176178571Y-73452381D02*
X176273810Y-73452381D01*
X176369048Y-73500000D01*
X176416667Y-73547619D01*
X176464286Y-73642857D01*
X176511905Y-73833333D01*
X176511905Y-74071429D01*
X176464286Y-74261905D01*
X176416667Y-74357143D01*
X176369048Y-74404762D01*
X176273810Y-74452381D01*
X176178571Y-74452381D01*
X176083333Y-74404762D01*
X176035714Y-74357143D01*
X175988095Y-74261905D01*
X175940476Y-74071429D01*
X175940476Y-73833333D01*
X175988095Y-73642857D01*
X176035714Y-73547619D01*
X176083333Y-73500000D01*
X176178571Y-73452381D01*
X121261241Y-73488095D02*
X120261241Y-73488095D01*
X120261241Y-73250000D01*
X120308860Y-73107142D01*
X120404098Y-73011904D01*
X120499336Y-72964285D01*
X120689812Y-72916666D01*
X120832670Y-72916666D01*
X121023146Y-72964285D01*
X121118384Y-73011904D01*
X121213622Y-73107142D01*
X121261241Y-73250000D01*
X121261241Y-73488095D01*
X121261241Y-71964285D02*
X121261241Y-72535714D01*
X121261241Y-72250000D02*
X120261241Y-72250000D01*
X120404098Y-72345238D01*
X120499336Y-72440476D01*
X120546955Y-72535714D01*
X121261241Y-76738095D02*
X120261241Y-76738095D01*
X120261241Y-76500000D01*
X120308860Y-76357142D01*
X120404098Y-76261904D01*
X120499336Y-76214285D01*
X120689812Y-76166666D01*
X120832670Y-76166666D01*
X121023146Y-76214285D01*
X121118384Y-76261904D01*
X121213622Y-76357142D01*
X121261241Y-76500000D01*
X121261241Y-76738095D01*
X120356479Y-75785714D02*
X120308860Y-75738095D01*
X120261241Y-75642857D01*
X120261241Y-75404761D01*
X120308860Y-75309523D01*
X120356479Y-75261904D01*
X120451717Y-75214285D01*
X120546955Y-75214285D01*
X120689812Y-75261904D01*
X121261241Y-75833333D01*
X121261241Y-75214285D01*
X95261905Y-69602381D02*
X95261905Y-68602381D01*
X95642858Y-68602381D01*
X95738096Y-68650000D01*
X95785715Y-68697619D01*
X95833334Y-68792857D01*
X95833334Y-68935714D01*
X95785715Y-69030952D01*
X95738096Y-69078571D01*
X95642858Y-69126190D01*
X95261905Y-69126190D01*
X96785715Y-69602381D02*
X96214286Y-69602381D01*
X96500000Y-69602381D02*
X96500000Y-68602381D01*
X96404762Y-68745238D01*
X96309524Y-68840476D01*
X96214286Y-68888095D01*
X106261905Y-73602381D02*
X106261905Y-72602381D01*
X106642858Y-72602381D01*
X106738096Y-72650000D01*
X106785715Y-72697619D01*
X106833334Y-72792857D01*
X106833334Y-72935714D01*
X106785715Y-73030952D01*
X106738096Y-73078571D01*
X106642858Y-73126190D01*
X106261905Y-73126190D01*
X107214286Y-72697619D02*
X107261905Y-72650000D01*
X107357143Y-72602381D01*
X107595239Y-72602381D01*
X107690477Y-72650000D01*
X107738096Y-72697619D01*
X107785715Y-72792857D01*
X107785715Y-72888095D01*
X107738096Y-73030952D01*
X107166667Y-73602381D01*
X107785715Y-73602381D01*
X104511905Y-77102381D02*
X104511905Y-76102381D01*
X104892858Y-76102381D01*
X104988096Y-76150000D01*
X105035715Y-76197619D01*
X105083334Y-76292857D01*
X105083334Y-76435714D01*
X105035715Y-76530952D01*
X104988096Y-76578571D01*
X104892858Y-76626190D01*
X104511905Y-76626190D01*
X105416667Y-76102381D02*
X106035715Y-76102381D01*
X105702381Y-76483333D01*
X105845239Y-76483333D01*
X105940477Y-76530952D01*
X105988096Y-76578571D01*
X106035715Y-76673810D01*
X106035715Y-76911905D01*
X105988096Y-77007143D01*
X105940477Y-77054762D01*
X105845239Y-77102381D01*
X105559524Y-77102381D01*
X105464286Y-77054762D01*
X105416667Y-77007143D01*
X97011905Y-66102381D02*
X97011905Y-65102381D01*
X97392858Y-65102381D01*
X97488096Y-65150000D01*
X97535715Y-65197619D01*
X97583334Y-65292857D01*
X97583334Y-65435714D01*
X97535715Y-65530952D01*
X97488096Y-65578571D01*
X97392858Y-65626190D01*
X97011905Y-65626190D01*
X98440477Y-65435714D02*
X98440477Y-66102381D01*
X98202381Y-65054762D02*
X97964286Y-65769048D01*
X98583334Y-65769048D01*
X102761905Y-73602381D02*
X102761905Y-72602381D01*
X103142858Y-72602381D01*
X103238096Y-72650000D01*
X103285715Y-72697619D01*
X103333334Y-72792857D01*
X103333334Y-72935714D01*
X103285715Y-73030952D01*
X103238096Y-73078571D01*
X103142858Y-73126190D01*
X102761905Y-73126190D01*
X104238096Y-72602381D02*
X103761905Y-72602381D01*
X103714286Y-73078571D01*
X103761905Y-73030952D01*
X103857143Y-72983333D01*
X104095239Y-72983333D01*
X104190477Y-73030952D01*
X104238096Y-73078571D01*
X104285715Y-73173810D01*
X104285715Y-73411905D01*
X104238096Y-73507143D01*
X104190477Y-73554762D01*
X104095239Y-73602381D01*
X103857143Y-73602381D01*
X103761905Y-73554762D01*
X103714286Y-73507143D01*
X104511905Y-69602381D02*
X104511905Y-68602381D01*
X104892858Y-68602381D01*
X104988096Y-68650000D01*
X105035715Y-68697619D01*
X105083334Y-68792857D01*
X105083334Y-68935714D01*
X105035715Y-69030952D01*
X104988096Y-69078571D01*
X104892858Y-69126190D01*
X104511905Y-69126190D01*
X105940477Y-68602381D02*
X105750000Y-68602381D01*
X105654762Y-68650000D01*
X105607143Y-68697619D01*
X105511905Y-68840476D01*
X105464286Y-69030952D01*
X105464286Y-69411905D01*
X105511905Y-69507143D01*
X105559524Y-69554762D01*
X105654762Y-69602381D01*
X105845239Y-69602381D01*
X105940477Y-69554762D01*
X105988096Y-69507143D01*
X106035715Y-69411905D01*
X106035715Y-69173810D01*
X105988096Y-69078571D01*
X105940477Y-69030952D01*
X105845239Y-68983333D01*
X105654762Y-68983333D01*
X105559524Y-69030952D01*
X105511905Y-69078571D01*
X105464286Y-69173810D01*
X106261905Y-66102381D02*
X106261905Y-65102381D01*
X106642858Y-65102381D01*
X106738096Y-65150000D01*
X106785715Y-65197619D01*
X106833334Y-65292857D01*
X106833334Y-65435714D01*
X106785715Y-65530952D01*
X106738096Y-65578571D01*
X106642858Y-65626190D01*
X106261905Y-65626190D01*
X107166667Y-65102381D02*
X107833334Y-65102381D01*
X107404762Y-66102381D01*
X95261905Y-77102381D02*
X95261905Y-76102381D01*
X95642858Y-76102381D01*
X95738096Y-76150000D01*
X95785715Y-76197619D01*
X95833334Y-76292857D01*
X95833334Y-76435714D01*
X95785715Y-76530952D01*
X95738096Y-76578571D01*
X95642858Y-76626190D01*
X95261905Y-76626190D01*
X96309524Y-77102381D02*
X96500000Y-77102381D01*
X96595239Y-77054762D01*
X96642858Y-77007143D01*
X96738096Y-76864286D01*
X96785715Y-76673810D01*
X96785715Y-76292857D01*
X96738096Y-76197619D01*
X96690477Y-76150000D01*
X96595239Y-76102381D01*
X96404762Y-76102381D01*
X96309524Y-76150000D01*
X96261905Y-76197619D01*
X96214286Y-76292857D01*
X96214286Y-76530952D01*
X96261905Y-76626190D01*
X96309524Y-76673810D01*
X96404762Y-76721429D01*
X96595239Y-76721429D01*
X96690477Y-76673810D01*
X96738096Y-76626190D01*
X96785715Y-76530952D01*
X93035714Y-73602381D02*
X93035714Y-72602381D01*
X93416667Y-72602381D01*
X93511905Y-72650000D01*
X93559524Y-72697619D01*
X93607143Y-72792857D01*
X93607143Y-72935714D01*
X93559524Y-73030952D01*
X93511905Y-73078571D01*
X93416667Y-73126190D01*
X93035714Y-73126190D01*
X94559524Y-73602381D02*
X93988095Y-73602381D01*
X94273809Y-73602381D02*
X94273809Y-72602381D01*
X94178571Y-72745238D01*
X94083333Y-72840476D01*
X93988095Y-72888095D01*
X95178571Y-72602381D02*
X95273810Y-72602381D01*
X95369048Y-72650000D01*
X95416667Y-72697619D01*
X95464286Y-72792857D01*
X95511905Y-72983333D01*
X95511905Y-73221429D01*
X95464286Y-73411905D01*
X95416667Y-73507143D01*
X95369048Y-73554762D01*
X95273810Y-73602381D01*
X95178571Y-73602381D01*
X95083333Y-73554762D01*
X95035714Y-73507143D01*
X94988095Y-73411905D01*
X94940476Y-73221429D01*
X94940476Y-72983333D01*
X94988095Y-72792857D01*
X95035714Y-72697619D01*
X95083333Y-72650000D01*
X95178571Y-72602381D01*
X96535714Y-73602381D02*
X96535714Y-72602381D01*
X96916667Y-72602381D01*
X97011905Y-72650000D01*
X97059524Y-72697619D01*
X97107143Y-72792857D01*
X97107143Y-72935714D01*
X97059524Y-73030952D01*
X97011905Y-73078571D01*
X96916667Y-73126190D01*
X96535714Y-73126190D01*
X98059524Y-73602381D02*
X97488095Y-73602381D01*
X97773809Y-73602381D02*
X97773809Y-72602381D01*
X97678571Y-72745238D01*
X97583333Y-72840476D01*
X97488095Y-72888095D01*
X99011905Y-73602381D02*
X98440476Y-73602381D01*
X98726190Y-73602381D02*
X98726190Y-72602381D01*
X98630952Y-72745238D01*
X98535714Y-72840476D01*
X98440476Y-72888095D01*
X178085714Y-78152381D02*
X178085714Y-77152381D01*
X178466667Y-77152381D01*
X178561905Y-77200000D01*
X178609524Y-77247619D01*
X178657143Y-77342857D01*
X178657143Y-77485714D01*
X178609524Y-77580952D01*
X178561905Y-77628571D01*
X178466667Y-77676190D01*
X178085714Y-77676190D01*
X179609524Y-78152381D02*
X179038095Y-78152381D01*
X179323809Y-78152381D02*
X179323809Y-77152381D01*
X179228571Y-77295238D01*
X179133333Y-77390476D01*
X179038095Y-77438095D01*
X179942857Y-77152381D02*
X180561905Y-77152381D01*
X180228571Y-77533333D01*
X180371429Y-77533333D01*
X180466667Y-77580952D01*
X180514286Y-77628571D01*
X180561905Y-77723810D01*
X180561905Y-77961905D01*
X180514286Y-78057143D01*
X180466667Y-78104762D01*
X180371429Y-78152381D01*
X180085714Y-78152381D01*
X179990476Y-78104762D01*
X179942857Y-78057143D01*
X181585714Y-78152381D02*
X181585714Y-77152381D01*
X181966667Y-77152381D01*
X182061905Y-77200000D01*
X182109524Y-77247619D01*
X182157143Y-77342857D01*
X182157143Y-77485714D01*
X182109524Y-77580952D01*
X182061905Y-77628571D01*
X181966667Y-77676190D01*
X181585714Y-77676190D01*
X183109524Y-78152381D02*
X182538095Y-78152381D01*
X182823809Y-78152381D02*
X182823809Y-77152381D01*
X182728571Y-77295238D01*
X182633333Y-77390476D01*
X182538095Y-77438095D01*
X183966667Y-77485714D02*
X183966667Y-78152381D01*
X183728571Y-77104762D02*
X183490476Y-77819048D01*
X184109524Y-77819048D01*
X174585714Y-78152381D02*
X174585714Y-77152381D01*
X174966667Y-77152381D01*
X175061905Y-77200000D01*
X175109524Y-77247619D01*
X175157143Y-77342857D01*
X175157143Y-77485714D01*
X175109524Y-77580952D01*
X175061905Y-77628571D01*
X174966667Y-77676190D01*
X174585714Y-77676190D01*
X176109524Y-78152381D02*
X175538095Y-78152381D01*
X175823809Y-78152381D02*
X175823809Y-77152381D01*
X175728571Y-77295238D01*
X175633333Y-77390476D01*
X175538095Y-77438095D01*
X176966667Y-77152381D02*
X176776190Y-77152381D01*
X176680952Y-77200000D01*
X176633333Y-77247619D01*
X176538095Y-77390476D01*
X176490476Y-77580952D01*
X176490476Y-77961905D01*
X176538095Y-78057143D01*
X176585714Y-78104762D01*
X176680952Y-78152381D01*
X176871429Y-78152381D01*
X176966667Y-78104762D01*
X177014286Y-78057143D01*
X177061905Y-77961905D01*
X177061905Y-77723810D01*
X177014286Y-77628571D01*
X176966667Y-77580952D01*
X176871429Y-77533333D01*
X176680952Y-77533333D01*
X176585714Y-77580952D01*
X176538095Y-77628571D01*
X176490476Y-77723810D01*
X176085714Y-65152381D02*
X176085714Y-64152381D01*
X176466667Y-64152381D01*
X176561905Y-64200000D01*
X176609524Y-64247619D01*
X176657143Y-64342857D01*
X176657143Y-64485714D01*
X176609524Y-64580952D01*
X176561905Y-64628571D01*
X176466667Y-64676190D01*
X176085714Y-64676190D01*
X177609524Y-65152381D02*
X177038095Y-65152381D01*
X177323809Y-65152381D02*
X177323809Y-64152381D01*
X177228571Y-64295238D01*
X177133333Y-64390476D01*
X177038095Y-64438095D01*
X177942857Y-64152381D02*
X178609524Y-64152381D01*
X178180952Y-65152381D01*
X169815714Y-78092381D02*
X169815714Y-77092381D01*
X170196667Y-77092381D01*
X170291905Y-77140000D01*
X170339524Y-77187619D01*
X170387143Y-77282857D01*
X170387143Y-77425714D01*
X170339524Y-77520952D01*
X170291905Y-77568571D01*
X170196667Y-77616190D01*
X169815714Y-77616190D01*
X171339524Y-78092381D02*
X170768095Y-78092381D01*
X171053809Y-78092381D02*
X171053809Y-77092381D01*
X170958571Y-77235238D01*
X170863333Y-77330476D01*
X170768095Y-77378095D01*
X171910952Y-77520952D02*
X171815714Y-77473333D01*
X171768095Y-77425714D01*
X171720476Y-77330476D01*
X171720476Y-77282857D01*
X171768095Y-77187619D01*
X171815714Y-77140000D01*
X171910952Y-77092381D01*
X172101429Y-77092381D01*
X172196667Y-77140000D01*
X172244286Y-77187619D01*
X172291905Y-77282857D01*
X172291905Y-77330476D01*
X172244286Y-77425714D01*
X172196667Y-77473333D01*
X172101429Y-77520952D01*
X171910952Y-77520952D01*
X171815714Y-77568571D01*
X171768095Y-77616190D01*
X171720476Y-77711429D01*
X171720476Y-77901905D01*
X171768095Y-77997143D01*
X171815714Y-78044762D01*
X171910952Y-78092381D01*
X172101429Y-78092381D01*
X172196667Y-78044762D01*
X172244286Y-77997143D01*
X172291905Y-77901905D01*
X172291905Y-77711429D01*
X172244286Y-77616190D01*
X172196667Y-77568571D01*
X172101429Y-77520952D01*
X158585714Y-61112381D02*
X158585714Y-60112381D01*
X158966667Y-60112381D01*
X159061905Y-60160000D01*
X159109524Y-60207619D01*
X159157143Y-60302857D01*
X159157143Y-60445714D01*
X159109524Y-60540952D01*
X159061905Y-60588571D01*
X158966667Y-60636190D01*
X158585714Y-60636190D01*
X160109524Y-61112381D02*
X159538095Y-61112381D01*
X159823809Y-61112381D02*
X159823809Y-60112381D01*
X159728571Y-60255238D01*
X159633333Y-60350476D01*
X159538095Y-60398095D01*
X160585714Y-61112381D02*
X160776190Y-61112381D01*
X160871429Y-61064762D01*
X160919048Y-61017143D01*
X161014286Y-60874286D01*
X161061905Y-60683810D01*
X161061905Y-60302857D01*
X161014286Y-60207619D01*
X160966667Y-60160000D01*
X160871429Y-60112381D01*
X160680952Y-60112381D01*
X160585714Y-60160000D01*
X160538095Y-60207619D01*
X160490476Y-60302857D01*
X160490476Y-60540952D01*
X160538095Y-60636190D01*
X160585714Y-60683810D01*
X160680952Y-60731429D01*
X160871429Y-60731429D01*
X160966667Y-60683810D01*
X161014286Y-60636190D01*
X161061905Y-60540952D01*
X120785714Y-78102381D02*
X120785714Y-77102381D01*
X121166667Y-77102381D01*
X121261905Y-77150000D01*
X121309524Y-77197619D01*
X121357143Y-77292857D01*
X121357143Y-77435714D01*
X121309524Y-77530952D01*
X121261905Y-77578571D01*
X121166667Y-77626190D01*
X120785714Y-77626190D01*
X121738095Y-77197619D02*
X121785714Y-77150000D01*
X121880952Y-77102381D01*
X122119048Y-77102381D01*
X122214286Y-77150000D01*
X122261905Y-77197619D01*
X122309524Y-77292857D01*
X122309524Y-77388095D01*
X122261905Y-77530952D01*
X121690476Y-78102381D01*
X122309524Y-78102381D01*
X122928571Y-77102381D02*
X123023810Y-77102381D01*
X123119048Y-77150000D01*
X123166667Y-77197619D01*
X123214286Y-77292857D01*
X123261905Y-77483333D01*
X123261905Y-77721429D01*
X123214286Y-77911905D01*
X123166667Y-78007143D01*
X123119048Y-78054762D01*
X123023810Y-78102381D01*
X122928571Y-78102381D01*
X122833333Y-78054762D01*
X122785714Y-78007143D01*
X122738095Y-77911905D01*
X122690476Y-77721429D01*
X122690476Y-77483333D01*
X122738095Y-77292857D01*
X122785714Y-77197619D01*
X122833333Y-77150000D01*
X122928571Y-77102381D01*
X120785714Y-61102381D02*
X120785714Y-60102381D01*
X121166667Y-60102381D01*
X121261905Y-60150000D01*
X121309524Y-60197619D01*
X121357143Y-60292857D01*
X121357143Y-60435714D01*
X121309524Y-60530952D01*
X121261905Y-60578571D01*
X121166667Y-60626190D01*
X120785714Y-60626190D01*
X121738095Y-60197619D02*
X121785714Y-60150000D01*
X121880952Y-60102381D01*
X122119048Y-60102381D01*
X122214286Y-60150000D01*
X122261905Y-60197619D01*
X122309524Y-60292857D01*
X122309524Y-60388095D01*
X122261905Y-60530952D01*
X121690476Y-61102381D01*
X122309524Y-61102381D01*
X123261905Y-61102381D02*
X122690476Y-61102381D01*
X122976190Y-61102381D02*
X122976190Y-60102381D01*
X122880952Y-60245238D01*
X122785714Y-60340476D01*
X122690476Y-60388095D01*
X141535714Y-78102381D02*
X141535714Y-77102381D01*
X141916667Y-77102381D01*
X142011905Y-77150000D01*
X142059524Y-77197619D01*
X142107143Y-77292857D01*
X142107143Y-77435714D01*
X142059524Y-77530952D01*
X142011905Y-77578571D01*
X141916667Y-77626190D01*
X141535714Y-77626190D01*
X142488095Y-77197619D02*
X142535714Y-77150000D01*
X142630952Y-77102381D01*
X142869048Y-77102381D01*
X142964286Y-77150000D01*
X143011905Y-77197619D01*
X143059524Y-77292857D01*
X143059524Y-77388095D01*
X143011905Y-77530952D01*
X142440476Y-78102381D01*
X143059524Y-78102381D01*
X143440476Y-77197619D02*
X143488095Y-77150000D01*
X143583333Y-77102381D01*
X143821429Y-77102381D01*
X143916667Y-77150000D01*
X143964286Y-77197619D01*
X144011905Y-77292857D01*
X144011905Y-77388095D01*
X143964286Y-77530952D01*
X143392857Y-78102381D01*
X144011905Y-78102381D01*
X141535714Y-61102381D02*
X141535714Y-60102381D01*
X141916667Y-60102381D01*
X142011905Y-60150000D01*
X142059524Y-60197619D01*
X142107143Y-60292857D01*
X142107143Y-60435714D01*
X142059524Y-60530952D01*
X142011905Y-60578571D01*
X141916667Y-60626190D01*
X141535714Y-60626190D01*
X142488095Y-60197619D02*
X142535714Y-60150000D01*
X142630952Y-60102381D01*
X142869048Y-60102381D01*
X142964286Y-60150000D01*
X143011905Y-60197619D01*
X143059524Y-60292857D01*
X143059524Y-60388095D01*
X143011905Y-60530952D01*
X142440476Y-61102381D01*
X143059524Y-61102381D01*
X143392857Y-60102381D02*
X144011905Y-60102381D01*
X143678571Y-60483333D01*
X143821429Y-60483333D01*
X143916667Y-60530952D01*
X143964286Y-60578571D01*
X144011905Y-60673810D01*
X144011905Y-60911905D01*
X143964286Y-61007143D01*
X143916667Y-61054762D01*
X143821429Y-61102381D01*
X143535714Y-61102381D01*
X143440476Y-61054762D01*
X143392857Y-61007143D01*
X162085714Y-61112381D02*
X162085714Y-60112381D01*
X162466667Y-60112381D01*
X162561905Y-60160000D01*
X162609524Y-60207619D01*
X162657143Y-60302857D01*
X162657143Y-60445714D01*
X162609524Y-60540952D01*
X162561905Y-60588571D01*
X162466667Y-60636190D01*
X162085714Y-60636190D01*
X163038095Y-60207619D02*
X163085714Y-60160000D01*
X163180952Y-60112381D01*
X163419048Y-60112381D01*
X163514286Y-60160000D01*
X163561905Y-60207619D01*
X163609524Y-60302857D01*
X163609524Y-60398095D01*
X163561905Y-60540952D01*
X162990476Y-61112381D01*
X163609524Y-61112381D01*
X163942857Y-60112381D02*
X164609524Y-60112381D01*
X164180952Y-61112381D01*
X166325714Y-78092381D02*
X166325714Y-77092381D01*
X166706667Y-77092381D01*
X166801905Y-77140000D01*
X166849524Y-77187619D01*
X166897143Y-77282857D01*
X166897143Y-77425714D01*
X166849524Y-77520952D01*
X166801905Y-77568571D01*
X166706667Y-77616190D01*
X166325714Y-77616190D01*
X167278095Y-77187619D02*
X167325714Y-77140000D01*
X167420952Y-77092381D01*
X167659048Y-77092381D01*
X167754286Y-77140000D01*
X167801905Y-77187619D01*
X167849524Y-77282857D01*
X167849524Y-77378095D01*
X167801905Y-77520952D01*
X167230476Y-78092381D01*
X167849524Y-78092381D01*
X168420952Y-77520952D02*
X168325714Y-77473333D01*
X168278095Y-77425714D01*
X168230476Y-77330476D01*
X168230476Y-77282857D01*
X168278095Y-77187619D01*
X168325714Y-77140000D01*
X168420952Y-77092381D01*
X168611429Y-77092381D01*
X168706667Y-77140000D01*
X168754286Y-77187619D01*
X168801905Y-77282857D01*
X168801905Y-77330476D01*
X168754286Y-77425714D01*
X168706667Y-77473333D01*
X168611429Y-77520952D01*
X168420952Y-77520952D01*
X168325714Y-77568571D01*
X168278095Y-77616190D01*
X168230476Y-77711429D01*
X168230476Y-77901905D01*
X168278095Y-77997143D01*
X168325714Y-78044762D01*
X168420952Y-78092381D01*
X168611429Y-78092381D01*
X168706667Y-78044762D01*
X168754286Y-77997143D01*
X168801905Y-77901905D01*
X168801905Y-77711429D01*
X168754286Y-77616190D01*
X168706667Y-77568571D01*
X168611429Y-77520952D01*
X127785714Y-61102381D02*
X127785714Y-60102381D01*
X128166667Y-60102381D01*
X128261905Y-60150000D01*
X128309524Y-60197619D01*
X128357143Y-60292857D01*
X128357143Y-60435714D01*
X128309524Y-60530952D01*
X128261905Y-60578571D01*
X128166667Y-60626190D01*
X127785714Y-60626190D01*
X128738095Y-60197619D02*
X128785714Y-60150000D01*
X128880952Y-60102381D01*
X129119048Y-60102381D01*
X129214286Y-60150000D01*
X129261905Y-60197619D01*
X129309524Y-60292857D01*
X129309524Y-60388095D01*
X129261905Y-60530952D01*
X128690476Y-61102381D01*
X129309524Y-61102381D01*
X129785714Y-61102381D02*
X129976190Y-61102381D01*
X130071429Y-61054762D01*
X130119048Y-61007143D01*
X130214286Y-60864286D01*
X130261905Y-60673810D01*
X130261905Y-60292857D01*
X130214286Y-60197619D01*
X130166667Y-60150000D01*
X130071429Y-60102381D01*
X129880952Y-60102381D01*
X129785714Y-60150000D01*
X129738095Y-60197619D01*
X129690476Y-60292857D01*
X129690476Y-60530952D01*
X129738095Y-60626190D01*
X129785714Y-60673810D01*
X129880952Y-60721429D01*
X130071429Y-60721429D01*
X130166667Y-60673810D01*
X130214286Y-60626190D01*
X130261905Y-60530952D01*
X131285714Y-61102381D02*
X131285714Y-60102381D01*
X131666667Y-60102381D01*
X131761905Y-60150000D01*
X131809524Y-60197619D01*
X131857143Y-60292857D01*
X131857143Y-60435714D01*
X131809524Y-60530952D01*
X131761905Y-60578571D01*
X131666667Y-60626190D01*
X131285714Y-60626190D01*
X132190476Y-60102381D02*
X132809524Y-60102381D01*
X132476190Y-60483333D01*
X132619048Y-60483333D01*
X132714286Y-60530952D01*
X132761905Y-60578571D01*
X132809524Y-60673810D01*
X132809524Y-60911905D01*
X132761905Y-61007143D01*
X132714286Y-61054762D01*
X132619048Y-61102381D01*
X132333333Y-61102381D01*
X132238095Y-61054762D01*
X132190476Y-61007143D01*
X133428571Y-60102381D02*
X133523810Y-60102381D01*
X133619048Y-60150000D01*
X133666667Y-60197619D01*
X133714286Y-60292857D01*
X133761905Y-60483333D01*
X133761905Y-60721429D01*
X133714286Y-60911905D01*
X133666667Y-61007143D01*
X133619048Y-61054762D01*
X133523810Y-61102381D01*
X133428571Y-61102381D01*
X133333333Y-61054762D01*
X133285714Y-61007143D01*
X133238095Y-60911905D01*
X133190476Y-60721429D01*
X133190476Y-60483333D01*
X133238095Y-60292857D01*
X133285714Y-60197619D01*
X133333333Y-60150000D01*
X133428571Y-60102381D01*
X124285714Y-61102381D02*
X124285714Y-60102381D01*
X124666667Y-60102381D01*
X124761905Y-60150000D01*
X124809524Y-60197619D01*
X124857143Y-60292857D01*
X124857143Y-60435714D01*
X124809524Y-60530952D01*
X124761905Y-60578571D01*
X124666667Y-60626190D01*
X124285714Y-60626190D01*
X125190476Y-60102381D02*
X125809524Y-60102381D01*
X125476190Y-60483333D01*
X125619048Y-60483333D01*
X125714286Y-60530952D01*
X125761905Y-60578571D01*
X125809524Y-60673810D01*
X125809524Y-60911905D01*
X125761905Y-61007143D01*
X125714286Y-61054762D01*
X125619048Y-61102381D01*
X125333333Y-61102381D01*
X125238095Y-61054762D01*
X125190476Y-61007143D01*
X126761905Y-61102381D02*
X126190476Y-61102381D01*
X126476190Y-61102381D02*
X126476190Y-60102381D01*
X126380952Y-60245238D01*
X126285714Y-60340476D01*
X126190476Y-60388095D01*
X127785714Y-78102381D02*
X127785714Y-77102381D01*
X128166667Y-77102381D01*
X128261905Y-77150000D01*
X128309524Y-77197619D01*
X128357143Y-77292857D01*
X128357143Y-77435714D01*
X128309524Y-77530952D01*
X128261905Y-77578571D01*
X128166667Y-77626190D01*
X127785714Y-77626190D01*
X128690476Y-77102381D02*
X129309524Y-77102381D01*
X128976190Y-77483333D01*
X129119048Y-77483333D01*
X129214286Y-77530952D01*
X129261905Y-77578571D01*
X129309524Y-77673810D01*
X129309524Y-77911905D01*
X129261905Y-78007143D01*
X129214286Y-78054762D01*
X129119048Y-78102381D01*
X128833333Y-78102381D01*
X128738095Y-78054762D01*
X128690476Y-78007143D01*
X129690476Y-77197619D02*
X129738095Y-77150000D01*
X129833333Y-77102381D01*
X130071429Y-77102381D01*
X130166667Y-77150000D01*
X130214286Y-77197619D01*
X130261905Y-77292857D01*
X130261905Y-77388095D01*
X130214286Y-77530952D01*
X129642857Y-78102381D01*
X130261905Y-78102381D01*
X131285714Y-78102381D02*
X131285714Y-77102381D01*
X131666667Y-77102381D01*
X131761905Y-77150000D01*
X131809524Y-77197619D01*
X131857143Y-77292857D01*
X131857143Y-77435714D01*
X131809524Y-77530952D01*
X131761905Y-77578571D01*
X131666667Y-77626190D01*
X131285714Y-77626190D01*
X132190476Y-77102381D02*
X132809524Y-77102381D01*
X132476190Y-77483333D01*
X132619048Y-77483333D01*
X132714286Y-77530952D01*
X132761905Y-77578571D01*
X132809524Y-77673810D01*
X132809524Y-77911905D01*
X132761905Y-78007143D01*
X132714286Y-78054762D01*
X132619048Y-78102381D01*
X132333333Y-78102381D01*
X132238095Y-78054762D01*
X132190476Y-78007143D01*
X133142857Y-77102381D02*
X133761905Y-77102381D01*
X133428571Y-77483333D01*
X133571429Y-77483333D01*
X133666667Y-77530952D01*
X133714286Y-77578571D01*
X133761905Y-77673810D01*
X133761905Y-77911905D01*
X133714286Y-78007143D01*
X133666667Y-78054762D01*
X133571429Y-78102381D01*
X133285714Y-78102381D01*
X133190476Y-78054762D01*
X133142857Y-78007143D01*
X124285714Y-78102381D02*
X124285714Y-77102381D01*
X124666667Y-77102381D01*
X124761905Y-77150000D01*
X124809524Y-77197619D01*
X124857143Y-77292857D01*
X124857143Y-77435714D01*
X124809524Y-77530952D01*
X124761905Y-77578571D01*
X124666667Y-77626190D01*
X124285714Y-77626190D01*
X125190476Y-77102381D02*
X125809524Y-77102381D01*
X125476190Y-77483333D01*
X125619048Y-77483333D01*
X125714286Y-77530952D01*
X125761905Y-77578571D01*
X125809524Y-77673810D01*
X125809524Y-77911905D01*
X125761905Y-78007143D01*
X125714286Y-78054762D01*
X125619048Y-78102381D01*
X125333333Y-78102381D01*
X125238095Y-78054762D01*
X125190476Y-78007143D01*
X126666667Y-77435714D02*
X126666667Y-78102381D01*
X126428571Y-77054762D02*
X126190476Y-77769048D01*
X126809524Y-77769048D01*
X166585714Y-61152381D02*
X166585714Y-60152381D01*
X166966667Y-60152381D01*
X167061905Y-60200000D01*
X167109524Y-60247619D01*
X167157143Y-60342857D01*
X167157143Y-60485714D01*
X167109524Y-60580952D01*
X167061905Y-60628571D01*
X166966667Y-60676190D01*
X166585714Y-60676190D01*
X167490476Y-60152381D02*
X168109524Y-60152381D01*
X167776190Y-60533333D01*
X167919048Y-60533333D01*
X168014286Y-60580952D01*
X168061905Y-60628571D01*
X168109524Y-60723810D01*
X168109524Y-60961905D01*
X168061905Y-61057143D01*
X168014286Y-61104762D01*
X167919048Y-61152381D01*
X167633333Y-61152381D01*
X167538095Y-61104762D01*
X167490476Y-61057143D01*
X169014286Y-60152381D02*
X168538095Y-60152381D01*
X168490476Y-60628571D01*
X168538095Y-60580952D01*
X168633333Y-60533333D01*
X168871429Y-60533333D01*
X168966667Y-60580952D01*
X169014286Y-60628571D01*
X169061905Y-60723810D01*
X169061905Y-60961905D01*
X169014286Y-61057143D01*
X168966667Y-61104762D01*
X168871429Y-61152381D01*
X168633333Y-61152381D01*
X168538095Y-61104762D01*
X168490476Y-61057143D01*
X176085714Y-61152381D02*
X176085714Y-60152381D01*
X176466667Y-60152381D01*
X176561905Y-60200000D01*
X176609524Y-60247619D01*
X176657143Y-60342857D01*
X176657143Y-60485714D01*
X176609524Y-60580952D01*
X176561905Y-60628571D01*
X176466667Y-60676190D01*
X176085714Y-60676190D01*
X176990476Y-60152381D02*
X177609524Y-60152381D01*
X177276190Y-60533333D01*
X177419048Y-60533333D01*
X177514286Y-60580952D01*
X177561905Y-60628571D01*
X177609524Y-60723810D01*
X177609524Y-60961905D01*
X177561905Y-61057143D01*
X177514286Y-61104762D01*
X177419048Y-61152381D01*
X177133333Y-61152381D01*
X177038095Y-61104762D01*
X176990476Y-61057143D01*
X178466667Y-60152381D02*
X178276190Y-60152381D01*
X178180952Y-60200000D01*
X178133333Y-60247619D01*
X178038095Y-60390476D01*
X177990476Y-60580952D01*
X177990476Y-60961905D01*
X178038095Y-61057143D01*
X178085714Y-61104762D01*
X178180952Y-61152381D01*
X178371429Y-61152381D01*
X178466667Y-61104762D01*
X178514286Y-61057143D01*
X178561905Y-60961905D01*
X178561905Y-60723810D01*
X178514286Y-60628571D01*
X178466667Y-60580952D01*
X178371429Y-60533333D01*
X178180952Y-60533333D01*
X178085714Y-60580952D01*
X178038095Y-60628571D01*
X177990476Y-60723810D01*
X160585714Y-78052381D02*
X160585714Y-77052381D01*
X160966667Y-77052381D01*
X161061905Y-77100000D01*
X161109524Y-77147619D01*
X161157143Y-77242857D01*
X161157143Y-77385714D01*
X161109524Y-77480952D01*
X161061905Y-77528571D01*
X160966667Y-77576190D01*
X160585714Y-77576190D01*
X161490476Y-77052381D02*
X162109524Y-77052381D01*
X161776190Y-77433333D01*
X161919048Y-77433333D01*
X162014286Y-77480952D01*
X162061905Y-77528571D01*
X162109524Y-77623810D01*
X162109524Y-77861905D01*
X162061905Y-77957143D01*
X162014286Y-78004762D01*
X161919048Y-78052381D01*
X161633333Y-78052381D01*
X161538095Y-78004762D01*
X161490476Y-77957143D01*
X162442857Y-77052381D02*
X163109524Y-77052381D01*
X162680952Y-78052381D01*
X179585714Y-61152381D02*
X179585714Y-60152381D01*
X179966667Y-60152381D01*
X180061905Y-60200000D01*
X180109524Y-60247619D01*
X180157143Y-60342857D01*
X180157143Y-60485714D01*
X180109524Y-60580952D01*
X180061905Y-60628571D01*
X179966667Y-60676190D01*
X179585714Y-60676190D01*
X180490476Y-60152381D02*
X181109524Y-60152381D01*
X180776190Y-60533333D01*
X180919048Y-60533333D01*
X181014286Y-60580952D01*
X181061905Y-60628571D01*
X181109524Y-60723810D01*
X181109524Y-60961905D01*
X181061905Y-61057143D01*
X181014286Y-61104762D01*
X180919048Y-61152381D01*
X180633333Y-61152381D01*
X180538095Y-61104762D01*
X180490476Y-61057143D01*
X181680952Y-60580952D02*
X181585714Y-60533333D01*
X181538095Y-60485714D01*
X181490476Y-60390476D01*
X181490476Y-60342857D01*
X181538095Y-60247619D01*
X181585714Y-60200000D01*
X181680952Y-60152381D01*
X181871429Y-60152381D01*
X181966667Y-60200000D01*
X182014286Y-60247619D01*
X182061905Y-60342857D01*
X182061905Y-60390476D01*
X182014286Y-60485714D01*
X181966667Y-60533333D01*
X181871429Y-60580952D01*
X181680952Y-60580952D01*
X181585714Y-60628571D01*
X181538095Y-60676190D01*
X181490476Y-60771429D01*
X181490476Y-60961905D01*
X181538095Y-61057143D01*
X181585714Y-61104762D01*
X181680952Y-61152381D01*
X181871429Y-61152381D01*
X181966667Y-61104762D01*
X182014286Y-61057143D01*
X182061905Y-60961905D01*
X182061905Y-60771429D01*
X182014286Y-60676190D01*
X181966667Y-60628571D01*
X181871429Y-60580952D01*
X170085714Y-61152381D02*
X170085714Y-60152381D01*
X170466667Y-60152381D01*
X170561905Y-60200000D01*
X170609524Y-60247619D01*
X170657143Y-60342857D01*
X170657143Y-60485714D01*
X170609524Y-60580952D01*
X170561905Y-60628571D01*
X170466667Y-60676190D01*
X170085714Y-60676190D01*
X170990476Y-60152381D02*
X171609524Y-60152381D01*
X171276190Y-60533333D01*
X171419048Y-60533333D01*
X171514286Y-60580952D01*
X171561905Y-60628571D01*
X171609524Y-60723810D01*
X171609524Y-60961905D01*
X171561905Y-61057143D01*
X171514286Y-61104762D01*
X171419048Y-61152381D01*
X171133333Y-61152381D01*
X171038095Y-61104762D01*
X170990476Y-61057143D01*
X172085714Y-61152381D02*
X172276190Y-61152381D01*
X172371429Y-61104762D01*
X172419048Y-61057143D01*
X172514286Y-60914286D01*
X172561905Y-60723810D01*
X172561905Y-60342857D01*
X172514286Y-60247619D01*
X172466667Y-60200000D01*
X172371429Y-60152381D01*
X172180952Y-60152381D01*
X172085714Y-60200000D01*
X172038095Y-60247619D01*
X171990476Y-60342857D01*
X171990476Y-60580952D01*
X172038095Y-60676190D01*
X172085714Y-60723810D01*
X172180952Y-60771429D01*
X172371429Y-60771429D01*
X172466667Y-60723810D01*
X172514286Y-60676190D01*
X172561905Y-60580952D01*
X145035714Y-61102381D02*
X145035714Y-60102381D01*
X145416667Y-60102381D01*
X145511905Y-60150000D01*
X145559524Y-60197619D01*
X145607143Y-60292857D01*
X145607143Y-60435714D01*
X145559524Y-60530952D01*
X145511905Y-60578571D01*
X145416667Y-60626190D01*
X145035714Y-60626190D01*
X146464286Y-60435714D02*
X146464286Y-61102381D01*
X146226190Y-60054762D02*
X145988095Y-60769048D01*
X146607143Y-60769048D01*
X147178571Y-60102381D02*
X147273810Y-60102381D01*
X147369048Y-60150000D01*
X147416667Y-60197619D01*
X147464286Y-60292857D01*
X147511905Y-60483333D01*
X147511905Y-60721429D01*
X147464286Y-60911905D01*
X147416667Y-61007143D01*
X147369048Y-61054762D01*
X147273810Y-61102381D01*
X147178571Y-61102381D01*
X147083333Y-61054762D01*
X147035714Y-61007143D01*
X146988095Y-60911905D01*
X146940476Y-60721429D01*
X146940476Y-60483333D01*
X146988095Y-60292857D01*
X147035714Y-60197619D01*
X147083333Y-60150000D01*
X147178571Y-60102381D01*
X152035714Y-78102381D02*
X152035714Y-77102381D01*
X152416667Y-77102381D01*
X152511905Y-77150000D01*
X152559524Y-77197619D01*
X152607143Y-77292857D01*
X152607143Y-77435714D01*
X152559524Y-77530952D01*
X152511905Y-77578571D01*
X152416667Y-77626190D01*
X152035714Y-77626190D01*
X153464286Y-77435714D02*
X153464286Y-78102381D01*
X153226190Y-77054762D02*
X152988095Y-77769048D01*
X153607143Y-77769048D01*
X154511905Y-78102381D02*
X153940476Y-78102381D01*
X154226190Y-78102381D02*
X154226190Y-77102381D01*
X154130952Y-77245238D01*
X154035714Y-77340476D01*
X153940476Y-77388095D01*
X145035714Y-78102381D02*
X145035714Y-77102381D01*
X145416667Y-77102381D01*
X145511905Y-77150000D01*
X145559524Y-77197619D01*
X145607143Y-77292857D01*
X145607143Y-77435714D01*
X145559524Y-77530952D01*
X145511905Y-77578571D01*
X145416667Y-77626190D01*
X145035714Y-77626190D01*
X146464286Y-77435714D02*
X146464286Y-78102381D01*
X146226190Y-77054762D02*
X145988095Y-77769048D01*
X146607143Y-77769048D01*
X146940476Y-77197619D02*
X146988095Y-77150000D01*
X147083333Y-77102381D01*
X147321429Y-77102381D01*
X147416667Y-77150000D01*
X147464286Y-77197619D01*
X147511905Y-77292857D01*
X147511905Y-77388095D01*
X147464286Y-77530952D01*
X146892857Y-78102381D01*
X147511905Y-78102381D01*
X148535714Y-61102381D02*
X148535714Y-60102381D01*
X148916667Y-60102381D01*
X149011905Y-60150000D01*
X149059524Y-60197619D01*
X149107143Y-60292857D01*
X149107143Y-60435714D01*
X149059524Y-60530952D01*
X149011905Y-60578571D01*
X148916667Y-60626190D01*
X148535714Y-60626190D01*
X149964286Y-60435714D02*
X149964286Y-61102381D01*
X149726190Y-60054762D02*
X149488095Y-60769048D01*
X150107143Y-60769048D01*
X150392857Y-60102381D02*
X151011905Y-60102381D01*
X150678571Y-60483333D01*
X150821429Y-60483333D01*
X150916667Y-60530952D01*
X150964286Y-60578571D01*
X151011905Y-60673810D01*
X151011905Y-60911905D01*
X150964286Y-61007143D01*
X150916667Y-61054762D01*
X150821429Y-61102381D01*
X150535714Y-61102381D01*
X150440476Y-61054762D01*
X150392857Y-61007143D01*
X152035714Y-61102381D02*
X152035714Y-60102381D01*
X152416667Y-60102381D01*
X152511905Y-60150000D01*
X152559524Y-60197619D01*
X152607143Y-60292857D01*
X152607143Y-60435714D01*
X152559524Y-60530952D01*
X152511905Y-60578571D01*
X152416667Y-60626190D01*
X152035714Y-60626190D01*
X153464286Y-60435714D02*
X153464286Y-61102381D01*
X153226190Y-60054762D02*
X152988095Y-60769048D01*
X153607143Y-60769048D01*
X154416667Y-60435714D02*
X154416667Y-61102381D01*
X154178571Y-60054762D02*
X153940476Y-60769048D01*
X154559524Y-60769048D01*
X148535714Y-78102381D02*
X148535714Y-77102381D01*
X148916667Y-77102381D01*
X149011905Y-77150000D01*
X149059524Y-77197619D01*
X149107143Y-77292857D01*
X149107143Y-77435714D01*
X149059524Y-77530952D01*
X149011905Y-77578571D01*
X148916667Y-77626190D01*
X148535714Y-77626190D01*
X149964286Y-77435714D02*
X149964286Y-78102381D01*
X149726190Y-77054762D02*
X149488095Y-77769048D01*
X150107143Y-77769048D01*
X150964286Y-77102381D02*
X150488095Y-77102381D01*
X150440476Y-77578571D01*
X150488095Y-77530952D01*
X150583333Y-77483333D01*
X150821429Y-77483333D01*
X150916667Y-77530952D01*
X150964286Y-77578571D01*
X151011905Y-77673810D01*
X151011905Y-77911905D01*
X150964286Y-78007143D01*
X150916667Y-78054762D01*
X150821429Y-78102381D01*
X150583333Y-78102381D01*
X150488095Y-78054762D01*
X150440476Y-78007143D01*
X117683334Y-63852381D02*
X117350000Y-63376190D01*
X117111905Y-63852381D02*
X117111905Y-62852381D01*
X117492858Y-62852381D01*
X117588096Y-62900000D01*
X117635715Y-62947619D01*
X117683334Y-63042857D01*
X117683334Y-63185714D01*
X117635715Y-63280952D01*
X117588096Y-63328571D01*
X117492858Y-63376190D01*
X117111905Y-63376190D01*
X118635715Y-63852381D02*
X118064286Y-63852381D01*
X118350000Y-63852381D02*
X118350000Y-62852381D01*
X118254762Y-62995238D01*
X118159524Y-63090476D01*
X118064286Y-63138095D01*
X117733334Y-81352381D02*
X117400000Y-80876190D01*
X117161905Y-81352381D02*
X117161905Y-80352381D01*
X117542858Y-80352381D01*
X117638096Y-80400000D01*
X117685715Y-80447619D01*
X117733334Y-80542857D01*
X117733334Y-80685714D01*
X117685715Y-80780952D01*
X117638096Y-80828571D01*
X117542858Y-80876190D01*
X117161905Y-80876190D01*
X118114286Y-80447619D02*
X118161905Y-80400000D01*
X118257143Y-80352381D01*
X118495239Y-80352381D01*
X118590477Y-80400000D01*
X118638096Y-80447619D01*
X118685715Y-80542857D01*
X118685715Y-80638095D01*
X118638096Y-80780952D01*
X118066667Y-81352381D01*
X118685715Y-81352381D01*
X119602381Y-78316666D02*
X119126190Y-78650000D01*
X119602381Y-78888095D02*
X118602381Y-78888095D01*
X118602381Y-78507142D01*
X118650000Y-78411904D01*
X118697619Y-78364285D01*
X118792857Y-78316666D01*
X118935714Y-78316666D01*
X119030952Y-78364285D01*
X119078571Y-78411904D01*
X119126190Y-78507142D01*
X119126190Y-78888095D01*
X118602381Y-77983333D02*
X118602381Y-77364285D01*
X118983333Y-77697619D01*
X118983333Y-77554761D01*
X119030952Y-77459523D01*
X119078571Y-77411904D01*
X119173810Y-77364285D01*
X119411905Y-77364285D01*
X119507143Y-77411904D01*
X119554762Y-77459523D01*
X119602381Y-77554761D01*
X119602381Y-77840476D01*
X119554762Y-77935714D01*
X119507143Y-77983333D01*
X123802381Y-70566666D02*
X123326190Y-70900000D01*
X123802381Y-71138095D02*
X122802381Y-71138095D01*
X122802381Y-70757142D01*
X122850000Y-70661904D01*
X122897619Y-70614285D01*
X122992857Y-70566666D01*
X123135714Y-70566666D01*
X123230952Y-70614285D01*
X123278571Y-70661904D01*
X123326190Y-70757142D01*
X123326190Y-71138095D01*
X123135714Y-69709523D02*
X123802381Y-69709523D01*
X122754762Y-69947619D02*
X123469048Y-70185714D01*
X123469048Y-69566666D01*
X164852381Y-73016666D02*
X164376190Y-73350000D01*
X164852381Y-73588095D02*
X163852381Y-73588095D01*
X163852381Y-73207142D01*
X163900000Y-73111904D01*
X163947619Y-73064285D01*
X164042857Y-73016666D01*
X164185714Y-73016666D01*
X164280952Y-73064285D01*
X164328571Y-73111904D01*
X164376190Y-73207142D01*
X164376190Y-73588095D01*
X163852381Y-72159523D02*
X163852381Y-72350000D01*
X163900000Y-72445238D01*
X163947619Y-72492857D01*
X164090476Y-72588095D01*
X164280952Y-72635714D01*
X164661905Y-72635714D01*
X164757143Y-72588095D01*
X164804762Y-72540476D01*
X164852381Y-72445238D01*
X164852381Y-72254761D01*
X164804762Y-72159523D01*
X164757143Y-72111904D01*
X164661905Y-72064285D01*
X164423810Y-72064285D01*
X164328571Y-72111904D01*
X164280952Y-72159523D01*
X164233333Y-72254761D01*
X164233333Y-72445238D01*
X164280952Y-72540476D01*
X164328571Y-72588095D01*
X164423810Y-72635714D01*
X161783334Y-71852381D02*
X161450000Y-71376190D01*
X161211905Y-71852381D02*
X161211905Y-70852381D01*
X161592858Y-70852381D01*
X161688096Y-70900000D01*
X161735715Y-70947619D01*
X161783334Y-71042857D01*
X161783334Y-71185714D01*
X161735715Y-71280952D01*
X161688096Y-71328571D01*
X161592858Y-71376190D01*
X161211905Y-71376190D01*
X162354762Y-71280952D02*
X162259524Y-71233333D01*
X162211905Y-71185714D01*
X162164286Y-71090476D01*
X162164286Y-71042857D01*
X162211905Y-70947619D01*
X162259524Y-70900000D01*
X162354762Y-70852381D01*
X162545239Y-70852381D01*
X162640477Y-70900000D01*
X162688096Y-70947619D01*
X162735715Y-71042857D01*
X162735715Y-71090476D01*
X162688096Y-71185714D01*
X162640477Y-71233333D01*
X162545239Y-71280952D01*
X162354762Y-71280952D01*
X162259524Y-71328571D01*
X162211905Y-71376190D01*
X162164286Y-71471429D01*
X162164286Y-71661905D01*
X162211905Y-71757143D01*
X162259524Y-71804762D01*
X162354762Y-71852381D01*
X162545239Y-71852381D01*
X162640477Y-71804762D01*
X162688096Y-71757143D01*
X162735715Y-71661905D01*
X162735715Y-71471429D01*
X162688096Y-71376190D01*
X162640477Y-71328571D01*
X162545239Y-71280952D01*
X162752381Y-73016666D02*
X162276190Y-73350000D01*
X162752381Y-73588095D02*
X161752381Y-73588095D01*
X161752381Y-73207142D01*
X161800000Y-73111904D01*
X161847619Y-73064285D01*
X161942857Y-73016666D01*
X162085714Y-73016666D01*
X162180952Y-73064285D01*
X162228571Y-73111904D01*
X162276190Y-73207142D01*
X162276190Y-73588095D01*
X162752381Y-72540476D02*
X162752381Y-72350000D01*
X162704762Y-72254761D01*
X162657143Y-72207142D01*
X162514286Y-72111904D01*
X162323810Y-72064285D01*
X161942857Y-72064285D01*
X161847619Y-72111904D01*
X161800000Y-72159523D01*
X161752381Y-72254761D01*
X161752381Y-72445238D01*
X161800000Y-72540476D01*
X161847619Y-72588095D01*
X161942857Y-72635714D01*
X162180952Y-72635714D01*
X162276190Y-72588095D01*
X162323810Y-72540476D01*
X162371429Y-72445238D01*
X162371429Y-72254761D01*
X162323810Y-72159523D01*
X162276190Y-72111904D01*
X162180952Y-72064285D01*
X162957143Y-75052381D02*
X162623809Y-74576190D01*
X162385714Y-75052381D02*
X162385714Y-74052381D01*
X162766667Y-74052381D01*
X162861905Y-74100000D01*
X162909524Y-74147619D01*
X162957143Y-74242857D01*
X162957143Y-74385714D01*
X162909524Y-74480952D01*
X162861905Y-74528571D01*
X162766667Y-74576190D01*
X162385714Y-74576190D01*
X163909524Y-75052381D02*
X163338095Y-75052381D01*
X163623809Y-75052381D02*
X163623809Y-74052381D01*
X163528571Y-74195238D01*
X163433333Y-74290476D01*
X163338095Y-74338095D01*
X164528571Y-74052381D02*
X164623810Y-74052381D01*
X164719048Y-74100000D01*
X164766667Y-74147619D01*
X164814286Y-74242857D01*
X164861905Y-74433333D01*
X164861905Y-74671429D01*
X164814286Y-74861905D01*
X164766667Y-74957143D01*
X164719048Y-75004762D01*
X164623810Y-75052381D01*
X164528571Y-75052381D01*
X164433333Y-75004762D01*
X164385714Y-74957143D01*
X164338095Y-74861905D01*
X164290476Y-74671429D01*
X164290476Y-74433333D01*
X164338095Y-74242857D01*
X164385714Y-74147619D01*
X164433333Y-74100000D01*
X164528571Y-74052381D01*
X174452381Y-70792857D02*
X173976190Y-71126191D01*
X174452381Y-71364286D02*
X173452381Y-71364286D01*
X173452381Y-70983333D01*
X173500000Y-70888095D01*
X173547619Y-70840476D01*
X173642857Y-70792857D01*
X173785714Y-70792857D01*
X173880952Y-70840476D01*
X173928571Y-70888095D01*
X173976190Y-70983333D01*
X173976190Y-71364286D01*
X174452381Y-69840476D02*
X174452381Y-70411905D01*
X174452381Y-70126191D02*
X173452381Y-70126191D01*
X173595238Y-70221429D01*
X173690476Y-70316667D01*
X173738095Y-70411905D01*
X174452381Y-68888095D02*
X174452381Y-69459524D01*
X174452381Y-69173810D02*
X173452381Y-69173810D01*
X173595238Y-69269048D01*
X173690476Y-69364286D01*
X173738095Y-69459524D01*
X139307143Y-75352381D02*
X138973809Y-74876190D01*
X138735714Y-75352381D02*
X138735714Y-74352381D01*
X139116667Y-74352381D01*
X139211905Y-74400000D01*
X139259524Y-74447619D01*
X139307143Y-74542857D01*
X139307143Y-74685714D01*
X139259524Y-74780952D01*
X139211905Y-74828571D01*
X139116667Y-74876190D01*
X138735714Y-74876190D01*
X140259524Y-75352381D02*
X139688095Y-75352381D01*
X139973809Y-75352381D02*
X139973809Y-74352381D01*
X139878571Y-74495238D01*
X139783333Y-74590476D01*
X139688095Y-74638095D01*
X140640476Y-74447619D02*
X140688095Y-74400000D01*
X140783333Y-74352381D01*
X141021429Y-74352381D01*
X141116667Y-74400000D01*
X141164286Y-74447619D01*
X141211905Y-74542857D01*
X141211905Y-74638095D01*
X141164286Y-74780952D01*
X140592857Y-75352381D01*
X141211905Y-75352381D01*
X139307143Y-78252381D02*
X138973809Y-77776190D01*
X138735714Y-78252381D02*
X138735714Y-77252381D01*
X139116667Y-77252381D01*
X139211905Y-77300000D01*
X139259524Y-77347619D01*
X139307143Y-77442857D01*
X139307143Y-77585714D01*
X139259524Y-77680952D01*
X139211905Y-77728571D01*
X139116667Y-77776190D01*
X138735714Y-77776190D01*
X140259524Y-78252381D02*
X139688095Y-78252381D01*
X139973809Y-78252381D02*
X139973809Y-77252381D01*
X139878571Y-77395238D01*
X139783333Y-77490476D01*
X139688095Y-77538095D01*
X141116667Y-77585714D02*
X141116667Y-78252381D01*
X140878571Y-77204762D02*
X140640476Y-77919048D01*
X141259524Y-77919048D01*
X156807143Y-84052381D02*
X156473809Y-83576190D01*
X156235714Y-84052381D02*
X156235714Y-83052381D01*
X156616667Y-83052381D01*
X156711905Y-83100000D01*
X156759524Y-83147619D01*
X156807143Y-83242857D01*
X156807143Y-83385714D01*
X156759524Y-83480952D01*
X156711905Y-83528571D01*
X156616667Y-83576190D01*
X156235714Y-83576190D01*
X157759524Y-84052381D02*
X157188095Y-84052381D01*
X157473809Y-84052381D02*
X157473809Y-83052381D01*
X157378571Y-83195238D01*
X157283333Y-83290476D01*
X157188095Y-83338095D01*
X158616667Y-83052381D02*
X158426190Y-83052381D01*
X158330952Y-83100000D01*
X158283333Y-83147619D01*
X158188095Y-83290476D01*
X158140476Y-83480952D01*
X158140476Y-83861905D01*
X158188095Y-83957143D01*
X158235714Y-84004762D01*
X158330952Y-84052381D01*
X158521429Y-84052381D01*
X158616667Y-84004762D01*
X158664286Y-83957143D01*
X158711905Y-83861905D01*
X158711905Y-83623810D01*
X158664286Y-83528571D01*
X158616667Y-83480952D01*
X158521429Y-83433333D01*
X158330952Y-83433333D01*
X158235714Y-83480952D01*
X158188095Y-83528571D01*
X158140476Y-83623810D01*
X156807143Y-86052381D02*
X156473809Y-85576190D01*
X156235714Y-86052381D02*
X156235714Y-85052381D01*
X156616667Y-85052381D01*
X156711905Y-85100000D01*
X156759524Y-85147619D01*
X156807143Y-85242857D01*
X156807143Y-85385714D01*
X156759524Y-85480952D01*
X156711905Y-85528571D01*
X156616667Y-85576190D01*
X156235714Y-85576190D01*
X157759524Y-86052381D02*
X157188095Y-86052381D01*
X157473809Y-86052381D02*
X157473809Y-85052381D01*
X157378571Y-85195238D01*
X157283333Y-85290476D01*
X157188095Y-85338095D01*
X158092857Y-85052381D02*
X158759524Y-85052381D01*
X158330952Y-86052381D01*
X152107143Y-80252381D02*
X151773809Y-79776190D01*
X151535714Y-80252381D02*
X151535714Y-79252381D01*
X151916667Y-79252381D01*
X152011905Y-79300000D01*
X152059524Y-79347619D01*
X152107143Y-79442857D01*
X152107143Y-79585714D01*
X152059524Y-79680952D01*
X152011905Y-79728571D01*
X151916667Y-79776190D01*
X151535714Y-79776190D01*
X153059524Y-80252381D02*
X152488095Y-80252381D01*
X152773809Y-80252381D02*
X152773809Y-79252381D01*
X152678571Y-79395238D01*
X152583333Y-79490476D01*
X152488095Y-79538095D01*
X153630952Y-79680952D02*
X153535714Y-79633333D01*
X153488095Y-79585714D01*
X153440476Y-79490476D01*
X153440476Y-79442857D01*
X153488095Y-79347619D01*
X153535714Y-79300000D01*
X153630952Y-79252381D01*
X153821429Y-79252381D01*
X153916667Y-79300000D01*
X153964286Y-79347619D01*
X154011905Y-79442857D01*
X154011905Y-79490476D01*
X153964286Y-79585714D01*
X153916667Y-79633333D01*
X153821429Y-79680952D01*
X153630952Y-79680952D01*
X153535714Y-79728571D01*
X153488095Y-79776190D01*
X153440476Y-79871429D01*
X153440476Y-80061905D01*
X153488095Y-80157143D01*
X153535714Y-80204762D01*
X153630952Y-80252381D01*
X153821429Y-80252381D01*
X153916667Y-80204762D01*
X153964286Y-80157143D01*
X154011905Y-80061905D01*
X154011905Y-79871429D01*
X153964286Y-79776190D01*
X153916667Y-79728571D01*
X153821429Y-79680952D01*
X152107143Y-73452381D02*
X151773809Y-72976190D01*
X151535714Y-73452381D02*
X151535714Y-72452381D01*
X151916667Y-72452381D01*
X152011905Y-72500000D01*
X152059524Y-72547619D01*
X152107143Y-72642857D01*
X152107143Y-72785714D01*
X152059524Y-72880952D01*
X152011905Y-72928571D01*
X151916667Y-72976190D01*
X151535714Y-72976190D01*
X153059524Y-73452381D02*
X152488095Y-73452381D01*
X152773809Y-73452381D02*
X152773809Y-72452381D01*
X152678571Y-72595238D01*
X152583333Y-72690476D01*
X152488095Y-72738095D01*
X153535714Y-73452381D02*
X153726190Y-73452381D01*
X153821429Y-73404762D01*
X153869048Y-73357143D01*
X153964286Y-73214286D01*
X154011905Y-73023810D01*
X154011905Y-72642857D01*
X153964286Y-72547619D01*
X153916667Y-72500000D01*
X153821429Y-72452381D01*
X153630952Y-72452381D01*
X153535714Y-72500000D01*
X153488095Y-72547619D01*
X153440476Y-72642857D01*
X153440476Y-72880952D01*
X153488095Y-72976190D01*
X153535714Y-73023810D01*
X153630952Y-73071429D01*
X153821429Y-73071429D01*
X153916667Y-73023810D01*
X153964286Y-72976190D01*
X154011905Y-72880952D01*
X138552381Y-74842857D02*
X138076190Y-75176191D01*
X138552381Y-75414286D02*
X137552381Y-75414286D01*
X137552381Y-75033333D01*
X137600000Y-74938095D01*
X137647619Y-74890476D01*
X137742857Y-74842857D01*
X137885714Y-74842857D01*
X137980952Y-74890476D01*
X138028571Y-74938095D01*
X138076190Y-75033333D01*
X138076190Y-75414286D01*
X137647619Y-74461905D02*
X137600000Y-74414286D01*
X137552381Y-74319048D01*
X137552381Y-74080952D01*
X137600000Y-73985714D01*
X137647619Y-73938095D01*
X137742857Y-73890476D01*
X137838095Y-73890476D01*
X137980952Y-73938095D01*
X138552381Y-74509524D01*
X138552381Y-73890476D01*
X137552381Y-73271429D02*
X137552381Y-73176190D01*
X137600000Y-73080952D01*
X137647619Y-73033333D01*
X137742857Y-72985714D01*
X137933333Y-72938095D01*
X138171429Y-72938095D01*
X138361905Y-72985714D01*
X138457143Y-73033333D01*
X138504762Y-73080952D01*
X138552381Y-73176190D01*
X138552381Y-73271429D01*
X138504762Y-73366667D01*
X138457143Y-73414286D01*
X138361905Y-73461905D01*
X138171429Y-73509524D01*
X137933333Y-73509524D01*
X137742857Y-73461905D01*
X137647619Y-73414286D01*
X137600000Y-73366667D01*
X137552381Y-73271429D01*
X156652381Y-74942857D02*
X156176190Y-75276191D01*
X156652381Y-75514286D02*
X155652381Y-75514286D01*
X155652381Y-75133333D01*
X155700000Y-75038095D01*
X155747619Y-74990476D01*
X155842857Y-74942857D01*
X155985714Y-74942857D01*
X156080952Y-74990476D01*
X156128571Y-75038095D01*
X156176190Y-75133333D01*
X156176190Y-75514286D01*
X155747619Y-74561905D02*
X155700000Y-74514286D01*
X155652381Y-74419048D01*
X155652381Y-74180952D01*
X155700000Y-74085714D01*
X155747619Y-74038095D01*
X155842857Y-73990476D01*
X155938095Y-73990476D01*
X156080952Y-74038095D01*
X156652381Y-74609524D01*
X156652381Y-73990476D01*
X156652381Y-73038095D02*
X156652381Y-73609524D01*
X156652381Y-73323810D02*
X155652381Y-73323810D01*
X155795238Y-73419048D01*
X155890476Y-73514286D01*
X155938095Y-73609524D01*
D12*
X102697081Y-54203966D02*
X102914795Y-54276538D01*
X103277652Y-54276538D01*
X103422795Y-54203966D01*
X103495366Y-54131395D01*
X103567938Y-53986252D01*
X103567938Y-53841109D01*
X103495366Y-53695966D01*
X103422795Y-53623395D01*
X103277652Y-53550823D01*
X102987366Y-53478252D01*
X102842224Y-53405680D01*
X102769652Y-53333109D01*
X102697081Y-53187966D01*
X102697081Y-53042823D01*
X102769652Y-52897680D01*
X102842224Y-52825109D01*
X102987366Y-52752538D01*
X103350224Y-52752538D01*
X103567938Y-52825109D01*
X105019367Y-54276538D02*
X104148510Y-54276538D01*
X104583938Y-54276538D02*
X104583938Y-52752538D01*
X104438795Y-52970252D01*
X104293653Y-53115395D01*
X104148510Y-53187966D01*
X101281938Y-52752538D02*
X102225367Y-52752538D01*
X101717367Y-53333109D01*
X101935081Y-53333109D01*
X102080224Y-53405680D01*
X102152795Y-53478252D01*
X102225367Y-53623395D01*
X102225367Y-53986252D01*
X102152795Y-54131395D01*
X102080224Y-54203966D01*
X101935081Y-54276538D01*
X101499653Y-54276538D01*
X101354510Y-54203966D01*
X101281938Y-54131395D01*
X102878510Y-54276538D02*
X102878510Y-52752538D01*
X103459082Y-52752538D01*
X103604224Y-52825109D01*
X103676796Y-52897680D01*
X103749367Y-53042823D01*
X103749367Y-53260538D01*
X103676796Y-53405680D01*
X103604224Y-53478252D01*
X103459082Y-53550823D01*
X102878510Y-53550823D01*
X105055653Y-53260538D02*
X105055653Y-54276538D01*
X104692796Y-52679966D02*
X104329939Y-53768538D01*
X105273367Y-53768538D01*
X105636225Y-52752538D02*
X106507082Y-52752538D01*
X106071653Y-54276538D02*
X106071653Y-52752538D01*
D11*
X161252381Y-74961905D02*
X162061905Y-74961905D01*
X162157143Y-74914286D01*
X162204762Y-74866667D01*
X162252381Y-74771429D01*
X162252381Y-74580952D01*
X162204762Y-74485714D01*
X162157143Y-74438095D01*
X162061905Y-74390476D01*
X161252381Y-74390476D01*
X162252381Y-73390476D02*
X162252381Y-73961905D01*
X162252381Y-73676191D02*
X161252381Y-73676191D01*
X161395238Y-73771429D01*
X161490476Y-73866667D01*
X161538095Y-73961905D01*
X145538095Y-79137381D02*
X145538095Y-79946905D01*
X145585714Y-80042143D01*
X145633333Y-80089762D01*
X145728571Y-80137381D01*
X145919048Y-80137381D01*
X146014286Y-80089762D01*
X146061905Y-80042143D01*
X146109524Y-79946905D01*
X146109524Y-79137381D01*
X146538095Y-79232619D02*
X146585714Y-79185000D01*
X146680952Y-79137381D01*
X146919048Y-79137381D01*
X147014286Y-79185000D01*
X147061905Y-79232619D01*
X147109524Y-79327857D01*
X147109524Y-79423095D01*
X147061905Y-79565952D01*
X146490476Y-80137381D01*
X147109524Y-80137381D01*
X126538095Y-68137381D02*
X126538095Y-68946905D01*
X126585714Y-69042143D01*
X126633333Y-69089762D01*
X126728571Y-69137381D01*
X126919048Y-69137381D01*
X127014286Y-69089762D01*
X127061905Y-69042143D01*
X127109524Y-68946905D01*
X127109524Y-68137381D01*
X127490476Y-68137381D02*
X128109524Y-68137381D01*
X127776190Y-68518333D01*
X127919048Y-68518333D01*
X128014286Y-68565952D01*
X128061905Y-68613571D01*
X128109524Y-68708810D01*
X128109524Y-68946905D01*
X128061905Y-69042143D01*
X128014286Y-69089762D01*
X127919048Y-69137381D01*
X127633333Y-69137381D01*
X127538095Y-69089762D01*
X127490476Y-69042143D01*
X171452381Y-69921905D02*
X172261905Y-69921905D01*
X172357143Y-69874286D01*
X172404762Y-69826667D01*
X172452381Y-69731429D01*
X172452381Y-69540952D01*
X172404762Y-69445714D01*
X172357143Y-69398095D01*
X172261905Y-69350476D01*
X171452381Y-69350476D01*
X171452381Y-68398095D02*
X171452381Y-68874286D01*
X171928571Y-68921905D01*
X171880952Y-68874286D01*
X171833333Y-68779048D01*
X171833333Y-68540952D01*
X171880952Y-68445714D01*
X171928571Y-68398095D01*
X172023810Y-68350476D01*
X172261905Y-68350476D01*
X172357143Y-68398095D01*
X172404762Y-68445714D01*
X172452381Y-68540952D01*
X172452381Y-68779048D01*
X172404762Y-68874286D01*
X172357143Y-68921905D01*
X133547381Y-81461905D02*
X134356905Y-81461905D01*
X134452143Y-81414286D01*
X134499762Y-81366667D01*
X134547381Y-81271429D01*
X134547381Y-81080952D01*
X134499762Y-80985714D01*
X134452143Y-80938095D01*
X134356905Y-80890476D01*
X133547381Y-80890476D01*
X133547381Y-80509524D02*
X133547381Y-79842857D01*
X134547381Y-80271429D01*
X137152381Y-68561905D02*
X137961905Y-68561905D01*
X138057143Y-68514286D01*
X138104762Y-68466667D01*
X138152381Y-68371429D01*
X138152381Y-68180952D01*
X138104762Y-68085714D01*
X138057143Y-68038095D01*
X137961905Y-67990476D01*
X137152381Y-67990476D01*
X137580952Y-67371429D02*
X137533333Y-67466667D01*
X137485714Y-67514286D01*
X137390476Y-67561905D01*
X137342857Y-67561905D01*
X137247619Y-67514286D01*
X137200000Y-67466667D01*
X137152381Y-67371429D01*
X137152381Y-67180952D01*
X137200000Y-67085714D01*
X137247619Y-67038095D01*
X137342857Y-66990476D01*
X137390476Y-66990476D01*
X137485714Y-67038095D01*
X137533333Y-67085714D01*
X137580952Y-67180952D01*
X137580952Y-67371429D01*
X137628571Y-67466667D01*
X137676190Y-67514286D01*
X137771429Y-67561905D01*
X137961905Y-67561905D01*
X138057143Y-67514286D01*
X138104762Y-67466667D01*
X138152381Y-67371429D01*
X138152381Y-67180952D01*
X138104762Y-67085714D01*
X138057143Y-67038095D01*
X137961905Y-66990476D01*
X137771429Y-66990476D01*
X137676190Y-67038095D01*
X137628571Y-67085714D01*
X137580952Y-67180952D01*
X185932381Y-76301905D02*
X186741905Y-76301905D01*
X186837143Y-76254286D01*
X186884762Y-76206667D01*
X186932381Y-76111429D01*
X186932381Y-75920952D01*
X186884762Y-75825714D01*
X186837143Y-75778095D01*
X186741905Y-75730476D01*
X185932381Y-75730476D01*
X185932381Y-74825714D02*
X185932381Y-75016191D01*
X185980000Y-75111429D01*
X186027619Y-75159048D01*
X186170476Y-75254286D01*
X186360952Y-75301905D01*
X186741905Y-75301905D01*
X186837143Y-75254286D01*
X186884762Y-75206667D01*
X186932381Y-75111429D01*
X186932381Y-74920952D01*
X186884762Y-74825714D01*
X186837143Y-74778095D01*
X186741905Y-74730476D01*
X186503810Y-74730476D01*
X186408571Y-74778095D01*
X186360952Y-74825714D01*
X186313333Y-74920952D01*
X186313333Y-75111429D01*
X186360952Y-75206667D01*
X186408571Y-75254286D01*
X186503810Y-75301905D01*
M02*
