G04 #@! TF.FileFunction,Copper,L1,Top,Signal*
%FSLAX46Y46*%
G04 Gerber Fmt 4.6, Leading zero omitted, Abs format (unit mm)*
G04 Created by KiCad (PCBNEW (2015-04-22 BZR 5620)-product) date 07/05/2015 20:43:11*
%MOMM*%
G01*
G04 APERTURE LIST*
%ADD10C,0.100000*%
%ADD11R,2.235200X2.235200*%
%ADD12R,1.300000X1.300000*%
%ADD13C,1.300000*%
%ADD14R,1.500000X1.250000*%
%ADD15R,1.250000X1.500000*%
%ADD16R,1.800860X0.800100*%
%ADD17R,1.500000X1.300000*%
%ADD18R,1.300000X1.500000*%
%ADD19O,3.000000X3.000000*%
%ADD20C,3.000000*%
%ADD21R,0.600000X1.550000*%
%ADD22R,1.500000X0.600000*%
%ADD23O,1.501140X0.899160*%
%ADD24O,2.499360X1.501140*%
%ADD25C,0.600000*%
%ADD26C,0.400000*%
%ADD27C,0.254000*%
G04 APERTURE END LIST*
D10*
D11*
X103500000Y-70750000D03*
X94250000Y-70750000D03*
D12*
X119000000Y-69000000D03*
D13*
X114000000Y-69000000D03*
D12*
X119000000Y-79500000D03*
D13*
X114000000Y-79500000D03*
D14*
X176000000Y-78800000D03*
X178500000Y-78800000D03*
X171300000Y-78800000D03*
X173800000Y-78800000D03*
X167100000Y-74100000D03*
X169600000Y-74100000D03*
D15*
X173900000Y-71300000D03*
X173900000Y-68800000D03*
D14*
X169600000Y-76200000D03*
X167100000Y-76200000D03*
X174000000Y-74100000D03*
X176500000Y-74100000D03*
D15*
X171900000Y-73600000D03*
X171900000Y-76100000D03*
D14*
X174000000Y-76100000D03*
X176500000Y-76100000D03*
D16*
X115497720Y-71800000D03*
X115497720Y-73700000D03*
X118500000Y-72750000D03*
X115497720Y-75050000D03*
X115497720Y-76950000D03*
X118500000Y-76000000D03*
D11*
X96000000Y-74250000D03*
X107000000Y-78250000D03*
X105250000Y-81750000D03*
X97750000Y-70750000D03*
X103500000Y-78250000D03*
X105250000Y-74250000D03*
X107000000Y-70750000D03*
X96000000Y-81750000D03*
X94250000Y-78250000D03*
X97750000Y-78250000D03*
X179300000Y-82800000D03*
X182800000Y-82800000D03*
X175800000Y-82800000D03*
X177300000Y-69800000D03*
X171030000Y-82740000D03*
X159800000Y-65760000D03*
X122000000Y-82750000D03*
X122000000Y-65750000D03*
X142750000Y-82750000D03*
X142750000Y-65750000D03*
X163300000Y-65760000D03*
X167540000Y-82740000D03*
X129000000Y-65750000D03*
X132500000Y-65750000D03*
X125500000Y-65750000D03*
X129000000Y-82750000D03*
X132500000Y-82750000D03*
X125500000Y-82750000D03*
X167800000Y-65800000D03*
X179400000Y-65900000D03*
X161800000Y-82700000D03*
X175900000Y-65900000D03*
X171300000Y-65800000D03*
X146250000Y-65750000D03*
X153250000Y-82750000D03*
X146250000Y-82750000D03*
X149750000Y-65750000D03*
X153250000Y-65750000D03*
X149750000Y-82750000D03*
D17*
X116500000Y-65500000D03*
X119200000Y-65500000D03*
X116550000Y-83000000D03*
X119250000Y-83000000D03*
D18*
X121250000Y-79500000D03*
X121250000Y-76800000D03*
X121250000Y-69050000D03*
X121250000Y-71750000D03*
X162300000Y-71500000D03*
X162300000Y-74200000D03*
D17*
X163300000Y-69300000D03*
X160600000Y-69300000D03*
D18*
X164400000Y-74200000D03*
X164400000Y-71500000D03*
D17*
X162250000Y-76700000D03*
X164950000Y-76700000D03*
D18*
X171900000Y-68800000D03*
X171900000Y-71500000D03*
D17*
X141300000Y-72800000D03*
X138600000Y-72800000D03*
X141300000Y-75700000D03*
X138600000Y-75700000D03*
X158800000Y-81500000D03*
X156100000Y-81500000D03*
X158800000Y-83500000D03*
X156100000Y-83500000D03*
X154100000Y-77700000D03*
X151400000Y-77700000D03*
X154100000Y-70900000D03*
X151400000Y-70900000D03*
D18*
X136000000Y-72850000D03*
X136000000Y-75550000D03*
X154100000Y-72950000D03*
X154100000Y-75650000D03*
D19*
X100985333Y-64308885D03*
X96009339Y-61435994D03*
X93136448Y-56460000D03*
X93136448Y-50714218D03*
X96009339Y-45738224D03*
X100985333Y-42865333D03*
X106731115Y-42865333D03*
X111707109Y-45738224D03*
X114580000Y-50714218D03*
X114580000Y-56460000D03*
X111707109Y-61435994D03*
X106731115Y-64308885D03*
D20*
X103858224Y-49737109D03*
X100524026Y-55512109D03*
X107192422Y-55512109D03*
D21*
X160205000Y-71500000D03*
X158935000Y-71500000D03*
X157665000Y-71500000D03*
X156395000Y-71500000D03*
X156395000Y-76900000D03*
X157665000Y-76900000D03*
X158935000Y-76900000D03*
X160205000Y-76900000D03*
D22*
X149000000Y-78120000D03*
X149000000Y-76850000D03*
X149000000Y-75580000D03*
X149000000Y-74310000D03*
X149000000Y-73040000D03*
X149000000Y-71770000D03*
X149000000Y-70500000D03*
X143600000Y-70500000D03*
X143600000Y-71770000D03*
X143600000Y-73040000D03*
X143600000Y-74310000D03*
X143600000Y-75580000D03*
X143600000Y-76850000D03*
X143600000Y-78120000D03*
X124600000Y-70250000D03*
X124600000Y-71520000D03*
X124600000Y-72790000D03*
X124600000Y-74060000D03*
X124600000Y-75330000D03*
X124600000Y-76600000D03*
X124600000Y-77870000D03*
X130000000Y-77870000D03*
X130000000Y-76600000D03*
X130000000Y-75330000D03*
X130000000Y-74060000D03*
X130000000Y-72790000D03*
X130000000Y-71520000D03*
X130000000Y-70250000D03*
D23*
X168000000Y-70430000D03*
X168000000Y-71700000D03*
X168000000Y-69160000D03*
D21*
X135690000Y-83400000D03*
X136960000Y-83400000D03*
X138230000Y-83400000D03*
X139500000Y-83400000D03*
X139500000Y-78000000D03*
X138230000Y-78000000D03*
X136960000Y-78000000D03*
X135690000Y-78000000D03*
X139655000Y-65050000D03*
X138385000Y-65050000D03*
X137115000Y-65050000D03*
X135845000Y-65050000D03*
X135845000Y-70450000D03*
X137115000Y-70450000D03*
X138385000Y-70450000D03*
X139655000Y-70450000D03*
D24*
X181400000Y-75540000D03*
X181400000Y-73000000D03*
X181400000Y-78080000D03*
D17*
X101800000Y-73500000D03*
X99100000Y-73500000D03*
X111500000Y-83100000D03*
X108800000Y-83100000D03*
X99100000Y-75500000D03*
X101800000Y-75500000D03*
X108800000Y-81100000D03*
X111500000Y-81100000D03*
D18*
X110100000Y-75400000D03*
X110100000Y-72700000D03*
X110100000Y-67900000D03*
X110100000Y-70600000D03*
D25*
X160200000Y-78099990D03*
X181700000Y-79700000D03*
X177500000Y-80400000D03*
X117250000Y-73750000D03*
X122750000Y-74000000D03*
X171900000Y-74849998D03*
X138100000Y-67200000D03*
X136305018Y-66805018D03*
X133644230Y-73144230D03*
X139957816Y-82468163D03*
X143100000Y-68800000D03*
X140800000Y-67199992D03*
X140449998Y-80349999D03*
X139000000Y-77000000D03*
X142127692Y-74098702D03*
X139992707Y-75945805D03*
X146473951Y-74548616D03*
X146010000Y-67967623D03*
X148750002Y-68960000D03*
X152787338Y-69193384D03*
X162027050Y-69590175D03*
X170800000Y-77500000D03*
X168300000Y-76200000D03*
X123000000Y-69000000D03*
X155100000Y-76800000D03*
X165000000Y-75500000D03*
X137100000Y-63900000D03*
X128900000Y-69500000D03*
X157081713Y-69700020D03*
X121300000Y-78200000D03*
X137706520Y-82400007D03*
X135644981Y-67444981D03*
X142550032Y-76070000D03*
X148183400Y-84087602D03*
X142550002Y-72930000D03*
X142461942Y-71154703D03*
X145950000Y-79830000D03*
X166120000Y-68170000D03*
X101647349Y-70033604D03*
X101550000Y-67980000D03*
X100299990Y-73476457D03*
X97800000Y-75499984D03*
X104670000Y-66910000D03*
X106573995Y-67059979D03*
X152849998Y-77800000D03*
X155758946Y-78045229D03*
X157600000Y-79749989D03*
X141400000Y-78849998D03*
X134300000Y-78000000D03*
X123000000Y-78200000D03*
X138935346Y-81425323D03*
X125500000Y-65750000D03*
X136990239Y-68995278D03*
X156100000Y-67000000D03*
X139599998Y-68000000D03*
X159234174Y-70470021D03*
X143100000Y-80349999D03*
X142280223Y-77530021D03*
X159000000Y-78099990D03*
X160200000Y-72800000D03*
X170600000Y-71500000D03*
X131417237Y-69927259D03*
X131440019Y-77259981D03*
X140019239Y-72699979D03*
X146800018Y-72255642D03*
X150600000Y-75600000D03*
X142450796Y-74954868D03*
X137340000Y-76550000D03*
X137710266Y-69343962D03*
X151387983Y-74403859D03*
X150300000Y-73800000D03*
X155300000Y-71900000D03*
X118464666Y-74700020D03*
X131764490Y-74034008D03*
X162300000Y-75500000D03*
X157350002Y-83500000D03*
X158400000Y-74349998D03*
X138600000Y-68900000D03*
X134057717Y-70299990D03*
X147869988Y-69029988D03*
X139450000Y-69090000D03*
X145940000Y-68800000D03*
X141180000Y-69900002D03*
X100740000Y-67760000D03*
X99920000Y-69220000D03*
X110100000Y-69300000D03*
X110100000Y-74000000D03*
X93400000Y-83400000D03*
D26*
X134400000Y-66790971D02*
X135183069Y-66790971D01*
X134400000Y-66700000D02*
X134400000Y-66790971D01*
X119000000Y-69000000D02*
X119000000Y-65700000D01*
X119000000Y-65700000D02*
X119200000Y-65500000D01*
X100524026Y-55512109D02*
X102024025Y-57012108D01*
X102024025Y-57012108D02*
X104471221Y-57012108D01*
X104471221Y-57012108D02*
X112159103Y-64699990D01*
X112159103Y-64699990D02*
X112848532Y-64699990D01*
X112848532Y-64699990D02*
X114000000Y-65851458D01*
X114000000Y-65851458D02*
X114000000Y-65879998D01*
X114000000Y-65879998D02*
X114000000Y-68080762D01*
X114000000Y-68080762D02*
X114000000Y-69000000D01*
X119000000Y-79500000D02*
X119000000Y-82750000D01*
X119000000Y-82750000D02*
X119250000Y-83000000D01*
X97200000Y-50300000D02*
X97200000Y-57561989D01*
X107192422Y-55512109D02*
X107192422Y-50259305D01*
X107192422Y-50259305D02*
X104770225Y-47837108D01*
X104770225Y-47837108D02*
X99662892Y-47837108D01*
X99662892Y-47837108D02*
X97200000Y-50300000D01*
X97200000Y-57561989D02*
X105997989Y-66359978D01*
X105997989Y-66359978D02*
X110959978Y-66359978D01*
X110959978Y-66359978D02*
X111600000Y-67000000D01*
X111600000Y-67000000D02*
X111600000Y-77100000D01*
X111600000Y-77100000D02*
X113350001Y-78850001D01*
X113350001Y-78850001D02*
X114000000Y-79500000D01*
X160200000Y-78099990D02*
X160200000Y-76905000D01*
X160200000Y-76905000D02*
X160205000Y-76900000D01*
X176000000Y-82600000D02*
X175800000Y-82800000D01*
X176000000Y-78800000D02*
X176000000Y-82600000D01*
X181906275Y-79700000D02*
X181700000Y-79700000D01*
X183049690Y-78556585D02*
X181906275Y-79700000D01*
X183049690Y-74150580D02*
X183049690Y-78556585D01*
X181899110Y-73000000D02*
X183049690Y-74150580D01*
X181400000Y-73000000D02*
X181899110Y-73000000D01*
X177500000Y-80300000D02*
X176000000Y-78800000D01*
X177500000Y-80400000D02*
X177500000Y-80300000D01*
X172325001Y-79825001D02*
X171300000Y-78800000D01*
X175999999Y-79825001D02*
X172325001Y-79825001D01*
X176000000Y-78800000D02*
X175999999Y-79825001D01*
X160624264Y-78099990D02*
X160200000Y-78099990D01*
X169449990Y-78099990D02*
X160624264Y-78099990D01*
X170150000Y-78800000D02*
X169449990Y-78099990D01*
X171300000Y-78800000D02*
X170150000Y-78800000D01*
X117250000Y-73750000D02*
X116950001Y-74049999D01*
X116950001Y-74049999D02*
X116950001Y-74898149D01*
X116950001Y-74898149D02*
X116798150Y-75050000D01*
X116798150Y-75050000D02*
X115497720Y-75050000D01*
X115547720Y-71750000D02*
X115497720Y-71800000D01*
X122750000Y-74000000D02*
X124540000Y-74000000D01*
X124540000Y-74000000D02*
X124600000Y-74060000D01*
X113750000Y-73047340D02*
X113750000Y-74602710D01*
X113750000Y-74602710D02*
X114197290Y-75050000D01*
X114197290Y-75050000D02*
X115497720Y-75050000D01*
X115497720Y-71800000D02*
X114997340Y-71800000D01*
X114997340Y-71800000D02*
X113750000Y-73047340D01*
X163400000Y-69400000D02*
X163300000Y-69300000D01*
X171400000Y-74100000D02*
X171900000Y-73600000D01*
X169600000Y-74100000D02*
X171400000Y-74100000D01*
X168574999Y-77225001D02*
X169600000Y-76200000D01*
X165575001Y-77225001D02*
X168574999Y-77225001D01*
X165050000Y-76700000D02*
X165575001Y-77225001D01*
X164950000Y-76700000D02*
X165050000Y-76700000D01*
X171900000Y-74849998D02*
X171900000Y-73600000D01*
X170875000Y-73600000D02*
X171900000Y-73600000D01*
X169899999Y-72624999D02*
X170875000Y-73600000D01*
X169899999Y-71163999D02*
X169899999Y-72624999D01*
X170713999Y-70349999D02*
X169899999Y-71163999D01*
X172475001Y-70349999D02*
X170713999Y-70349999D01*
X173900000Y-68925000D02*
X172475001Y-70349999D01*
X173900000Y-68800000D02*
X173900000Y-68925000D01*
X168300990Y-69160000D02*
X168000000Y-69160000D01*
X169899999Y-70759009D02*
X168300990Y-69160000D01*
X169899999Y-71163999D02*
X169899999Y-70759009D01*
X169600000Y-74100000D02*
X169600000Y-76200000D01*
X163440000Y-69160000D02*
X163300000Y-69300000D01*
X168000000Y-69160000D02*
X163440000Y-69160000D01*
X135845000Y-69104515D02*
X137749515Y-67200000D01*
X137749515Y-67200000D02*
X138100000Y-67200000D01*
X135845000Y-70450000D02*
X135845000Y-69104515D01*
X136305018Y-65510018D02*
X135845000Y-65050000D01*
X136305018Y-66805018D02*
X136305018Y-65510018D01*
X135845000Y-70943460D02*
X133644230Y-73144230D01*
X135845000Y-70450000D02*
X135845000Y-70943460D01*
X139500000Y-83400000D02*
X139500000Y-82925979D01*
X139500000Y-82925979D02*
X139657817Y-82768162D01*
X139657817Y-82768162D02*
X139957816Y-82468163D01*
X138100000Y-67200000D02*
X140799992Y-67200000D01*
X140799992Y-67200000D02*
X140800000Y-67199992D01*
X140449998Y-78949998D02*
X139500000Y-78000000D01*
X140449998Y-80349999D02*
X140449998Y-78949998D01*
X139500000Y-77500000D02*
X139000000Y-77000000D01*
X139500000Y-78000000D02*
X139500000Y-77500000D01*
X142551956Y-74098702D02*
X142127692Y-74098702D01*
X143600000Y-74310000D02*
X143388702Y-74098702D01*
X143388702Y-74098702D02*
X142551956Y-74098702D01*
X141827693Y-74398701D02*
X142127692Y-74098702D01*
X140481297Y-74398701D02*
X141827693Y-74398701D01*
X139992707Y-74887291D02*
X140481297Y-74398701D01*
X139992707Y-75945805D02*
X139992707Y-74887291D01*
X145585736Y-67967623D02*
X146010000Y-67967623D01*
X143100000Y-68800000D02*
X143932377Y-67967623D01*
X143932377Y-67967623D02*
X145585736Y-67967623D01*
X148763998Y-69000000D02*
X148750002Y-68986004D01*
X148750002Y-68986004D02*
X148750002Y-68960000D01*
X148763998Y-69000000D02*
X148763998Y-69152004D01*
X146096751Y-74171416D02*
X146173952Y-74248617D01*
X148763998Y-69152004D02*
X148196001Y-69720001D01*
X148196001Y-69720001D02*
X148146001Y-69720001D01*
X148146001Y-69720001D02*
X146096751Y-71769251D01*
X146096751Y-71769251D02*
X146096751Y-74171416D01*
X146173952Y-74248617D02*
X146473951Y-74548616D01*
X148763998Y-69000000D02*
X148957382Y-69193384D01*
X148957382Y-69193384D02*
X152363074Y-69193384D01*
X152363074Y-69193384D02*
X152787338Y-69193384D01*
X162451314Y-69590175D02*
X162027050Y-69590175D01*
X163009825Y-69590175D02*
X162451314Y-69590175D01*
X163300000Y-69300000D02*
X163009825Y-69590175D01*
X171900000Y-76400000D02*
X170800000Y-77500000D01*
X174000000Y-74100000D02*
X174000000Y-76100000D01*
X174000000Y-76100000D02*
X171900000Y-76100000D01*
X168300990Y-70430000D02*
X168000000Y-70430000D01*
X169150580Y-71279590D02*
X168300990Y-70430000D01*
X169150580Y-72051911D02*
X169150580Y-71279590D01*
X168449999Y-72752492D02*
X169150580Y-72051911D01*
X168449999Y-74975001D02*
X168449999Y-72752492D01*
X167225000Y-76200000D02*
X168449999Y-74975001D01*
X167100000Y-76200000D02*
X167225000Y-76200000D01*
X171900000Y-76100000D02*
X171900000Y-76400000D01*
X168300000Y-76200000D02*
X167100000Y-76200000D01*
X122950000Y-69050000D02*
X123000000Y-69000000D01*
X121250000Y-69050000D02*
X122950000Y-69050000D01*
X144750000Y-75580000D02*
X143600000Y-75580000D01*
X144750001Y-73740001D02*
X144750000Y-75580000D01*
X144050000Y-73040000D02*
X144750001Y-73740001D01*
X143600000Y-73040000D02*
X144050000Y-73040000D01*
X154200000Y-77700000D02*
X155100000Y-76800000D01*
X154100000Y-77700000D02*
X154200000Y-77700000D01*
X166400000Y-75500000D02*
X165000000Y-75500000D01*
X167100000Y-76200000D02*
X166400000Y-75500000D01*
X137100000Y-65035000D02*
X137115000Y-65050000D01*
X137100000Y-63900000D02*
X137100000Y-65035000D01*
X136800001Y-63600001D02*
X137100000Y-63900000D01*
X131694797Y-63600001D02*
X136800001Y-63600001D01*
X130982399Y-64312399D02*
X131694797Y-63600001D01*
X130982399Y-67417601D02*
X130982399Y-64312399D01*
X128900000Y-69500000D02*
X130982399Y-67417601D01*
X154100000Y-70900000D02*
X154100000Y-70100010D01*
X154200000Y-70900000D02*
X155399980Y-69700020D01*
X154100000Y-70900000D02*
X154200000Y-70900000D01*
X156657449Y-69700020D02*
X157081713Y-69700020D01*
X155399980Y-69700020D02*
X156657449Y-69700020D01*
X121300000Y-79450000D02*
X121250000Y-79500000D01*
X121300000Y-78200000D02*
X121300000Y-79450000D01*
X137706520Y-82876520D02*
X138230000Y-83400000D01*
X137706520Y-82400007D02*
X137706520Y-82876520D01*
X131009779Y-67444981D02*
X130982399Y-67417601D01*
X135644981Y-67444981D02*
X131009779Y-67444981D01*
X143600000Y-75580000D02*
X143040032Y-75580000D01*
X143040032Y-75580000D02*
X142850031Y-75770001D01*
X142850031Y-75770001D02*
X142550032Y-76070000D01*
X147696001Y-84575001D02*
X148183400Y-84087602D01*
X138930001Y-84575001D02*
X147696001Y-84575001D01*
X138230000Y-83875000D02*
X138930001Y-84575001D01*
X138230000Y-83400000D02*
X138230000Y-83875000D01*
X142660002Y-73040000D02*
X142550002Y-72930000D01*
X143600000Y-73040000D02*
X142660002Y-73040000D01*
X159190000Y-69070000D02*
X157711733Y-69070000D01*
X159190000Y-68589998D02*
X159190000Y-69070000D01*
X159609998Y-68170000D02*
X159190000Y-68589998D01*
X166120000Y-68170000D02*
X159609998Y-68170000D01*
X157711733Y-69070000D02*
X157081713Y-69700020D01*
X116500000Y-68520002D02*
X118880456Y-70900458D01*
X118880456Y-70900458D02*
X119729998Y-71750000D01*
X115497720Y-73700000D02*
X115529518Y-73700000D01*
X115529518Y-73700000D02*
X118329060Y-70900458D01*
X118329060Y-70900458D02*
X118880456Y-70900458D01*
X124600000Y-72790000D02*
X122290000Y-72790000D01*
X122290000Y-72790000D02*
X121250000Y-71750000D01*
X116500000Y-65500000D02*
X116500000Y-68520002D01*
X119729998Y-71750000D02*
X120200000Y-71750000D01*
X120200000Y-71750000D02*
X121250000Y-71750000D01*
X118098282Y-77950000D02*
X116399141Y-79649141D01*
X120200000Y-76800000D02*
X119050000Y-77950000D01*
X119050000Y-77950000D02*
X118098282Y-77950000D01*
X121250000Y-76800000D02*
X120200000Y-76800000D01*
X116550000Y-79800000D02*
X116399141Y-79649141D01*
X116399141Y-79649141D02*
X115497720Y-78747720D01*
X124600000Y-75330000D02*
X122620000Y-75330000D01*
X122620000Y-75330000D02*
X121250000Y-76700000D01*
X121250000Y-76700000D02*
X121250000Y-76800000D01*
X115497720Y-78747720D02*
X115497720Y-76950000D01*
X116550000Y-83000000D02*
X116550000Y-79800000D01*
X101550000Y-69936255D02*
X101647349Y-70033604D01*
X101550000Y-67980000D02*
X101550000Y-69936255D01*
X108800000Y-81100000D02*
X108800000Y-80050000D01*
X108800000Y-80050000D02*
X107000000Y-78250000D01*
X100299990Y-73476457D02*
X99123543Y-73476457D01*
X99123543Y-73476457D02*
X99100000Y-73500000D01*
X108800000Y-83100000D02*
X108679998Y-83100000D01*
X108679998Y-83100000D02*
X106767601Y-81187603D01*
X106767601Y-81187603D02*
X106767601Y-79967601D01*
X106767601Y-79967601D02*
X106567601Y-79767601D01*
X106567601Y-79767601D02*
X103500000Y-79767600D01*
X103500000Y-79767600D02*
X103500000Y-78250000D01*
X110100000Y-72700000D02*
X107432400Y-72700000D01*
X107432400Y-72700000D02*
X107000000Y-72267600D01*
X107000000Y-72267600D02*
X107000000Y-70750000D01*
X99100000Y-75500000D02*
X97800016Y-75500000D01*
X97800016Y-75500000D02*
X97800000Y-75499984D01*
X94250000Y-70750000D02*
X94250000Y-69232400D01*
X94250000Y-69232400D02*
X96572400Y-66910000D01*
X96572400Y-66910000D02*
X104670000Y-66910000D01*
X94509340Y-62935993D02*
X96009339Y-61435994D01*
X91940000Y-65505333D02*
X94509340Y-62935993D01*
X91940000Y-74950000D02*
X91940000Y-65505333D01*
X93710000Y-76720000D02*
X91940000Y-74950000D01*
X96220000Y-76720000D02*
X93710000Y-76720000D01*
X97750000Y-78250000D02*
X96220000Y-76720000D01*
X110100000Y-70600000D02*
X110100000Y-70500000D01*
X110100000Y-70500000D02*
X106659979Y-67059979D01*
X106659979Y-67059979D02*
X106573995Y-67059979D01*
X106149731Y-67059979D02*
X106573995Y-67059979D01*
X105672421Y-67059979D02*
X106149731Y-67059979D01*
X103500000Y-69232400D02*
X105672421Y-67059979D01*
X103500000Y-70750000D02*
X103500000Y-69232400D01*
X149480000Y-78800000D02*
X152771102Y-78800000D01*
X152771102Y-78800000D02*
X168607600Y-78800000D01*
X152849998Y-77800000D02*
X152849998Y-78721104D01*
X152849998Y-78721104D02*
X152771102Y-78800000D01*
X149000000Y-78120000D02*
X148950000Y-78170000D01*
X148950000Y-78170000D02*
X148950000Y-78270000D01*
X148950000Y-78270000D02*
X149480000Y-78800000D01*
X168607600Y-78800000D02*
X171030000Y-81222400D01*
X171030000Y-81222400D02*
X171030000Y-82740000D01*
X156236002Y-68000000D02*
X158476002Y-65760000D01*
X145410000Y-70500000D02*
X147910000Y-68000000D01*
X147910000Y-68000000D02*
X156236002Y-68000000D01*
X143600000Y-70500000D02*
X145410000Y-70500000D01*
X158476002Y-65760000D02*
X159800000Y-65760000D01*
X143600000Y-70500000D02*
X143500009Y-70400009D01*
X143500009Y-70400009D02*
X141715995Y-70400009D01*
X141715995Y-70400009D02*
X140416004Y-71700000D01*
X140416004Y-71700000D02*
X137050000Y-71700000D01*
X137050000Y-71700000D02*
X136000000Y-72750000D01*
X136000000Y-72750000D02*
X136000000Y-72850000D01*
X155758946Y-78045229D02*
X155813707Y-78099990D01*
X155813707Y-78099990D02*
X157600000Y-78099990D01*
X157600000Y-78099990D02*
X157600000Y-76965000D01*
X157600000Y-76965000D02*
X157665000Y-76900000D01*
X157420010Y-79420010D02*
X157600000Y-79600000D01*
X157600000Y-79600000D02*
X157600000Y-79749989D01*
X148020010Y-79420010D02*
X157420010Y-79420010D01*
X134300000Y-78000000D02*
X135690000Y-78000000D01*
X124600000Y-77870000D02*
X123330000Y-77870000D01*
X123330000Y-77870000D02*
X123000000Y-78200000D01*
X125500000Y-82750000D02*
X122000000Y-82750000D01*
X124600000Y-77870000D02*
X124600000Y-81850000D01*
X124600000Y-81850000D02*
X125500000Y-82750000D01*
X138635347Y-81125324D02*
X138935346Y-81425323D01*
X135690000Y-78475000D02*
X138309988Y-81094988D01*
X135690000Y-78000000D02*
X135690000Y-78475000D01*
X138309988Y-81094988D02*
X138605011Y-81094988D01*
X138605011Y-81094988D02*
X138635347Y-81125324D01*
X147479999Y-78879999D02*
X148020010Y-79420010D01*
X145863999Y-78879999D02*
X147479999Y-78879999D01*
X141970012Y-79420010D02*
X145323988Y-79420010D01*
X141400000Y-78849998D02*
X141970012Y-79420010D01*
X145323988Y-79420010D02*
X145863999Y-78879999D01*
X125500000Y-65750000D02*
X122000000Y-65750000D01*
X124600000Y-70250000D02*
X124600000Y-66650000D01*
X124600000Y-66650000D02*
X125500000Y-65750000D01*
X139699996Y-68000004D02*
X139700001Y-67999999D01*
X137985513Y-68000004D02*
X139699996Y-68000004D01*
X136990239Y-68995278D02*
X137985513Y-68000004D01*
X139700001Y-67999999D02*
X139700000Y-68000000D01*
X139700000Y-68000000D02*
X139599998Y-68000000D01*
X140400000Y-68699998D02*
X139700001Y-67999999D01*
X140400000Y-69705000D02*
X140400000Y-68699998D01*
X139655000Y-70450000D02*
X140400000Y-69705000D01*
X139655000Y-70450000D02*
X139655000Y-69975000D01*
X139655000Y-69975000D02*
X142362399Y-67267601D01*
X142362399Y-67267601D02*
X155408135Y-67267601D01*
X155408135Y-67267601D02*
X155675736Y-67000000D01*
X155675736Y-67000000D02*
X156100000Y-67000000D01*
X159234174Y-70894285D02*
X159234174Y-70470021D01*
X158935000Y-71500000D02*
X159234174Y-71200826D01*
X159234174Y-71200826D02*
X159234174Y-70894285D01*
X142750000Y-82750000D02*
X141945002Y-82750000D01*
X139651682Y-81744989D02*
X139271347Y-82125324D01*
X141744989Y-81744989D02*
X139651682Y-81744989D01*
X142750000Y-82750000D02*
X141744989Y-81744989D01*
X139271347Y-82125324D02*
X138599345Y-82125324D01*
X138174021Y-81700000D02*
X136960000Y-81700000D01*
X136960000Y-81700000D02*
X136960000Y-83400000D01*
X138599345Y-82125324D02*
X138174021Y-81700000D01*
X139034999Y-63874999D02*
X138385000Y-64524998D01*
X142750000Y-65750000D02*
X142750000Y-64232400D01*
X142392599Y-63874999D02*
X139034999Y-63874999D01*
X138385000Y-64524998D02*
X138385000Y-65050000D01*
X142750000Y-64232400D02*
X142392599Y-63874999D01*
X152949999Y-70329997D02*
X152949999Y-71799999D01*
X152949999Y-71799999D02*
X154100000Y-72950000D01*
X152870052Y-70250050D02*
X152949999Y-70329997D01*
X149000000Y-70500000D02*
X149500002Y-70500000D01*
X152814048Y-70250050D02*
X152870052Y-70250050D01*
X149000000Y-70500000D02*
X149689999Y-69810001D01*
X149689999Y-69810001D02*
X152373999Y-69810001D01*
X152373999Y-69810001D02*
X152814048Y-70250050D01*
X163300000Y-65760000D02*
X163300000Y-67277600D01*
X163300000Y-67277600D02*
X163127603Y-67449997D01*
X163127603Y-67449997D02*
X158483194Y-67449997D01*
X158483194Y-67449997D02*
X157033191Y-68900000D01*
X157033191Y-68900000D02*
X154120000Y-68900000D01*
X154120000Y-68900000D02*
X152814048Y-70205952D01*
X152814048Y-70205952D02*
X152814048Y-70250050D01*
X142580222Y-77830020D02*
X142280223Y-77530021D01*
X142870202Y-78120000D02*
X142580222Y-77830020D01*
X143600000Y-78120000D02*
X142870202Y-78120000D01*
X166022400Y-82740000D02*
X167540000Y-82740000D01*
X146766003Y-80449999D02*
X163732399Y-80449999D01*
X163732399Y-80449999D02*
X166022400Y-82740000D01*
X146583613Y-80632389D02*
X146766003Y-80449999D01*
X145416387Y-80632389D02*
X146583613Y-80632389D01*
X145133997Y-80349999D02*
X145416387Y-80632389D01*
X143100000Y-80349999D02*
X145133997Y-80349999D01*
X124600000Y-71520000D02*
X125750000Y-71520000D01*
X125750000Y-71520000D02*
X129000000Y-68270000D01*
X129000000Y-68270000D02*
X129000000Y-67267600D01*
X129000000Y-67267600D02*
X129000000Y-65750000D01*
X124600000Y-76600000D02*
X125050000Y-76600000D01*
X125050000Y-76600000D02*
X129000000Y-80550000D01*
X129000000Y-80550000D02*
X129000000Y-81232400D01*
X129000000Y-81232400D02*
X129000000Y-82750000D01*
X159000000Y-78099990D02*
X159000000Y-76965000D01*
X159000000Y-76965000D02*
X158935000Y-76900000D01*
X160205000Y-71500000D02*
X160205000Y-72795000D01*
X160205000Y-72795000D02*
X160200000Y-72800000D01*
X170600000Y-71500000D02*
X171900000Y-71500000D01*
X161800000Y-82700000D02*
X160000000Y-82700000D01*
X160000000Y-82700000D02*
X158800000Y-81500000D01*
X171300000Y-65800000D02*
X171300000Y-68200000D01*
X171300000Y-68200000D02*
X171900000Y-68800000D01*
X130000000Y-70250000D02*
X130000000Y-71520000D01*
X130000000Y-70250000D02*
X131150000Y-70250000D01*
X131417237Y-69982763D02*
X131417237Y-69927259D01*
X131150000Y-70250000D02*
X131417237Y-69982763D01*
X130000000Y-76600000D02*
X130780038Y-76600000D01*
X130780038Y-76600000D02*
X131440019Y-77259981D01*
X130000000Y-76600000D02*
X130000000Y-77870000D01*
X139919218Y-72800000D02*
X140019239Y-72699979D01*
X138600000Y-72800000D02*
X139919218Y-72800000D01*
X149000000Y-73040000D02*
X147584376Y-73040000D01*
X147584376Y-73040000D02*
X147100017Y-72555641D01*
X147100017Y-72555641D02*
X146800018Y-72255642D01*
X150600000Y-75600000D02*
X149020000Y-75600000D01*
X149020000Y-75600000D02*
X149000000Y-75580000D01*
X138600000Y-75700000D02*
X138700000Y-75700000D01*
X144609999Y-78820001D02*
X147850000Y-75580000D01*
X147850000Y-75580000D02*
X149000000Y-75580000D01*
X142529999Y-78820001D02*
X144609999Y-78820001D01*
X139824999Y-76824999D02*
X140534997Y-76824999D01*
X138700000Y-75700000D02*
X139824999Y-76824999D01*
X140534997Y-76824999D02*
X142529999Y-78820001D01*
X162300000Y-71500000D02*
X162300000Y-71000000D01*
X162300000Y-71000000D02*
X160600000Y-69300000D01*
X158919999Y-69770001D02*
X157665000Y-71025000D01*
X157665000Y-71025000D02*
X157665000Y-71500000D01*
X160129999Y-69770001D02*
X158919999Y-69770001D01*
X160600000Y-69300000D02*
X160129999Y-69770001D01*
X162250000Y-76700000D02*
X162150000Y-76700000D01*
X162150000Y-76700000D02*
X161174993Y-75724993D01*
X161174993Y-75724993D02*
X156395000Y-75725000D01*
X156395000Y-75725000D02*
X156395000Y-76900000D01*
X164400000Y-74200000D02*
X164400000Y-74550000D01*
X164400000Y-74550000D02*
X162250000Y-76700000D01*
X139831999Y-73631999D02*
X140468001Y-73631999D01*
X140468001Y-73631999D02*
X141300000Y-72800000D01*
X139613997Y-73850001D02*
X139831999Y-73631999D01*
X136000000Y-75550000D02*
X136000000Y-75450000D01*
X137599999Y-73850001D02*
X139613997Y-73850001D01*
X136000000Y-75450000D02*
X137599999Y-73850001D01*
X141300000Y-72800000D02*
X142095852Y-72004148D01*
X142095852Y-72004148D02*
X143365852Y-72004148D01*
X143365852Y-72004148D02*
X143600000Y-71770000D01*
X141705664Y-75700000D02*
X142150797Y-75254867D01*
X142430001Y-76830001D02*
X142450000Y-76850000D01*
X141300000Y-75700000D02*
X141705664Y-75700000D01*
X142214011Y-76830001D02*
X142430001Y-76830001D01*
X141300000Y-75915990D02*
X142214011Y-76830001D01*
X141300000Y-75700000D02*
X141300000Y-75915990D01*
X142450000Y-76850000D02*
X143600000Y-76850000D01*
X142150797Y-75254867D02*
X142450796Y-74954868D01*
X156100000Y-81500000D02*
X156100000Y-83500000D01*
X137340000Y-76550000D02*
X138230000Y-77440000D01*
X138230000Y-77440000D02*
X138230000Y-78000000D01*
X137115000Y-69939228D02*
X137410267Y-69643961D01*
X137115000Y-70450000D02*
X137115000Y-69939228D01*
X137410267Y-69643961D02*
X137710266Y-69343962D01*
X138230000Y-79175000D02*
X138230000Y-78000000D01*
X144349991Y-81050009D02*
X140105009Y-81050009D01*
X146892147Y-81232399D02*
X144532381Y-81232399D01*
X144532381Y-81232399D02*
X144349991Y-81050009D01*
X147074537Y-81050009D02*
X146892147Y-81232399D01*
X154950000Y-81500000D02*
X154500009Y-81050009D01*
X156100000Y-81500000D02*
X154950000Y-81500000D01*
X154500009Y-81050009D02*
X147074537Y-81050009D01*
X140105009Y-81050009D02*
X138230000Y-79175000D01*
X151387983Y-74403859D02*
X151387983Y-75848019D01*
X151387983Y-75848019D02*
X150550000Y-76686002D01*
X150550000Y-76686002D02*
X150550000Y-76850000D01*
X151400000Y-77700000D02*
X150550000Y-76850000D01*
X150550000Y-76850000D02*
X149000000Y-76850000D01*
X149000000Y-71770000D02*
X150530000Y-71770000D01*
X154100000Y-75550000D02*
X154100000Y-75650000D01*
X150950009Y-71349991D02*
X151400000Y-70900000D01*
X151400000Y-70900000D02*
X152349989Y-71849989D01*
X150530000Y-71770000D02*
X150950009Y-71349991D01*
X152349989Y-71849989D02*
X152349990Y-72118534D01*
X152349990Y-72118534D02*
X152500003Y-72268547D01*
X152500003Y-73950003D02*
X154100000Y-75550000D01*
X152500003Y-72268547D02*
X152500003Y-73950003D01*
X130000000Y-75330000D02*
X130500002Y-75330000D01*
X130500002Y-75330000D02*
X135690000Y-80519998D01*
X135690000Y-80519998D02*
X135690000Y-82225000D01*
X135690000Y-82225000D02*
X135690000Y-83400000D01*
X139655000Y-65624991D02*
X139655000Y-65050000D01*
X139000000Y-66279991D02*
X139655000Y-65624991D01*
X139000000Y-66300000D02*
X139000000Y-66279991D01*
X137800000Y-66300000D02*
X139000000Y-66300000D01*
X135000000Y-69100000D02*
X137800000Y-66300000D01*
X134140000Y-69100000D02*
X135000000Y-69100000D01*
X130450000Y-72790000D02*
X134140000Y-69100000D01*
X130000000Y-72790000D02*
X130450000Y-72790000D01*
X118500000Y-73550050D02*
X118500000Y-72750000D01*
X118500000Y-74196692D02*
X118500000Y-73550050D01*
X116846641Y-75850051D02*
X118500000Y-74196692D01*
X114148799Y-75850051D02*
X116846641Y-75850051D01*
X112300000Y-74001252D02*
X114148799Y-75850051D01*
X112300000Y-66851458D02*
X112300000Y-74001252D01*
X107857426Y-62408884D02*
X112300000Y-66851458D01*
X104608799Y-62408884D02*
X107857426Y-62408884D01*
X98624025Y-56424110D02*
X104608799Y-62408884D01*
X98624025Y-52849988D02*
X98624025Y-56424110D01*
X101736904Y-49737109D02*
X98624025Y-52849988D01*
X103858224Y-49737109D02*
X101736904Y-49737109D01*
X149000000Y-74310000D02*
X150150000Y-74310000D01*
X150150000Y-74310000D02*
X150300000Y-74160000D01*
X150300000Y-74160000D02*
X150300000Y-73800000D01*
X155300000Y-71900000D02*
X155995000Y-71900000D01*
X155995000Y-71900000D02*
X156395000Y-71500000D01*
X149010000Y-74300000D02*
X149000000Y-74310000D01*
X118500000Y-74664686D02*
X118464666Y-74700020D01*
X118500000Y-74735354D02*
X118464666Y-74700020D01*
X118500000Y-76000000D02*
X118500000Y-74735354D01*
X118500000Y-72750000D02*
X118500000Y-74664686D01*
X173900000Y-71175000D02*
X173900000Y-71300000D01*
X175275000Y-69800000D02*
X173900000Y-71175000D01*
X177300000Y-69800000D02*
X175275000Y-69800000D01*
X176500000Y-73900000D02*
X173900000Y-71300000D01*
X176500000Y-74100000D02*
X176500000Y-73900000D01*
X176500000Y-76100000D02*
X173800000Y-78800000D01*
X176500000Y-76800000D02*
X178500000Y-78800000D01*
X176500000Y-76100000D02*
X176500000Y-76800000D01*
X167100000Y-72600000D02*
X167100000Y-74100000D01*
X168000000Y-71700000D02*
X167100000Y-72600000D01*
X176500000Y-74100000D02*
X176500000Y-76100000D01*
X182800000Y-82800000D02*
X179300000Y-82800000D01*
X179300000Y-79600000D02*
X178500000Y-78800000D01*
X179300000Y-82800000D02*
X179300000Y-79600000D01*
X178500000Y-77775000D02*
X178500000Y-78800000D01*
X180735000Y-75540000D02*
X178500000Y-77775000D01*
X181400000Y-75540000D02*
X180735000Y-75540000D01*
X164400000Y-72100000D02*
X162300000Y-74200000D01*
X164400000Y-71500000D02*
X164400000Y-72100000D01*
X166550000Y-72600000D02*
X167100000Y-72600000D01*
X165450000Y-71500000D02*
X166550000Y-72600000D01*
X164400000Y-71500000D02*
X165450000Y-71500000D01*
X130000000Y-74060000D02*
X131738498Y-74060000D01*
X131738498Y-74060000D02*
X131764490Y-74034008D01*
X162300000Y-74200000D02*
X162300000Y-75500000D01*
X157350002Y-83500000D02*
X158800000Y-83500000D01*
X158549998Y-74200000D02*
X158400000Y-74349998D01*
X162300000Y-74200000D02*
X158549998Y-74200000D01*
X138600000Y-70235000D02*
X138600000Y-68900000D01*
X138385000Y-70450000D02*
X138600000Y-70235000D01*
X134057717Y-71740781D02*
X131764490Y-74034008D01*
X134057717Y-70299990D02*
X134057717Y-71740781D01*
X136960000Y-77474998D02*
X136960000Y-78000000D01*
X136310001Y-76824999D02*
X136960000Y-77474998D01*
X134131217Y-76824999D02*
X136310001Y-76824999D01*
X131764490Y-74458272D02*
X134131217Y-76824999D01*
X131764490Y-74034008D02*
X131764490Y-74458272D01*
X146809952Y-75248617D02*
X146137950Y-75248617D01*
X147748569Y-74310000D02*
X146809952Y-75248617D01*
X149000000Y-74310000D02*
X147748569Y-74310000D01*
X146137950Y-75248617D02*
X145350011Y-74460678D01*
X145350011Y-74460678D02*
X145350011Y-71549965D01*
X145350011Y-71549965D02*
X147569989Y-69329987D01*
X147569989Y-69329987D02*
X147869988Y-69029988D01*
X139270000Y-69090000D02*
X139450000Y-69090000D01*
X138385000Y-69975000D02*
X139270000Y-69090000D01*
X138385000Y-70450000D02*
X138385000Y-69975000D01*
X144940001Y-69799999D02*
X141280003Y-69799999D01*
X145940000Y-68800000D02*
X144940001Y-69799999D01*
X141280003Y-69799999D02*
X141180000Y-69900002D01*
X96000000Y-74250000D02*
X96000000Y-74735986D01*
X96000000Y-74735986D02*
X97814015Y-76550001D01*
X97814015Y-76550001D02*
X100749999Y-76550001D01*
X100749999Y-76550001D02*
X101800000Y-75500000D01*
X101800000Y-73500000D02*
X101800000Y-75500000D01*
X111500000Y-81100000D02*
X111500000Y-83100000D01*
X111500000Y-83100000D02*
X111400000Y-83100000D01*
X111400000Y-83100000D02*
X110349999Y-84150001D01*
X110349999Y-84150001D02*
X106132401Y-84150001D01*
X106132401Y-84150001D02*
X105250000Y-83267600D01*
X105250000Y-83267600D02*
X105250000Y-81750000D01*
X99920000Y-69220000D02*
X99920000Y-68580000D01*
X99920000Y-68580000D02*
X100740000Y-67760000D01*
X110100000Y-69300000D02*
X110100000Y-67900000D01*
X110100000Y-75400000D02*
X110100000Y-74000000D01*
X105250000Y-74250000D02*
X109050000Y-74250000D01*
X109050000Y-74250000D02*
X110100000Y-75300000D01*
X110100000Y-75300000D02*
X110100000Y-75400000D01*
X105250000Y-74250000D02*
X105250000Y-74150000D01*
X105250000Y-74150000D02*
X103367601Y-72267601D01*
X103367601Y-72267601D02*
X92812399Y-72267601D01*
X92812399Y-72267601D02*
X92732399Y-72187601D01*
X92732399Y-72187601D02*
X92732399Y-67524936D01*
X92732399Y-67524936D02*
X97909340Y-62347995D01*
X97909340Y-62347995D02*
X97909340Y-60209340D01*
X97909340Y-60209340D02*
X96100000Y-58400000D01*
X96100000Y-58400000D02*
X96100000Y-48900000D01*
X96100000Y-48900000D02*
X99100000Y-45900000D01*
X99100000Y-45900000D02*
X103696448Y-45900000D01*
X103696448Y-45900000D02*
X105231116Y-44365332D01*
X105231116Y-44365332D02*
X106731115Y-42865333D01*
X96000000Y-81750000D02*
X96000000Y-83267600D01*
X96000000Y-83267600D02*
X95867600Y-83400000D01*
X95867600Y-83400000D02*
X93400000Y-83400000D01*
X96000000Y-81750000D02*
X94482400Y-81750000D01*
X94482400Y-81750000D02*
X91236447Y-78504047D01*
X91236447Y-78504047D02*
X91236447Y-47699114D01*
X91236447Y-47699114D02*
X96070228Y-42865333D01*
X96070228Y-42865333D02*
X98864013Y-42865333D01*
X98864013Y-42865333D02*
X100985333Y-42865333D01*
D27*
G36*
X123765000Y-69319051D02*
X123607877Y-69349537D01*
X123395073Y-69489327D01*
X123252623Y-69700360D01*
X123202560Y-69950000D01*
X123202560Y-70550000D01*
X123249537Y-70792123D01*
X123310396Y-70884770D01*
X123252623Y-70970360D01*
X123202560Y-71220000D01*
X123202560Y-71820000D01*
X123228752Y-71955000D01*
X122635868Y-71955000D01*
X122547440Y-71866572D01*
X122547440Y-71000000D01*
X122500463Y-70757877D01*
X122360673Y-70545073D01*
X122149640Y-70402623D01*
X122119208Y-70396520D01*
X122259699Y-70338327D01*
X122438327Y-70159698D01*
X122535000Y-69926309D01*
X122535000Y-69335750D01*
X122535000Y-68764250D01*
X122535000Y-68173691D01*
X122438327Y-67940302D01*
X122259699Y-67761673D01*
X122026310Y-67665000D01*
X121773691Y-67665000D01*
X121535750Y-67665000D01*
X121377000Y-67823750D01*
X121377000Y-68923000D01*
X122376250Y-68923000D01*
X122535000Y-68764250D01*
X122535000Y-69335750D01*
X122376250Y-69177000D01*
X121377000Y-69177000D01*
X121377000Y-69197000D01*
X121123000Y-69197000D01*
X121123000Y-69177000D01*
X121103000Y-69177000D01*
X121103000Y-68923000D01*
X121123000Y-68923000D01*
X121123000Y-67823750D01*
X120964250Y-67665000D01*
X120726309Y-67665000D01*
X120473690Y-67665000D01*
X120240301Y-67761673D01*
X120108421Y-67893553D01*
X119899640Y-67752623D01*
X119835000Y-67739660D01*
X119835000Y-66797440D01*
X119950000Y-66797440D01*
X120192123Y-66750463D01*
X120234960Y-66722323D01*
X120234960Y-66867600D01*
X120281937Y-67109723D01*
X120421727Y-67322527D01*
X120632760Y-67464977D01*
X120882400Y-67515040D01*
X123117600Y-67515040D01*
X123359723Y-67468063D01*
X123572527Y-67328273D01*
X123714977Y-67117240D01*
X123749751Y-66943836D01*
X123765000Y-67022428D01*
X123765000Y-69319051D01*
X123765000Y-69319051D01*
G37*
X123765000Y-69319051D02*
X123607877Y-69349537D01*
X123395073Y-69489327D01*
X123252623Y-69700360D01*
X123202560Y-69950000D01*
X123202560Y-70550000D01*
X123249537Y-70792123D01*
X123310396Y-70884770D01*
X123252623Y-70970360D01*
X123202560Y-71220000D01*
X123202560Y-71820000D01*
X123228752Y-71955000D01*
X122635868Y-71955000D01*
X122547440Y-71866572D01*
X122547440Y-71000000D01*
X122500463Y-70757877D01*
X122360673Y-70545073D01*
X122149640Y-70402623D01*
X122119208Y-70396520D01*
X122259699Y-70338327D01*
X122438327Y-70159698D01*
X122535000Y-69926309D01*
X122535000Y-69335750D01*
X122535000Y-68764250D01*
X122535000Y-68173691D01*
X122438327Y-67940302D01*
X122259699Y-67761673D01*
X122026310Y-67665000D01*
X121773691Y-67665000D01*
X121535750Y-67665000D01*
X121377000Y-67823750D01*
X121377000Y-68923000D01*
X122376250Y-68923000D01*
X122535000Y-68764250D01*
X122535000Y-69335750D01*
X122376250Y-69177000D01*
X121377000Y-69177000D01*
X121377000Y-69197000D01*
X121123000Y-69197000D01*
X121123000Y-69177000D01*
X121103000Y-69177000D01*
X121103000Y-68923000D01*
X121123000Y-68923000D01*
X121123000Y-67823750D01*
X120964250Y-67665000D01*
X120726309Y-67665000D01*
X120473690Y-67665000D01*
X120240301Y-67761673D01*
X120108421Y-67893553D01*
X119899640Y-67752623D01*
X119835000Y-67739660D01*
X119835000Y-66797440D01*
X119950000Y-66797440D01*
X120192123Y-66750463D01*
X120234960Y-66722323D01*
X120234960Y-66867600D01*
X120281937Y-67109723D01*
X120421727Y-67322527D01*
X120632760Y-67464977D01*
X120882400Y-67515040D01*
X123117600Y-67515040D01*
X123359723Y-67468063D01*
X123572527Y-67328273D01*
X123714977Y-67117240D01*
X123749751Y-66943836D01*
X123765000Y-67022428D01*
X123765000Y-69319051D01*
G36*
X123765000Y-81482605D02*
X123750248Y-81556163D01*
X123718063Y-81390277D01*
X123578273Y-81177473D01*
X123367240Y-81035023D01*
X123117600Y-80984960D01*
X122535000Y-80984960D01*
X122535000Y-80376309D01*
X122535000Y-79785750D01*
X122376250Y-79627000D01*
X121377000Y-79627000D01*
X121377000Y-80726250D01*
X121535750Y-80885000D01*
X121773691Y-80885000D01*
X122026310Y-80885000D01*
X122259699Y-80788327D01*
X122438327Y-80609698D01*
X122535000Y-80376309D01*
X122535000Y-80984960D01*
X120882400Y-80984960D01*
X120640277Y-81031937D01*
X120427473Y-81171727D01*
X120285023Y-81382760D01*
X120234960Y-81632400D01*
X120234960Y-81749679D01*
X120000000Y-81702560D01*
X119835000Y-81702560D01*
X119835000Y-80761546D01*
X119892123Y-80750463D01*
X120079409Y-80627435D01*
X120240301Y-80788327D01*
X120473690Y-80885000D01*
X120726309Y-80885000D01*
X120964250Y-80885000D01*
X121123000Y-80726250D01*
X121123000Y-79627000D01*
X121103000Y-79627000D01*
X121103000Y-79373000D01*
X121123000Y-79373000D01*
X121123000Y-79353000D01*
X121377000Y-79353000D01*
X121377000Y-79373000D01*
X122376250Y-79373000D01*
X122535000Y-79214250D01*
X122535000Y-79019318D01*
X122813201Y-79134838D01*
X123185167Y-79135162D01*
X123528943Y-78993117D01*
X123729195Y-78793213D01*
X123765000Y-78800394D01*
X123765000Y-81482605D01*
X123765000Y-81482605D01*
G37*
X123765000Y-81482605D02*
X123750248Y-81556163D01*
X123718063Y-81390277D01*
X123578273Y-81177473D01*
X123367240Y-81035023D01*
X123117600Y-80984960D01*
X122535000Y-80984960D01*
X122535000Y-80376309D01*
X122535000Y-79785750D01*
X122376250Y-79627000D01*
X121377000Y-79627000D01*
X121377000Y-80726250D01*
X121535750Y-80885000D01*
X121773691Y-80885000D01*
X122026310Y-80885000D01*
X122259699Y-80788327D01*
X122438327Y-80609698D01*
X122535000Y-80376309D01*
X122535000Y-80984960D01*
X120882400Y-80984960D01*
X120640277Y-81031937D01*
X120427473Y-81171727D01*
X120285023Y-81382760D01*
X120234960Y-81632400D01*
X120234960Y-81749679D01*
X120000000Y-81702560D01*
X119835000Y-81702560D01*
X119835000Y-80761546D01*
X119892123Y-80750463D01*
X120079409Y-80627435D01*
X120240301Y-80788327D01*
X120473690Y-80885000D01*
X120726309Y-80885000D01*
X120964250Y-80885000D01*
X121123000Y-80726250D01*
X121123000Y-79627000D01*
X121103000Y-79627000D01*
X121103000Y-79373000D01*
X121123000Y-79373000D01*
X121123000Y-79353000D01*
X121377000Y-79353000D01*
X121377000Y-79373000D01*
X122376250Y-79373000D01*
X122535000Y-79214250D01*
X122535000Y-79019318D01*
X122813201Y-79134838D01*
X123185167Y-79135162D01*
X123528943Y-78993117D01*
X123729195Y-78793213D01*
X123765000Y-78800394D01*
X123765000Y-81482605D01*
G36*
X135320497Y-67598634D02*
X134654132Y-68265000D01*
X134140000Y-68265000D01*
X133820459Y-68328561D01*
X133549566Y-68509566D01*
X132342060Y-69717071D01*
X132210354Y-69398316D01*
X131947564Y-69135067D01*
X131604036Y-68992421D01*
X131232070Y-68992097D01*
X130888294Y-69134142D01*
X130719581Y-69302560D01*
X129250000Y-69302560D01*
X129123827Y-69327040D01*
X129590434Y-68860434D01*
X129771439Y-68589541D01*
X129771439Y-68589540D01*
X129835000Y-68270000D01*
X129835000Y-67515040D01*
X130117600Y-67515040D01*
X130359723Y-67468063D01*
X130572527Y-67328273D01*
X130714977Y-67117240D01*
X130749751Y-66943836D01*
X130781937Y-67109723D01*
X130921727Y-67322527D01*
X131132760Y-67464977D01*
X131382400Y-67515040D01*
X133617600Y-67515040D01*
X133859723Y-67468063D01*
X133899829Y-67441717D01*
X134080459Y-67562410D01*
X134400000Y-67625971D01*
X135183069Y-67625971D01*
X135320497Y-67598634D01*
X135320497Y-67598634D01*
G37*
X135320497Y-67598634D02*
X134654132Y-68265000D01*
X134140000Y-68265000D01*
X133820459Y-68328561D01*
X133549566Y-68509566D01*
X132342060Y-69717071D01*
X132210354Y-69398316D01*
X131947564Y-69135067D01*
X131604036Y-68992421D01*
X131232070Y-68992097D01*
X130888294Y-69134142D01*
X130719581Y-69302560D01*
X129250000Y-69302560D01*
X129123827Y-69327040D01*
X129590434Y-68860434D01*
X129771439Y-68589541D01*
X129771439Y-68589540D01*
X129835000Y-68270000D01*
X129835000Y-67515040D01*
X130117600Y-67515040D01*
X130359723Y-67468063D01*
X130572527Y-67328273D01*
X130714977Y-67117240D01*
X130749751Y-66943836D01*
X130781937Y-67109723D01*
X130921727Y-67322527D01*
X131132760Y-67464977D01*
X131382400Y-67515040D01*
X133617600Y-67515040D01*
X133859723Y-67468063D01*
X133899829Y-67441717D01*
X134080459Y-67562410D01*
X134400000Y-67625971D01*
X135183069Y-67625971D01*
X135320497Y-67598634D01*
G36*
X138102129Y-63627000D02*
X138101570Y-63627560D01*
X138085000Y-63627560D01*
X137842877Y-63674537D01*
X137758500Y-63729963D01*
X137541310Y-63640000D01*
X137400750Y-63640000D01*
X137242000Y-63798750D01*
X137242000Y-64923000D01*
X137262000Y-64923000D01*
X137262000Y-65177000D01*
X137242000Y-65177000D01*
X137242000Y-65197000D01*
X137077755Y-65197000D01*
X137076458Y-65190478D01*
X137076457Y-65190477D01*
X136968000Y-65028160D01*
X136968000Y-64923000D01*
X136988000Y-64923000D01*
X136988000Y-63798750D01*
X136829250Y-63640000D01*
X136688690Y-63640000D01*
X136471921Y-63729788D01*
X136394640Y-63677623D01*
X136145000Y-63627560D01*
X135545000Y-63627560D01*
X135302877Y-63674537D01*
X135090073Y-63814327D01*
X134947623Y-64025360D01*
X134897560Y-64275000D01*
X134897560Y-65825000D01*
X134922971Y-65955971D01*
X134760562Y-65955971D01*
X134719541Y-65928561D01*
X134400000Y-65865000D01*
X134265040Y-65891845D01*
X134265040Y-64632400D01*
X134218063Y-64390277D01*
X134078273Y-64177473D01*
X133867240Y-64035023D01*
X133617600Y-63984960D01*
X131382400Y-63984960D01*
X131140277Y-64031937D01*
X130927473Y-64171727D01*
X130785023Y-64382760D01*
X130750248Y-64556163D01*
X130718063Y-64390277D01*
X130578273Y-64177473D01*
X130367240Y-64035023D01*
X130117600Y-63984960D01*
X127882400Y-63984960D01*
X127640277Y-64031937D01*
X127427473Y-64171727D01*
X127285023Y-64382760D01*
X127250248Y-64556163D01*
X127218063Y-64390277D01*
X127078273Y-64177473D01*
X126867240Y-64035023D01*
X126617600Y-63984960D01*
X124382400Y-63984960D01*
X124140277Y-64031937D01*
X123927473Y-64171727D01*
X123785023Y-64382760D01*
X123750248Y-64556163D01*
X123718063Y-64390277D01*
X123578273Y-64177473D01*
X123367240Y-64035023D01*
X123117600Y-63984960D01*
X120882400Y-63984960D01*
X120640277Y-64031937D01*
X120427473Y-64171727D01*
X120318643Y-64332952D01*
X120199640Y-64252623D01*
X119950000Y-64202560D01*
X118450000Y-64202560D01*
X118207877Y-64249537D01*
X117995073Y-64389327D01*
X117852623Y-64600360D01*
X117850783Y-64609530D01*
X117850463Y-64607877D01*
X117710673Y-64395073D01*
X117499640Y-64252623D01*
X117250000Y-64202560D01*
X115750000Y-64202560D01*
X115507877Y-64249537D01*
X115295073Y-64389327D01*
X115152623Y-64600360D01*
X115127000Y-64728129D01*
X115127000Y-63627000D01*
X138102129Y-63627000D01*
X138102129Y-63627000D01*
G37*
X138102129Y-63627000D02*
X138101570Y-63627560D01*
X138085000Y-63627560D01*
X137842877Y-63674537D01*
X137758500Y-63729963D01*
X137541310Y-63640000D01*
X137400750Y-63640000D01*
X137242000Y-63798750D01*
X137242000Y-64923000D01*
X137262000Y-64923000D01*
X137262000Y-65177000D01*
X137242000Y-65177000D01*
X137242000Y-65197000D01*
X137077755Y-65197000D01*
X137076458Y-65190478D01*
X137076457Y-65190477D01*
X136968000Y-65028160D01*
X136968000Y-64923000D01*
X136988000Y-64923000D01*
X136988000Y-63798750D01*
X136829250Y-63640000D01*
X136688690Y-63640000D01*
X136471921Y-63729788D01*
X136394640Y-63677623D01*
X136145000Y-63627560D01*
X135545000Y-63627560D01*
X135302877Y-63674537D01*
X135090073Y-63814327D01*
X134947623Y-64025360D01*
X134897560Y-64275000D01*
X134897560Y-65825000D01*
X134922971Y-65955971D01*
X134760562Y-65955971D01*
X134719541Y-65928561D01*
X134400000Y-65865000D01*
X134265040Y-65891845D01*
X134265040Y-64632400D01*
X134218063Y-64390277D01*
X134078273Y-64177473D01*
X133867240Y-64035023D01*
X133617600Y-63984960D01*
X131382400Y-63984960D01*
X131140277Y-64031937D01*
X130927473Y-64171727D01*
X130785023Y-64382760D01*
X130750248Y-64556163D01*
X130718063Y-64390277D01*
X130578273Y-64177473D01*
X130367240Y-64035023D01*
X130117600Y-63984960D01*
X127882400Y-63984960D01*
X127640277Y-64031937D01*
X127427473Y-64171727D01*
X127285023Y-64382760D01*
X127250248Y-64556163D01*
X127218063Y-64390277D01*
X127078273Y-64177473D01*
X126867240Y-64035023D01*
X126617600Y-63984960D01*
X124382400Y-63984960D01*
X124140277Y-64031937D01*
X123927473Y-64171727D01*
X123785023Y-64382760D01*
X123750248Y-64556163D01*
X123718063Y-64390277D01*
X123578273Y-64177473D01*
X123367240Y-64035023D01*
X123117600Y-63984960D01*
X120882400Y-63984960D01*
X120640277Y-64031937D01*
X120427473Y-64171727D01*
X120318643Y-64332952D01*
X120199640Y-64252623D01*
X119950000Y-64202560D01*
X118450000Y-64202560D01*
X118207877Y-64249537D01*
X117995073Y-64389327D01*
X117852623Y-64600360D01*
X117850783Y-64609530D01*
X117850463Y-64607877D01*
X117710673Y-64395073D01*
X117499640Y-64252623D01*
X117250000Y-64202560D01*
X115750000Y-64202560D01*
X115507877Y-64249537D01*
X115295073Y-64389327D01*
X115152623Y-64600360D01*
X115127000Y-64728129D01*
X115127000Y-63627000D01*
X138102129Y-63627000D01*
G36*
X138377000Y-83527000D02*
X138357000Y-83527000D01*
X138357000Y-83547000D01*
X138103000Y-83547000D01*
X138103000Y-83527000D01*
X138083000Y-83527000D01*
X138083000Y-83273000D01*
X138103000Y-83273000D01*
X138103000Y-83253000D01*
X138357000Y-83253000D01*
X138357000Y-83273000D01*
X138377000Y-83273000D01*
X138377000Y-83527000D01*
X138377000Y-83527000D01*
G37*
X138377000Y-83527000D02*
X138357000Y-83527000D01*
X138357000Y-83547000D01*
X138103000Y-83547000D01*
X138103000Y-83527000D01*
X138083000Y-83527000D01*
X138083000Y-83273000D01*
X138103000Y-83273000D01*
X138103000Y-83253000D01*
X138357000Y-83253000D01*
X138357000Y-83273000D01*
X138377000Y-83273000D01*
X138377000Y-83527000D01*
G36*
X143747000Y-73167000D02*
X143727000Y-73167000D01*
X143727000Y-73187000D01*
X143473000Y-73187000D01*
X143473000Y-73167000D01*
X143453000Y-73167000D01*
X143453000Y-72913000D01*
X143473000Y-72913000D01*
X143473000Y-72893000D01*
X143727000Y-72893000D01*
X143727000Y-72913000D01*
X143747000Y-72913000D01*
X143747000Y-73167000D01*
X143747000Y-73167000D01*
G37*
X143747000Y-73167000D02*
X143727000Y-73167000D01*
X143727000Y-73187000D01*
X143473000Y-73187000D01*
X143473000Y-73167000D01*
X143453000Y-73167000D01*
X143453000Y-72913000D01*
X143473000Y-72913000D01*
X143473000Y-72893000D01*
X143727000Y-72893000D01*
X143727000Y-72913000D01*
X143747000Y-72913000D01*
X143747000Y-73167000D01*
G36*
X146165515Y-76083617D02*
X144971931Y-77277200D01*
X144997440Y-77150000D01*
X144997440Y-76550000D01*
X144950463Y-76307877D01*
X144895036Y-76223500D01*
X144985000Y-76006310D01*
X144985000Y-75865750D01*
X144826250Y-75707000D01*
X143727000Y-75707000D01*
X143727000Y-75727000D01*
X143473000Y-75727000D01*
X143473000Y-75707000D01*
X143453000Y-75707000D01*
X143453000Y-75453000D01*
X143473000Y-75453000D01*
X143473000Y-75433000D01*
X143727000Y-75433000D01*
X143727000Y-75453000D01*
X144826250Y-75453000D01*
X144985000Y-75294250D01*
X144985000Y-75276535D01*
X145547516Y-75839051D01*
X145818409Y-76020056D01*
X145818410Y-76020056D01*
X146137950Y-76083617D01*
X146165515Y-76083617D01*
X146165515Y-76083617D01*
G37*
X146165515Y-76083617D02*
X144971931Y-77277200D01*
X144997440Y-77150000D01*
X144997440Y-76550000D01*
X144950463Y-76307877D01*
X144895036Y-76223500D01*
X144985000Y-76006310D01*
X144985000Y-75865750D01*
X144826250Y-75707000D01*
X143727000Y-75707000D01*
X143727000Y-75727000D01*
X143473000Y-75727000D01*
X143473000Y-75707000D01*
X143453000Y-75707000D01*
X143453000Y-75453000D01*
X143473000Y-75453000D01*
X143473000Y-75433000D01*
X143727000Y-75433000D01*
X143727000Y-75453000D01*
X144826250Y-75453000D01*
X144985000Y-75294250D01*
X144985000Y-75276535D01*
X145547516Y-75839051D01*
X145818409Y-76020056D01*
X145818410Y-76020056D01*
X146137950Y-76083617D01*
X146165515Y-76083617D01*
G36*
X153397000Y-82877000D02*
X153377000Y-82877000D01*
X153377000Y-82897000D01*
X153123000Y-82897000D01*
X153123000Y-82877000D01*
X153103000Y-82877000D01*
X153103000Y-82623000D01*
X153123000Y-82623000D01*
X153123000Y-82603000D01*
X153377000Y-82603000D01*
X153377000Y-82623000D01*
X153397000Y-82623000D01*
X153397000Y-82877000D01*
X153397000Y-82877000D01*
G37*
X153397000Y-82877000D02*
X153377000Y-82877000D01*
X153377000Y-82897000D01*
X153123000Y-82897000D01*
X153123000Y-82877000D01*
X153103000Y-82877000D01*
X153103000Y-82623000D01*
X153123000Y-82623000D01*
X153123000Y-82603000D01*
X153377000Y-82603000D01*
X153377000Y-82623000D01*
X153397000Y-82623000D01*
X153397000Y-82877000D01*
G36*
X154247000Y-71027000D02*
X154227000Y-71027000D01*
X154227000Y-71047000D01*
X153973000Y-71047000D01*
X153973000Y-71027000D01*
X153953000Y-71027000D01*
X153953000Y-70773000D01*
X153973000Y-70773000D01*
X153973000Y-70753000D01*
X154227000Y-70753000D01*
X154227000Y-70773000D01*
X154247000Y-70773000D01*
X154247000Y-71027000D01*
X154247000Y-71027000D01*
G37*
X154247000Y-71027000D02*
X154227000Y-71027000D01*
X154227000Y-71047000D01*
X153973000Y-71047000D01*
X153973000Y-71027000D01*
X153953000Y-71027000D01*
X153953000Y-70773000D01*
X153973000Y-70773000D01*
X153973000Y-70753000D01*
X154227000Y-70753000D01*
X154227000Y-70773000D01*
X154247000Y-70773000D01*
X154247000Y-71027000D01*
G36*
X154247000Y-77827000D02*
X154227000Y-77827000D01*
X154227000Y-77847000D01*
X153973000Y-77847000D01*
X153973000Y-77827000D01*
X153953000Y-77827000D01*
X153953000Y-77573000D01*
X153973000Y-77573000D01*
X153973000Y-77553000D01*
X154227000Y-77553000D01*
X154227000Y-77573000D01*
X154247000Y-77573000D01*
X154247000Y-77827000D01*
X154247000Y-77827000D01*
G37*
X154247000Y-77827000D02*
X154227000Y-77827000D01*
X154227000Y-77847000D01*
X153973000Y-77847000D01*
X153973000Y-77827000D01*
X153953000Y-77827000D01*
X153953000Y-77573000D01*
X153973000Y-77573000D01*
X153973000Y-77553000D01*
X154227000Y-77553000D01*
X154227000Y-77573000D01*
X154247000Y-77573000D01*
X154247000Y-77827000D01*
G36*
X159330494Y-68284997D02*
X159252623Y-68400360D01*
X159202560Y-68650000D01*
X159202560Y-68935001D01*
X158919999Y-68935001D01*
X158600459Y-68998561D01*
X158329565Y-69179567D01*
X157431572Y-70077560D01*
X157365000Y-70077560D01*
X157122877Y-70124537D01*
X157030229Y-70185396D01*
X156944640Y-70127623D01*
X156695000Y-70077560D01*
X156095000Y-70077560D01*
X155852877Y-70124537D01*
X155640073Y-70264327D01*
X155497623Y-70475360D01*
X155485000Y-70538304D01*
X155485000Y-70376309D01*
X155485000Y-70123690D01*
X155388327Y-69890301D01*
X155233025Y-69735000D01*
X157033191Y-69735000D01*
X157352731Y-69671439D01*
X157352732Y-69671439D01*
X157623625Y-69490434D01*
X158829062Y-68284997D01*
X159330494Y-68284997D01*
X159330494Y-68284997D01*
G37*
X159330494Y-68284997D02*
X159252623Y-68400360D01*
X159202560Y-68650000D01*
X159202560Y-68935001D01*
X158919999Y-68935001D01*
X158600459Y-68998561D01*
X158329565Y-69179567D01*
X157431572Y-70077560D01*
X157365000Y-70077560D01*
X157122877Y-70124537D01*
X157030229Y-70185396D01*
X156944640Y-70127623D01*
X156695000Y-70077560D01*
X156095000Y-70077560D01*
X155852877Y-70124537D01*
X155640073Y-70264327D01*
X155497623Y-70475360D01*
X155485000Y-70538304D01*
X155485000Y-70376309D01*
X155485000Y-70123690D01*
X155388327Y-69890301D01*
X155233025Y-69735000D01*
X157033191Y-69735000D01*
X157352731Y-69671439D01*
X157352732Y-69671439D01*
X157623625Y-69490434D01*
X158829062Y-68284997D01*
X159330494Y-68284997D01*
G36*
X167247000Y-76327000D02*
X167227000Y-76327000D01*
X167227000Y-76347000D01*
X166973000Y-76347000D01*
X166973000Y-76327000D01*
X166953000Y-76327000D01*
X166953000Y-76073000D01*
X166973000Y-76073000D01*
X166973000Y-76053000D01*
X167227000Y-76053000D01*
X167227000Y-76073000D01*
X167247000Y-76073000D01*
X167247000Y-76327000D01*
X167247000Y-76327000D01*
G37*
X167247000Y-76327000D02*
X167227000Y-76327000D01*
X167227000Y-76347000D01*
X166973000Y-76347000D01*
X166973000Y-76327000D01*
X166953000Y-76327000D01*
X166953000Y-76073000D01*
X166973000Y-76073000D01*
X166973000Y-76053000D01*
X167227000Y-76053000D01*
X167227000Y-76073000D01*
X167247000Y-76073000D01*
X167247000Y-76327000D01*
G36*
X168147000Y-70557000D02*
X168127000Y-70557000D01*
X168127000Y-70577000D01*
X167873000Y-70577000D01*
X167873000Y-70557000D01*
X166781932Y-70557000D01*
X166655019Y-70723935D01*
X166819641Y-71060761D01*
X166669844Y-71284949D01*
X166627698Y-71496830D01*
X166040434Y-70909566D01*
X165769541Y-70728561D01*
X165690219Y-70712782D01*
X165650463Y-70507877D01*
X165510673Y-70295073D01*
X165299640Y-70152623D01*
X165050000Y-70102560D01*
X164666845Y-70102560D01*
X164688415Y-69995000D01*
X166723963Y-69995000D01*
X166655019Y-70136065D01*
X166781932Y-70303000D01*
X167873000Y-70303000D01*
X167873000Y-70283000D01*
X168127000Y-70283000D01*
X168127000Y-70303000D01*
X168147000Y-70303000D01*
X168147000Y-70557000D01*
X168147000Y-70557000D01*
G37*
X168147000Y-70557000D02*
X168127000Y-70557000D01*
X168127000Y-70577000D01*
X167873000Y-70577000D01*
X167873000Y-70557000D01*
X166781932Y-70557000D01*
X166655019Y-70723935D01*
X166819641Y-71060761D01*
X166669844Y-71284949D01*
X166627698Y-71496830D01*
X166040434Y-70909566D01*
X165769541Y-70728561D01*
X165690219Y-70712782D01*
X165650463Y-70507877D01*
X165510673Y-70295073D01*
X165299640Y-70152623D01*
X165050000Y-70102560D01*
X164666845Y-70102560D01*
X164688415Y-69995000D01*
X166723963Y-69995000D01*
X166655019Y-70136065D01*
X166781932Y-70303000D01*
X167873000Y-70303000D01*
X167873000Y-70283000D01*
X168127000Y-70283000D01*
X168127000Y-70303000D01*
X168147000Y-70303000D01*
X168147000Y-70557000D01*
G36*
X174272441Y-72853309D02*
X174127000Y-72998750D01*
X174127000Y-73973000D01*
X174147000Y-73973000D01*
X174147000Y-74227000D01*
X174127000Y-74227000D01*
X174127000Y-74998750D01*
X174127000Y-75201250D01*
X174127000Y-75973000D01*
X174147000Y-75973000D01*
X174147000Y-76227000D01*
X174127000Y-76227000D01*
X174127000Y-77201250D01*
X174172441Y-77246691D01*
X173891572Y-77527560D01*
X173873000Y-77527560D01*
X173873000Y-77201250D01*
X173873000Y-76227000D01*
X173001250Y-76227000D01*
X172773750Y-76227000D01*
X172027000Y-76227000D01*
X172027000Y-77326250D01*
X172185750Y-77485000D01*
X172398691Y-77485000D01*
X172651310Y-77485000D01*
X172884699Y-77388327D01*
X172974728Y-77298297D01*
X173123691Y-77360000D01*
X173714250Y-77360000D01*
X173873000Y-77201250D01*
X173873000Y-77527560D01*
X173050000Y-77527560D01*
X172807877Y-77574537D01*
X172595073Y-77714327D01*
X172550386Y-77780528D01*
X172510673Y-77720073D01*
X172299640Y-77577623D01*
X172050000Y-77527560D01*
X170550000Y-77527560D01*
X170307877Y-77574537D01*
X170185677Y-77654809D01*
X170040424Y-77509556D01*
X169984876Y-77472440D01*
X170350000Y-77472440D01*
X170592123Y-77425463D01*
X170804927Y-77285673D01*
X170808038Y-77281063D01*
X170915301Y-77388327D01*
X171148690Y-77485000D01*
X171401309Y-77485000D01*
X171614250Y-77485000D01*
X171773000Y-77326250D01*
X171773000Y-76227000D01*
X171753000Y-76227000D01*
X171753000Y-75973000D01*
X171773000Y-75973000D01*
X171773000Y-75953000D01*
X172027000Y-75953000D01*
X172027000Y-75973000D01*
X172773750Y-75973000D01*
X173001250Y-75973000D01*
X173873000Y-75973000D01*
X173873000Y-75201250D01*
X173873000Y-74998750D01*
X173873000Y-74227000D01*
X173853000Y-74227000D01*
X173853000Y-73973000D01*
X173873000Y-73973000D01*
X173873000Y-72998750D01*
X173714250Y-72840000D01*
X173170499Y-72840000D01*
X173137489Y-72669863D01*
X173275000Y-72697440D01*
X174116572Y-72697440D01*
X174272441Y-72853309D01*
X174272441Y-72853309D01*
G37*
X174272441Y-72853309D02*
X174127000Y-72998750D01*
X174127000Y-73973000D01*
X174147000Y-73973000D01*
X174147000Y-74227000D01*
X174127000Y-74227000D01*
X174127000Y-74998750D01*
X174127000Y-75201250D01*
X174127000Y-75973000D01*
X174147000Y-75973000D01*
X174147000Y-76227000D01*
X174127000Y-76227000D01*
X174127000Y-77201250D01*
X174172441Y-77246691D01*
X173891572Y-77527560D01*
X173873000Y-77527560D01*
X173873000Y-77201250D01*
X173873000Y-76227000D01*
X173001250Y-76227000D01*
X172773750Y-76227000D01*
X172027000Y-76227000D01*
X172027000Y-77326250D01*
X172185750Y-77485000D01*
X172398691Y-77485000D01*
X172651310Y-77485000D01*
X172884699Y-77388327D01*
X172974728Y-77298297D01*
X173123691Y-77360000D01*
X173714250Y-77360000D01*
X173873000Y-77201250D01*
X173873000Y-77527560D01*
X173050000Y-77527560D01*
X172807877Y-77574537D01*
X172595073Y-77714327D01*
X172550386Y-77780528D01*
X172510673Y-77720073D01*
X172299640Y-77577623D01*
X172050000Y-77527560D01*
X170550000Y-77527560D01*
X170307877Y-77574537D01*
X170185677Y-77654809D01*
X170040424Y-77509556D01*
X169984876Y-77472440D01*
X170350000Y-77472440D01*
X170592123Y-77425463D01*
X170804927Y-77285673D01*
X170808038Y-77281063D01*
X170915301Y-77388327D01*
X171148690Y-77485000D01*
X171401309Y-77485000D01*
X171614250Y-77485000D01*
X171773000Y-77326250D01*
X171773000Y-76227000D01*
X171753000Y-76227000D01*
X171753000Y-75973000D01*
X171773000Y-75973000D01*
X171773000Y-75953000D01*
X172027000Y-75953000D01*
X172027000Y-75973000D01*
X172773750Y-75973000D01*
X173001250Y-75973000D01*
X173873000Y-75973000D01*
X173873000Y-75201250D01*
X173873000Y-74998750D01*
X173873000Y-74227000D01*
X173853000Y-74227000D01*
X173853000Y-73973000D01*
X173873000Y-73973000D01*
X173873000Y-72998750D01*
X173714250Y-72840000D01*
X173170499Y-72840000D01*
X173137489Y-72669863D01*
X173275000Y-72697440D01*
X174116572Y-72697440D01*
X174272441Y-72853309D01*
G36*
X184315000Y-81184762D02*
X184167240Y-81085023D01*
X183917600Y-81034960D01*
X181682400Y-81034960D01*
X181440277Y-81081937D01*
X181227473Y-81221727D01*
X181085023Y-81432760D01*
X181050248Y-81606163D01*
X181018063Y-81440277D01*
X180878273Y-81227473D01*
X180667240Y-81085023D01*
X180417600Y-81034960D01*
X180135000Y-81034960D01*
X180135000Y-79600000D01*
X180071439Y-79280460D01*
X180071439Y-79280459D01*
X179956017Y-79107719D01*
X180333732Y-79360100D01*
X180790969Y-79451049D01*
X180765162Y-79513201D01*
X180764838Y-79885167D01*
X180906883Y-80228943D01*
X181169673Y-80492192D01*
X181513201Y-80634838D01*
X181885167Y-80635162D01*
X182228943Y-80493117D01*
X182300948Y-80421237D01*
X182496709Y-80290434D01*
X183640124Y-79147019D01*
X183821129Y-78876126D01*
X183821129Y-78876125D01*
X183884690Y-78556585D01*
X183884690Y-74150580D01*
X183821129Y-73831040D01*
X183821129Y-73831039D01*
X183640124Y-73560146D01*
X183281514Y-73201536D01*
X183321603Y-73000000D01*
X183216133Y-72469765D01*
X182915779Y-72020254D01*
X182466268Y-71719900D01*
X181936033Y-71614430D01*
X180863967Y-71614430D01*
X180333732Y-71719900D01*
X179884221Y-72020254D01*
X179583867Y-72469765D01*
X179478397Y-73000000D01*
X179583867Y-73530235D01*
X179884221Y-73979746D01*
X180318616Y-74270000D01*
X179884221Y-74560254D01*
X179583867Y-75009765D01*
X179478397Y-75540000D01*
X179490962Y-75603169D01*
X177987500Y-77106632D01*
X177848735Y-76967867D01*
X177897440Y-76725000D01*
X177897440Y-75475000D01*
X177850463Y-75232877D01*
X177762969Y-75099685D01*
X177847377Y-74974640D01*
X177897440Y-74725000D01*
X177897440Y-73475000D01*
X177850463Y-73232877D01*
X177710673Y-73020073D01*
X177499640Y-72877623D01*
X177250000Y-72827560D01*
X176608428Y-72827560D01*
X175172440Y-71391572D01*
X175172440Y-71083428D01*
X175534960Y-70720908D01*
X175534960Y-70917600D01*
X175581937Y-71159723D01*
X175721727Y-71372527D01*
X175932760Y-71514977D01*
X176182400Y-71565040D01*
X178417600Y-71565040D01*
X178659723Y-71518063D01*
X178872527Y-71378273D01*
X179014977Y-71167240D01*
X179065040Y-70917600D01*
X179065040Y-68682400D01*
X179018063Y-68440277D01*
X178878273Y-68227473D01*
X178667240Y-68085023D01*
X178417600Y-68034960D01*
X176182400Y-68034960D01*
X175940277Y-68081937D01*
X175727473Y-68221727D01*
X175585023Y-68432760D01*
X175534960Y-68682400D01*
X175534960Y-68965000D01*
X175275000Y-68965000D01*
X175172440Y-68985400D01*
X175172440Y-68050000D01*
X175125463Y-67807877D01*
X175031634Y-67665040D01*
X177017600Y-67665040D01*
X177259723Y-67618063D01*
X177472527Y-67478273D01*
X177614977Y-67267240D01*
X177649751Y-67093836D01*
X177681937Y-67259723D01*
X177821727Y-67472527D01*
X178032760Y-67614977D01*
X178282400Y-67665040D01*
X180517600Y-67665040D01*
X180759723Y-67618063D01*
X180972527Y-67478273D01*
X181114977Y-67267240D01*
X181165040Y-67017600D01*
X181165040Y-64782400D01*
X181118063Y-64540277D01*
X180978273Y-64327473D01*
X180767240Y-64185023D01*
X180517600Y-64134960D01*
X178282400Y-64134960D01*
X178040277Y-64181937D01*
X177827473Y-64321727D01*
X177685023Y-64532760D01*
X177650248Y-64706163D01*
X177618063Y-64540277D01*
X177478273Y-64327473D01*
X177267240Y-64185023D01*
X177017600Y-64134960D01*
X174782400Y-64134960D01*
X174540277Y-64181937D01*
X174327473Y-64321727D01*
X174185023Y-64532760D01*
X174134960Y-64782400D01*
X174134960Y-67017600D01*
X174181937Y-67259723D01*
X174275765Y-67402560D01*
X173275000Y-67402560D01*
X173032877Y-67449537D01*
X172912355Y-67528707D01*
X172799640Y-67452623D01*
X172768767Y-67446431D01*
X172872527Y-67378273D01*
X173014977Y-67167240D01*
X173065040Y-66917600D01*
X173065040Y-64682400D01*
X173018063Y-64440277D01*
X172878273Y-64227473D01*
X172667240Y-64085023D01*
X172417600Y-64034960D01*
X170182400Y-64034960D01*
X169940277Y-64081937D01*
X169727473Y-64221727D01*
X169585023Y-64432760D01*
X169550248Y-64606163D01*
X169518063Y-64440277D01*
X169378273Y-64227473D01*
X169167240Y-64085023D01*
X168917600Y-64034960D01*
X166682400Y-64034960D01*
X166440277Y-64081937D01*
X166227473Y-64221727D01*
X166085023Y-64432760D01*
X166034960Y-64682400D01*
X166034960Y-66917600D01*
X166081937Y-67159723D01*
X166221727Y-67372527D01*
X166432760Y-67514977D01*
X166682400Y-67565040D01*
X168917600Y-67565040D01*
X169159723Y-67518063D01*
X169372527Y-67378273D01*
X169514977Y-67167240D01*
X169549751Y-66993836D01*
X169581937Y-67159723D01*
X169721727Y-67372527D01*
X169932760Y-67514977D01*
X170182400Y-67565040D01*
X170465000Y-67565040D01*
X170465000Y-68200000D01*
X170528561Y-68519541D01*
X170602560Y-68630288D01*
X170602560Y-69537165D01*
X170394458Y-69578560D01*
X170123565Y-69759565D01*
X170102494Y-69780636D01*
X169395546Y-69073688D01*
X169330156Y-68744949D01*
X169095049Y-68393086D01*
X168743186Y-68157979D01*
X168328135Y-68075420D01*
X167671865Y-68075420D01*
X167256814Y-68157979D01*
X167006849Y-68325000D01*
X164596021Y-68325000D01*
X164510673Y-68195073D01*
X164299640Y-68052623D01*
X164050000Y-68002560D01*
X163755908Y-68002560D01*
X163890434Y-67868034D01*
X164071439Y-67597141D01*
X164071439Y-67597140D01*
X164085780Y-67525040D01*
X164417600Y-67525040D01*
X164659723Y-67478063D01*
X164872527Y-67338273D01*
X165014977Y-67127240D01*
X165065040Y-66877600D01*
X165065040Y-64642400D01*
X165018063Y-64400277D01*
X164878273Y-64187473D01*
X164667240Y-64045023D01*
X164417600Y-63994960D01*
X162182400Y-63994960D01*
X161940277Y-64041937D01*
X161727473Y-64181727D01*
X161585023Y-64392760D01*
X161550248Y-64566163D01*
X161518063Y-64400277D01*
X161378273Y-64187473D01*
X161167240Y-64045023D01*
X160917600Y-63994960D01*
X158682400Y-63994960D01*
X158440277Y-64041937D01*
X158227473Y-64181727D01*
X158085023Y-64392760D01*
X158034960Y-64642400D01*
X158034960Y-65069745D01*
X157885568Y-65169566D01*
X156738731Y-66316402D01*
X156630327Y-66207808D01*
X156286799Y-66065162D01*
X155914833Y-66064838D01*
X155669345Y-66166271D01*
X155356195Y-66228561D01*
X155085302Y-66409566D01*
X155062267Y-66432601D01*
X155002600Y-66432601D01*
X155002600Y-66035750D01*
X155002600Y-65464250D01*
X155002600Y-64758709D01*
X155002600Y-64506090D01*
X154905927Y-64272701D01*
X154727298Y-64094073D01*
X154493909Y-63997400D01*
X153535750Y-63997400D01*
X153377000Y-64156150D01*
X153377000Y-65623000D01*
X154843850Y-65623000D01*
X155002600Y-65464250D01*
X155002600Y-66035750D01*
X154843850Y-65877000D01*
X153377000Y-65877000D01*
X153377000Y-65897000D01*
X153123000Y-65897000D01*
X153123000Y-65877000D01*
X153103000Y-65877000D01*
X153103000Y-65623000D01*
X153123000Y-65623000D01*
X153123000Y-64156150D01*
X152964250Y-63997400D01*
X152006091Y-63997400D01*
X151772702Y-64094073D01*
X151594073Y-64272701D01*
X151497400Y-64506090D01*
X151497400Y-64541482D01*
X151468063Y-64390277D01*
X151328273Y-64177473D01*
X151117240Y-64035023D01*
X150867600Y-63984960D01*
X148632400Y-63984960D01*
X148390277Y-64031937D01*
X148177473Y-64171727D01*
X148035023Y-64382760D01*
X148000248Y-64556163D01*
X147968063Y-64390277D01*
X147828273Y-64177473D01*
X147617240Y-64035023D01*
X147367600Y-63984960D01*
X145132400Y-63984960D01*
X144890277Y-64031937D01*
X144677473Y-64171727D01*
X144535023Y-64382760D01*
X144500248Y-64556163D01*
X144468063Y-64390277D01*
X144328273Y-64177473D01*
X144117240Y-64035023D01*
X143867600Y-63984960D01*
X143535780Y-63984960D01*
X143521439Y-63912860D01*
X143521439Y-63912859D01*
X143340434Y-63641966D01*
X143325468Y-63627000D01*
X184315000Y-63627000D01*
X184315000Y-64315000D01*
X182000000Y-64315000D01*
X181737862Y-64367143D01*
X181515632Y-64515632D01*
X181367143Y-64737862D01*
X181315000Y-65000000D01*
X181315000Y-68000000D01*
X181367143Y-68262138D01*
X181515632Y-68484368D01*
X181737862Y-68632857D01*
X182000000Y-68685000D01*
X184315000Y-68685000D01*
X184315000Y-81184762D01*
X184315000Y-81184762D01*
G37*
X184315000Y-81184762D02*
X184167240Y-81085023D01*
X183917600Y-81034960D01*
X181682400Y-81034960D01*
X181440277Y-81081937D01*
X181227473Y-81221727D01*
X181085023Y-81432760D01*
X181050248Y-81606163D01*
X181018063Y-81440277D01*
X180878273Y-81227473D01*
X180667240Y-81085023D01*
X180417600Y-81034960D01*
X180135000Y-81034960D01*
X180135000Y-79600000D01*
X180071439Y-79280460D01*
X180071439Y-79280459D01*
X179956017Y-79107719D01*
X180333732Y-79360100D01*
X180790969Y-79451049D01*
X180765162Y-79513201D01*
X180764838Y-79885167D01*
X180906883Y-80228943D01*
X181169673Y-80492192D01*
X181513201Y-80634838D01*
X181885167Y-80635162D01*
X182228943Y-80493117D01*
X182300948Y-80421237D01*
X182496709Y-80290434D01*
X183640124Y-79147019D01*
X183821129Y-78876126D01*
X183821129Y-78876125D01*
X183884690Y-78556585D01*
X183884690Y-74150580D01*
X183821129Y-73831040D01*
X183821129Y-73831039D01*
X183640124Y-73560146D01*
X183281514Y-73201536D01*
X183321603Y-73000000D01*
X183216133Y-72469765D01*
X182915779Y-72020254D01*
X182466268Y-71719900D01*
X181936033Y-71614430D01*
X180863967Y-71614430D01*
X180333732Y-71719900D01*
X179884221Y-72020254D01*
X179583867Y-72469765D01*
X179478397Y-73000000D01*
X179583867Y-73530235D01*
X179884221Y-73979746D01*
X180318616Y-74270000D01*
X179884221Y-74560254D01*
X179583867Y-75009765D01*
X179478397Y-75540000D01*
X179490962Y-75603169D01*
X177987500Y-77106632D01*
X177848735Y-76967867D01*
X177897440Y-76725000D01*
X177897440Y-75475000D01*
X177850463Y-75232877D01*
X177762969Y-75099685D01*
X177847377Y-74974640D01*
X177897440Y-74725000D01*
X177897440Y-73475000D01*
X177850463Y-73232877D01*
X177710673Y-73020073D01*
X177499640Y-72877623D01*
X177250000Y-72827560D01*
X176608428Y-72827560D01*
X175172440Y-71391572D01*
X175172440Y-71083428D01*
X175534960Y-70720908D01*
X175534960Y-70917600D01*
X175581937Y-71159723D01*
X175721727Y-71372527D01*
X175932760Y-71514977D01*
X176182400Y-71565040D01*
X178417600Y-71565040D01*
X178659723Y-71518063D01*
X178872527Y-71378273D01*
X179014977Y-71167240D01*
X179065040Y-70917600D01*
X179065040Y-68682400D01*
X179018063Y-68440277D01*
X178878273Y-68227473D01*
X178667240Y-68085023D01*
X178417600Y-68034960D01*
X176182400Y-68034960D01*
X175940277Y-68081937D01*
X175727473Y-68221727D01*
X175585023Y-68432760D01*
X175534960Y-68682400D01*
X175534960Y-68965000D01*
X175275000Y-68965000D01*
X175172440Y-68985400D01*
X175172440Y-68050000D01*
X175125463Y-67807877D01*
X175031634Y-67665040D01*
X177017600Y-67665040D01*
X177259723Y-67618063D01*
X177472527Y-67478273D01*
X177614977Y-67267240D01*
X177649751Y-67093836D01*
X177681937Y-67259723D01*
X177821727Y-67472527D01*
X178032760Y-67614977D01*
X178282400Y-67665040D01*
X180517600Y-67665040D01*
X180759723Y-67618063D01*
X180972527Y-67478273D01*
X181114977Y-67267240D01*
X181165040Y-67017600D01*
X181165040Y-64782400D01*
X181118063Y-64540277D01*
X180978273Y-64327473D01*
X180767240Y-64185023D01*
X180517600Y-64134960D01*
X178282400Y-64134960D01*
X178040277Y-64181937D01*
X177827473Y-64321727D01*
X177685023Y-64532760D01*
X177650248Y-64706163D01*
X177618063Y-64540277D01*
X177478273Y-64327473D01*
X177267240Y-64185023D01*
X177017600Y-64134960D01*
X174782400Y-64134960D01*
X174540277Y-64181937D01*
X174327473Y-64321727D01*
X174185023Y-64532760D01*
X174134960Y-64782400D01*
X174134960Y-67017600D01*
X174181937Y-67259723D01*
X174275765Y-67402560D01*
X173275000Y-67402560D01*
X173032877Y-67449537D01*
X172912355Y-67528707D01*
X172799640Y-67452623D01*
X172768767Y-67446431D01*
X172872527Y-67378273D01*
X173014977Y-67167240D01*
X173065040Y-66917600D01*
X173065040Y-64682400D01*
X173018063Y-64440277D01*
X172878273Y-64227473D01*
X172667240Y-64085023D01*
X172417600Y-64034960D01*
X170182400Y-64034960D01*
X169940277Y-64081937D01*
X169727473Y-64221727D01*
X169585023Y-64432760D01*
X169550248Y-64606163D01*
X169518063Y-64440277D01*
X169378273Y-64227473D01*
X169167240Y-64085023D01*
X168917600Y-64034960D01*
X166682400Y-64034960D01*
X166440277Y-64081937D01*
X166227473Y-64221727D01*
X166085023Y-64432760D01*
X166034960Y-64682400D01*
X166034960Y-66917600D01*
X166081937Y-67159723D01*
X166221727Y-67372527D01*
X166432760Y-67514977D01*
X166682400Y-67565040D01*
X168917600Y-67565040D01*
X169159723Y-67518063D01*
X169372527Y-67378273D01*
X169514977Y-67167240D01*
X169549751Y-66993836D01*
X169581937Y-67159723D01*
X169721727Y-67372527D01*
X169932760Y-67514977D01*
X170182400Y-67565040D01*
X170465000Y-67565040D01*
X170465000Y-68200000D01*
X170528561Y-68519541D01*
X170602560Y-68630288D01*
X170602560Y-69537165D01*
X170394458Y-69578560D01*
X170123565Y-69759565D01*
X170102494Y-69780636D01*
X169395546Y-69073688D01*
X169330156Y-68744949D01*
X169095049Y-68393086D01*
X168743186Y-68157979D01*
X168328135Y-68075420D01*
X167671865Y-68075420D01*
X167256814Y-68157979D01*
X167006849Y-68325000D01*
X164596021Y-68325000D01*
X164510673Y-68195073D01*
X164299640Y-68052623D01*
X164050000Y-68002560D01*
X163755908Y-68002560D01*
X163890434Y-67868034D01*
X164071439Y-67597141D01*
X164071439Y-67597140D01*
X164085780Y-67525040D01*
X164417600Y-67525040D01*
X164659723Y-67478063D01*
X164872527Y-67338273D01*
X165014977Y-67127240D01*
X165065040Y-66877600D01*
X165065040Y-64642400D01*
X165018063Y-64400277D01*
X164878273Y-64187473D01*
X164667240Y-64045023D01*
X164417600Y-63994960D01*
X162182400Y-63994960D01*
X161940277Y-64041937D01*
X161727473Y-64181727D01*
X161585023Y-64392760D01*
X161550248Y-64566163D01*
X161518063Y-64400277D01*
X161378273Y-64187473D01*
X161167240Y-64045023D01*
X160917600Y-63994960D01*
X158682400Y-63994960D01*
X158440277Y-64041937D01*
X158227473Y-64181727D01*
X158085023Y-64392760D01*
X158034960Y-64642400D01*
X158034960Y-65069745D01*
X157885568Y-65169566D01*
X156738731Y-66316402D01*
X156630327Y-66207808D01*
X156286799Y-66065162D01*
X155914833Y-66064838D01*
X155669345Y-66166271D01*
X155356195Y-66228561D01*
X155085302Y-66409566D01*
X155062267Y-66432601D01*
X155002600Y-66432601D01*
X155002600Y-66035750D01*
X155002600Y-65464250D01*
X155002600Y-64758709D01*
X155002600Y-64506090D01*
X154905927Y-64272701D01*
X154727298Y-64094073D01*
X154493909Y-63997400D01*
X153535750Y-63997400D01*
X153377000Y-64156150D01*
X153377000Y-65623000D01*
X154843850Y-65623000D01*
X155002600Y-65464250D01*
X155002600Y-66035750D01*
X154843850Y-65877000D01*
X153377000Y-65877000D01*
X153377000Y-65897000D01*
X153123000Y-65897000D01*
X153123000Y-65877000D01*
X153103000Y-65877000D01*
X153103000Y-65623000D01*
X153123000Y-65623000D01*
X153123000Y-64156150D01*
X152964250Y-63997400D01*
X152006091Y-63997400D01*
X151772702Y-64094073D01*
X151594073Y-64272701D01*
X151497400Y-64506090D01*
X151497400Y-64541482D01*
X151468063Y-64390277D01*
X151328273Y-64177473D01*
X151117240Y-64035023D01*
X150867600Y-63984960D01*
X148632400Y-63984960D01*
X148390277Y-64031937D01*
X148177473Y-64171727D01*
X148035023Y-64382760D01*
X148000248Y-64556163D01*
X147968063Y-64390277D01*
X147828273Y-64177473D01*
X147617240Y-64035023D01*
X147367600Y-63984960D01*
X145132400Y-63984960D01*
X144890277Y-64031937D01*
X144677473Y-64171727D01*
X144535023Y-64382760D01*
X144500248Y-64556163D01*
X144468063Y-64390277D01*
X144328273Y-64177473D01*
X144117240Y-64035023D01*
X143867600Y-63984960D01*
X143535780Y-63984960D01*
X143521439Y-63912860D01*
X143521439Y-63912859D01*
X143340434Y-63641966D01*
X143325468Y-63627000D01*
X184315000Y-63627000D01*
X184315000Y-64315000D01*
X182000000Y-64315000D01*
X181737862Y-64367143D01*
X181515632Y-64515632D01*
X181367143Y-64737862D01*
X181315000Y-65000000D01*
X181315000Y-68000000D01*
X181367143Y-68262138D01*
X181515632Y-68484368D01*
X181737862Y-68632857D01*
X182000000Y-68685000D01*
X184315000Y-68685000D01*
X184315000Y-81184762D01*
M02*
