G04 #@! TF.FileFunction,Soldermask,Top*
%FSLAX46Y46*%
G04 Gerber Fmt 4.6, Leading zero omitted, Abs format (unit mm)*
G04 Created by KiCad (PCBNEW (2015-04-22 BZR 5620)-product) date 07/05/2015 20:43:11*
%MOMM*%
G01*
G04 APERTURE LIST*
%ADD10C,0.100000*%
%ADD11R,2.235200X2.235200*%
%ADD12R,1.300000X1.300000*%
%ADD13C,1.300000*%
%ADD14R,1.500000X1.250000*%
%ADD15R,1.250000X1.500000*%
%ADD16R,1.800860X0.800100*%
%ADD17R,1.500000X1.300000*%
%ADD18R,1.300000X1.500000*%
%ADD19O,3.000000X3.000000*%
%ADD20C,3.000000*%
%ADD21R,0.600000X1.550000*%
%ADD22R,1.500000X0.600000*%
%ADD23O,1.501140X0.899160*%
%ADD24O,2.499360X1.501140*%
G04 APERTURE END LIST*
D10*
D11*
X103500000Y-70750000D03*
X94250000Y-70750000D03*
D12*
X119000000Y-69000000D03*
D13*
X114000000Y-69000000D03*
D12*
X119000000Y-79500000D03*
D13*
X114000000Y-79500000D03*
D14*
X176000000Y-78800000D03*
X178500000Y-78800000D03*
X171300000Y-78800000D03*
X173800000Y-78800000D03*
X167100000Y-74100000D03*
X169600000Y-74100000D03*
D15*
X173900000Y-71300000D03*
X173900000Y-68800000D03*
D14*
X169600000Y-76200000D03*
X167100000Y-76200000D03*
X174000000Y-74100000D03*
X176500000Y-74100000D03*
D15*
X171900000Y-73600000D03*
X171900000Y-76100000D03*
D14*
X174000000Y-76100000D03*
X176500000Y-76100000D03*
D16*
X115497720Y-71800000D03*
X115497720Y-73700000D03*
X118500000Y-72750000D03*
X115497720Y-75050000D03*
X115497720Y-76950000D03*
X118500000Y-76000000D03*
D11*
X96000000Y-74250000D03*
X107000000Y-78250000D03*
X105250000Y-81750000D03*
X97750000Y-70750000D03*
X103500000Y-78250000D03*
X105250000Y-74250000D03*
X107000000Y-70750000D03*
X96000000Y-81750000D03*
X94250000Y-78250000D03*
X97750000Y-78250000D03*
X179300000Y-82800000D03*
X182800000Y-82800000D03*
X175800000Y-82800000D03*
X177300000Y-69800000D03*
X171030000Y-82740000D03*
X159800000Y-65760000D03*
X122000000Y-82750000D03*
X122000000Y-65750000D03*
X142750000Y-82750000D03*
X142750000Y-65750000D03*
X163300000Y-65760000D03*
X167540000Y-82740000D03*
X129000000Y-65750000D03*
X132500000Y-65750000D03*
X125500000Y-65750000D03*
X129000000Y-82750000D03*
X132500000Y-82750000D03*
X125500000Y-82750000D03*
X167800000Y-65800000D03*
X179400000Y-65900000D03*
X161800000Y-82700000D03*
X175900000Y-65900000D03*
X171300000Y-65800000D03*
X146250000Y-65750000D03*
X153250000Y-82750000D03*
X146250000Y-82750000D03*
X149750000Y-65750000D03*
X153250000Y-65750000D03*
X149750000Y-82750000D03*
D17*
X116500000Y-65500000D03*
X119200000Y-65500000D03*
X116550000Y-83000000D03*
X119250000Y-83000000D03*
D18*
X121250000Y-79500000D03*
X121250000Y-76800000D03*
X121250000Y-69050000D03*
X121250000Y-71750000D03*
X162300000Y-71500000D03*
X162300000Y-74200000D03*
D17*
X163300000Y-69300000D03*
X160600000Y-69300000D03*
D18*
X164400000Y-74200000D03*
X164400000Y-71500000D03*
D17*
X162250000Y-76700000D03*
X164950000Y-76700000D03*
D18*
X171900000Y-68800000D03*
X171900000Y-71500000D03*
D17*
X141300000Y-72800000D03*
X138600000Y-72800000D03*
X141300000Y-75700000D03*
X138600000Y-75700000D03*
X158800000Y-81500000D03*
X156100000Y-81500000D03*
X158800000Y-83500000D03*
X156100000Y-83500000D03*
X154100000Y-77700000D03*
X151400000Y-77700000D03*
X154100000Y-70900000D03*
X151400000Y-70900000D03*
D18*
X136000000Y-72850000D03*
X136000000Y-75550000D03*
X154100000Y-72950000D03*
X154100000Y-75650000D03*
D19*
X100985333Y-64308885D03*
X96009339Y-61435994D03*
X93136448Y-56460000D03*
X93136448Y-50714218D03*
X96009339Y-45738224D03*
X100985333Y-42865333D03*
X106731115Y-42865333D03*
X111707109Y-45738224D03*
X114580000Y-50714218D03*
X114580000Y-56460000D03*
X111707109Y-61435994D03*
X106731115Y-64308885D03*
D20*
X103858224Y-49737109D03*
X100524026Y-55512109D03*
X107192422Y-55512109D03*
D21*
X160205000Y-71500000D03*
X158935000Y-71500000D03*
X157665000Y-71500000D03*
X156395000Y-71500000D03*
X156395000Y-76900000D03*
X157665000Y-76900000D03*
X158935000Y-76900000D03*
X160205000Y-76900000D03*
D22*
X149000000Y-78120000D03*
X149000000Y-76850000D03*
X149000000Y-75580000D03*
X149000000Y-74310000D03*
X149000000Y-73040000D03*
X149000000Y-71770000D03*
X149000000Y-70500000D03*
X143600000Y-70500000D03*
X143600000Y-71770000D03*
X143600000Y-73040000D03*
X143600000Y-74310000D03*
X143600000Y-75580000D03*
X143600000Y-76850000D03*
X143600000Y-78120000D03*
X124600000Y-70250000D03*
X124600000Y-71520000D03*
X124600000Y-72790000D03*
X124600000Y-74060000D03*
X124600000Y-75330000D03*
X124600000Y-76600000D03*
X124600000Y-77870000D03*
X130000000Y-77870000D03*
X130000000Y-76600000D03*
X130000000Y-75330000D03*
X130000000Y-74060000D03*
X130000000Y-72790000D03*
X130000000Y-71520000D03*
X130000000Y-70250000D03*
D23*
X168000000Y-70430000D03*
X168000000Y-71700000D03*
X168000000Y-69160000D03*
D21*
X135690000Y-83400000D03*
X136960000Y-83400000D03*
X138230000Y-83400000D03*
X139500000Y-83400000D03*
X139500000Y-78000000D03*
X138230000Y-78000000D03*
X136960000Y-78000000D03*
X135690000Y-78000000D03*
X139655000Y-65050000D03*
X138385000Y-65050000D03*
X137115000Y-65050000D03*
X135845000Y-65050000D03*
X135845000Y-70450000D03*
X137115000Y-70450000D03*
X138385000Y-70450000D03*
X139655000Y-70450000D03*
D24*
X181400000Y-75540000D03*
X181400000Y-73000000D03*
X181400000Y-78080000D03*
D17*
X101800000Y-73500000D03*
X99100000Y-73500000D03*
X111500000Y-83100000D03*
X108800000Y-83100000D03*
X99100000Y-75500000D03*
X101800000Y-75500000D03*
X108800000Y-81100000D03*
X111500000Y-81100000D03*
D18*
X110100000Y-75400000D03*
X110100000Y-72700000D03*
X110100000Y-67900000D03*
X110100000Y-70600000D03*
M02*
