M48
;DRILL file {kicad (2015-04-22 BZR 5620)-product} date 07/05/2015 20:43:36
;FORMAT={-:-/ absolute / metric / decimal}
FMAT,2
METRIC,TZ
T1C0.400
T2C0.600
T3C0.800
T4C1.001
T5C1.016
T6C1.500
%
G90
G05
M71
T1
X93.4Y-83.4
X97.8Y-75.5
X99.92Y-69.22
X100.3Y-73.476
X100.74Y-67.76
X101.55Y-67.98
X101.647Y-70.034
X104.67Y-66.91
X106.574Y-67.06
X110.1Y-69.3
X110.1Y-74.
X117.25Y-73.75
X118.465Y-74.7
X121.3Y-78.2
X122.75Y-74.
X123.Y-69.
X123.Y-78.2
X125.5Y-65.75
X128.9Y-69.5
X131.417Y-69.927
X131.44Y-77.26
X131.764Y-74.034
X133.644Y-73.144
X134.058Y-70.3
X134.3Y-78.
X135.645Y-67.445
X136.305Y-66.805
X136.99Y-68.995
X137.1Y-63.9
X137.34Y-76.55
X137.707Y-82.4
X137.71Y-69.344
X138.1Y-67.2
X138.6Y-68.9
X138.935Y-81.425
X139.Y-77.
X139.45Y-69.09
X139.6Y-68.
X139.958Y-82.468
X139.993Y-75.946
X140.019Y-72.7
X140.45Y-80.35
X140.8Y-67.2
X141.18Y-69.9
X141.4Y-78.85
X142.128Y-74.099
X142.28Y-77.53
X142.451Y-74.955
X142.462Y-71.155
X142.55Y-72.93
X142.55Y-76.07
X143.1Y-68.8
X143.1Y-80.35
X145.94Y-68.8
X145.95Y-79.83
X146.01Y-67.968
X146.474Y-74.549
X146.8Y-72.256
X147.87Y-69.03
X148.183Y-84.088
X148.75Y-68.96
X150.3Y-73.8
X150.6Y-75.6
X151.388Y-74.404
X152.787Y-69.193
X152.85Y-77.8
X155.1Y-76.8
X155.3Y-71.9
X155.759Y-78.045
X156.1Y-67.
X157.082Y-69.7
X157.35Y-83.5
X157.6Y-79.75
X158.4Y-74.35
X159.Y-78.1
X159.234Y-70.47
X160.2Y-72.8
X160.2Y-78.1
X162.027Y-69.59
X162.3Y-75.5
X165.Y-75.5
X166.12Y-68.17
X168.3Y-76.2
X170.6Y-71.5
X170.8Y-77.5
X171.9Y-74.85
X177.5Y-80.4
X181.7Y-79.7
T2
X168.Y-69.16
X168.Y-70.43
X168.Y-71.7
T3
X114.Y-69.
X114.Y-79.5
X119.Y-69.
X119.Y-79.5
T4
X181.4Y-73.
X181.4Y-75.54
X181.4Y-78.08
T5
X94.25Y-70.75
X94.25Y-78.25
X96.Y-74.25
X96.Y-81.75
X97.75Y-70.75
X97.75Y-78.25
X103.5Y-70.75
X103.5Y-78.25
X105.25Y-74.25
X105.25Y-81.75
X107.Y-70.75
X107.Y-78.25
X122.Y-65.75
X122.Y-82.75
X125.5Y-65.75
X125.5Y-82.75
X129.Y-65.75
X129.Y-82.75
X132.5Y-65.75
X132.5Y-82.75
X142.75Y-65.75
X142.75Y-82.75
X146.25Y-65.75
X146.25Y-82.75
X149.75Y-65.75
X149.75Y-82.75
X153.25Y-65.75
X153.25Y-82.75
X159.8Y-65.76
X161.8Y-82.7
X163.3Y-65.76
X167.54Y-82.74
X167.8Y-65.8
X171.03Y-82.74
X171.3Y-65.8
X175.8Y-82.8
X175.9Y-65.9
X177.3Y-69.8
X179.3Y-82.8
X179.4Y-65.9
X182.8Y-82.8
T6
X93.136Y-50.714
X93.136Y-56.46
X96.009Y-45.738
X96.009Y-61.436
X100.524Y-55.512
X100.985Y-42.865
X100.985Y-64.309
X103.858Y-49.737
X106.731Y-42.865
X106.731Y-64.309
X107.192Y-55.512
X111.707Y-45.738
X111.707Y-61.436
X114.58Y-50.714
X114.58Y-56.46
T0
M30
