G04 #@! TF.FileFunction,Soldermask,Bot*
%FSLAX46Y46*%
G04 Gerber Fmt 4.6, Leading zero omitted, Abs format (unit mm)*
G04 Created by KiCad (PCBNEW (2015-04-22 BZR 5620)-product) date 07/05/2015 20:43:11*
%MOMM*%
G01*
G04 APERTURE LIST*
%ADD10C,0.100000*%
%ADD11R,2.235200X2.235200*%
%ADD12R,1.300000X1.300000*%
%ADD13C,1.300000*%
%ADD14R,1.250000X1.500000*%
%ADD15R,1.500000X1.300000*%
%ADD16R,1.300000X1.500000*%
%ADD17O,3.000000X3.000000*%
%ADD18C,3.000000*%
%ADD19O,1.501140X0.899160*%
%ADD20O,2.499360X1.501140*%
G04 APERTURE END LIST*
D10*
D11*
X103500000Y-70750000D03*
X94250000Y-70750000D03*
D12*
X119000000Y-69000000D03*
D13*
X114000000Y-69000000D03*
D12*
X119000000Y-79500000D03*
D13*
X114000000Y-79500000D03*
D14*
X156500000Y-75600000D03*
X156500000Y-73100000D03*
X158500000Y-75600000D03*
X158500000Y-73100000D03*
X126500000Y-75500000D03*
X126500000Y-78000000D03*
X126500000Y-73250000D03*
X126500000Y-70750000D03*
X145500000Y-73500000D03*
X145500000Y-71000000D03*
X145500000Y-75600000D03*
X145500000Y-78100000D03*
X128500000Y-78000000D03*
X128500000Y-75500000D03*
X128500000Y-70750000D03*
X128500000Y-73250000D03*
X147500000Y-71000000D03*
X147500000Y-73500000D03*
X147500000Y-78100000D03*
X147500000Y-75600000D03*
D11*
X96000000Y-74250000D03*
X107000000Y-78250000D03*
X105250000Y-81750000D03*
X97750000Y-70750000D03*
X103500000Y-78250000D03*
X105250000Y-74250000D03*
X107000000Y-70750000D03*
X96000000Y-81750000D03*
X94250000Y-78250000D03*
X97750000Y-78250000D03*
X179300000Y-82800000D03*
X182800000Y-82800000D03*
X175800000Y-82800000D03*
X177300000Y-69800000D03*
X171030000Y-82740000D03*
X159800000Y-65760000D03*
X122000000Y-82750000D03*
X122000000Y-65750000D03*
X142750000Y-82750000D03*
X142750000Y-65750000D03*
X163300000Y-65760000D03*
X167540000Y-82740000D03*
X129000000Y-65750000D03*
X132500000Y-65750000D03*
X125500000Y-65750000D03*
X129000000Y-82750000D03*
X132500000Y-82750000D03*
X125500000Y-82750000D03*
X167800000Y-65800000D03*
X179400000Y-65900000D03*
X161800000Y-82700000D03*
X175900000Y-65900000D03*
X171300000Y-65800000D03*
X146250000Y-65750000D03*
X153250000Y-82750000D03*
X146250000Y-82750000D03*
X149750000Y-65750000D03*
X153250000Y-65750000D03*
X149750000Y-82750000D03*
D15*
X134500000Y-68500000D03*
X131800000Y-68500000D03*
X141800000Y-68750000D03*
X144500000Y-68750000D03*
X141700000Y-80000000D03*
X144400000Y-80000000D03*
D16*
X152100000Y-75650000D03*
X152100000Y-72950000D03*
X138700000Y-75600000D03*
X138700000Y-72900000D03*
D17*
X100985333Y-64308885D03*
X96009339Y-61435994D03*
X93136448Y-56460000D03*
X93136448Y-50714218D03*
X96009339Y-45738224D03*
X100985333Y-42865333D03*
X106731115Y-42865333D03*
X111707109Y-45738224D03*
X114580000Y-50714218D03*
X114580000Y-56460000D03*
X111707109Y-61435994D03*
X106731115Y-64308885D03*
D18*
X103858224Y-49737109D03*
X100524026Y-55512109D03*
X107192422Y-55512109D03*
D19*
X168000000Y-70430000D03*
X168000000Y-71700000D03*
X168000000Y-69160000D03*
D15*
X134700000Y-79750000D03*
X132000000Y-79750000D03*
D20*
X181400000Y-75540000D03*
X181400000Y-73000000D03*
X181400000Y-78080000D03*
D15*
X98800000Y-82000000D03*
X101500000Y-82000000D03*
D16*
X91500000Y-83200000D03*
X91500000Y-80500000D03*
M02*
