G04 #@! TF.FileFunction,Copper,L2,Bot,Signal*
%FSLAX46Y46*%
G04 Gerber Fmt 4.6, Leading zero omitted, Abs format (unit mm)*
G04 Created by KiCad (PCBNEW (2015-04-22 BZR 5620)-product) date 07/05/2015 20:43:11*
%MOMM*%
G01*
G04 APERTURE LIST*
%ADD10C,0.100000*%
%ADD11R,2.235200X2.235200*%
%ADD12R,1.300000X1.300000*%
%ADD13C,1.300000*%
%ADD14R,1.250000X1.500000*%
%ADD15R,1.500000X1.300000*%
%ADD16R,1.300000X1.500000*%
%ADD17O,3.000000X3.000000*%
%ADD18C,3.000000*%
%ADD19O,1.501140X0.899160*%
%ADD20O,2.499360X1.501140*%
%ADD21C,0.600000*%
%ADD22C,0.400000*%
%ADD23C,0.254000*%
G04 APERTURE END LIST*
D10*
D11*
X103500000Y-70750000D03*
X94250000Y-70750000D03*
D12*
X119000000Y-69000000D03*
D13*
X114000000Y-69000000D03*
D12*
X119000000Y-79500000D03*
D13*
X114000000Y-79500000D03*
D14*
X156500000Y-75600000D03*
X156500000Y-73100000D03*
X158500000Y-75600000D03*
X158500000Y-73100000D03*
X126500000Y-75500000D03*
X126500000Y-78000000D03*
X126500000Y-73250000D03*
X126500000Y-70750000D03*
X145500000Y-73500000D03*
X145500000Y-71000000D03*
X145500000Y-75600000D03*
X145500000Y-78100000D03*
X128500000Y-78000000D03*
X128500000Y-75500000D03*
X128500000Y-70750000D03*
X128500000Y-73250000D03*
X147500000Y-71000000D03*
X147500000Y-73500000D03*
X147500000Y-78100000D03*
X147500000Y-75600000D03*
D11*
X96000000Y-74250000D03*
X107000000Y-78250000D03*
X105250000Y-81750000D03*
X97750000Y-70750000D03*
X103500000Y-78250000D03*
X105250000Y-74250000D03*
X107000000Y-70750000D03*
X96000000Y-81750000D03*
X94250000Y-78250000D03*
X97750000Y-78250000D03*
X179300000Y-82800000D03*
X182800000Y-82800000D03*
X175800000Y-82800000D03*
X177300000Y-69800000D03*
X171030000Y-82740000D03*
X159800000Y-65760000D03*
X122000000Y-82750000D03*
X122000000Y-65750000D03*
X142750000Y-82750000D03*
X142750000Y-65750000D03*
X163300000Y-65760000D03*
X167540000Y-82740000D03*
X129000000Y-65750000D03*
X132500000Y-65750000D03*
X125500000Y-65750000D03*
X129000000Y-82750000D03*
X132500000Y-82750000D03*
X125500000Y-82750000D03*
X167800000Y-65800000D03*
X179400000Y-65900000D03*
X161800000Y-82700000D03*
X175900000Y-65900000D03*
X171300000Y-65800000D03*
X146250000Y-65750000D03*
X153250000Y-82750000D03*
X146250000Y-82750000D03*
X149750000Y-65750000D03*
X153250000Y-65750000D03*
X149750000Y-82750000D03*
D15*
X134500000Y-68500000D03*
X131800000Y-68500000D03*
X141800000Y-68750000D03*
X144500000Y-68750000D03*
X141700000Y-80000000D03*
X144400000Y-80000000D03*
D16*
X152100000Y-75650000D03*
X152100000Y-72950000D03*
X138700000Y-75600000D03*
X138700000Y-72900000D03*
D17*
X100985333Y-64308885D03*
X96009339Y-61435994D03*
X93136448Y-56460000D03*
X93136448Y-50714218D03*
X96009339Y-45738224D03*
X100985333Y-42865333D03*
X106731115Y-42865333D03*
X111707109Y-45738224D03*
X114580000Y-50714218D03*
X114580000Y-56460000D03*
X111707109Y-61435994D03*
X106731115Y-64308885D03*
D18*
X103858224Y-49737109D03*
X100524026Y-55512109D03*
X107192422Y-55512109D03*
D19*
X168000000Y-70430000D03*
X168000000Y-71700000D03*
X168000000Y-69160000D03*
D15*
X134700000Y-79750000D03*
X132000000Y-79750000D03*
D20*
X181400000Y-75540000D03*
X181400000Y-73000000D03*
X181400000Y-78080000D03*
D15*
X98800000Y-82000000D03*
X101500000Y-82000000D03*
D16*
X91500000Y-83200000D03*
X91500000Y-80500000D03*
D21*
X160200000Y-78099990D03*
X181700000Y-79700000D03*
X177500000Y-80400000D03*
X117250000Y-73750000D03*
X122750000Y-74000000D03*
X171900000Y-74849998D03*
X138100000Y-67200000D03*
X136305018Y-66805018D03*
X133644230Y-73144230D03*
X139957816Y-82468163D03*
X143100000Y-68800000D03*
X140800000Y-67199992D03*
X140449998Y-80349999D03*
X139000000Y-77000000D03*
X142127692Y-74098702D03*
X139992707Y-75945805D03*
X146473951Y-74548616D03*
X146010000Y-67967623D03*
X148750002Y-68960000D03*
X152787338Y-69193384D03*
X162027050Y-69590175D03*
X170800000Y-77500000D03*
X168300000Y-76200000D03*
X123000000Y-69000000D03*
X155100000Y-76800000D03*
X165000000Y-75500000D03*
X137100000Y-63900000D03*
X128900000Y-69500000D03*
X157081713Y-69700020D03*
X121300000Y-78200000D03*
X137706520Y-82400007D03*
X135644981Y-67444981D03*
X142550032Y-76070000D03*
X148183400Y-84087602D03*
X142550002Y-72930000D03*
X142461942Y-71154703D03*
X145950000Y-79830000D03*
X166120000Y-68170000D03*
X101647349Y-70033604D03*
X101550000Y-67980000D03*
X100299990Y-73476457D03*
X97800000Y-75499984D03*
X104670000Y-66910000D03*
X106573995Y-67059979D03*
X152849998Y-77800000D03*
X155758946Y-78045229D03*
X157600000Y-79749989D03*
X141400000Y-78849998D03*
X134300000Y-78000000D03*
X123000000Y-78200000D03*
X138935346Y-81425323D03*
X125500000Y-65750000D03*
X136990239Y-68995278D03*
X156100000Y-67000000D03*
X139599998Y-68000000D03*
X159234174Y-70470021D03*
X143100000Y-80349999D03*
X142280223Y-77530021D03*
X159000000Y-78099990D03*
X160200000Y-72800000D03*
X170600000Y-71500000D03*
X131417237Y-69927259D03*
X131440019Y-77259981D03*
X140019239Y-72699979D03*
X146800018Y-72255642D03*
X150600000Y-75600000D03*
X142450796Y-74954868D03*
X137340000Y-76550000D03*
X137710266Y-69343962D03*
X151387983Y-74403859D03*
X150300000Y-73800000D03*
X155300000Y-71900000D03*
X118464666Y-74700020D03*
X131764490Y-74034008D03*
X162300000Y-75500000D03*
X157350002Y-83500000D03*
X158400000Y-74349998D03*
X138600000Y-68900000D03*
X134057717Y-70299990D03*
X147869988Y-69029988D03*
X139450000Y-69090000D03*
X145940000Y-68800000D03*
X141180000Y-69900002D03*
X100740000Y-67760000D03*
X99920000Y-69220000D03*
X110100000Y-69300000D03*
X110100000Y-74000000D03*
X93400000Y-83400000D03*
D22*
X181400000Y-69900000D02*
X179400000Y-67900000D01*
X179400000Y-67900000D02*
X179400000Y-65900000D01*
X158500000Y-75600000D02*
X158500000Y-77563988D01*
X158500000Y-77563988D02*
X158299999Y-77763989D01*
X158299999Y-77763989D02*
X158299999Y-78435991D01*
X158299999Y-78435991D02*
X158663999Y-78799991D01*
X158663999Y-78799991D02*
X159499999Y-78799991D01*
X159499999Y-78799991D02*
X160200000Y-78099990D01*
X156500000Y-75600000D02*
X158500000Y-75600000D01*
X181400000Y-69900000D02*
X181400000Y-73000000D01*
X178200000Y-79700000D02*
X177500000Y-80400000D01*
X181700000Y-79700000D02*
X178200000Y-79700000D01*
X145500000Y-75600000D02*
X145500000Y-73500000D01*
X119750000Y-74000000D02*
X117500000Y-74000000D01*
X117500000Y-74000000D02*
X117250000Y-73750000D01*
X122750000Y-74000000D02*
X119750000Y-74000000D01*
X126500000Y-75500000D02*
X126500000Y-73250000D01*
X126500000Y-73250000D02*
X123500000Y-73250000D01*
X123500000Y-73250000D02*
X122750000Y-74000000D01*
X175130002Y-78080000D02*
X171900000Y-74849998D01*
X181400000Y-78080000D02*
X175130002Y-78080000D01*
X136700000Y-67200000D02*
X136305018Y-66805018D01*
X138100000Y-67200000D02*
X136700000Y-67200000D01*
X127650001Y-72099999D02*
X126500000Y-73250000D01*
X132599999Y-72099999D02*
X127650001Y-72099999D01*
X133644230Y-73144230D02*
X132599999Y-72099999D01*
X142770002Y-67600000D02*
X142000000Y-67600000D01*
X143100000Y-67929998D02*
X142770002Y-67600000D01*
X143100000Y-68800000D02*
X143100000Y-67929998D01*
X142000000Y-67600000D02*
X141200008Y-67600000D01*
X141200008Y-67600000D02*
X141099999Y-67499991D01*
X141099999Y-67499991D02*
X140800000Y-67199992D01*
X139957816Y-80842181D02*
X140449998Y-80349999D01*
X139957816Y-82468163D02*
X139957816Y-80842181D01*
X140049998Y-76374266D02*
X140049998Y-76000000D01*
X139424264Y-77000000D02*
X140049998Y-76374266D01*
X139000000Y-77000000D02*
X139424264Y-77000000D01*
X140046902Y-76000000D02*
X139992707Y-75945805D01*
X140049998Y-76000000D02*
X140046902Y-76000000D01*
X145500000Y-73500000D02*
X145500000Y-73574665D01*
X145500000Y-73574665D02*
X146173952Y-74248617D01*
X146173952Y-74248617D02*
X146473951Y-74548616D01*
X146010000Y-67967623D02*
X147813625Y-67967623D01*
X148750002Y-68904000D02*
X148750002Y-68960000D01*
X147813625Y-67967623D02*
X148750002Y-68904000D01*
X145500000Y-73500000D02*
X143150658Y-73500000D01*
X143150658Y-73500000D02*
X142551956Y-74098702D01*
X142551956Y-74098702D02*
X142127692Y-74098702D01*
X154763976Y-71170022D02*
X160447203Y-71170022D01*
X152787338Y-69193384D02*
X154763976Y-71170022D01*
X160447203Y-71170022D02*
X161727051Y-69890174D01*
X161727051Y-69890174D02*
X162027050Y-69590175D01*
X147500000Y-78100000D02*
X145500000Y-78100000D01*
X147500000Y-71000000D02*
X145500000Y-71000000D01*
X126500000Y-70750000D02*
X128500000Y-70750000D01*
X128500000Y-78000000D02*
X126500000Y-78000000D01*
X169600000Y-77500000D02*
X168300000Y-76200000D01*
X170800000Y-77500000D02*
X169600000Y-77500000D01*
X123000000Y-69000000D02*
X123500000Y-68500000D01*
X124375000Y-68500000D02*
X124875000Y-69000000D01*
X123500000Y-68500000D02*
X124375000Y-68500000D01*
X124875000Y-69000000D02*
X126500000Y-69000000D01*
X126500000Y-69000000D02*
X126500000Y-70750000D01*
X153250000Y-81232400D02*
X153250000Y-82750000D01*
X153250000Y-79074264D02*
X153250000Y-81232400D01*
X155100000Y-77224264D02*
X153250000Y-79074264D01*
X155100000Y-76800000D02*
X155100000Y-77224264D01*
X156217601Y-84200001D02*
X154767600Y-82750000D01*
X157686003Y-84200001D02*
X156217601Y-84200001D01*
X158050003Y-83836001D02*
X157686003Y-84200001D01*
X158050003Y-82449997D02*
X158050003Y-83836001D01*
X154767600Y-82750000D02*
X153250000Y-82750000D01*
X165000000Y-75500000D02*
X158050003Y-82449997D01*
X128500000Y-69900000D02*
X128900000Y-69500000D01*
X128500000Y-70750000D02*
X128500000Y-69900000D01*
X153250000Y-67650010D02*
X153250000Y-65750000D01*
X154900000Y-69300010D02*
X153250000Y-67650010D01*
X153250000Y-65750000D02*
X153250000Y-67267600D01*
X155682420Y-69700020D02*
X156657449Y-69700020D01*
X156657449Y-69700020D02*
X157081713Y-69700020D01*
X147500000Y-79250000D02*
X147500000Y-78100000D01*
X148232399Y-79982399D02*
X147500000Y-79250000D01*
X148232399Y-84187601D02*
X148232399Y-79982399D01*
X148312399Y-84267601D02*
X148232399Y-84187601D01*
X151187601Y-84267601D02*
X148312399Y-84267601D01*
X153250000Y-82205202D02*
X151187601Y-84267601D01*
X153250000Y-79074264D02*
X153250000Y-82205202D01*
X122000001Y-77499999D02*
X121300000Y-78200000D01*
X124974999Y-77499999D02*
X122000001Y-77499999D01*
X125475000Y-78000000D02*
X126500000Y-78000000D01*
X124974999Y-77499999D02*
X125475000Y-78000000D01*
X122663999Y-77499999D02*
X124974999Y-77499999D01*
X133649999Y-78699999D02*
X134700000Y-79750000D01*
X130929999Y-78699999D02*
X133649999Y-78699999D01*
X129879987Y-79750011D02*
X130929999Y-78699999D01*
X123514009Y-79750011D02*
X129879987Y-79750011D01*
X137450007Y-82400007D02*
X137706520Y-82400007D01*
X134800000Y-79750000D02*
X137450007Y-82400007D01*
X134700000Y-79750000D02*
X134800000Y-79750000D01*
X142100001Y-79599999D02*
X141700000Y-80000000D01*
X141736001Y-78149997D02*
X142100001Y-78513997D01*
X137903995Y-78149997D02*
X141736001Y-78149997D01*
X136313978Y-76559980D02*
X137903995Y-78149997D01*
X131104018Y-76559980D02*
X136313978Y-76559980D01*
X130163999Y-77499999D02*
X131104018Y-76559980D01*
X122663999Y-77499999D02*
X130163999Y-77499999D01*
X122299999Y-77863999D02*
X122663999Y-77499999D01*
X122299999Y-78536001D02*
X122299999Y-77863999D01*
X123514009Y-79750011D02*
X122299999Y-78536001D01*
X129693533Y-79750011D02*
X123514009Y-79750011D01*
X130843534Y-78600010D02*
X129693533Y-79750011D01*
X133906523Y-78600010D02*
X130843534Y-78600010D01*
X142100001Y-78513997D02*
X142100001Y-79599999D01*
X137706520Y-82400007D02*
X133906523Y-78600010D01*
X134589962Y-68500000D02*
X135644981Y-67444981D01*
X134500000Y-68500000D02*
X134589962Y-68500000D01*
X147767601Y-64312399D02*
X147055203Y-63600001D01*
X142989990Y-69839990D02*
X149056012Y-69839990D01*
X149590001Y-68633999D02*
X147767601Y-66811599D01*
X147767601Y-66811599D02*
X147767601Y-64312399D01*
X137399999Y-63600001D02*
X137100000Y-63900000D01*
X149056012Y-69839990D02*
X149590001Y-69306001D01*
X149590001Y-69306001D02*
X149590001Y-68633999D01*
X141900000Y-68750000D02*
X142989990Y-69839990D01*
X147055203Y-63600001D02*
X137399999Y-63600001D01*
X147847601Y-64232399D02*
X147767601Y-64312399D01*
X151187601Y-64232399D02*
X147847601Y-64232399D01*
X153564724Y-66609522D02*
X151187601Y-64232399D01*
X153564724Y-67582324D02*
X153564724Y-66609522D01*
X153250000Y-67267600D02*
X153564724Y-67582324D01*
X153564724Y-67582324D02*
X155682420Y-69700020D01*
X142550032Y-76175032D02*
X142550032Y-76070000D01*
X144475000Y-78100000D02*
X142550032Y-76175032D01*
X145500000Y-78100000D02*
X144475000Y-78100000D01*
X145500000Y-71000000D02*
X144050000Y-71000000D01*
X144050000Y-71000000D02*
X142950000Y-69900000D01*
X142950000Y-69900000D02*
X142950000Y-69800000D01*
X142950000Y-69800000D02*
X141900000Y-68750000D01*
X141900000Y-68750000D02*
X141800000Y-68750000D01*
X142616645Y-71000000D02*
X142461942Y-71154703D01*
X144050000Y-71000000D02*
X142616645Y-71000000D01*
X145910000Y-79820000D02*
X145940000Y-79820000D01*
X145940000Y-79820000D02*
X145950000Y-79830000D01*
X145950000Y-78550000D02*
X145950000Y-79830000D01*
X145500000Y-78100000D02*
X145950000Y-78550000D01*
X166120000Y-68850990D02*
X166120000Y-68170000D01*
X167699010Y-70430000D02*
X166120000Y-68850990D01*
X168000000Y-70430000D02*
X167699010Y-70430000D01*
X101647349Y-79352551D02*
X101647349Y-70033604D01*
X102062399Y-79767601D02*
X101647349Y-79352551D01*
X106999999Y-79767601D02*
X102062399Y-79767601D01*
X107000000Y-78250000D02*
X106999999Y-79767601D01*
X101550000Y-67980000D02*
X101550000Y-64873552D01*
X101550000Y-64873552D02*
X100985333Y-64308885D01*
X97750000Y-70750000D02*
X99267600Y-70750000D01*
X99267600Y-70750000D02*
X100299990Y-71782390D01*
X100299990Y-71782390D02*
X100299990Y-73476457D01*
X93136448Y-53647998D02*
X93136448Y-52835538D01*
X91236447Y-55547999D02*
X93136448Y-53647998D01*
X91236447Y-57372001D02*
X91236447Y-55547999D01*
X91800010Y-57935564D02*
X91236447Y-57372001D01*
X91800010Y-65344808D02*
X91800010Y-57935564D01*
X95767601Y-69312399D02*
X91800010Y-65344808D01*
X95767601Y-70285201D02*
X95767601Y-69312399D01*
X96232400Y-70750000D02*
X95767601Y-70285201D01*
X97750000Y-70750000D02*
X96232400Y-70750000D01*
X93136448Y-52835538D02*
X93136448Y-50714218D01*
X108517601Y-73937601D02*
X108517601Y-69029060D01*
X105219999Y-67759990D02*
X105219999Y-67423999D01*
X105219999Y-67423999D02*
X106313998Y-66330000D01*
X113080001Y-52214217D02*
X114580000Y-50714218D01*
X106687601Y-75767601D02*
X108517601Y-73937601D01*
X104464799Y-75767601D02*
X106687601Y-75767601D01*
X107522002Y-66330000D02*
X109807108Y-64044894D01*
X108517601Y-69029060D02*
X107248531Y-67759990D01*
X107248531Y-67759990D02*
X105219999Y-67759990D01*
X109807108Y-55487110D02*
X113080001Y-52214217D01*
X103500000Y-76732400D02*
X104464799Y-75767601D01*
X106313998Y-66330000D02*
X107522002Y-66330000D01*
X103500000Y-78250000D02*
X103500000Y-76732400D01*
X109807108Y-64044894D02*
X109807108Y-55487110D01*
X93136448Y-58581320D02*
X93136448Y-56460000D01*
X93136448Y-62223647D02*
X93136448Y-58581320D01*
X96232399Y-65319598D02*
X93136448Y-62223647D01*
X96232399Y-68928655D02*
X96232399Y-65319598D01*
X96367610Y-69063866D02*
X96232399Y-68928655D01*
X96367611Y-68130000D02*
X96367610Y-69063866D01*
X99520000Y-68130000D02*
X96367611Y-68130000D01*
X99780000Y-67870000D02*
X99520000Y-68130000D01*
X101060000Y-69150000D02*
X99780000Y-67870000D01*
X106999999Y-69150000D02*
X101060000Y-69150000D01*
X107000000Y-70750000D02*
X106999999Y-69150000D01*
X107000000Y-70750000D02*
X106999999Y-70205203D01*
X97800000Y-73094798D02*
X97800000Y-75075720D01*
X97437601Y-72732399D02*
X97800000Y-73094798D01*
X94250000Y-72267600D02*
X94714799Y-72732399D01*
X94250000Y-70750000D02*
X94250000Y-72267600D01*
X94714799Y-72732399D02*
X97437601Y-72732399D01*
X97800000Y-75075720D02*
X97800000Y-75499984D01*
X104670000Y-66910000D02*
X104670000Y-66370000D01*
X104670000Y-66370000D02*
X106731115Y-64308885D01*
X94250000Y-78250000D02*
X94250000Y-79767600D01*
X94250000Y-79767600D02*
X93517600Y-80500000D01*
X93517600Y-80500000D02*
X92550000Y-80500000D01*
X92550000Y-80500000D02*
X91500000Y-80500000D01*
X94250000Y-78250000D02*
X94250000Y-82955202D01*
X94250000Y-82955202D02*
X94562399Y-83267601D01*
X94562399Y-83267601D02*
X106687601Y-83267601D01*
X106687601Y-83267601D02*
X112949999Y-77005203D01*
X112949999Y-77005203D02*
X112949999Y-63005106D01*
X112949999Y-63005106D02*
X114580000Y-61375105D01*
X114580000Y-61375105D02*
X114580000Y-58581320D01*
X114580000Y-58581320D02*
X114580000Y-56460000D01*
X101500000Y-82000000D02*
X101400000Y-82000000D01*
X101400000Y-82000000D02*
X97750000Y-78350000D01*
X97750000Y-78350000D02*
X97750000Y-78250000D01*
X111707109Y-61435994D02*
X111707109Y-63557314D01*
X106998259Y-67059979D02*
X106573995Y-67059979D01*
X111707109Y-63557314D02*
X108204444Y-67059979D01*
X108204444Y-67059979D02*
X106998259Y-67059979D01*
X152100000Y-75650000D02*
X152100000Y-77050002D01*
X152100000Y-77050002D02*
X152849998Y-77800000D01*
X157600000Y-79749989D02*
X157463706Y-79749989D01*
X157463706Y-79749989D02*
X155758946Y-78045229D01*
X123000000Y-78200000D02*
X123950001Y-79150001D01*
X123950001Y-79150001D02*
X129445001Y-79150001D01*
X129445001Y-79150001D02*
X130595002Y-78000000D01*
X130595002Y-78000000D02*
X134300000Y-78000000D01*
X138935346Y-81001059D02*
X138935346Y-81425323D01*
X138935346Y-80740390D02*
X138935346Y-81001059D01*
X141400000Y-78849998D02*
X140825738Y-78849998D01*
X140825738Y-78849998D02*
X138935346Y-80740390D01*
X136690240Y-69295277D02*
X136990239Y-68995278D01*
X131500000Y-71000000D02*
X134985517Y-71000000D01*
X127767601Y-67267601D02*
X131500000Y-71000000D01*
X127562399Y-67267601D02*
X127767601Y-67267601D01*
X127482399Y-66982399D02*
X127482399Y-67187601D01*
X134985517Y-71000000D02*
X136690240Y-69295277D01*
X126250000Y-65750000D02*
X127482399Y-66982399D01*
X127482399Y-67187601D02*
X127562399Y-67267601D01*
X125500000Y-65750000D02*
X126250000Y-65750000D01*
X159234174Y-70134174D02*
X159234174Y-70470021D01*
X156100000Y-67000000D02*
X159234174Y-70134174D01*
X144400000Y-80000000D02*
X144400000Y-82617600D01*
X144400000Y-82617600D02*
X144267600Y-82750000D01*
X144267600Y-82750000D02*
X142750000Y-82750000D01*
X144500000Y-67200000D02*
X144500000Y-68750000D01*
X143050000Y-65750000D02*
X144500000Y-67200000D01*
X142750000Y-65750000D02*
X143050000Y-65750000D01*
X138700000Y-75600000D02*
X139054205Y-75245795D01*
X142580222Y-77830020D02*
X142280223Y-77530021D01*
X142280223Y-77105757D02*
X142280223Y-77530021D01*
X140420261Y-75245795D02*
X142280223Y-77105757D01*
X139054205Y-75245795D02*
X140420261Y-75245795D01*
X143100000Y-78349798D02*
X142580222Y-77830020D01*
X143100000Y-80349999D02*
X143100000Y-78349798D01*
X132500000Y-65750000D02*
X132500000Y-67800000D01*
X132500000Y-67800000D02*
X131800000Y-68500000D01*
X132500000Y-82750000D02*
X132500000Y-80250000D01*
X132500000Y-80250000D02*
X132000000Y-79750000D01*
X160200000Y-72800000D02*
X160200000Y-76899990D01*
X160200000Y-76899990D02*
X159000000Y-78099990D01*
X160200000Y-72800000D02*
X167200000Y-65800000D01*
X167200000Y-65800000D02*
X167800000Y-65800000D01*
X161800000Y-82700000D02*
X161800000Y-81182400D01*
X161800000Y-81182400D02*
X170600000Y-72382400D01*
X170600000Y-72382400D02*
X170600000Y-71500000D01*
X132492743Y-69927259D02*
X131417237Y-69927259D01*
X133349999Y-69070003D02*
X132492743Y-69927259D01*
X133349999Y-67529999D02*
X133349999Y-69070003D01*
X133612397Y-67267601D02*
X133349999Y-67529999D01*
X134832399Y-67267601D02*
X133612397Y-67267601D01*
X137867601Y-64232399D02*
X134832399Y-67267601D01*
X146249999Y-64232399D02*
X137867601Y-64232399D01*
X146250000Y-65750000D02*
X146249999Y-64232399D01*
X135059981Y-77259981D02*
X137900000Y-80100000D01*
X137900000Y-81446349D02*
X140721252Y-84267601D01*
X140721252Y-84267601D02*
X144732399Y-84267601D01*
X144732399Y-84267601D02*
X146250000Y-82750000D01*
X131440019Y-77259981D02*
X135059981Y-77259981D01*
X137900000Y-80100000D02*
X137900000Y-81446349D01*
X147224282Y-72255642D02*
X146800018Y-72255642D01*
X149750000Y-65750000D02*
X149750000Y-67267600D01*
X149344358Y-72255642D02*
X147224282Y-72255642D01*
X149750000Y-67267600D02*
X150190011Y-67707611D01*
X150190011Y-67707611D02*
X150190011Y-71409989D01*
X150190011Y-71409989D02*
X149344358Y-72255642D01*
X142714308Y-72004148D02*
X142965802Y-72255642D01*
X142965802Y-72255642D02*
X146375754Y-72255642D01*
X146375754Y-72255642D02*
X146800018Y-72255642D01*
X140019239Y-72699979D02*
X140715070Y-72004148D01*
X140715070Y-72004148D02*
X142714308Y-72004148D01*
X149000000Y-77200000D02*
X150600000Y-75600000D01*
X149000000Y-82000000D02*
X149000000Y-77200000D01*
X149750000Y-82750000D02*
X149000000Y-82000000D01*
X138700000Y-73000000D02*
X140300003Y-74600003D01*
X141175739Y-74600003D02*
X141530604Y-74954868D01*
X138700000Y-72900000D02*
X138700000Y-73000000D01*
X142026532Y-74954868D02*
X142450796Y-74954868D01*
X141530604Y-74954868D02*
X142026532Y-74954868D01*
X140300003Y-74600003D02*
X141175739Y-74600003D01*
X137340000Y-76550000D02*
X137340000Y-69714228D01*
X137340000Y-69714228D02*
X137410267Y-69643961D01*
X137410267Y-69643961D02*
X137710266Y-69343962D01*
X152100000Y-72950000D02*
X152100000Y-73691842D01*
X152100000Y-73691842D02*
X151387983Y-74403859D01*
X177300000Y-69800000D02*
X177300000Y-67300000D01*
X177300000Y-67300000D02*
X175900000Y-65900000D01*
X147500000Y-73500000D02*
X150000001Y-73500001D01*
X150000001Y-73500001D02*
X150300000Y-73800000D01*
X156500000Y-73100000D02*
X158500000Y-73100000D01*
X156500000Y-73100000D02*
X155300000Y-71900000D01*
X147500000Y-73500000D02*
X147500000Y-75600000D01*
X118764665Y-75000019D02*
X118464666Y-74700020D01*
X120464647Y-76700001D02*
X118764665Y-75000019D01*
X128500000Y-75625000D02*
X127424999Y-76700001D01*
X127424999Y-76700001D02*
X120464647Y-76700001D01*
X128500000Y-75500000D02*
X128500000Y-75625000D01*
X128500000Y-73250000D02*
X128500000Y-75500000D01*
X169150570Y-71700000D02*
X168000000Y-71700000D01*
X169363998Y-71700000D02*
X169150570Y-71700000D01*
X171263998Y-69800000D02*
X169363998Y-71700000D01*
X177300000Y-69800000D02*
X171263998Y-69800000D01*
X128500000Y-73250000D02*
X130980482Y-73250000D01*
X131464491Y-73734009D02*
X131764490Y-74034008D01*
X130980482Y-73250000D02*
X131464491Y-73734009D01*
X157350002Y-81985990D02*
X157350002Y-83500000D01*
X162300000Y-77035992D02*
X157350002Y-81985990D01*
X162300000Y-75500000D02*
X162300000Y-77035992D01*
X158400000Y-73200000D02*
X158500000Y-73100000D01*
X158400000Y-74349998D02*
X158400000Y-73200000D01*
X150300000Y-73375736D02*
X150300000Y-73800000D01*
X150300000Y-72629998D02*
X150300000Y-73375736D01*
X151129999Y-71799999D02*
X150300000Y-72629998D01*
X153070001Y-71799999D02*
X151129999Y-71799999D01*
X153150001Y-71879999D02*
X153070001Y-71799999D01*
X153150001Y-74049999D02*
X153150001Y-71879999D01*
X155300000Y-71900000D02*
X153150001Y-74049999D01*
X134836985Y-70299990D02*
X134057717Y-70299990D01*
X136290238Y-68846737D02*
X134836985Y-70299990D01*
X136290238Y-68659277D02*
X136290238Y-68846737D01*
X136654238Y-68295277D02*
X136290238Y-68659277D01*
X137995277Y-68295277D02*
X136654238Y-68295277D01*
X138600000Y-68900000D02*
X137995277Y-68295277D01*
X146169988Y-69029988D02*
X145940000Y-68800000D01*
X147869988Y-69029988D02*
X146169988Y-69029988D01*
X140260002Y-69900002D02*
X139450000Y-69090000D01*
X141180000Y-69900002D02*
X140260002Y-69900002D01*
X168000000Y-71700000D02*
X168000000Y-72280000D01*
X91200000Y-54735904D02*
X91200000Y-47735561D01*
X90636438Y-55299466D02*
X91200000Y-54735904D01*
X96000000Y-74250000D02*
X94482400Y-74250000D01*
X94482400Y-74250000D02*
X91200000Y-70967600D01*
X91200000Y-70967600D02*
X91200000Y-58184096D01*
X91200000Y-58184096D02*
X90636437Y-57620533D01*
X90636437Y-57620533D02*
X90636438Y-55299466D01*
X91200000Y-47735561D02*
X97970229Y-40965332D01*
X97970229Y-40965332D02*
X109055537Y-40965332D01*
X109055537Y-40965332D02*
X111707109Y-43616904D01*
X111707109Y-43616904D02*
X111707109Y-45738224D01*
X105250000Y-81750000D02*
X103196256Y-81750000D01*
X103196256Y-81750000D02*
X102650001Y-81203745D01*
X102650001Y-81203745D02*
X102650001Y-81029999D01*
X102650001Y-81029999D02*
X102570001Y-80949999D01*
X102570001Y-80949999D02*
X102396255Y-80949999D01*
X102396255Y-80949999D02*
X101000000Y-79553744D01*
X101000000Y-79553744D02*
X101000000Y-70300000D01*
X101000000Y-70300000D02*
X99920000Y-69220000D01*
X100740000Y-67760000D02*
X100740000Y-67335736D01*
X100740000Y-67335736D02*
X97909340Y-64505076D01*
X97909340Y-64505076D02*
X97909340Y-47638225D01*
X97909340Y-47638225D02*
X97509338Y-47238223D01*
X97509338Y-47238223D02*
X96009339Y-45738224D01*
X110100000Y-74000000D02*
X110100000Y-69300000D01*
X96000000Y-81750000D02*
X98550000Y-81750000D01*
X98550000Y-81750000D02*
X98800000Y-82000000D01*
X93400000Y-83400000D02*
X91700000Y-83400000D01*
X91700000Y-83400000D02*
X91500000Y-83200000D01*
D23*
G36*
X128647000Y-78127000D02*
X128627000Y-78127000D01*
X128627000Y-78147000D01*
X128373000Y-78147000D01*
X128373000Y-78127000D01*
X127601250Y-78127000D01*
X127398750Y-78127000D01*
X126627000Y-78127000D01*
X126627000Y-78147000D01*
X126373000Y-78147000D01*
X126373000Y-78127000D01*
X125398750Y-78127000D01*
X125240000Y-78285750D01*
X125240000Y-78315001D01*
X124295869Y-78315001D01*
X123892534Y-77911666D01*
X123793117Y-77671057D01*
X123657298Y-77535001D01*
X125240000Y-77535001D01*
X125240000Y-77714250D01*
X125398750Y-77873000D01*
X126373000Y-77873000D01*
X126373000Y-77853000D01*
X126627000Y-77853000D01*
X126627000Y-77873000D01*
X127398750Y-77873000D01*
X127601250Y-77873000D01*
X128373000Y-77873000D01*
X128373000Y-77853000D01*
X128627000Y-77853000D01*
X128627000Y-77873000D01*
X128647000Y-77873000D01*
X128647000Y-78127000D01*
X128647000Y-78127000D01*
G37*
X128647000Y-78127000D02*
X128627000Y-78127000D01*
X128627000Y-78147000D01*
X128373000Y-78147000D01*
X128373000Y-78127000D01*
X127601250Y-78127000D01*
X127398750Y-78127000D01*
X126627000Y-78127000D01*
X126627000Y-78147000D01*
X126373000Y-78147000D01*
X126373000Y-78127000D01*
X125398750Y-78127000D01*
X125240000Y-78285750D01*
X125240000Y-78315001D01*
X124295869Y-78315001D01*
X123892534Y-77911666D01*
X123793117Y-77671057D01*
X123657298Y-77535001D01*
X125240000Y-77535001D01*
X125240000Y-77714250D01*
X125398750Y-77873000D01*
X126373000Y-77873000D01*
X126373000Y-77853000D01*
X126627000Y-77853000D01*
X126627000Y-77873000D01*
X127398750Y-77873000D01*
X127601250Y-77873000D01*
X128373000Y-77873000D01*
X128373000Y-77853000D01*
X128627000Y-77853000D01*
X128627000Y-77873000D01*
X128647000Y-77873000D01*
X128647000Y-78127000D01*
G36*
X134647000Y-68627000D02*
X134627000Y-68627000D01*
X134627000Y-68647000D01*
X134373000Y-68647000D01*
X134373000Y-68627000D01*
X134353000Y-68627000D01*
X134353000Y-68373000D01*
X134373000Y-68373000D01*
X134373000Y-68353000D01*
X134627000Y-68353000D01*
X134627000Y-68373000D01*
X134647000Y-68373000D01*
X134647000Y-68627000D01*
X134647000Y-68627000D01*
G37*
X134647000Y-68627000D02*
X134627000Y-68627000D01*
X134627000Y-68647000D01*
X134373000Y-68647000D01*
X134373000Y-68627000D01*
X134353000Y-68627000D01*
X134353000Y-68373000D01*
X134373000Y-68373000D01*
X134373000Y-68353000D01*
X134627000Y-68353000D01*
X134627000Y-68373000D01*
X134647000Y-68373000D01*
X134647000Y-68627000D01*
G36*
X137299563Y-63627000D02*
X137277167Y-63641965D01*
X134486531Y-66432601D01*
X134265040Y-66432601D01*
X134265040Y-64632400D01*
X134218063Y-64390277D01*
X134078273Y-64177473D01*
X133867240Y-64035023D01*
X133617600Y-63984960D01*
X131382400Y-63984960D01*
X131140277Y-64031937D01*
X130927473Y-64171727D01*
X130785023Y-64382760D01*
X130750248Y-64556163D01*
X130718063Y-64390277D01*
X130578273Y-64177473D01*
X130367240Y-64035023D01*
X130117600Y-63984960D01*
X127882400Y-63984960D01*
X127640277Y-64031937D01*
X127427473Y-64171727D01*
X127285023Y-64382760D01*
X127250248Y-64556163D01*
X127218063Y-64390277D01*
X127078273Y-64177473D01*
X126867240Y-64035023D01*
X126617600Y-63984960D01*
X124382400Y-63984960D01*
X124140277Y-64031937D01*
X123927473Y-64171727D01*
X123785023Y-64382760D01*
X123750248Y-64556163D01*
X123718063Y-64390277D01*
X123578273Y-64177473D01*
X123367240Y-64035023D01*
X123117600Y-63984960D01*
X120882400Y-63984960D01*
X120640277Y-64031937D01*
X120427473Y-64171727D01*
X120285023Y-64382760D01*
X120234960Y-64632400D01*
X120234960Y-66867600D01*
X120281937Y-67109723D01*
X120421727Y-67322527D01*
X120632760Y-67464977D01*
X120882400Y-67515040D01*
X123117600Y-67515040D01*
X123359723Y-67468063D01*
X123572527Y-67328273D01*
X123714977Y-67117240D01*
X123749751Y-66943836D01*
X123781937Y-67109723D01*
X123921727Y-67322527D01*
X124132760Y-67464977D01*
X124382400Y-67515040D01*
X126617600Y-67515040D01*
X126709003Y-67497305D01*
X126710960Y-67507142D01*
X126891965Y-67778035D01*
X126971965Y-67858035D01*
X127242858Y-68039040D01*
X127242859Y-68039040D01*
X127386804Y-68067672D01*
X128734941Y-69415809D01*
X128627000Y-69523750D01*
X128627000Y-70623000D01*
X129601250Y-70623000D01*
X129760000Y-70464250D01*
X129760000Y-70440868D01*
X130584130Y-71264999D01*
X129760000Y-71264999D01*
X129760000Y-71035750D01*
X129601250Y-70877000D01*
X128627000Y-70877000D01*
X128627000Y-70897000D01*
X128373000Y-70897000D01*
X128373000Y-70877000D01*
X128373000Y-70623000D01*
X128373000Y-69523750D01*
X128214250Y-69365000D01*
X128001309Y-69365000D01*
X127748690Y-69365000D01*
X127515301Y-69461673D01*
X127500000Y-69476974D01*
X127484699Y-69461673D01*
X127251310Y-69365000D01*
X126998691Y-69365000D01*
X126785750Y-69365000D01*
X126627000Y-69523750D01*
X126627000Y-70623000D01*
X127398750Y-70623000D01*
X127601250Y-70623000D01*
X128373000Y-70623000D01*
X128373000Y-70877000D01*
X127601250Y-70877000D01*
X127398750Y-70877000D01*
X126627000Y-70877000D01*
X126627000Y-70897000D01*
X126373000Y-70897000D01*
X126373000Y-70877000D01*
X126373000Y-70623000D01*
X126373000Y-69523750D01*
X126214250Y-69365000D01*
X126001309Y-69365000D01*
X125748690Y-69365000D01*
X125515301Y-69461673D01*
X125336673Y-69640302D01*
X125240000Y-69873691D01*
X125240000Y-70464250D01*
X125398750Y-70623000D01*
X126373000Y-70623000D01*
X126373000Y-70877000D01*
X125398750Y-70877000D01*
X125240000Y-71035750D01*
X125240000Y-71626309D01*
X125336673Y-71859698D01*
X125478150Y-72001176D01*
X125420073Y-72039327D01*
X125277623Y-72250360D01*
X125244605Y-72415000D01*
X123500000Y-72415000D01*
X123180459Y-72478561D01*
X122909566Y-72659566D01*
X122461666Y-73107465D01*
X122322421Y-73165000D01*
X120297440Y-73165000D01*
X120297440Y-69650000D01*
X120297440Y-68350000D01*
X120250463Y-68107877D01*
X120110673Y-67895073D01*
X119899640Y-67752623D01*
X119650000Y-67702560D01*
X118350000Y-67702560D01*
X118107877Y-67749537D01*
X117895073Y-67889327D01*
X117752623Y-68100360D01*
X117702560Y-68350000D01*
X117702560Y-69650000D01*
X117749537Y-69892123D01*
X117889327Y-70104927D01*
X118100360Y-70247377D01*
X118350000Y-70297440D01*
X119650000Y-70297440D01*
X119892123Y-70250463D01*
X120104927Y-70110673D01*
X120247377Y-69899640D01*
X120297440Y-69650000D01*
X120297440Y-73165000D01*
X119750000Y-73165000D01*
X117987157Y-73165000D01*
X117780327Y-72957808D01*
X117436799Y-72815162D01*
X117064833Y-72814838D01*
X116721057Y-72956883D01*
X116457808Y-73219673D01*
X116315162Y-73563201D01*
X116314838Y-73935167D01*
X116456883Y-74278943D01*
X116719673Y-74542192D01*
X117030578Y-74671291D01*
X117030579Y-74671292D01*
X117180459Y-74771439D01*
X117180460Y-74771439D01*
X117500000Y-74835000D01*
X117529547Y-74835000D01*
X117529504Y-74885187D01*
X117671549Y-75228963D01*
X117934339Y-75492212D01*
X118176576Y-75592798D01*
X119874213Y-77290435D01*
X120145106Y-77471440D01*
X120145107Y-77471441D01*
X120464647Y-77535001D01*
X122342715Y-77535001D01*
X122207808Y-77669673D01*
X122065162Y-78013201D01*
X122064838Y-78385167D01*
X122206883Y-78728943D01*
X122469673Y-78992192D01*
X122711910Y-79092778D01*
X123359567Y-79740435D01*
X123630460Y-79921440D01*
X123630461Y-79921440D01*
X123950001Y-79985001D01*
X129445001Y-79985001D01*
X129764541Y-79921440D01*
X129764542Y-79921440D01*
X130035435Y-79740435D01*
X130602560Y-79173310D01*
X130602560Y-80400000D01*
X130649537Y-80642123D01*
X130789327Y-80854927D01*
X131000360Y-80997377D01*
X131156753Y-81028740D01*
X131140277Y-81031937D01*
X130927473Y-81171727D01*
X130785023Y-81382760D01*
X130750248Y-81556163D01*
X130718063Y-81390277D01*
X130578273Y-81177473D01*
X130367240Y-81035023D01*
X130117600Y-80984960D01*
X127882400Y-80984960D01*
X127640277Y-81031937D01*
X127427473Y-81171727D01*
X127285023Y-81382760D01*
X127250248Y-81556163D01*
X127218063Y-81390277D01*
X127078273Y-81177473D01*
X126867240Y-81035023D01*
X126617600Y-80984960D01*
X124382400Y-80984960D01*
X124140277Y-81031937D01*
X123927473Y-81171727D01*
X123785023Y-81382760D01*
X123750248Y-81556163D01*
X123718063Y-81390277D01*
X123578273Y-81177473D01*
X123367240Y-81035023D01*
X123117600Y-80984960D01*
X120882400Y-80984960D01*
X120640277Y-81031937D01*
X120427473Y-81171727D01*
X120297440Y-81364364D01*
X120297440Y-80150000D01*
X120297440Y-78850000D01*
X120250463Y-78607877D01*
X120110673Y-78395073D01*
X119899640Y-78252623D01*
X119650000Y-78202560D01*
X118350000Y-78202560D01*
X118107877Y-78249537D01*
X117895073Y-78389327D01*
X117752623Y-78600360D01*
X117702560Y-78850000D01*
X117702560Y-80150000D01*
X117749537Y-80392123D01*
X117889327Y-80604927D01*
X118100360Y-80747377D01*
X118350000Y-80797440D01*
X119650000Y-80797440D01*
X119892123Y-80750463D01*
X120104927Y-80610673D01*
X120247377Y-80399640D01*
X120297440Y-80150000D01*
X120297440Y-81364364D01*
X120285023Y-81382760D01*
X120234960Y-81632400D01*
X120234960Y-83867600D01*
X120281937Y-84109723D01*
X120421727Y-84322527D01*
X120496500Y-84373000D01*
X115127000Y-84373000D01*
X115127000Y-80136692D01*
X115284777Y-79756724D01*
X115285223Y-79245519D01*
X115127000Y-78862591D01*
X115127000Y-69636692D01*
X115284777Y-69256724D01*
X115285223Y-68745519D01*
X115127000Y-68362591D01*
X115127000Y-63627000D01*
X137299563Y-63627000D01*
X137299563Y-63627000D01*
G37*
X137299563Y-63627000D02*
X137277167Y-63641965D01*
X134486531Y-66432601D01*
X134265040Y-66432601D01*
X134265040Y-64632400D01*
X134218063Y-64390277D01*
X134078273Y-64177473D01*
X133867240Y-64035023D01*
X133617600Y-63984960D01*
X131382400Y-63984960D01*
X131140277Y-64031937D01*
X130927473Y-64171727D01*
X130785023Y-64382760D01*
X130750248Y-64556163D01*
X130718063Y-64390277D01*
X130578273Y-64177473D01*
X130367240Y-64035023D01*
X130117600Y-63984960D01*
X127882400Y-63984960D01*
X127640277Y-64031937D01*
X127427473Y-64171727D01*
X127285023Y-64382760D01*
X127250248Y-64556163D01*
X127218063Y-64390277D01*
X127078273Y-64177473D01*
X126867240Y-64035023D01*
X126617600Y-63984960D01*
X124382400Y-63984960D01*
X124140277Y-64031937D01*
X123927473Y-64171727D01*
X123785023Y-64382760D01*
X123750248Y-64556163D01*
X123718063Y-64390277D01*
X123578273Y-64177473D01*
X123367240Y-64035023D01*
X123117600Y-63984960D01*
X120882400Y-63984960D01*
X120640277Y-64031937D01*
X120427473Y-64171727D01*
X120285023Y-64382760D01*
X120234960Y-64632400D01*
X120234960Y-66867600D01*
X120281937Y-67109723D01*
X120421727Y-67322527D01*
X120632760Y-67464977D01*
X120882400Y-67515040D01*
X123117600Y-67515040D01*
X123359723Y-67468063D01*
X123572527Y-67328273D01*
X123714977Y-67117240D01*
X123749751Y-66943836D01*
X123781937Y-67109723D01*
X123921727Y-67322527D01*
X124132760Y-67464977D01*
X124382400Y-67515040D01*
X126617600Y-67515040D01*
X126709003Y-67497305D01*
X126710960Y-67507142D01*
X126891965Y-67778035D01*
X126971965Y-67858035D01*
X127242858Y-68039040D01*
X127242859Y-68039040D01*
X127386804Y-68067672D01*
X128734941Y-69415809D01*
X128627000Y-69523750D01*
X128627000Y-70623000D01*
X129601250Y-70623000D01*
X129760000Y-70464250D01*
X129760000Y-70440868D01*
X130584130Y-71264999D01*
X129760000Y-71264999D01*
X129760000Y-71035750D01*
X129601250Y-70877000D01*
X128627000Y-70877000D01*
X128627000Y-70897000D01*
X128373000Y-70897000D01*
X128373000Y-70877000D01*
X128373000Y-70623000D01*
X128373000Y-69523750D01*
X128214250Y-69365000D01*
X128001309Y-69365000D01*
X127748690Y-69365000D01*
X127515301Y-69461673D01*
X127500000Y-69476974D01*
X127484699Y-69461673D01*
X127251310Y-69365000D01*
X126998691Y-69365000D01*
X126785750Y-69365000D01*
X126627000Y-69523750D01*
X126627000Y-70623000D01*
X127398750Y-70623000D01*
X127601250Y-70623000D01*
X128373000Y-70623000D01*
X128373000Y-70877000D01*
X127601250Y-70877000D01*
X127398750Y-70877000D01*
X126627000Y-70877000D01*
X126627000Y-70897000D01*
X126373000Y-70897000D01*
X126373000Y-70877000D01*
X126373000Y-70623000D01*
X126373000Y-69523750D01*
X126214250Y-69365000D01*
X126001309Y-69365000D01*
X125748690Y-69365000D01*
X125515301Y-69461673D01*
X125336673Y-69640302D01*
X125240000Y-69873691D01*
X125240000Y-70464250D01*
X125398750Y-70623000D01*
X126373000Y-70623000D01*
X126373000Y-70877000D01*
X125398750Y-70877000D01*
X125240000Y-71035750D01*
X125240000Y-71626309D01*
X125336673Y-71859698D01*
X125478150Y-72001176D01*
X125420073Y-72039327D01*
X125277623Y-72250360D01*
X125244605Y-72415000D01*
X123500000Y-72415000D01*
X123180459Y-72478561D01*
X122909566Y-72659566D01*
X122461666Y-73107465D01*
X122322421Y-73165000D01*
X120297440Y-73165000D01*
X120297440Y-69650000D01*
X120297440Y-68350000D01*
X120250463Y-68107877D01*
X120110673Y-67895073D01*
X119899640Y-67752623D01*
X119650000Y-67702560D01*
X118350000Y-67702560D01*
X118107877Y-67749537D01*
X117895073Y-67889327D01*
X117752623Y-68100360D01*
X117702560Y-68350000D01*
X117702560Y-69650000D01*
X117749537Y-69892123D01*
X117889327Y-70104927D01*
X118100360Y-70247377D01*
X118350000Y-70297440D01*
X119650000Y-70297440D01*
X119892123Y-70250463D01*
X120104927Y-70110673D01*
X120247377Y-69899640D01*
X120297440Y-69650000D01*
X120297440Y-73165000D01*
X119750000Y-73165000D01*
X117987157Y-73165000D01*
X117780327Y-72957808D01*
X117436799Y-72815162D01*
X117064833Y-72814838D01*
X116721057Y-72956883D01*
X116457808Y-73219673D01*
X116315162Y-73563201D01*
X116314838Y-73935167D01*
X116456883Y-74278943D01*
X116719673Y-74542192D01*
X117030578Y-74671291D01*
X117030579Y-74671292D01*
X117180459Y-74771439D01*
X117180460Y-74771439D01*
X117500000Y-74835000D01*
X117529547Y-74835000D01*
X117529504Y-74885187D01*
X117671549Y-75228963D01*
X117934339Y-75492212D01*
X118176576Y-75592798D01*
X119874213Y-77290435D01*
X120145106Y-77471440D01*
X120145107Y-77471441D01*
X120464647Y-77535001D01*
X122342715Y-77535001D01*
X122207808Y-77669673D01*
X122065162Y-78013201D01*
X122064838Y-78385167D01*
X122206883Y-78728943D01*
X122469673Y-78992192D01*
X122711910Y-79092778D01*
X123359567Y-79740435D01*
X123630460Y-79921440D01*
X123630461Y-79921440D01*
X123950001Y-79985001D01*
X129445001Y-79985001D01*
X129764541Y-79921440D01*
X129764542Y-79921440D01*
X130035435Y-79740435D01*
X130602560Y-79173310D01*
X130602560Y-80400000D01*
X130649537Y-80642123D01*
X130789327Y-80854927D01*
X131000360Y-80997377D01*
X131156753Y-81028740D01*
X131140277Y-81031937D01*
X130927473Y-81171727D01*
X130785023Y-81382760D01*
X130750248Y-81556163D01*
X130718063Y-81390277D01*
X130578273Y-81177473D01*
X130367240Y-81035023D01*
X130117600Y-80984960D01*
X127882400Y-80984960D01*
X127640277Y-81031937D01*
X127427473Y-81171727D01*
X127285023Y-81382760D01*
X127250248Y-81556163D01*
X127218063Y-81390277D01*
X127078273Y-81177473D01*
X126867240Y-81035023D01*
X126617600Y-80984960D01*
X124382400Y-80984960D01*
X124140277Y-81031937D01*
X123927473Y-81171727D01*
X123785023Y-81382760D01*
X123750248Y-81556163D01*
X123718063Y-81390277D01*
X123578273Y-81177473D01*
X123367240Y-81035023D01*
X123117600Y-80984960D01*
X120882400Y-80984960D01*
X120640277Y-81031937D01*
X120427473Y-81171727D01*
X120297440Y-81364364D01*
X120297440Y-80150000D01*
X120297440Y-78850000D01*
X120250463Y-78607877D01*
X120110673Y-78395073D01*
X119899640Y-78252623D01*
X119650000Y-78202560D01*
X118350000Y-78202560D01*
X118107877Y-78249537D01*
X117895073Y-78389327D01*
X117752623Y-78600360D01*
X117702560Y-78850000D01*
X117702560Y-80150000D01*
X117749537Y-80392123D01*
X117889327Y-80604927D01*
X118100360Y-80747377D01*
X118350000Y-80797440D01*
X119650000Y-80797440D01*
X119892123Y-80750463D01*
X120104927Y-80610673D01*
X120247377Y-80399640D01*
X120297440Y-80150000D01*
X120297440Y-81364364D01*
X120285023Y-81382760D01*
X120234960Y-81632400D01*
X120234960Y-83867600D01*
X120281937Y-84109723D01*
X120421727Y-84322527D01*
X120496500Y-84373000D01*
X115127000Y-84373000D01*
X115127000Y-80136692D01*
X115284777Y-79756724D01*
X115285223Y-79245519D01*
X115127000Y-78862591D01*
X115127000Y-69636692D01*
X115284777Y-69256724D01*
X115285223Y-68745519D01*
X115127000Y-68362591D01*
X115127000Y-63627000D01*
X137299563Y-63627000D01*
G36*
X139645783Y-84373000D02*
X136085000Y-84373000D01*
X136085000Y-80526310D01*
X136085000Y-80273691D01*
X136085000Y-80035750D01*
X135926250Y-79877000D01*
X134827000Y-79877000D01*
X134827000Y-80876250D01*
X134985750Y-81035000D01*
X135576309Y-81035000D01*
X135809698Y-80938327D01*
X135988327Y-80759699D01*
X136085000Y-80526310D01*
X136085000Y-84373000D01*
X134004438Y-84373000D01*
X134072527Y-84328273D01*
X134214977Y-84117240D01*
X134265040Y-83867600D01*
X134265040Y-81632400D01*
X134218063Y-81390277D01*
X134078273Y-81177473D01*
X133867240Y-81035023D01*
X133867125Y-81035000D01*
X134414250Y-81035000D01*
X134573000Y-80876250D01*
X134573000Y-79877000D01*
X134553000Y-79877000D01*
X134553000Y-79623000D01*
X134573000Y-79623000D01*
X134573000Y-79603000D01*
X134827000Y-79603000D01*
X134827000Y-79623000D01*
X135926250Y-79623000D01*
X136084191Y-79465059D01*
X137065000Y-80445868D01*
X137065000Y-81446349D01*
X137128561Y-81765890D01*
X137309566Y-82036783D01*
X139645783Y-84373000D01*
X139645783Y-84373000D01*
G37*
X139645783Y-84373000D02*
X136085000Y-84373000D01*
X136085000Y-80526310D01*
X136085000Y-80273691D01*
X136085000Y-80035750D01*
X135926250Y-79877000D01*
X134827000Y-79877000D01*
X134827000Y-80876250D01*
X134985750Y-81035000D01*
X135576309Y-81035000D01*
X135809698Y-80938327D01*
X135988327Y-80759699D01*
X136085000Y-80526310D01*
X136085000Y-84373000D01*
X134004438Y-84373000D01*
X134072527Y-84328273D01*
X134214977Y-84117240D01*
X134265040Y-83867600D01*
X134265040Y-81632400D01*
X134218063Y-81390277D01*
X134078273Y-81177473D01*
X133867240Y-81035023D01*
X133867125Y-81035000D01*
X134414250Y-81035000D01*
X134573000Y-80876250D01*
X134573000Y-79877000D01*
X134553000Y-79877000D01*
X134553000Y-79623000D01*
X134573000Y-79623000D01*
X134573000Y-79603000D01*
X134827000Y-79603000D01*
X134827000Y-79623000D01*
X135926250Y-79623000D01*
X136084191Y-79465059D01*
X137065000Y-80445868D01*
X137065000Y-81446349D01*
X137128561Y-81765890D01*
X137309566Y-82036783D01*
X139645783Y-84373000D01*
G36*
X141427630Y-77915021D02*
X141214833Y-77914836D01*
X140972421Y-78014998D01*
X140825738Y-78014998D01*
X140506197Y-78078559D01*
X140235304Y-78259564D01*
X138678568Y-79816299D01*
X138671439Y-79780460D01*
X138671439Y-79780459D01*
X138490434Y-79509566D01*
X135650415Y-76669547D01*
X135379522Y-76488542D01*
X135059981Y-76424981D01*
X131867253Y-76424981D01*
X131626818Y-76325143D01*
X131254852Y-76324819D01*
X130911076Y-76466864D01*
X130647827Y-76729654D01*
X130505181Y-77073182D01*
X130505085Y-77182885D01*
X130275461Y-77228561D01*
X130004568Y-77409566D01*
X129760000Y-77654134D01*
X129760000Y-77123691D01*
X129663327Y-76890302D01*
X129521849Y-76748823D01*
X129579927Y-76710673D01*
X129722377Y-76499640D01*
X129772440Y-76250000D01*
X129772440Y-74750000D01*
X129725463Y-74507877D01*
X129637969Y-74374685D01*
X129722377Y-74249640D01*
X129755394Y-74085000D01*
X130634614Y-74085000D01*
X130871955Y-74322341D01*
X130971373Y-74562951D01*
X131234163Y-74826200D01*
X131577691Y-74968846D01*
X131949657Y-74969170D01*
X132293433Y-74827125D01*
X132556682Y-74564335D01*
X132699328Y-74220807D01*
X132699652Y-73848841D01*
X132557607Y-73505065D01*
X132294817Y-73241816D01*
X132052579Y-73141229D01*
X131846349Y-72934999D01*
X132254131Y-72934999D01*
X132751695Y-73432563D01*
X132851113Y-73673173D01*
X133113903Y-73936422D01*
X133457431Y-74079068D01*
X133829397Y-74079392D01*
X134173173Y-73937347D01*
X134436422Y-73674557D01*
X134579068Y-73331029D01*
X134579392Y-72959063D01*
X134437347Y-72615287D01*
X134174557Y-72352038D01*
X133932319Y-72251451D01*
X133515868Y-71835000D01*
X134985517Y-71835000D01*
X135305057Y-71771439D01*
X135305058Y-71771439D01*
X135575951Y-71590434D01*
X136505000Y-70661385D01*
X136505000Y-76122765D01*
X136405162Y-76363201D01*
X136404838Y-76735167D01*
X136546883Y-77078943D01*
X136809673Y-77342192D01*
X137153201Y-77484838D01*
X137525167Y-77485162D01*
X137868943Y-77343117D01*
X138064870Y-77147530D01*
X138064838Y-77185167D01*
X138206883Y-77528943D01*
X138469673Y-77792192D01*
X138813201Y-77934838D01*
X139185167Y-77935162D01*
X139430654Y-77833728D01*
X139743804Y-77771439D01*
X139743805Y-77771439D01*
X140014698Y-77590434D01*
X140640432Y-76964700D01*
X140640433Y-76964700D01*
X140767751Y-76774153D01*
X141345377Y-77351780D01*
X141345061Y-77715188D01*
X141427630Y-77915021D01*
X141427630Y-77915021D01*
G37*
X141427630Y-77915021D02*
X141214833Y-77914836D01*
X140972421Y-78014998D01*
X140825738Y-78014998D01*
X140506197Y-78078559D01*
X140235304Y-78259564D01*
X138678568Y-79816299D01*
X138671439Y-79780460D01*
X138671439Y-79780459D01*
X138490434Y-79509566D01*
X135650415Y-76669547D01*
X135379522Y-76488542D01*
X135059981Y-76424981D01*
X131867253Y-76424981D01*
X131626818Y-76325143D01*
X131254852Y-76324819D01*
X130911076Y-76466864D01*
X130647827Y-76729654D01*
X130505181Y-77073182D01*
X130505085Y-77182885D01*
X130275461Y-77228561D01*
X130004568Y-77409566D01*
X129760000Y-77654134D01*
X129760000Y-77123691D01*
X129663327Y-76890302D01*
X129521849Y-76748823D01*
X129579927Y-76710673D01*
X129722377Y-76499640D01*
X129772440Y-76250000D01*
X129772440Y-74750000D01*
X129725463Y-74507877D01*
X129637969Y-74374685D01*
X129722377Y-74249640D01*
X129755394Y-74085000D01*
X130634614Y-74085000D01*
X130871955Y-74322341D01*
X130971373Y-74562951D01*
X131234163Y-74826200D01*
X131577691Y-74968846D01*
X131949657Y-74969170D01*
X132293433Y-74827125D01*
X132556682Y-74564335D01*
X132699328Y-74220807D01*
X132699652Y-73848841D01*
X132557607Y-73505065D01*
X132294817Y-73241816D01*
X132052579Y-73141229D01*
X131846349Y-72934999D01*
X132254131Y-72934999D01*
X132751695Y-73432563D01*
X132851113Y-73673173D01*
X133113903Y-73936422D01*
X133457431Y-74079068D01*
X133829397Y-74079392D01*
X134173173Y-73937347D01*
X134436422Y-73674557D01*
X134579068Y-73331029D01*
X134579392Y-72959063D01*
X134437347Y-72615287D01*
X134174557Y-72352038D01*
X133932319Y-72251451D01*
X133515868Y-71835000D01*
X134985517Y-71835000D01*
X135305057Y-71771439D01*
X135305058Y-71771439D01*
X135575951Y-71590434D01*
X136505000Y-70661385D01*
X136505000Y-76122765D01*
X136405162Y-76363201D01*
X136404838Y-76735167D01*
X136546883Y-77078943D01*
X136809673Y-77342192D01*
X137153201Y-77484838D01*
X137525167Y-77485162D01*
X137868943Y-77343117D01*
X138064870Y-77147530D01*
X138064838Y-77185167D01*
X138206883Y-77528943D01*
X138469673Y-77792192D01*
X138813201Y-77934838D01*
X139185167Y-77935162D01*
X139430654Y-77833728D01*
X139743804Y-77771439D01*
X139743805Y-77771439D01*
X140014698Y-77590434D01*
X140640432Y-76964700D01*
X140640433Y-76964700D01*
X140767751Y-76774153D01*
X141345377Y-77351780D01*
X141345061Y-77715188D01*
X141427630Y-77915021D01*
G36*
X141847000Y-80127000D02*
X141827000Y-80127000D01*
X141827000Y-80147000D01*
X141573000Y-80147000D01*
X141573000Y-80127000D01*
X141553000Y-80127000D01*
X141553000Y-79873000D01*
X141573000Y-79873000D01*
X141573000Y-79853000D01*
X141827000Y-79853000D01*
X141827000Y-79873000D01*
X141847000Y-79873000D01*
X141847000Y-80127000D01*
X141847000Y-80127000D01*
G37*
X141847000Y-80127000D02*
X141827000Y-80127000D01*
X141827000Y-80147000D01*
X141573000Y-80147000D01*
X141573000Y-80127000D01*
X141553000Y-80127000D01*
X141553000Y-79873000D01*
X141573000Y-79873000D01*
X141573000Y-79853000D01*
X141827000Y-79853000D01*
X141827000Y-79873000D01*
X141847000Y-79873000D01*
X141847000Y-80127000D01*
G36*
X141947000Y-68877000D02*
X141927000Y-68877000D01*
X141927000Y-68897000D01*
X141673000Y-68897000D01*
X141673000Y-68877000D01*
X140573750Y-68877000D01*
X140495809Y-68954941D01*
X140342534Y-68801666D01*
X140277659Y-68644657D01*
X140392190Y-68530327D01*
X140418269Y-68467519D01*
X140573750Y-68623000D01*
X141673000Y-68623000D01*
X141673000Y-68603000D01*
X141927000Y-68603000D01*
X141927000Y-68623000D01*
X141947000Y-68623000D01*
X141947000Y-68877000D01*
X141947000Y-68877000D01*
G37*
X141947000Y-68877000D02*
X141927000Y-68877000D01*
X141927000Y-68897000D01*
X141673000Y-68897000D01*
X141673000Y-68877000D01*
X140573750Y-68877000D01*
X140495809Y-68954941D01*
X140342534Y-68801666D01*
X140277659Y-68644657D01*
X140392190Y-68530327D01*
X140418269Y-68467519D01*
X140573750Y-68623000D01*
X141673000Y-68623000D01*
X141673000Y-68603000D01*
X141927000Y-68603000D01*
X141927000Y-68623000D01*
X141947000Y-68623000D01*
X141947000Y-68877000D01*
G36*
X148165000Y-81190205D02*
X148035023Y-81382760D01*
X148000248Y-81556163D01*
X147968063Y-81390277D01*
X147828273Y-81177473D01*
X147617240Y-81035023D01*
X147367600Y-80984960D01*
X145689784Y-80984960D01*
X145747377Y-80899640D01*
X145797440Y-80650000D01*
X145797440Y-79485000D01*
X145998691Y-79485000D01*
X146251310Y-79485000D01*
X146484699Y-79388327D01*
X146500000Y-79373025D01*
X146515301Y-79388327D01*
X146748690Y-79485000D01*
X147001309Y-79485000D01*
X147214250Y-79485000D01*
X147373000Y-79326250D01*
X147373000Y-78227000D01*
X146601250Y-78227000D01*
X146398750Y-78227000D01*
X145627000Y-78227000D01*
X145627000Y-78247000D01*
X145373000Y-78247000D01*
X145373000Y-78227000D01*
X144398750Y-78227000D01*
X144240000Y-78385750D01*
X144240000Y-78702560D01*
X143935000Y-78702560D01*
X143935000Y-78349798D01*
X143871439Y-78030258D01*
X143871439Y-78030257D01*
X143690434Y-77759364D01*
X143172757Y-77241687D01*
X143113951Y-77099366D01*
X143051662Y-76786217D01*
X143051662Y-76786216D01*
X142961159Y-76650769D01*
X142870657Y-76515323D01*
X142870657Y-76515322D01*
X142231579Y-75876245D01*
X142263997Y-75889706D01*
X142635963Y-75890030D01*
X142979739Y-75747985D01*
X143242988Y-75485195D01*
X143385634Y-75141667D01*
X143385958Y-74769701D01*
X143291187Y-74540338D01*
X143496526Y-74335000D01*
X144244051Y-74335000D01*
X144274537Y-74492123D01*
X144312092Y-74549294D01*
X144277623Y-74600360D01*
X144227560Y-74850000D01*
X144227560Y-76350000D01*
X144274537Y-76592123D01*
X144414327Y-76804927D01*
X144478637Y-76848337D01*
X144336673Y-76990302D01*
X144240000Y-77223691D01*
X144240000Y-77814250D01*
X144398750Y-77973000D01*
X145373000Y-77973000D01*
X145373000Y-77953000D01*
X145627000Y-77953000D01*
X145627000Y-77973000D01*
X146398750Y-77973000D01*
X146601250Y-77973000D01*
X147373000Y-77973000D01*
X147373000Y-77953000D01*
X147627000Y-77953000D01*
X147627000Y-77973000D01*
X147647000Y-77973000D01*
X147647000Y-78227000D01*
X147627000Y-78227000D01*
X147627000Y-79326250D01*
X147785750Y-79485000D01*
X147998691Y-79485000D01*
X148165000Y-79485000D01*
X148165000Y-81190205D01*
X148165000Y-81190205D01*
G37*
X148165000Y-81190205D02*
X148035023Y-81382760D01*
X148000248Y-81556163D01*
X147968063Y-81390277D01*
X147828273Y-81177473D01*
X147617240Y-81035023D01*
X147367600Y-80984960D01*
X145689784Y-80984960D01*
X145747377Y-80899640D01*
X145797440Y-80650000D01*
X145797440Y-79485000D01*
X145998691Y-79485000D01*
X146251310Y-79485000D01*
X146484699Y-79388327D01*
X146500000Y-79373025D01*
X146515301Y-79388327D01*
X146748690Y-79485000D01*
X147001309Y-79485000D01*
X147214250Y-79485000D01*
X147373000Y-79326250D01*
X147373000Y-78227000D01*
X146601250Y-78227000D01*
X146398750Y-78227000D01*
X145627000Y-78227000D01*
X145627000Y-78247000D01*
X145373000Y-78247000D01*
X145373000Y-78227000D01*
X144398750Y-78227000D01*
X144240000Y-78385750D01*
X144240000Y-78702560D01*
X143935000Y-78702560D01*
X143935000Y-78349798D01*
X143871439Y-78030258D01*
X143871439Y-78030257D01*
X143690434Y-77759364D01*
X143172757Y-77241687D01*
X143113951Y-77099366D01*
X143051662Y-76786217D01*
X143051662Y-76786216D01*
X142961159Y-76650769D01*
X142870657Y-76515323D01*
X142870657Y-76515322D01*
X142231579Y-75876245D01*
X142263997Y-75889706D01*
X142635963Y-75890030D01*
X142979739Y-75747985D01*
X143242988Y-75485195D01*
X143385634Y-75141667D01*
X143385958Y-74769701D01*
X143291187Y-74540338D01*
X143496526Y-74335000D01*
X144244051Y-74335000D01*
X144274537Y-74492123D01*
X144312092Y-74549294D01*
X144277623Y-74600360D01*
X144227560Y-74850000D01*
X144227560Y-76350000D01*
X144274537Y-76592123D01*
X144414327Y-76804927D01*
X144478637Y-76848337D01*
X144336673Y-76990302D01*
X144240000Y-77223691D01*
X144240000Y-77814250D01*
X144398750Y-77973000D01*
X145373000Y-77973000D01*
X145373000Y-77953000D01*
X145627000Y-77953000D01*
X145627000Y-77973000D01*
X146398750Y-77973000D01*
X146601250Y-77973000D01*
X147373000Y-77973000D01*
X147373000Y-77953000D01*
X147627000Y-77953000D01*
X147627000Y-77973000D01*
X147647000Y-77973000D01*
X147647000Y-78227000D01*
X147627000Y-78227000D01*
X147627000Y-79326250D01*
X147785750Y-79485000D01*
X147998691Y-79485000D01*
X148165000Y-79485000D01*
X148165000Y-81190205D01*
G36*
X149355011Y-71064121D02*
X148998489Y-71420642D01*
X148760000Y-71420642D01*
X148760000Y-71285750D01*
X148601250Y-71127000D01*
X147627000Y-71127000D01*
X147627000Y-71147000D01*
X147373000Y-71147000D01*
X147373000Y-71127000D01*
X146601250Y-71127000D01*
X146398750Y-71127000D01*
X145627000Y-71127000D01*
X145627000Y-71147000D01*
X145373000Y-71147000D01*
X145373000Y-71127000D01*
X144398750Y-71127000D01*
X144240000Y-71285750D01*
X144240000Y-71420642D01*
X143311670Y-71420642D01*
X143304742Y-71413714D01*
X143033849Y-71232709D01*
X142714308Y-71169148D01*
X140715070Y-71169148D01*
X140395530Y-71232708D01*
X140124636Y-71413714D01*
X139823599Y-71714750D01*
X139810673Y-71695073D01*
X139599640Y-71552623D01*
X139350000Y-71502560D01*
X138175000Y-71502560D01*
X138175000Y-70163609D01*
X138239209Y-70137079D01*
X138502458Y-69874289D01*
X138518801Y-69834929D01*
X138785167Y-69835162D01*
X138847156Y-69809548D01*
X138919673Y-69882192D01*
X139161910Y-69982778D01*
X139669568Y-70490436D01*
X139940461Y-70671441D01*
X139940462Y-70671441D01*
X140260002Y-70735002D01*
X140752765Y-70735002D01*
X140993201Y-70834840D01*
X141365167Y-70835164D01*
X141708943Y-70693119D01*
X141972192Y-70430329D01*
X142114838Y-70086801D01*
X142114883Y-70035000D01*
X142676309Y-70035000D01*
X142909698Y-69938327D01*
X143088327Y-69759699D01*
X143098557Y-69734999D01*
X143210611Y-69735097D01*
X143289327Y-69854927D01*
X143500360Y-69997377D01*
X143750000Y-70047440D01*
X144271584Y-70047440D01*
X144240000Y-70123691D01*
X144240000Y-70714250D01*
X144398750Y-70873000D01*
X145373000Y-70873000D01*
X145373000Y-70853000D01*
X145627000Y-70853000D01*
X145627000Y-70873000D01*
X146398750Y-70873000D01*
X146601250Y-70873000D01*
X147373000Y-70873000D01*
X147373000Y-70853000D01*
X147627000Y-70853000D01*
X147627000Y-70873000D01*
X148601250Y-70873000D01*
X148760000Y-70714250D01*
X148760000Y-70123691D01*
X148665242Y-69894926D01*
X148935169Y-69895162D01*
X149278945Y-69753117D01*
X149355011Y-69677183D01*
X149355011Y-71064121D01*
X149355011Y-71064121D01*
G37*
X149355011Y-71064121D02*
X148998489Y-71420642D01*
X148760000Y-71420642D01*
X148760000Y-71285750D01*
X148601250Y-71127000D01*
X147627000Y-71127000D01*
X147627000Y-71147000D01*
X147373000Y-71147000D01*
X147373000Y-71127000D01*
X146601250Y-71127000D01*
X146398750Y-71127000D01*
X145627000Y-71127000D01*
X145627000Y-71147000D01*
X145373000Y-71147000D01*
X145373000Y-71127000D01*
X144398750Y-71127000D01*
X144240000Y-71285750D01*
X144240000Y-71420642D01*
X143311670Y-71420642D01*
X143304742Y-71413714D01*
X143033849Y-71232709D01*
X142714308Y-71169148D01*
X140715070Y-71169148D01*
X140395530Y-71232708D01*
X140124636Y-71413714D01*
X139823599Y-71714750D01*
X139810673Y-71695073D01*
X139599640Y-71552623D01*
X139350000Y-71502560D01*
X138175000Y-71502560D01*
X138175000Y-70163609D01*
X138239209Y-70137079D01*
X138502458Y-69874289D01*
X138518801Y-69834929D01*
X138785167Y-69835162D01*
X138847156Y-69809548D01*
X138919673Y-69882192D01*
X139161910Y-69982778D01*
X139669568Y-70490436D01*
X139940461Y-70671441D01*
X139940462Y-70671441D01*
X140260002Y-70735002D01*
X140752765Y-70735002D01*
X140993201Y-70834840D01*
X141365167Y-70835164D01*
X141708943Y-70693119D01*
X141972192Y-70430329D01*
X142114838Y-70086801D01*
X142114883Y-70035000D01*
X142676309Y-70035000D01*
X142909698Y-69938327D01*
X143088327Y-69759699D01*
X143098557Y-69734999D01*
X143210611Y-69735097D01*
X143289327Y-69854927D01*
X143500360Y-69997377D01*
X143750000Y-70047440D01*
X144271584Y-70047440D01*
X144240000Y-70123691D01*
X144240000Y-70714250D01*
X144398750Y-70873000D01*
X145373000Y-70873000D01*
X145373000Y-70853000D01*
X145627000Y-70853000D01*
X145627000Y-70873000D01*
X146398750Y-70873000D01*
X146601250Y-70873000D01*
X147373000Y-70873000D01*
X147373000Y-70853000D01*
X147627000Y-70853000D01*
X147627000Y-70873000D01*
X148601250Y-70873000D01*
X148760000Y-70714250D01*
X148760000Y-70123691D01*
X148665242Y-69894926D01*
X148935169Y-69895162D01*
X149278945Y-69753117D01*
X149355011Y-69677183D01*
X149355011Y-71064121D01*
G36*
X157665000Y-77240251D02*
X157528560Y-77444448D01*
X157464999Y-77763989D01*
X157464999Y-78435991D01*
X157498376Y-78603791D01*
X156651480Y-77756895D01*
X156552063Y-77516286D01*
X156289273Y-77253037D01*
X155945745Y-77110391D01*
X155573779Y-77110067D01*
X155230003Y-77252112D01*
X154966754Y-77514902D01*
X154824108Y-77858430D01*
X154823784Y-78230396D01*
X154965829Y-78574172D01*
X155228619Y-78837421D01*
X155470856Y-78938007D01*
X156803434Y-80270585D01*
X156806883Y-80278932D01*
X157069673Y-80542181D01*
X157413201Y-80684827D01*
X157470247Y-80684876D01*
X156759568Y-81395556D01*
X156578563Y-81666449D01*
X156515002Y-81985990D01*
X156515002Y-83072765D01*
X156415164Y-83313201D01*
X156414840Y-83685167D01*
X156556885Y-84028943D01*
X156819675Y-84292192D01*
X157014281Y-84373000D01*
X154760225Y-84373000D01*
X154905927Y-84227299D01*
X155002600Y-83993910D01*
X155002600Y-83741291D01*
X155002600Y-83035750D01*
X155002600Y-82464250D01*
X155002600Y-81758709D01*
X155002600Y-81506090D01*
X154905927Y-81272701D01*
X154727298Y-81094073D01*
X154493909Y-80997400D01*
X153535750Y-80997400D01*
X153377000Y-81156150D01*
X153377000Y-82623000D01*
X154843850Y-82623000D01*
X155002600Y-82464250D01*
X155002600Y-83035750D01*
X154843850Y-82877000D01*
X153377000Y-82877000D01*
X153377000Y-82897000D01*
X153123000Y-82897000D01*
X153123000Y-82877000D01*
X153103000Y-82877000D01*
X153103000Y-82623000D01*
X153123000Y-82623000D01*
X153123000Y-81156150D01*
X152964250Y-80997400D01*
X152006091Y-80997400D01*
X151772702Y-81094073D01*
X151594073Y-81272701D01*
X151497400Y-81506090D01*
X151497400Y-81541482D01*
X151468063Y-81390277D01*
X151328273Y-81177473D01*
X151117240Y-81035023D01*
X150867600Y-80984960D01*
X149835000Y-80984960D01*
X149835000Y-77545868D01*
X150831533Y-76549334D01*
X150849537Y-76642123D01*
X150989327Y-76854927D01*
X151200360Y-76997377D01*
X151265000Y-77010339D01*
X151265000Y-77050002D01*
X151328561Y-77369543D01*
X151509566Y-77640436D01*
X151957463Y-78088333D01*
X152056881Y-78328943D01*
X152319671Y-78592192D01*
X152663199Y-78734838D01*
X153035165Y-78735162D01*
X153378941Y-78593117D01*
X153642190Y-78330327D01*
X153784836Y-77986799D01*
X153785160Y-77614833D01*
X153643115Y-77271057D01*
X153380325Y-77007808D01*
X153138087Y-76907221D01*
X153136492Y-76905626D01*
X153204927Y-76860673D01*
X153347377Y-76649640D01*
X153397440Y-76400000D01*
X153397440Y-74900000D01*
X153385442Y-74838166D01*
X153469541Y-74821438D01*
X153469542Y-74821438D01*
X153740435Y-74640433D01*
X155227560Y-73153308D01*
X155227560Y-73850000D01*
X155274537Y-74092123D01*
X155414327Y-74304927D01*
X155480528Y-74349613D01*
X155420073Y-74389327D01*
X155277623Y-74600360D01*
X155227560Y-74850000D01*
X155227560Y-76350000D01*
X155274537Y-76592123D01*
X155414327Y-76804927D01*
X155625360Y-76947377D01*
X155875000Y-76997440D01*
X157125000Y-76997440D01*
X157367123Y-76950463D01*
X157500314Y-76862969D01*
X157625360Y-76947377D01*
X157665000Y-76955326D01*
X157665000Y-77240251D01*
X157665000Y-77240251D01*
G37*
X157665000Y-77240251D02*
X157528560Y-77444448D01*
X157464999Y-77763989D01*
X157464999Y-78435991D01*
X157498376Y-78603791D01*
X156651480Y-77756895D01*
X156552063Y-77516286D01*
X156289273Y-77253037D01*
X155945745Y-77110391D01*
X155573779Y-77110067D01*
X155230003Y-77252112D01*
X154966754Y-77514902D01*
X154824108Y-77858430D01*
X154823784Y-78230396D01*
X154965829Y-78574172D01*
X155228619Y-78837421D01*
X155470856Y-78938007D01*
X156803434Y-80270585D01*
X156806883Y-80278932D01*
X157069673Y-80542181D01*
X157413201Y-80684827D01*
X157470247Y-80684876D01*
X156759568Y-81395556D01*
X156578563Y-81666449D01*
X156515002Y-81985990D01*
X156515002Y-83072765D01*
X156415164Y-83313201D01*
X156414840Y-83685167D01*
X156556885Y-84028943D01*
X156819675Y-84292192D01*
X157014281Y-84373000D01*
X154760225Y-84373000D01*
X154905927Y-84227299D01*
X155002600Y-83993910D01*
X155002600Y-83741291D01*
X155002600Y-83035750D01*
X155002600Y-82464250D01*
X155002600Y-81758709D01*
X155002600Y-81506090D01*
X154905927Y-81272701D01*
X154727298Y-81094073D01*
X154493909Y-80997400D01*
X153535750Y-80997400D01*
X153377000Y-81156150D01*
X153377000Y-82623000D01*
X154843850Y-82623000D01*
X155002600Y-82464250D01*
X155002600Y-83035750D01*
X154843850Y-82877000D01*
X153377000Y-82877000D01*
X153377000Y-82897000D01*
X153123000Y-82897000D01*
X153123000Y-82877000D01*
X153103000Y-82877000D01*
X153103000Y-82623000D01*
X153123000Y-82623000D01*
X153123000Y-81156150D01*
X152964250Y-80997400D01*
X152006091Y-80997400D01*
X151772702Y-81094073D01*
X151594073Y-81272701D01*
X151497400Y-81506090D01*
X151497400Y-81541482D01*
X151468063Y-81390277D01*
X151328273Y-81177473D01*
X151117240Y-81035023D01*
X150867600Y-80984960D01*
X149835000Y-80984960D01*
X149835000Y-77545868D01*
X150831533Y-76549334D01*
X150849537Y-76642123D01*
X150989327Y-76854927D01*
X151200360Y-76997377D01*
X151265000Y-77010339D01*
X151265000Y-77050002D01*
X151328561Y-77369543D01*
X151509566Y-77640436D01*
X151957463Y-78088333D01*
X152056881Y-78328943D01*
X152319671Y-78592192D01*
X152663199Y-78734838D01*
X153035165Y-78735162D01*
X153378941Y-78593117D01*
X153642190Y-78330327D01*
X153784836Y-77986799D01*
X153785160Y-77614833D01*
X153643115Y-77271057D01*
X153380325Y-77007808D01*
X153138087Y-76907221D01*
X153136492Y-76905626D01*
X153204927Y-76860673D01*
X153347377Y-76649640D01*
X153397440Y-76400000D01*
X153397440Y-74900000D01*
X153385442Y-74838166D01*
X153469541Y-74821438D01*
X153469542Y-74821438D01*
X153740435Y-74640433D01*
X155227560Y-73153308D01*
X155227560Y-73850000D01*
X155274537Y-74092123D01*
X155414327Y-74304927D01*
X155480528Y-74349613D01*
X155420073Y-74389327D01*
X155277623Y-74600360D01*
X155227560Y-74850000D01*
X155227560Y-76350000D01*
X155274537Y-76592123D01*
X155414327Y-76804927D01*
X155625360Y-76947377D01*
X155875000Y-76997440D01*
X157125000Y-76997440D01*
X157367123Y-76950463D01*
X157500314Y-76862969D01*
X157625360Y-76947377D01*
X157665000Y-76955326D01*
X157665000Y-77240251D01*
G36*
X180565000Y-71673898D02*
X180333732Y-71719900D01*
X179884221Y-72020254D01*
X179583867Y-72469765D01*
X179478397Y-73000000D01*
X179583867Y-73530235D01*
X179884221Y-73979746D01*
X180318616Y-74270000D01*
X179884221Y-74560254D01*
X179583867Y-75009765D01*
X179478397Y-75540000D01*
X179583867Y-76070235D01*
X179884221Y-76519746D01*
X180318616Y-76810000D01*
X179884221Y-77100254D01*
X179787504Y-77245000D01*
X175475870Y-77245000D01*
X172792534Y-74561664D01*
X172693117Y-74321055D01*
X172430327Y-74057806D01*
X172086799Y-73915160D01*
X171714833Y-73914836D01*
X171371057Y-74056881D01*
X171107808Y-74319671D01*
X170965162Y-74663199D01*
X170964838Y-75035165D01*
X171106883Y-75378941D01*
X171369673Y-75642190D01*
X171611910Y-75742776D01*
X174539568Y-78670434D01*
X174810461Y-78851439D01*
X174810462Y-78851440D01*
X175130002Y-78915000D01*
X177948634Y-78915000D01*
X177880459Y-78928561D01*
X177745012Y-79019063D01*
X177609565Y-79109566D01*
X177211665Y-79507465D01*
X176971057Y-79606883D01*
X176707808Y-79869673D01*
X176565162Y-80213201D01*
X176564838Y-80585167D01*
X176706883Y-80928943D01*
X176812715Y-81034960D01*
X174682400Y-81034960D01*
X174440277Y-81081937D01*
X174227473Y-81221727D01*
X174085023Y-81432760D01*
X174034960Y-81682400D01*
X174034960Y-83917600D01*
X174081937Y-84159723D01*
X174221727Y-84372527D01*
X174222427Y-84373000D01*
X172519215Y-84373000D01*
X172602527Y-84318273D01*
X172744977Y-84107240D01*
X172795040Y-83857600D01*
X172795040Y-81622400D01*
X172748063Y-81380277D01*
X172608273Y-81167473D01*
X172397240Y-81025023D01*
X172147600Y-80974960D01*
X169912400Y-80974960D01*
X169670277Y-81021937D01*
X169457473Y-81161727D01*
X169315023Y-81372760D01*
X169285331Y-81520819D01*
X169258063Y-81380277D01*
X169118273Y-81167473D01*
X168907240Y-81025023D01*
X168657600Y-80974960D01*
X166422400Y-80974960D01*
X166180277Y-81021937D01*
X165967473Y-81161727D01*
X165825023Y-81372760D01*
X165774960Y-81622400D01*
X165774960Y-83857600D01*
X165821937Y-84099723D01*
X165961727Y-84312527D01*
X166051314Y-84373000D01*
X163228322Y-84373000D01*
X163372527Y-84278273D01*
X163514977Y-84067240D01*
X163565040Y-83817600D01*
X163565040Y-81582400D01*
X163518063Y-81340277D01*
X163378273Y-81127473D01*
X163173810Y-80989457D01*
X171190434Y-72972834D01*
X171371439Y-72701941D01*
X171371439Y-72701940D01*
X171435000Y-72382400D01*
X171435000Y-71927234D01*
X171534838Y-71686799D01*
X171535162Y-71314833D01*
X171393117Y-70971057D01*
X171333515Y-70911350D01*
X171609866Y-70635000D01*
X175534960Y-70635000D01*
X175534960Y-70917600D01*
X175581937Y-71159723D01*
X175721727Y-71372527D01*
X175932760Y-71514977D01*
X176182400Y-71565040D01*
X178417600Y-71565040D01*
X178659723Y-71518063D01*
X178872527Y-71378273D01*
X179014977Y-71167240D01*
X179065040Y-70917600D01*
X179065040Y-68745908D01*
X180565000Y-70245868D01*
X180565000Y-71673898D01*
X180565000Y-71673898D01*
G37*
X180565000Y-71673898D02*
X180333732Y-71719900D01*
X179884221Y-72020254D01*
X179583867Y-72469765D01*
X179478397Y-73000000D01*
X179583867Y-73530235D01*
X179884221Y-73979746D01*
X180318616Y-74270000D01*
X179884221Y-74560254D01*
X179583867Y-75009765D01*
X179478397Y-75540000D01*
X179583867Y-76070235D01*
X179884221Y-76519746D01*
X180318616Y-76810000D01*
X179884221Y-77100254D01*
X179787504Y-77245000D01*
X175475870Y-77245000D01*
X172792534Y-74561664D01*
X172693117Y-74321055D01*
X172430327Y-74057806D01*
X172086799Y-73915160D01*
X171714833Y-73914836D01*
X171371057Y-74056881D01*
X171107808Y-74319671D01*
X170965162Y-74663199D01*
X170964838Y-75035165D01*
X171106883Y-75378941D01*
X171369673Y-75642190D01*
X171611910Y-75742776D01*
X174539568Y-78670434D01*
X174810461Y-78851439D01*
X174810462Y-78851440D01*
X175130002Y-78915000D01*
X177948634Y-78915000D01*
X177880459Y-78928561D01*
X177745012Y-79019063D01*
X177609565Y-79109566D01*
X177211665Y-79507465D01*
X176971057Y-79606883D01*
X176707808Y-79869673D01*
X176565162Y-80213201D01*
X176564838Y-80585167D01*
X176706883Y-80928943D01*
X176812715Y-81034960D01*
X174682400Y-81034960D01*
X174440277Y-81081937D01*
X174227473Y-81221727D01*
X174085023Y-81432760D01*
X174034960Y-81682400D01*
X174034960Y-83917600D01*
X174081937Y-84159723D01*
X174221727Y-84372527D01*
X174222427Y-84373000D01*
X172519215Y-84373000D01*
X172602527Y-84318273D01*
X172744977Y-84107240D01*
X172795040Y-83857600D01*
X172795040Y-81622400D01*
X172748063Y-81380277D01*
X172608273Y-81167473D01*
X172397240Y-81025023D01*
X172147600Y-80974960D01*
X169912400Y-80974960D01*
X169670277Y-81021937D01*
X169457473Y-81161727D01*
X169315023Y-81372760D01*
X169285331Y-81520819D01*
X169258063Y-81380277D01*
X169118273Y-81167473D01*
X168907240Y-81025023D01*
X168657600Y-80974960D01*
X166422400Y-80974960D01*
X166180277Y-81021937D01*
X165967473Y-81161727D01*
X165825023Y-81372760D01*
X165774960Y-81622400D01*
X165774960Y-83857600D01*
X165821937Y-84099723D01*
X165961727Y-84312527D01*
X166051314Y-84373000D01*
X163228322Y-84373000D01*
X163372527Y-84278273D01*
X163514977Y-84067240D01*
X163565040Y-83817600D01*
X163565040Y-81582400D01*
X163518063Y-81340277D01*
X163378273Y-81127473D01*
X163173810Y-80989457D01*
X171190434Y-72972834D01*
X171371439Y-72701941D01*
X171371439Y-72701940D01*
X171435000Y-72382400D01*
X171435000Y-71927234D01*
X171534838Y-71686799D01*
X171535162Y-71314833D01*
X171393117Y-70971057D01*
X171333515Y-70911350D01*
X171609866Y-70635000D01*
X175534960Y-70635000D01*
X175534960Y-70917600D01*
X175581937Y-71159723D01*
X175721727Y-71372527D01*
X175932760Y-71514977D01*
X176182400Y-71565040D01*
X178417600Y-71565040D01*
X178659723Y-71518063D01*
X178872527Y-71378273D01*
X179014977Y-71167240D01*
X179065040Y-70917600D01*
X179065040Y-68745908D01*
X180565000Y-70245868D01*
X180565000Y-71673898D01*
G36*
X184315000Y-81184762D02*
X184167240Y-81085023D01*
X183917600Y-81034960D01*
X181682400Y-81034960D01*
X181440277Y-81081937D01*
X181227473Y-81221727D01*
X181085023Y-81432760D01*
X181050248Y-81606163D01*
X181018063Y-81440277D01*
X180878273Y-81227473D01*
X180667240Y-81085023D01*
X180417600Y-81034960D01*
X178187376Y-81034960D01*
X178292192Y-80930327D01*
X178392777Y-80688090D01*
X178545868Y-80535000D01*
X181272765Y-80535000D01*
X181513201Y-80634838D01*
X181885167Y-80635162D01*
X182228943Y-80493117D01*
X182492192Y-80230327D01*
X182634838Y-79886799D01*
X182635162Y-79514833D01*
X182548519Y-79305141D01*
X182915779Y-79059746D01*
X183216133Y-78610235D01*
X183321603Y-78080000D01*
X183216133Y-77549765D01*
X182915779Y-77100254D01*
X182481383Y-76810000D01*
X182915779Y-76519746D01*
X183216133Y-76070235D01*
X183321603Y-75540000D01*
X183216133Y-75009765D01*
X182915779Y-74560254D01*
X182481383Y-74270000D01*
X182915779Y-73979746D01*
X183216133Y-73530235D01*
X183321603Y-73000000D01*
X183216133Y-72469765D01*
X182915779Y-72020254D01*
X182466268Y-71719900D01*
X182235000Y-71673898D01*
X182235000Y-69900000D01*
X182171439Y-69580460D01*
X182171439Y-69580459D01*
X181990434Y-69309566D01*
X180345908Y-67665040D01*
X180517600Y-67665040D01*
X180759723Y-67618063D01*
X180972527Y-67478273D01*
X181114977Y-67267240D01*
X181165040Y-67017600D01*
X181165040Y-64782400D01*
X181118063Y-64540277D01*
X180978273Y-64327473D01*
X180767240Y-64185023D01*
X180517600Y-64134960D01*
X178282400Y-64134960D01*
X178040277Y-64181937D01*
X177827473Y-64321727D01*
X177685023Y-64532760D01*
X177650248Y-64706163D01*
X177618063Y-64540277D01*
X177478273Y-64327473D01*
X177267240Y-64185023D01*
X177017600Y-64134960D01*
X174782400Y-64134960D01*
X174540277Y-64181937D01*
X174327473Y-64321727D01*
X174185023Y-64532760D01*
X174134960Y-64782400D01*
X174134960Y-67017600D01*
X174181937Y-67259723D01*
X174321727Y-67472527D01*
X174532760Y-67614977D01*
X174782400Y-67665040D01*
X176465000Y-67665040D01*
X176465000Y-68034960D01*
X176182400Y-68034960D01*
X175940277Y-68081937D01*
X175727473Y-68221727D01*
X175585023Y-68432760D01*
X175534960Y-68682400D01*
X175534960Y-68965000D01*
X171263998Y-68965000D01*
X170944458Y-69028560D01*
X170673564Y-69209566D01*
X169412715Y-70470414D01*
X169412715Y-69160000D01*
X169330156Y-68744949D01*
X169095049Y-68393086D01*
X168743186Y-68157979D01*
X168328135Y-68075420D01*
X167671865Y-68075420D01*
X167256814Y-68157979D01*
X166904951Y-68393086D01*
X166669844Y-68744949D01*
X166587285Y-69160000D01*
X166669844Y-69575051D01*
X166819641Y-69799238D01*
X166655019Y-70136065D01*
X166781932Y-70303000D01*
X167873000Y-70303000D01*
X167873000Y-70283000D01*
X168127000Y-70283000D01*
X168127000Y-70303000D01*
X169218068Y-70303000D01*
X169344981Y-70136065D01*
X169180358Y-69799238D01*
X169330156Y-69575051D01*
X169412715Y-69160000D01*
X169412715Y-70470414D01*
X169264739Y-70618390D01*
X169218068Y-70557000D01*
X168127000Y-70557000D01*
X168127000Y-70577000D01*
X167873000Y-70577000D01*
X167873000Y-70557000D01*
X166781932Y-70557000D01*
X166655019Y-70723935D01*
X166819641Y-71060761D01*
X166669844Y-71284949D01*
X166587285Y-71700000D01*
X166669844Y-72115051D01*
X166904951Y-72466914D01*
X167256814Y-72702021D01*
X167303201Y-72711248D01*
X167409566Y-72870434D01*
X167680459Y-73051439D01*
X168000000Y-73115000D01*
X168319541Y-73051439D01*
X168590434Y-72870434D01*
X168696798Y-72711248D01*
X168743186Y-72702021D01*
X168993150Y-72535000D01*
X169150570Y-72535000D01*
X169266532Y-72535000D01*
X161209566Y-80591966D01*
X161028561Y-80862859D01*
X161014219Y-80934960D01*
X160682400Y-80934960D01*
X160440277Y-80981937D01*
X160227473Y-81121727D01*
X160085023Y-81332760D01*
X160034960Y-81582400D01*
X160034960Y-83817600D01*
X160081937Y-84059723D01*
X160221727Y-84272527D01*
X160370573Y-84373000D01*
X157685612Y-84373000D01*
X157878945Y-84293117D01*
X158142194Y-84030327D01*
X158284840Y-83686799D01*
X158285164Y-83314833D01*
X158185002Y-83072421D01*
X158185002Y-82331858D01*
X162890434Y-77626426D01*
X163071439Y-77355533D01*
X163071439Y-77355532D01*
X163135000Y-77035992D01*
X163135000Y-75927234D01*
X163234838Y-75686799D01*
X163235162Y-75314833D01*
X163093117Y-74971057D01*
X162830327Y-74707808D01*
X162486799Y-74565162D01*
X162114833Y-74564838D01*
X161771057Y-74706883D01*
X161507808Y-74969673D01*
X161365162Y-75313201D01*
X161364838Y-75685167D01*
X161465000Y-75927578D01*
X161465000Y-76690124D01*
X160980339Y-77174784D01*
X161035000Y-76899990D01*
X161035000Y-73227234D01*
X161092778Y-73088089D01*
X166626948Y-67553919D01*
X166682400Y-67565040D01*
X168917600Y-67565040D01*
X169159723Y-67518063D01*
X169372527Y-67378273D01*
X169514977Y-67167240D01*
X169549751Y-66993836D01*
X169581937Y-67159723D01*
X169721727Y-67372527D01*
X169932760Y-67514977D01*
X170182400Y-67565040D01*
X172417600Y-67565040D01*
X172659723Y-67518063D01*
X172872527Y-67378273D01*
X173014977Y-67167240D01*
X173065040Y-66917600D01*
X173065040Y-64682400D01*
X173018063Y-64440277D01*
X172878273Y-64227473D01*
X172667240Y-64085023D01*
X172417600Y-64034960D01*
X170182400Y-64034960D01*
X169940277Y-64081937D01*
X169727473Y-64221727D01*
X169585023Y-64432760D01*
X169550248Y-64606163D01*
X169518063Y-64440277D01*
X169378273Y-64227473D01*
X169167240Y-64085023D01*
X168917600Y-64034960D01*
X166682400Y-64034960D01*
X166440277Y-64081937D01*
X166227473Y-64221727D01*
X166085023Y-64432760D01*
X166034960Y-64682400D01*
X166034960Y-65784172D01*
X165065040Y-66754092D01*
X165065040Y-64642400D01*
X165018063Y-64400277D01*
X164878273Y-64187473D01*
X164667240Y-64045023D01*
X164417600Y-63994960D01*
X162182400Y-63994960D01*
X161940277Y-64041937D01*
X161727473Y-64181727D01*
X161585023Y-64392760D01*
X161550248Y-64566163D01*
X161518063Y-64400277D01*
X161378273Y-64187473D01*
X161167240Y-64045023D01*
X160917600Y-63994960D01*
X158682400Y-63994960D01*
X158440277Y-64041937D01*
X158227473Y-64181727D01*
X158085023Y-64392760D01*
X158034960Y-64642400D01*
X158034960Y-66877600D01*
X158081937Y-67119723D01*
X158221727Y-67332527D01*
X158432760Y-67474977D01*
X158682400Y-67525040D01*
X160917600Y-67525040D01*
X161159723Y-67478063D01*
X161372527Y-67338273D01*
X161514977Y-67127240D01*
X161549751Y-66953836D01*
X161581937Y-67119723D01*
X161721727Y-67332527D01*
X161932760Y-67474977D01*
X162182400Y-67525040D01*
X164294092Y-67525040D01*
X162789060Y-69030071D01*
X162557377Y-68797983D01*
X162213849Y-68655337D01*
X161841883Y-68655013D01*
X161498107Y-68797058D01*
X161234858Y-69059848D01*
X161134271Y-69302085D01*
X160164121Y-70272235D01*
X160033989Y-69957288D01*
X160033988Y-69957288D01*
X160005613Y-69814634D01*
X160005613Y-69814633D01*
X159824608Y-69543740D01*
X156992534Y-66711666D01*
X156893117Y-66471057D01*
X156630327Y-66207808D01*
X156286799Y-66065162D01*
X155914833Y-66064838D01*
X155571057Y-66206883D01*
X155307808Y-66469673D01*
X155165162Y-66813201D01*
X155164838Y-67185167D01*
X155306883Y-67528943D01*
X155569673Y-67792192D01*
X155811910Y-67892778D01*
X158254154Y-70335022D01*
X155109844Y-70335022D01*
X155002600Y-70227778D01*
X155002600Y-66993910D01*
X155002600Y-66741291D01*
X155002600Y-66035750D01*
X155002600Y-65464250D01*
X155002600Y-64758709D01*
X155002600Y-64506090D01*
X154905927Y-64272701D01*
X154727298Y-64094073D01*
X154493909Y-63997400D01*
X153535750Y-63997400D01*
X153377000Y-64156150D01*
X153377000Y-65623000D01*
X154843850Y-65623000D01*
X155002600Y-65464250D01*
X155002600Y-66035750D01*
X154843850Y-65877000D01*
X153377000Y-65877000D01*
X153377000Y-67343850D01*
X153535750Y-67502600D01*
X154493909Y-67502600D01*
X154727298Y-67405927D01*
X154905927Y-67227299D01*
X155002600Y-66993910D01*
X155002600Y-70227778D01*
X153679872Y-68905050D01*
X153580455Y-68664441D01*
X153317665Y-68401192D01*
X152974137Y-68258546D01*
X152602171Y-68258222D01*
X152258395Y-68400267D01*
X151995146Y-68663057D01*
X151852500Y-69006585D01*
X151852176Y-69378551D01*
X151994221Y-69722327D01*
X152257011Y-69985576D01*
X152499248Y-70086162D01*
X153546566Y-71133480D01*
X153389542Y-71028560D01*
X153070001Y-70964999D01*
X151129999Y-70964999D01*
X151025011Y-70985882D01*
X151025011Y-67707611D01*
X150982280Y-67492789D01*
X151109723Y-67468063D01*
X151322527Y-67328273D01*
X151464977Y-67117240D01*
X151497400Y-66955562D01*
X151497400Y-66993910D01*
X151594073Y-67227299D01*
X151772702Y-67405927D01*
X152006091Y-67502600D01*
X152964250Y-67502600D01*
X153123000Y-67343850D01*
X153123000Y-65877000D01*
X153103000Y-65877000D01*
X153103000Y-65623000D01*
X153123000Y-65623000D01*
X153123000Y-64156150D01*
X152964250Y-63997400D01*
X152006091Y-63997400D01*
X151772702Y-64094073D01*
X151594073Y-64272701D01*
X151497400Y-64506090D01*
X151497400Y-64541482D01*
X151468063Y-64390277D01*
X151328273Y-64177473D01*
X151117240Y-64035023D01*
X150867600Y-63984960D01*
X148632400Y-63984960D01*
X148390277Y-64031937D01*
X148177473Y-64171727D01*
X148035023Y-64382760D01*
X148000248Y-64556163D01*
X147968063Y-64390277D01*
X147828273Y-64177473D01*
X147617240Y-64035023D01*
X147367600Y-63984960D01*
X147035780Y-63984960D01*
X147021438Y-63912858D01*
X147021438Y-63912857D01*
X146840433Y-63641965D01*
X146818036Y-63627000D01*
X184315000Y-63627000D01*
X184315000Y-64315000D01*
X182000000Y-64315000D01*
X181737862Y-64367143D01*
X181515632Y-64515632D01*
X181367143Y-64737862D01*
X181315000Y-65000000D01*
X181315000Y-68000000D01*
X181367143Y-68262138D01*
X181515632Y-68484368D01*
X181737862Y-68632857D01*
X182000000Y-68685000D01*
X184315000Y-68685000D01*
X184315000Y-81184762D01*
X184315000Y-81184762D01*
G37*
X184315000Y-81184762D02*
X184167240Y-81085023D01*
X183917600Y-81034960D01*
X181682400Y-81034960D01*
X181440277Y-81081937D01*
X181227473Y-81221727D01*
X181085023Y-81432760D01*
X181050248Y-81606163D01*
X181018063Y-81440277D01*
X180878273Y-81227473D01*
X180667240Y-81085023D01*
X180417600Y-81034960D01*
X178187376Y-81034960D01*
X178292192Y-80930327D01*
X178392777Y-80688090D01*
X178545868Y-80535000D01*
X181272765Y-80535000D01*
X181513201Y-80634838D01*
X181885167Y-80635162D01*
X182228943Y-80493117D01*
X182492192Y-80230327D01*
X182634838Y-79886799D01*
X182635162Y-79514833D01*
X182548519Y-79305141D01*
X182915779Y-79059746D01*
X183216133Y-78610235D01*
X183321603Y-78080000D01*
X183216133Y-77549765D01*
X182915779Y-77100254D01*
X182481383Y-76810000D01*
X182915779Y-76519746D01*
X183216133Y-76070235D01*
X183321603Y-75540000D01*
X183216133Y-75009765D01*
X182915779Y-74560254D01*
X182481383Y-74270000D01*
X182915779Y-73979746D01*
X183216133Y-73530235D01*
X183321603Y-73000000D01*
X183216133Y-72469765D01*
X182915779Y-72020254D01*
X182466268Y-71719900D01*
X182235000Y-71673898D01*
X182235000Y-69900000D01*
X182171439Y-69580460D01*
X182171439Y-69580459D01*
X181990434Y-69309566D01*
X180345908Y-67665040D01*
X180517600Y-67665040D01*
X180759723Y-67618063D01*
X180972527Y-67478273D01*
X181114977Y-67267240D01*
X181165040Y-67017600D01*
X181165040Y-64782400D01*
X181118063Y-64540277D01*
X180978273Y-64327473D01*
X180767240Y-64185023D01*
X180517600Y-64134960D01*
X178282400Y-64134960D01*
X178040277Y-64181937D01*
X177827473Y-64321727D01*
X177685023Y-64532760D01*
X177650248Y-64706163D01*
X177618063Y-64540277D01*
X177478273Y-64327473D01*
X177267240Y-64185023D01*
X177017600Y-64134960D01*
X174782400Y-64134960D01*
X174540277Y-64181937D01*
X174327473Y-64321727D01*
X174185023Y-64532760D01*
X174134960Y-64782400D01*
X174134960Y-67017600D01*
X174181937Y-67259723D01*
X174321727Y-67472527D01*
X174532760Y-67614977D01*
X174782400Y-67665040D01*
X176465000Y-67665040D01*
X176465000Y-68034960D01*
X176182400Y-68034960D01*
X175940277Y-68081937D01*
X175727473Y-68221727D01*
X175585023Y-68432760D01*
X175534960Y-68682400D01*
X175534960Y-68965000D01*
X171263998Y-68965000D01*
X170944458Y-69028560D01*
X170673564Y-69209566D01*
X169412715Y-70470414D01*
X169412715Y-69160000D01*
X169330156Y-68744949D01*
X169095049Y-68393086D01*
X168743186Y-68157979D01*
X168328135Y-68075420D01*
X167671865Y-68075420D01*
X167256814Y-68157979D01*
X166904951Y-68393086D01*
X166669844Y-68744949D01*
X166587285Y-69160000D01*
X166669844Y-69575051D01*
X166819641Y-69799238D01*
X166655019Y-70136065D01*
X166781932Y-70303000D01*
X167873000Y-70303000D01*
X167873000Y-70283000D01*
X168127000Y-70283000D01*
X168127000Y-70303000D01*
X169218068Y-70303000D01*
X169344981Y-70136065D01*
X169180358Y-69799238D01*
X169330156Y-69575051D01*
X169412715Y-69160000D01*
X169412715Y-70470414D01*
X169264739Y-70618390D01*
X169218068Y-70557000D01*
X168127000Y-70557000D01*
X168127000Y-70577000D01*
X167873000Y-70577000D01*
X167873000Y-70557000D01*
X166781932Y-70557000D01*
X166655019Y-70723935D01*
X166819641Y-71060761D01*
X166669844Y-71284949D01*
X166587285Y-71700000D01*
X166669844Y-72115051D01*
X166904951Y-72466914D01*
X167256814Y-72702021D01*
X167303201Y-72711248D01*
X167409566Y-72870434D01*
X167680459Y-73051439D01*
X168000000Y-73115000D01*
X168319541Y-73051439D01*
X168590434Y-72870434D01*
X168696798Y-72711248D01*
X168743186Y-72702021D01*
X168993150Y-72535000D01*
X169150570Y-72535000D01*
X169266532Y-72535000D01*
X161209566Y-80591966D01*
X161028561Y-80862859D01*
X161014219Y-80934960D01*
X160682400Y-80934960D01*
X160440277Y-80981937D01*
X160227473Y-81121727D01*
X160085023Y-81332760D01*
X160034960Y-81582400D01*
X160034960Y-83817600D01*
X160081937Y-84059723D01*
X160221727Y-84272527D01*
X160370573Y-84373000D01*
X157685612Y-84373000D01*
X157878945Y-84293117D01*
X158142194Y-84030327D01*
X158284840Y-83686799D01*
X158285164Y-83314833D01*
X158185002Y-83072421D01*
X158185002Y-82331858D01*
X162890434Y-77626426D01*
X163071439Y-77355533D01*
X163071439Y-77355532D01*
X163135000Y-77035992D01*
X163135000Y-75927234D01*
X163234838Y-75686799D01*
X163235162Y-75314833D01*
X163093117Y-74971057D01*
X162830327Y-74707808D01*
X162486799Y-74565162D01*
X162114833Y-74564838D01*
X161771057Y-74706883D01*
X161507808Y-74969673D01*
X161365162Y-75313201D01*
X161364838Y-75685167D01*
X161465000Y-75927578D01*
X161465000Y-76690124D01*
X160980339Y-77174784D01*
X161035000Y-76899990D01*
X161035000Y-73227234D01*
X161092778Y-73088089D01*
X166626948Y-67553919D01*
X166682400Y-67565040D01*
X168917600Y-67565040D01*
X169159723Y-67518063D01*
X169372527Y-67378273D01*
X169514977Y-67167240D01*
X169549751Y-66993836D01*
X169581937Y-67159723D01*
X169721727Y-67372527D01*
X169932760Y-67514977D01*
X170182400Y-67565040D01*
X172417600Y-67565040D01*
X172659723Y-67518063D01*
X172872527Y-67378273D01*
X173014977Y-67167240D01*
X173065040Y-66917600D01*
X173065040Y-64682400D01*
X173018063Y-64440277D01*
X172878273Y-64227473D01*
X172667240Y-64085023D01*
X172417600Y-64034960D01*
X170182400Y-64034960D01*
X169940277Y-64081937D01*
X169727473Y-64221727D01*
X169585023Y-64432760D01*
X169550248Y-64606163D01*
X169518063Y-64440277D01*
X169378273Y-64227473D01*
X169167240Y-64085023D01*
X168917600Y-64034960D01*
X166682400Y-64034960D01*
X166440277Y-64081937D01*
X166227473Y-64221727D01*
X166085023Y-64432760D01*
X166034960Y-64682400D01*
X166034960Y-65784172D01*
X165065040Y-66754092D01*
X165065040Y-64642400D01*
X165018063Y-64400277D01*
X164878273Y-64187473D01*
X164667240Y-64045023D01*
X164417600Y-63994960D01*
X162182400Y-63994960D01*
X161940277Y-64041937D01*
X161727473Y-64181727D01*
X161585023Y-64392760D01*
X161550248Y-64566163D01*
X161518063Y-64400277D01*
X161378273Y-64187473D01*
X161167240Y-64045023D01*
X160917600Y-63994960D01*
X158682400Y-63994960D01*
X158440277Y-64041937D01*
X158227473Y-64181727D01*
X158085023Y-64392760D01*
X158034960Y-64642400D01*
X158034960Y-66877600D01*
X158081937Y-67119723D01*
X158221727Y-67332527D01*
X158432760Y-67474977D01*
X158682400Y-67525040D01*
X160917600Y-67525040D01*
X161159723Y-67478063D01*
X161372527Y-67338273D01*
X161514977Y-67127240D01*
X161549751Y-66953836D01*
X161581937Y-67119723D01*
X161721727Y-67332527D01*
X161932760Y-67474977D01*
X162182400Y-67525040D01*
X164294092Y-67525040D01*
X162789060Y-69030071D01*
X162557377Y-68797983D01*
X162213849Y-68655337D01*
X161841883Y-68655013D01*
X161498107Y-68797058D01*
X161234858Y-69059848D01*
X161134271Y-69302085D01*
X160164121Y-70272235D01*
X160033989Y-69957288D01*
X160033988Y-69957288D01*
X160005613Y-69814634D01*
X160005613Y-69814633D01*
X159824608Y-69543740D01*
X156992534Y-66711666D01*
X156893117Y-66471057D01*
X156630327Y-66207808D01*
X156286799Y-66065162D01*
X155914833Y-66064838D01*
X155571057Y-66206883D01*
X155307808Y-66469673D01*
X155165162Y-66813201D01*
X155164838Y-67185167D01*
X155306883Y-67528943D01*
X155569673Y-67792192D01*
X155811910Y-67892778D01*
X158254154Y-70335022D01*
X155109844Y-70335022D01*
X155002600Y-70227778D01*
X155002600Y-66993910D01*
X155002600Y-66741291D01*
X155002600Y-66035750D01*
X155002600Y-65464250D01*
X155002600Y-64758709D01*
X155002600Y-64506090D01*
X154905927Y-64272701D01*
X154727298Y-64094073D01*
X154493909Y-63997400D01*
X153535750Y-63997400D01*
X153377000Y-64156150D01*
X153377000Y-65623000D01*
X154843850Y-65623000D01*
X155002600Y-65464250D01*
X155002600Y-66035750D01*
X154843850Y-65877000D01*
X153377000Y-65877000D01*
X153377000Y-67343850D01*
X153535750Y-67502600D01*
X154493909Y-67502600D01*
X154727298Y-67405927D01*
X154905927Y-67227299D01*
X155002600Y-66993910D01*
X155002600Y-70227778D01*
X153679872Y-68905050D01*
X153580455Y-68664441D01*
X153317665Y-68401192D01*
X152974137Y-68258546D01*
X152602171Y-68258222D01*
X152258395Y-68400267D01*
X151995146Y-68663057D01*
X151852500Y-69006585D01*
X151852176Y-69378551D01*
X151994221Y-69722327D01*
X152257011Y-69985576D01*
X152499248Y-70086162D01*
X153546566Y-71133480D01*
X153389542Y-71028560D01*
X153070001Y-70964999D01*
X151129999Y-70964999D01*
X151025011Y-70985882D01*
X151025011Y-67707611D01*
X150982280Y-67492789D01*
X151109723Y-67468063D01*
X151322527Y-67328273D01*
X151464977Y-67117240D01*
X151497400Y-66955562D01*
X151497400Y-66993910D01*
X151594073Y-67227299D01*
X151772702Y-67405927D01*
X152006091Y-67502600D01*
X152964250Y-67502600D01*
X153123000Y-67343850D01*
X153123000Y-65877000D01*
X153103000Y-65877000D01*
X153103000Y-65623000D01*
X153123000Y-65623000D01*
X153123000Y-64156150D01*
X152964250Y-63997400D01*
X152006091Y-63997400D01*
X151772702Y-64094073D01*
X151594073Y-64272701D01*
X151497400Y-64506090D01*
X151497400Y-64541482D01*
X151468063Y-64390277D01*
X151328273Y-64177473D01*
X151117240Y-64035023D01*
X150867600Y-63984960D01*
X148632400Y-63984960D01*
X148390277Y-64031937D01*
X148177473Y-64171727D01*
X148035023Y-64382760D01*
X148000248Y-64556163D01*
X147968063Y-64390277D01*
X147828273Y-64177473D01*
X147617240Y-64035023D01*
X147367600Y-63984960D01*
X147035780Y-63984960D01*
X147021438Y-63912858D01*
X147021438Y-63912857D01*
X146840433Y-63641965D01*
X146818036Y-63627000D01*
X184315000Y-63627000D01*
X184315000Y-64315000D01*
X182000000Y-64315000D01*
X181737862Y-64367143D01*
X181515632Y-64515632D01*
X181367143Y-64737862D01*
X181315000Y-65000000D01*
X181315000Y-68000000D01*
X181367143Y-68262138D01*
X181515632Y-68484368D01*
X181737862Y-68632857D01*
X182000000Y-68685000D01*
X184315000Y-68685000D01*
X184315000Y-81184762D01*
M02*
