G04 #@! TF.FileFunction,Legend,Bot*
%FSLAX46Y46*%
G04 Gerber Fmt 4.6, Leading zero omitted, Abs format (unit mm)*
G04 Created by KiCad (PCBNEW (2015-04-22 BZR 5620)-product) date 02/05/2015 11:23:22*
%MOMM*%
G01*
G04 APERTURE LIST*
%ADD10C,0.100000*%
%ADD11C,0.150000*%
G04 APERTURE END LIST*
D10*
D11*
X157350000Y-73850000D02*
X157350000Y-74850000D01*
X155650000Y-74850000D02*
X155650000Y-73850000D01*
X159350000Y-73850000D02*
X159350000Y-74850000D01*
X157650000Y-74850000D02*
X157650000Y-73850000D01*
X125650000Y-77250000D02*
X125650000Y-76250000D01*
X127350000Y-76250000D02*
X127350000Y-77250000D01*
X127350000Y-71500000D02*
X127350000Y-72500000D01*
X125650000Y-72500000D02*
X125650000Y-71500000D01*
X146350000Y-71750000D02*
X146350000Y-72750000D01*
X144650000Y-72750000D02*
X144650000Y-71750000D01*
X144650000Y-77350000D02*
X144650000Y-76350000D01*
X146350000Y-76350000D02*
X146350000Y-77350000D01*
X129350000Y-76250000D02*
X129350000Y-77250000D01*
X127650000Y-77250000D02*
X127650000Y-76250000D01*
X127650000Y-72500000D02*
X127650000Y-71500000D01*
X129350000Y-71500000D02*
X129350000Y-72500000D01*
X146650000Y-72750000D02*
X146650000Y-71750000D01*
X148350000Y-71750000D02*
X148350000Y-72750000D01*
X148350000Y-76350000D02*
X148350000Y-77350000D01*
X146650000Y-77350000D02*
X146650000Y-76350000D01*
X132550000Y-69375000D02*
X133750000Y-69375000D01*
X133750000Y-67625000D02*
X132550000Y-67625000D01*
X143750000Y-67875000D02*
X142550000Y-67875000D01*
X142550000Y-69625000D02*
X143750000Y-69625000D01*
X143650000Y-79125000D02*
X142450000Y-79125000D01*
X142450000Y-80875000D02*
X143650000Y-80875000D01*
X151225000Y-73700000D02*
X151225000Y-74900000D01*
X152975000Y-74900000D02*
X152975000Y-73700000D01*
X137825000Y-73650000D02*
X137825000Y-74850000D01*
X139575000Y-74850000D02*
X139575000Y-73650000D01*
X132750000Y-80625000D02*
X133950000Y-80625000D01*
X133950000Y-78875000D02*
X132750000Y-78875000D01*
X158957143Y-73707143D02*
X159004762Y-73659524D01*
X159052381Y-73516667D01*
X159052381Y-73421429D01*
X159004762Y-73278571D01*
X158909524Y-73183333D01*
X158814286Y-73135714D01*
X158623810Y-73088095D01*
X158480952Y-73088095D01*
X158290476Y-73135714D01*
X158195238Y-73183333D01*
X158100000Y-73278571D01*
X158052381Y-73421429D01*
X158052381Y-73516667D01*
X158100000Y-73659524D01*
X158147619Y-73707143D01*
X159052381Y-74659524D02*
X159052381Y-74088095D01*
X159052381Y-74373809D02*
X158052381Y-74373809D01*
X158195238Y-74278571D01*
X158290476Y-74183333D01*
X158338095Y-74088095D01*
X159052381Y-75611905D02*
X159052381Y-75040476D01*
X159052381Y-75326190D02*
X158052381Y-75326190D01*
X158195238Y-75230952D01*
X158290476Y-75135714D01*
X158338095Y-75040476D01*
X160957143Y-73707143D02*
X161004762Y-73659524D01*
X161052381Y-73516667D01*
X161052381Y-73421429D01*
X161004762Y-73278571D01*
X160909524Y-73183333D01*
X160814286Y-73135714D01*
X160623810Y-73088095D01*
X160480952Y-73088095D01*
X160290476Y-73135714D01*
X160195238Y-73183333D01*
X160100000Y-73278571D01*
X160052381Y-73421429D01*
X160052381Y-73516667D01*
X160100000Y-73659524D01*
X160147619Y-73707143D01*
X161052381Y-74659524D02*
X161052381Y-74088095D01*
X161052381Y-74373809D02*
X160052381Y-74373809D01*
X160195238Y-74278571D01*
X160290476Y-74183333D01*
X160338095Y-74088095D01*
X160147619Y-75040476D02*
X160100000Y-75088095D01*
X160052381Y-75183333D01*
X160052381Y-75421429D01*
X160100000Y-75516667D01*
X160147619Y-75564286D01*
X160242857Y-75611905D01*
X160338095Y-75611905D01*
X160480952Y-75564286D01*
X161052381Y-74992857D01*
X161052381Y-75611905D01*
X124757143Y-76107143D02*
X124804762Y-76059524D01*
X124852381Y-75916667D01*
X124852381Y-75821429D01*
X124804762Y-75678571D01*
X124709524Y-75583333D01*
X124614286Y-75535714D01*
X124423810Y-75488095D01*
X124280952Y-75488095D01*
X124090476Y-75535714D01*
X123995238Y-75583333D01*
X123900000Y-75678571D01*
X123852381Y-75821429D01*
X123852381Y-75916667D01*
X123900000Y-76059524D01*
X123947619Y-76107143D01*
X124852381Y-77059524D02*
X124852381Y-76488095D01*
X124852381Y-76773809D02*
X123852381Y-76773809D01*
X123995238Y-76678571D01*
X124090476Y-76583333D01*
X124138095Y-76488095D01*
X123852381Y-77392857D02*
X123852381Y-78011905D01*
X124233333Y-77678571D01*
X124233333Y-77821429D01*
X124280952Y-77916667D01*
X124328571Y-77964286D01*
X124423810Y-78011905D01*
X124661905Y-78011905D01*
X124757143Y-77964286D01*
X124804762Y-77916667D01*
X124852381Y-77821429D01*
X124852381Y-77535714D01*
X124804762Y-77440476D01*
X124757143Y-77392857D01*
X128957143Y-71357143D02*
X129004762Y-71309524D01*
X129052381Y-71166667D01*
X129052381Y-71071429D01*
X129004762Y-70928571D01*
X128909524Y-70833333D01*
X128814286Y-70785714D01*
X128623810Y-70738095D01*
X128480952Y-70738095D01*
X128290476Y-70785714D01*
X128195238Y-70833333D01*
X128100000Y-70928571D01*
X128052381Y-71071429D01*
X128052381Y-71166667D01*
X128100000Y-71309524D01*
X128147619Y-71357143D01*
X129052381Y-72309524D02*
X129052381Y-71738095D01*
X129052381Y-72023809D02*
X128052381Y-72023809D01*
X128195238Y-71928571D01*
X128290476Y-71833333D01*
X128338095Y-71738095D01*
X128385714Y-73166667D02*
X129052381Y-73166667D01*
X128004762Y-72928571D02*
X128719048Y-72690476D01*
X128719048Y-73309524D01*
X147957143Y-71607143D02*
X148004762Y-71559524D01*
X148052381Y-71416667D01*
X148052381Y-71321429D01*
X148004762Y-71178571D01*
X147909524Y-71083333D01*
X147814286Y-71035714D01*
X147623810Y-70988095D01*
X147480952Y-70988095D01*
X147290476Y-71035714D01*
X147195238Y-71083333D01*
X147100000Y-71178571D01*
X147052381Y-71321429D01*
X147052381Y-71416667D01*
X147100000Y-71559524D01*
X147147619Y-71607143D01*
X148052381Y-72559524D02*
X148052381Y-71988095D01*
X148052381Y-72273809D02*
X147052381Y-72273809D01*
X147195238Y-72178571D01*
X147290476Y-72083333D01*
X147338095Y-71988095D01*
X147052381Y-73464286D02*
X147052381Y-72988095D01*
X147528571Y-72940476D01*
X147480952Y-72988095D01*
X147433333Y-73083333D01*
X147433333Y-73321429D01*
X147480952Y-73416667D01*
X147528571Y-73464286D01*
X147623810Y-73511905D01*
X147861905Y-73511905D01*
X147957143Y-73464286D01*
X148004762Y-73416667D01*
X148052381Y-73321429D01*
X148052381Y-73083333D01*
X148004762Y-72988095D01*
X147957143Y-72940476D01*
X143757143Y-76207143D02*
X143804762Y-76159524D01*
X143852381Y-76016667D01*
X143852381Y-75921429D01*
X143804762Y-75778571D01*
X143709524Y-75683333D01*
X143614286Y-75635714D01*
X143423810Y-75588095D01*
X143280952Y-75588095D01*
X143090476Y-75635714D01*
X142995238Y-75683333D01*
X142900000Y-75778571D01*
X142852381Y-75921429D01*
X142852381Y-76016667D01*
X142900000Y-76159524D01*
X142947619Y-76207143D01*
X143852381Y-77159524D02*
X143852381Y-76588095D01*
X143852381Y-76873809D02*
X142852381Y-76873809D01*
X142995238Y-76778571D01*
X143090476Y-76683333D01*
X143138095Y-76588095D01*
X142852381Y-78016667D02*
X142852381Y-77826190D01*
X142900000Y-77730952D01*
X142947619Y-77683333D01*
X143090476Y-77588095D01*
X143280952Y-77540476D01*
X143661905Y-77540476D01*
X143757143Y-77588095D01*
X143804762Y-77635714D01*
X143852381Y-77730952D01*
X143852381Y-77921429D01*
X143804762Y-78016667D01*
X143757143Y-78064286D01*
X143661905Y-78111905D01*
X143423810Y-78111905D01*
X143328571Y-78064286D01*
X143280952Y-78016667D01*
X143233333Y-77921429D01*
X143233333Y-77730952D01*
X143280952Y-77635714D01*
X143328571Y-77588095D01*
X143423810Y-77540476D01*
X130957143Y-76107143D02*
X131004762Y-76059524D01*
X131052381Y-75916667D01*
X131052381Y-75821429D01*
X131004762Y-75678571D01*
X130909524Y-75583333D01*
X130814286Y-75535714D01*
X130623810Y-75488095D01*
X130480952Y-75488095D01*
X130290476Y-75535714D01*
X130195238Y-75583333D01*
X130100000Y-75678571D01*
X130052381Y-75821429D01*
X130052381Y-75916667D01*
X130100000Y-76059524D01*
X130147619Y-76107143D01*
X131052381Y-77059524D02*
X131052381Y-76488095D01*
X131052381Y-76773809D02*
X130052381Y-76773809D01*
X130195238Y-76678571D01*
X130290476Y-76583333D01*
X130338095Y-76488095D01*
X130052381Y-77392857D02*
X130052381Y-78059524D01*
X131052381Y-77630952D01*
X126757143Y-71357143D02*
X126804762Y-71309524D01*
X126852381Y-71166667D01*
X126852381Y-71071429D01*
X126804762Y-70928571D01*
X126709524Y-70833333D01*
X126614286Y-70785714D01*
X126423810Y-70738095D01*
X126280952Y-70738095D01*
X126090476Y-70785714D01*
X125995238Y-70833333D01*
X125900000Y-70928571D01*
X125852381Y-71071429D01*
X125852381Y-71166667D01*
X125900000Y-71309524D01*
X125947619Y-71357143D01*
X126852381Y-72309524D02*
X126852381Y-71738095D01*
X126852381Y-72023809D02*
X125852381Y-72023809D01*
X125995238Y-71928571D01*
X126090476Y-71833333D01*
X126138095Y-71738095D01*
X126280952Y-72880952D02*
X126233333Y-72785714D01*
X126185714Y-72738095D01*
X126090476Y-72690476D01*
X126042857Y-72690476D01*
X125947619Y-72738095D01*
X125900000Y-72785714D01*
X125852381Y-72880952D01*
X125852381Y-73071429D01*
X125900000Y-73166667D01*
X125947619Y-73214286D01*
X126042857Y-73261905D01*
X126090476Y-73261905D01*
X126185714Y-73214286D01*
X126233333Y-73166667D01*
X126280952Y-73071429D01*
X126280952Y-72880952D01*
X126328571Y-72785714D01*
X126376190Y-72738095D01*
X126471429Y-72690476D01*
X126661905Y-72690476D01*
X126757143Y-72738095D01*
X126804762Y-72785714D01*
X126852381Y-72880952D01*
X126852381Y-73071429D01*
X126804762Y-73166667D01*
X126757143Y-73214286D01*
X126661905Y-73261905D01*
X126471429Y-73261905D01*
X126376190Y-73214286D01*
X126328571Y-73166667D01*
X126280952Y-73071429D01*
X145757143Y-71607143D02*
X145804762Y-71559524D01*
X145852381Y-71416667D01*
X145852381Y-71321429D01*
X145804762Y-71178571D01*
X145709524Y-71083333D01*
X145614286Y-71035714D01*
X145423810Y-70988095D01*
X145280952Y-70988095D01*
X145090476Y-71035714D01*
X144995238Y-71083333D01*
X144900000Y-71178571D01*
X144852381Y-71321429D01*
X144852381Y-71416667D01*
X144900000Y-71559524D01*
X144947619Y-71607143D01*
X145852381Y-72559524D02*
X145852381Y-71988095D01*
X145852381Y-72273809D02*
X144852381Y-72273809D01*
X144995238Y-72178571D01*
X145090476Y-72083333D01*
X145138095Y-71988095D01*
X145852381Y-73035714D02*
X145852381Y-73226190D01*
X145804762Y-73321429D01*
X145757143Y-73369048D01*
X145614286Y-73464286D01*
X145423810Y-73511905D01*
X145042857Y-73511905D01*
X144947619Y-73464286D01*
X144900000Y-73416667D01*
X144852381Y-73321429D01*
X144852381Y-73130952D01*
X144900000Y-73035714D01*
X144947619Y-72988095D01*
X145042857Y-72940476D01*
X145280952Y-72940476D01*
X145376190Y-72988095D01*
X145423810Y-73035714D01*
X145471429Y-73130952D01*
X145471429Y-73321429D01*
X145423810Y-73416667D01*
X145376190Y-73464286D01*
X145280952Y-73511905D01*
X149957143Y-76207143D02*
X150004762Y-76159524D01*
X150052381Y-76016667D01*
X150052381Y-75921429D01*
X150004762Y-75778571D01*
X149909524Y-75683333D01*
X149814286Y-75635714D01*
X149623810Y-75588095D01*
X149480952Y-75588095D01*
X149290476Y-75635714D01*
X149195238Y-75683333D01*
X149100000Y-75778571D01*
X149052381Y-75921429D01*
X149052381Y-76016667D01*
X149100000Y-76159524D01*
X149147619Y-76207143D01*
X149147619Y-76588095D02*
X149100000Y-76635714D01*
X149052381Y-76730952D01*
X149052381Y-76969048D01*
X149100000Y-77064286D01*
X149147619Y-77111905D01*
X149242857Y-77159524D01*
X149338095Y-77159524D01*
X149480952Y-77111905D01*
X150052381Y-76540476D01*
X150052381Y-77159524D01*
X149052381Y-77778571D02*
X149052381Y-77873810D01*
X149100000Y-77969048D01*
X149147619Y-78016667D01*
X149242857Y-78064286D01*
X149433333Y-78111905D01*
X149671429Y-78111905D01*
X149861905Y-78064286D01*
X149957143Y-78016667D01*
X150004762Y-77969048D01*
X150052381Y-77873810D01*
X150052381Y-77778571D01*
X150004762Y-77683333D01*
X149957143Y-77635714D01*
X149861905Y-77588095D01*
X149671429Y-77540476D01*
X149433333Y-77540476D01*
X149242857Y-77588095D01*
X149147619Y-77635714D01*
X149100000Y-77683333D01*
X149052381Y-77778571D01*
X133316666Y-66852381D02*
X133650000Y-66376190D01*
X133888095Y-66852381D02*
X133888095Y-65852381D01*
X133507142Y-65852381D01*
X133411904Y-65900000D01*
X133364285Y-65947619D01*
X133316666Y-66042857D01*
X133316666Y-66185714D01*
X133364285Y-66280952D01*
X133411904Y-66328571D01*
X133507142Y-66376190D01*
X133888095Y-66376190D01*
X132411904Y-65852381D02*
X132888095Y-65852381D01*
X132935714Y-66328571D01*
X132888095Y-66280952D01*
X132792857Y-66233333D01*
X132554761Y-66233333D01*
X132459523Y-66280952D01*
X132411904Y-66328571D01*
X132364285Y-66423810D01*
X132364285Y-66661905D01*
X132411904Y-66757143D01*
X132459523Y-66804762D01*
X132554761Y-66852381D01*
X132792857Y-66852381D01*
X132888095Y-66804762D01*
X132935714Y-66757143D01*
X143792857Y-71302381D02*
X144126191Y-70826190D01*
X144364286Y-71302381D02*
X144364286Y-70302381D01*
X143983333Y-70302381D01*
X143888095Y-70350000D01*
X143840476Y-70397619D01*
X143792857Y-70492857D01*
X143792857Y-70635714D01*
X143840476Y-70730952D01*
X143888095Y-70778571D01*
X143983333Y-70826190D01*
X144364286Y-70826190D01*
X142840476Y-71302381D02*
X143411905Y-71302381D01*
X143126191Y-71302381D02*
X143126191Y-70302381D01*
X143221429Y-70445238D01*
X143316667Y-70540476D01*
X143411905Y-70588095D01*
X142507143Y-70302381D02*
X141888095Y-70302381D01*
X142221429Y-70683333D01*
X142078571Y-70683333D01*
X141983333Y-70730952D01*
X141935714Y-70778571D01*
X141888095Y-70873810D01*
X141888095Y-71111905D01*
X141935714Y-71207143D01*
X141983333Y-71254762D01*
X142078571Y-71302381D01*
X142364286Y-71302381D01*
X142459524Y-71254762D01*
X142507143Y-71207143D01*
X143692857Y-82552381D02*
X144026191Y-82076190D01*
X144264286Y-82552381D02*
X144264286Y-81552381D01*
X143883333Y-81552381D01*
X143788095Y-81600000D01*
X143740476Y-81647619D01*
X143692857Y-81742857D01*
X143692857Y-81885714D01*
X143740476Y-81980952D01*
X143788095Y-82028571D01*
X143883333Y-82076190D01*
X144264286Y-82076190D01*
X142740476Y-82552381D02*
X143311905Y-82552381D01*
X143026191Y-82552381D02*
X143026191Y-81552381D01*
X143121429Y-81695238D01*
X143216667Y-81790476D01*
X143311905Y-81838095D01*
X141835714Y-81552381D02*
X142311905Y-81552381D01*
X142359524Y-82028571D01*
X142311905Y-81980952D01*
X142216667Y-81933333D01*
X141978571Y-81933333D01*
X141883333Y-81980952D01*
X141835714Y-82028571D01*
X141788095Y-82123810D01*
X141788095Y-82361905D01*
X141835714Y-82457143D01*
X141883333Y-82504762D01*
X141978571Y-82552381D01*
X142216667Y-82552381D01*
X142311905Y-82504762D01*
X142359524Y-82457143D01*
X154652381Y-73657143D02*
X154176190Y-73323809D01*
X154652381Y-73085714D02*
X153652381Y-73085714D01*
X153652381Y-73466667D01*
X153700000Y-73561905D01*
X153747619Y-73609524D01*
X153842857Y-73657143D01*
X153985714Y-73657143D01*
X154080952Y-73609524D01*
X154128571Y-73561905D01*
X154176190Y-73466667D01*
X154176190Y-73085714D01*
X153747619Y-74038095D02*
X153700000Y-74085714D01*
X153652381Y-74180952D01*
X153652381Y-74419048D01*
X153700000Y-74514286D01*
X153747619Y-74561905D01*
X153842857Y-74609524D01*
X153938095Y-74609524D01*
X154080952Y-74561905D01*
X154652381Y-73990476D01*
X154652381Y-74609524D01*
X153747619Y-74990476D02*
X153700000Y-75038095D01*
X153652381Y-75133333D01*
X153652381Y-75371429D01*
X153700000Y-75466667D01*
X153747619Y-75514286D01*
X153842857Y-75561905D01*
X153938095Y-75561905D01*
X154080952Y-75514286D01*
X154652381Y-74942857D01*
X154652381Y-75561905D01*
X141252381Y-73607143D02*
X140776190Y-73273809D01*
X141252381Y-73035714D02*
X140252381Y-73035714D01*
X140252381Y-73416667D01*
X140300000Y-73511905D01*
X140347619Y-73559524D01*
X140442857Y-73607143D01*
X140585714Y-73607143D01*
X140680952Y-73559524D01*
X140728571Y-73511905D01*
X140776190Y-73416667D01*
X140776190Y-73035714D01*
X140347619Y-73988095D02*
X140300000Y-74035714D01*
X140252381Y-74130952D01*
X140252381Y-74369048D01*
X140300000Y-74464286D01*
X140347619Y-74511905D01*
X140442857Y-74559524D01*
X140538095Y-74559524D01*
X140680952Y-74511905D01*
X141252381Y-73940476D01*
X141252381Y-74559524D01*
X140252381Y-74892857D02*
X140252381Y-75511905D01*
X140633333Y-75178571D01*
X140633333Y-75321429D01*
X140680952Y-75416667D01*
X140728571Y-75464286D01*
X140823810Y-75511905D01*
X141061905Y-75511905D01*
X141157143Y-75464286D01*
X141204762Y-75416667D01*
X141252381Y-75321429D01*
X141252381Y-75035714D01*
X141204762Y-74940476D01*
X141157143Y-74892857D01*
X133516666Y-78102381D02*
X133850000Y-77626190D01*
X134088095Y-78102381D02*
X134088095Y-77102381D01*
X133707142Y-77102381D01*
X133611904Y-77150000D01*
X133564285Y-77197619D01*
X133516666Y-77292857D01*
X133516666Y-77435714D01*
X133564285Y-77530952D01*
X133611904Y-77578571D01*
X133707142Y-77626190D01*
X134088095Y-77626190D01*
X133183333Y-77102381D02*
X132516666Y-77102381D01*
X132945238Y-78102381D01*
M02*
