G04 #@! TF.FileFunction,Legend,Top*
%FSLAX46Y46*%
G04 Gerber Fmt 4.6, Leading zero omitted, Abs format (unit mm)*
G04 Created by KiCad (PCBNEW (2015-04-22 BZR 5620)-product) date 07/05/2015 20:43:11*
%MOMM*%
G01*
G04 APERTURE LIST*
%ADD10C,0.100000*%
%ADD11C,0.150000*%
%ADD12C,0.200000*%
G04 APERTURE END LIST*
D10*
D11*
X104770000Y-72020000D02*
X104770000Y-69480000D01*
X101950000Y-69200000D02*
X103500000Y-69200000D01*
X101950000Y-69200000D02*
X101950000Y-72300000D01*
X101950000Y-72300000D02*
X103500000Y-72300000D01*
X95520000Y-72020000D02*
X95520000Y-69480000D01*
X92700000Y-69200000D02*
X94250000Y-69200000D01*
X92700000Y-69200000D02*
X92700000Y-72300000D01*
X92700000Y-72300000D02*
X94250000Y-72300000D01*
X120000000Y-70750000D02*
X113000000Y-70750000D01*
X113000000Y-70750000D02*
X113000000Y-67250000D01*
X113000000Y-67250000D02*
X120000000Y-67250000D01*
X120000000Y-67250000D02*
X120000000Y-70750000D01*
X120000000Y-81250000D02*
X113000000Y-81250000D01*
X113000000Y-81250000D02*
X113000000Y-77750000D01*
X113000000Y-77750000D02*
X120000000Y-77750000D01*
X120000000Y-77750000D02*
X120000000Y-81250000D01*
X177750000Y-77950000D02*
X176750000Y-77950000D01*
X176750000Y-79650000D02*
X177750000Y-79650000D01*
X173050000Y-77950000D02*
X172050000Y-77950000D01*
X172050000Y-79650000D02*
X173050000Y-79650000D01*
X168850000Y-73250000D02*
X167850000Y-73250000D01*
X167850000Y-74950000D02*
X168850000Y-74950000D01*
X173050000Y-69550000D02*
X173050000Y-70550000D01*
X174750000Y-70550000D02*
X174750000Y-69550000D01*
X167850000Y-77050000D02*
X168850000Y-77050000D01*
X168850000Y-75350000D02*
X167850000Y-75350000D01*
X175750000Y-73250000D02*
X174750000Y-73250000D01*
X174750000Y-74950000D02*
X175750000Y-74950000D01*
X172750000Y-75350000D02*
X172750000Y-74350000D01*
X171050000Y-74350000D02*
X171050000Y-75350000D01*
X175750000Y-75250000D02*
X174750000Y-75250000D01*
X174750000Y-76950000D02*
X175750000Y-76950000D01*
X116948060Y-71250180D02*
X117649100Y-71250180D01*
X117649100Y-71250180D02*
X117649100Y-71499100D01*
X117649100Y-74049160D02*
X117649100Y-74249820D01*
X117649100Y-74249820D02*
X116948060Y-74249820D01*
X116948060Y-74500180D02*
X117649100Y-74500180D01*
X117649100Y-74500180D02*
X117649100Y-74749100D01*
X117649100Y-77299160D02*
X117649100Y-77499820D01*
X117649100Y-77499820D02*
X116948060Y-77499820D01*
X97270000Y-75520000D02*
X97270000Y-72980000D01*
X94450000Y-72700000D02*
X96000000Y-72700000D01*
X94450000Y-72700000D02*
X94450000Y-75800000D01*
X94450000Y-75800000D02*
X96000000Y-75800000D01*
X108270000Y-79520000D02*
X108270000Y-76980000D01*
X105450000Y-76700000D02*
X107000000Y-76700000D01*
X105450000Y-76700000D02*
X105450000Y-79800000D01*
X105450000Y-79800000D02*
X107000000Y-79800000D01*
X106520000Y-83020000D02*
X106520000Y-80480000D01*
X103700000Y-80200000D02*
X105250000Y-80200000D01*
X103700000Y-80200000D02*
X103700000Y-83300000D01*
X103700000Y-83300000D02*
X105250000Y-83300000D01*
X99020000Y-72020000D02*
X99020000Y-69480000D01*
X96200000Y-69200000D02*
X97750000Y-69200000D01*
X96200000Y-69200000D02*
X96200000Y-72300000D01*
X96200000Y-72300000D02*
X97750000Y-72300000D01*
X104770000Y-79520000D02*
X104770000Y-76980000D01*
X101950000Y-76700000D02*
X103500000Y-76700000D01*
X101950000Y-76700000D02*
X101950000Y-79800000D01*
X101950000Y-79800000D02*
X103500000Y-79800000D01*
X106520000Y-75520000D02*
X106520000Y-72980000D01*
X103700000Y-72700000D02*
X105250000Y-72700000D01*
X103700000Y-72700000D02*
X103700000Y-75800000D01*
X103700000Y-75800000D02*
X105250000Y-75800000D01*
X108270000Y-72020000D02*
X108270000Y-69480000D01*
X105450000Y-69200000D02*
X107000000Y-69200000D01*
X105450000Y-69200000D02*
X105450000Y-72300000D01*
X105450000Y-72300000D02*
X107000000Y-72300000D01*
X97270000Y-83020000D02*
X97270000Y-80480000D01*
X94450000Y-80200000D02*
X96000000Y-80200000D01*
X94450000Y-80200000D02*
X94450000Y-83300000D01*
X94450000Y-83300000D02*
X96000000Y-83300000D01*
X95520000Y-79520000D02*
X95520000Y-76980000D01*
X92700000Y-76700000D02*
X94250000Y-76700000D01*
X92700000Y-76700000D02*
X92700000Y-79800000D01*
X92700000Y-79800000D02*
X94250000Y-79800000D01*
X99020000Y-79520000D02*
X99020000Y-76980000D01*
X96200000Y-76700000D02*
X97750000Y-76700000D01*
X96200000Y-76700000D02*
X96200000Y-79800000D01*
X96200000Y-79800000D02*
X97750000Y-79800000D01*
X180570000Y-84070000D02*
X180570000Y-81530000D01*
X177750000Y-81250000D02*
X179300000Y-81250000D01*
X177750000Y-81250000D02*
X177750000Y-84350000D01*
X177750000Y-84350000D02*
X179300000Y-84350000D01*
X184070000Y-84070000D02*
X184070000Y-81530000D01*
X181250000Y-81250000D02*
X182800000Y-81250000D01*
X181250000Y-81250000D02*
X181250000Y-84350000D01*
X181250000Y-84350000D02*
X182800000Y-84350000D01*
X177070000Y-84070000D02*
X177070000Y-81530000D01*
X174250000Y-81250000D02*
X175800000Y-81250000D01*
X174250000Y-81250000D02*
X174250000Y-84350000D01*
X174250000Y-84350000D02*
X175800000Y-84350000D01*
X178570000Y-71070000D02*
X178570000Y-68530000D01*
X175750000Y-68250000D02*
X177300000Y-68250000D01*
X175750000Y-68250000D02*
X175750000Y-71350000D01*
X175750000Y-71350000D02*
X177300000Y-71350000D01*
X172300000Y-84010000D02*
X172300000Y-81470000D01*
X169480000Y-81190000D02*
X171030000Y-81190000D01*
X169480000Y-81190000D02*
X169480000Y-84290000D01*
X169480000Y-84290000D02*
X171030000Y-84290000D01*
X161070000Y-67030000D02*
X161070000Y-64490000D01*
X158250000Y-64210000D02*
X159800000Y-64210000D01*
X158250000Y-64210000D02*
X158250000Y-67310000D01*
X158250000Y-67310000D02*
X159800000Y-67310000D01*
X123270000Y-84020000D02*
X123270000Y-81480000D01*
X120450000Y-81200000D02*
X122000000Y-81200000D01*
X120450000Y-81200000D02*
X120450000Y-84300000D01*
X120450000Y-84300000D02*
X122000000Y-84300000D01*
X123270000Y-67020000D02*
X123270000Y-64480000D01*
X120450000Y-64200000D02*
X122000000Y-64200000D01*
X120450000Y-64200000D02*
X120450000Y-67300000D01*
X120450000Y-67300000D02*
X122000000Y-67300000D01*
X144020000Y-84020000D02*
X144020000Y-81480000D01*
X141200000Y-81200000D02*
X142750000Y-81200000D01*
X141200000Y-81200000D02*
X141200000Y-84300000D01*
X141200000Y-84300000D02*
X142750000Y-84300000D01*
X144020000Y-67020000D02*
X144020000Y-64480000D01*
X141200000Y-64200000D02*
X142750000Y-64200000D01*
X141200000Y-64200000D02*
X141200000Y-67300000D01*
X141200000Y-67300000D02*
X142750000Y-67300000D01*
X164570000Y-67030000D02*
X164570000Y-64490000D01*
X161750000Y-64210000D02*
X163300000Y-64210000D01*
X161750000Y-64210000D02*
X161750000Y-67310000D01*
X161750000Y-67310000D02*
X163300000Y-67310000D01*
X168810000Y-84010000D02*
X168810000Y-81470000D01*
X165990000Y-81190000D02*
X167540000Y-81190000D01*
X165990000Y-81190000D02*
X165990000Y-84290000D01*
X165990000Y-84290000D02*
X167540000Y-84290000D01*
X130270000Y-67020000D02*
X130270000Y-64480000D01*
X127450000Y-64200000D02*
X129000000Y-64200000D01*
X127450000Y-64200000D02*
X127450000Y-67300000D01*
X127450000Y-67300000D02*
X129000000Y-67300000D01*
X133770000Y-67020000D02*
X133770000Y-64480000D01*
X130950000Y-64200000D02*
X132500000Y-64200000D01*
X130950000Y-64200000D02*
X130950000Y-67300000D01*
X130950000Y-67300000D02*
X132500000Y-67300000D01*
X126770000Y-67020000D02*
X126770000Y-64480000D01*
X123950000Y-64200000D02*
X125500000Y-64200000D01*
X123950000Y-64200000D02*
X123950000Y-67300000D01*
X123950000Y-67300000D02*
X125500000Y-67300000D01*
X130270000Y-84020000D02*
X130270000Y-81480000D01*
X127450000Y-81200000D02*
X129000000Y-81200000D01*
X127450000Y-81200000D02*
X127450000Y-84300000D01*
X127450000Y-84300000D02*
X129000000Y-84300000D01*
X133770000Y-84020000D02*
X133770000Y-81480000D01*
X130950000Y-81200000D02*
X132500000Y-81200000D01*
X130950000Y-81200000D02*
X130950000Y-84300000D01*
X130950000Y-84300000D02*
X132500000Y-84300000D01*
X126770000Y-84020000D02*
X126770000Y-81480000D01*
X123950000Y-81200000D02*
X125500000Y-81200000D01*
X123950000Y-81200000D02*
X123950000Y-84300000D01*
X123950000Y-84300000D02*
X125500000Y-84300000D01*
X169070000Y-67070000D02*
X169070000Y-64530000D01*
X166250000Y-64250000D02*
X167800000Y-64250000D01*
X166250000Y-64250000D02*
X166250000Y-67350000D01*
X166250000Y-67350000D02*
X167800000Y-67350000D01*
X180670000Y-67170000D02*
X180670000Y-64630000D01*
X177850000Y-64350000D02*
X179400000Y-64350000D01*
X177850000Y-64350000D02*
X177850000Y-67450000D01*
X177850000Y-67450000D02*
X179400000Y-67450000D01*
X163070000Y-83970000D02*
X163070000Y-81430000D01*
X160250000Y-81150000D02*
X161800000Y-81150000D01*
X160250000Y-81150000D02*
X160250000Y-84250000D01*
X160250000Y-84250000D02*
X161800000Y-84250000D01*
X177170000Y-67170000D02*
X177170000Y-64630000D01*
X174350000Y-64350000D02*
X175900000Y-64350000D01*
X174350000Y-64350000D02*
X174350000Y-67450000D01*
X174350000Y-67450000D02*
X175900000Y-67450000D01*
X172570000Y-67070000D02*
X172570000Y-64530000D01*
X169750000Y-64250000D02*
X171300000Y-64250000D01*
X169750000Y-64250000D02*
X169750000Y-67350000D01*
X169750000Y-67350000D02*
X171300000Y-67350000D01*
X147520000Y-67020000D02*
X147520000Y-64480000D01*
X144700000Y-64200000D02*
X146250000Y-64200000D01*
X144700000Y-64200000D02*
X144700000Y-67300000D01*
X144700000Y-67300000D02*
X146250000Y-67300000D01*
X154520000Y-84020000D02*
X154520000Y-81480000D01*
X151700000Y-81200000D02*
X153250000Y-81200000D01*
X151700000Y-81200000D02*
X151700000Y-84300000D01*
X151700000Y-84300000D02*
X153250000Y-84300000D01*
X147520000Y-84020000D02*
X147520000Y-81480000D01*
X144700000Y-81200000D02*
X146250000Y-81200000D01*
X144700000Y-81200000D02*
X144700000Y-84300000D01*
X144700000Y-84300000D02*
X146250000Y-84300000D01*
X151020000Y-67020000D02*
X151020000Y-64480000D01*
X148200000Y-64200000D02*
X149750000Y-64200000D01*
X148200000Y-64200000D02*
X148200000Y-67300000D01*
X148200000Y-67300000D02*
X149750000Y-67300000D01*
X154520000Y-67020000D02*
X154520000Y-64480000D01*
X151700000Y-64200000D02*
X153250000Y-64200000D01*
X151700000Y-64200000D02*
X151700000Y-67300000D01*
X151700000Y-67300000D02*
X153250000Y-67300000D01*
X151020000Y-84020000D02*
X151020000Y-81480000D01*
X148200000Y-81200000D02*
X149750000Y-81200000D01*
X148200000Y-81200000D02*
X148200000Y-84300000D01*
X148200000Y-84300000D02*
X149750000Y-84300000D01*
X118450000Y-66375000D02*
X117250000Y-66375000D01*
X117250000Y-64625000D02*
X118450000Y-64625000D01*
X118500000Y-83875000D02*
X117300000Y-83875000D01*
X117300000Y-82125000D02*
X118500000Y-82125000D01*
X122125000Y-77550000D02*
X122125000Y-78750000D01*
X120375000Y-78750000D02*
X120375000Y-77550000D01*
X120375000Y-71000000D02*
X120375000Y-69800000D01*
X122125000Y-69800000D02*
X122125000Y-71000000D01*
X161425000Y-73450000D02*
X161425000Y-72250000D01*
X163175000Y-72250000D02*
X163175000Y-73450000D01*
X161350000Y-68425000D02*
X162550000Y-68425000D01*
X162550000Y-70175000D02*
X161350000Y-70175000D01*
X165275000Y-72250000D02*
X165275000Y-73450000D01*
X163525000Y-73450000D02*
X163525000Y-72250000D01*
X164200000Y-77575000D02*
X163000000Y-77575000D01*
X163000000Y-75825000D02*
X164200000Y-75825000D01*
X171025000Y-70750000D02*
X171025000Y-69550000D01*
X172775000Y-69550000D02*
X172775000Y-70750000D01*
X139350000Y-71925000D02*
X140550000Y-71925000D01*
X140550000Y-73675000D02*
X139350000Y-73675000D01*
X139350000Y-74825000D02*
X140550000Y-74825000D01*
X140550000Y-76575000D02*
X139350000Y-76575000D01*
X156850000Y-80625000D02*
X158050000Y-80625000D01*
X158050000Y-82375000D02*
X156850000Y-82375000D01*
X156850000Y-82625000D02*
X158050000Y-82625000D01*
X158050000Y-84375000D02*
X156850000Y-84375000D01*
X152150000Y-76825000D02*
X153350000Y-76825000D01*
X153350000Y-78575000D02*
X152150000Y-78575000D01*
X152150000Y-70025000D02*
X153350000Y-70025000D01*
X153350000Y-71775000D02*
X152150000Y-71775000D01*
X135125000Y-74800000D02*
X135125000Y-73600000D01*
X136875000Y-73600000D02*
X136875000Y-74800000D01*
X153225000Y-74900000D02*
X153225000Y-73700000D01*
X154975000Y-73700000D02*
X154975000Y-74900000D01*
X107708224Y-53587109D02*
G75*
G03X107708224Y-53587109I-3850000J0D01*
G01*
X117358224Y-53587109D02*
G75*
G03X117358224Y-53587109I-13500000J0D01*
G01*
X160875000Y-72125000D02*
X160730000Y-72125000D01*
X160875000Y-76275000D02*
X160730000Y-76275000D01*
X155725000Y-76275000D02*
X155870000Y-76275000D01*
X155725000Y-72125000D02*
X155870000Y-72125000D01*
X160875000Y-72125000D02*
X160875000Y-76275000D01*
X155725000Y-72125000D02*
X155725000Y-76275000D01*
X160730000Y-72125000D02*
X160730000Y-70725000D01*
X148375000Y-78760000D02*
X148375000Y-78645000D01*
X144225000Y-78760000D02*
X144225000Y-78645000D01*
X144225000Y-69860000D02*
X144225000Y-69975000D01*
X148375000Y-69860000D02*
X148375000Y-69975000D01*
X148375000Y-78760000D02*
X144225000Y-78760000D01*
X148375000Y-69860000D02*
X144225000Y-69860000D01*
X148375000Y-78645000D02*
X149750000Y-78645000D01*
X125225000Y-69610000D02*
X125225000Y-69725000D01*
X129375000Y-69610000D02*
X129375000Y-69725000D01*
X129375000Y-78510000D02*
X129375000Y-78395000D01*
X125225000Y-78510000D02*
X125225000Y-78395000D01*
X125225000Y-69610000D02*
X129375000Y-69610000D01*
X125225000Y-78510000D02*
X129375000Y-78510000D01*
X125225000Y-69725000D02*
X123850000Y-69725000D01*
X166300000Y-68730000D02*
X166300000Y-72130000D01*
X166302944Y-68732944D02*
G75*
G02X170400000Y-70430000I1697056J-1697056D01*
G01*
X166302944Y-72127056D02*
G75*
G03X170400000Y-70430000I1697056J1697056D01*
G01*
X135020000Y-82775000D02*
X135165000Y-82775000D01*
X135020000Y-78625000D02*
X135165000Y-78625000D01*
X140170000Y-78625000D02*
X140025000Y-78625000D01*
X140170000Y-82775000D02*
X140025000Y-82775000D01*
X135020000Y-82775000D02*
X135020000Y-78625000D01*
X140170000Y-82775000D02*
X140170000Y-78625000D01*
X135165000Y-82775000D02*
X135165000Y-84175000D01*
X140325000Y-65675000D02*
X140180000Y-65675000D01*
X140325000Y-69825000D02*
X140180000Y-69825000D01*
X135175000Y-69825000D02*
X135320000Y-69825000D01*
X135175000Y-65675000D02*
X135320000Y-65675000D01*
X140325000Y-65675000D02*
X140325000Y-69825000D01*
X135175000Y-65675000D02*
X135175000Y-69825000D01*
X140180000Y-65675000D02*
X140180000Y-64275000D01*
X184448000Y-74016000D02*
X183305000Y-74016000D01*
X184448000Y-77064000D02*
X183305000Y-77064000D01*
X183305000Y-80874000D02*
X179622000Y-80874000D01*
X179622000Y-80874000D02*
X179622000Y-70206000D01*
X179622000Y-70206000D02*
X183305000Y-70206000D01*
X184448000Y-80874000D02*
X183305000Y-80874000D01*
X183305000Y-80874000D02*
X183305000Y-70206000D01*
X183305000Y-70206000D02*
X184448000Y-70206000D01*
X184448000Y-75540000D02*
X184448000Y-70206000D01*
X184448000Y-75540000D02*
X184448000Y-80874000D01*
X104500380Y-43900480D02*
X98599960Y-49800900D01*
X98899680Y-48500420D02*
X99400060Y-48000040D01*
X103499620Y-46900220D02*
X103199900Y-47199940D01*
X101500640Y-49899960D02*
X101698760Y-49699300D01*
X100499880Y-44901240D02*
X100700540Y-44700580D01*
X99999500Y-45399080D02*
X99600720Y-45800400D01*
X101000260Y-45399080D02*
X101299980Y-45099360D01*
X102001020Y-45399080D02*
X102498860Y-44901240D01*
X104000000Y-43400100D02*
X104200660Y-43199440D01*
X104500380Y-43900480D02*
X104800100Y-43600760D01*
X104500380Y-44901240D02*
X105000760Y-44400860D01*
X105998980Y-45399080D02*
X106100580Y-45300020D01*
X105000760Y-45399080D02*
X105399540Y-45000300D01*
X107500120Y-44901240D02*
X107799840Y-44598980D01*
X108000500Y-45399080D02*
X108300220Y-45099360D01*
X99999500Y-50400340D02*
X99699780Y-50700060D01*
X101500640Y-48899200D02*
X101800360Y-48599480D01*
X99400060Y-52899700D02*
X99199400Y-53100360D01*
X101500640Y-50900720D02*
X102001020Y-50400340D01*
X99999500Y-53400080D02*
X99798840Y-53600740D01*
X102001020Y-51401100D02*
X102498860Y-50900720D01*
X102001020Y-52399320D02*
X102399800Y-52000540D01*
X107500120Y-47900980D02*
X108000500Y-47400600D01*
X108000500Y-48398820D02*
X108300220Y-48099100D01*
X107500120Y-51898940D02*
X107898900Y-51500160D01*
X109499100Y-48899200D02*
X109900420Y-48500420D01*
X108000500Y-52399320D02*
X106999740Y-53400080D01*
X107500120Y-51898940D02*
X106499360Y-52899700D01*
X109499100Y-48899200D02*
X105501140Y-52899700D01*
X109001260Y-48398820D02*
X105501140Y-51898940D01*
X108000500Y-48398820D02*
X105000760Y-51401100D01*
X102001020Y-52399320D02*
X101500640Y-52899700D01*
X102001020Y-51401100D02*
X99999500Y-53400080D01*
X101500640Y-50900720D02*
X99499120Y-52899700D01*
X101500640Y-49899960D02*
X99999500Y-51401100D01*
X101500640Y-48899200D02*
X99999500Y-50400340D01*
X104000000Y-43400100D02*
X102999240Y-44400860D01*
X100499880Y-44901240D02*
X99999500Y-45399080D01*
X101000260Y-45399080D02*
X99999500Y-46399840D01*
X98998740Y-48398820D02*
X98000520Y-49399580D01*
X102001020Y-45399080D02*
X99499120Y-47900980D01*
X104500380Y-44901240D02*
X99499120Y-49899960D01*
X107500120Y-47900980D02*
X105998980Y-49399580D01*
X107500120Y-46900220D02*
X105998980Y-48398820D01*
X105000760Y-45399080D02*
X103499620Y-46900220D01*
X108000500Y-45399080D02*
X105501140Y-47900980D01*
X107500120Y-44901240D02*
X105000760Y-47400600D01*
X105998980Y-45399080D02*
X104500380Y-46900220D01*
X108800600Y-57199920D02*
X108800600Y-57799360D01*
X107299460Y-56100100D02*
X108099560Y-59399560D01*
X108099560Y-59399560D02*
X108300220Y-59399560D01*
X108300220Y-59399560D02*
X108699000Y-58000020D01*
X108699000Y-58000020D02*
X108800600Y-58000020D01*
X108800600Y-58000020D02*
X109300980Y-59399560D01*
X109300980Y-59399560D02*
X109400040Y-59399560D01*
X109400040Y-59399560D02*
X110200140Y-56199160D01*
X110200140Y-56199160D02*
X109999480Y-56199160D01*
X109999480Y-56199160D02*
X109300980Y-58800120D01*
X109300980Y-58800120D02*
X108899660Y-56999260D01*
X108899660Y-56999260D02*
X108699000Y-56999260D01*
X108699000Y-56999260D02*
X108099560Y-58800120D01*
X108099560Y-58800120D02*
X107500120Y-56100100D01*
X107500120Y-56100100D02*
X107299460Y-56100100D01*
X104599440Y-57601240D02*
X106100580Y-57601240D01*
X106100580Y-57601240D02*
X106100580Y-57799360D01*
X106100580Y-57799360D02*
X104701040Y-57799360D01*
X106199640Y-56199160D02*
X106199640Y-59399560D01*
X106199640Y-59399560D02*
X106400300Y-59399560D01*
X106400300Y-59399560D02*
X106400300Y-56199160D01*
X106400300Y-56199160D02*
X106199640Y-56199160D01*
X104701040Y-56100100D02*
X104599440Y-56100100D01*
X104500380Y-56100100D02*
X104500380Y-59399560D01*
X104500380Y-59399560D02*
X104701040Y-59399560D01*
X104701040Y-59399560D02*
X104701040Y-56100100D01*
X103601220Y-56399820D02*
X103499620Y-56300760D01*
X103499620Y-56300760D02*
X103100840Y-56199160D01*
X103100840Y-56199160D02*
X102600460Y-56100100D01*
X102600460Y-56100100D02*
X101899420Y-56300760D01*
X101899420Y-56300760D02*
X101599700Y-56600480D01*
X101599700Y-56600480D02*
X101500640Y-57100860D01*
X101500640Y-57100860D02*
X101599700Y-57499640D01*
X101599700Y-57499640D02*
X102001020Y-57799360D01*
X102001020Y-57799360D02*
X102498860Y-58000020D01*
X102498860Y-58000020D02*
X102900180Y-58099080D01*
X102900180Y-58099080D02*
X103100840Y-58299740D01*
X103100840Y-58299740D02*
X103199900Y-58599460D01*
X103199900Y-58599460D02*
X103100840Y-58899180D01*
X103100840Y-58899180D02*
X102801120Y-59099840D01*
X102801120Y-59099840D02*
X102399800Y-59099840D01*
X102399800Y-59099840D02*
X101899420Y-59099840D01*
X101899420Y-59099840D02*
X101599700Y-59000780D01*
X101599700Y-59000780D02*
X101399040Y-59099840D01*
X101399040Y-59099840D02*
X101698760Y-59300500D01*
X101698760Y-59300500D02*
X102300740Y-59399560D01*
X102300740Y-59399560D02*
X102900180Y-59399560D01*
X102900180Y-59399560D02*
X103298960Y-59099840D01*
X103298960Y-59099840D02*
X103400560Y-58599460D01*
X103400560Y-58599460D02*
X103400560Y-58299740D01*
X103400560Y-58299740D02*
X103199900Y-58000020D01*
X103199900Y-58000020D02*
X102699520Y-57799360D01*
X102699520Y-57799360D02*
X102199140Y-57601240D01*
X102199140Y-57601240D02*
X101800360Y-57298980D01*
X101800360Y-57298980D02*
X101698760Y-56999260D01*
X101698760Y-56999260D02*
X101899420Y-56699540D01*
X101899420Y-56699540D02*
X102300740Y-56399820D01*
X102300740Y-56399820D02*
X102900180Y-56399820D01*
X102900180Y-56399820D02*
X103298960Y-56498880D01*
X103298960Y-56498880D02*
X103601220Y-56600480D01*
X99499120Y-56498880D02*
X99199400Y-56498880D01*
X99199400Y-56498880D02*
X98800620Y-56801140D01*
X98800620Y-56801140D02*
X98699020Y-57298980D01*
X98699020Y-57298980D02*
X98699020Y-58099080D01*
X98699020Y-58099080D02*
X98800620Y-58599460D01*
X98800620Y-58599460D02*
X98998740Y-58899180D01*
X98998740Y-58899180D02*
X99400060Y-59099840D01*
X99400060Y-59099840D02*
X99798840Y-59099840D01*
X99798840Y-59099840D02*
X100200160Y-58800120D01*
X100200160Y-58800120D02*
X100400820Y-58099080D01*
X100400820Y-58099080D02*
X100400820Y-57298980D01*
X100400820Y-57298980D02*
X100200160Y-56900200D01*
X100200160Y-56900200D02*
X99999500Y-56699540D01*
X99999500Y-56699540D02*
X99600720Y-56498880D01*
X99499120Y-56199160D02*
X99100340Y-56300760D01*
X99100340Y-56300760D02*
X98800620Y-56399820D01*
X98800620Y-56399820D02*
X98500900Y-56900200D01*
X98500900Y-56900200D02*
X98399300Y-57499640D01*
X98399300Y-57499640D02*
X98500900Y-58599460D01*
X98500900Y-58599460D02*
X98800620Y-59198900D01*
X98800620Y-59198900D02*
X99400060Y-59399560D01*
X99400060Y-59399560D02*
X100101100Y-59300500D01*
X100101100Y-59300500D02*
X100499880Y-58701060D01*
X100499880Y-58701060D02*
X100598940Y-58000020D01*
X100598940Y-58000020D02*
X100598940Y-57298980D01*
X100598940Y-57298980D02*
X100400820Y-56699540D01*
X100400820Y-56699540D02*
X99999500Y-56300760D01*
X99999500Y-56300760D02*
X99499120Y-56199160D01*
X102900180Y-51101380D02*
X102399800Y-50700060D01*
X102399800Y-50700060D02*
X102001020Y-50199680D01*
X102001020Y-50199680D02*
X101800360Y-49699300D01*
X101800360Y-49699300D02*
X101800360Y-49000800D01*
X101800360Y-49000800D02*
X101901960Y-48401360D01*
X101901960Y-48401360D02*
X102300740Y-47799380D01*
X102300740Y-47799380D02*
X103100840Y-47199940D01*
X103100840Y-47199940D02*
X103900940Y-47100880D01*
X103900940Y-47100880D02*
X104601980Y-47100880D01*
X104601980Y-47100880D02*
X105300480Y-47601260D01*
X105300480Y-47601260D02*
X105800860Y-48299760D01*
X105800860Y-48299760D02*
X106001520Y-48899200D01*
X106001520Y-48899200D02*
X106001520Y-49600240D01*
X106001520Y-49600240D02*
X105701800Y-50400340D01*
X105701800Y-50400340D02*
X105201420Y-50900720D01*
X105201420Y-50900720D02*
X104901700Y-51101380D01*
X104901700Y-51200440D02*
X105651000Y-53450880D01*
X105651000Y-53450880D02*
X106501900Y-53001300D01*
X106501900Y-53001300D02*
X107799840Y-53999520D01*
X107799840Y-53999520D02*
X108800600Y-52899700D01*
X108800600Y-52899700D02*
X107901440Y-51599220D01*
X107901440Y-51599220D02*
X108401820Y-50301280D01*
X108401820Y-50301280D02*
X108401820Y-50100620D01*
X108401820Y-50100620D02*
X110002020Y-49800900D01*
X110002020Y-49800900D02*
X110002020Y-48299760D01*
X110002020Y-48299760D02*
X108401820Y-48101640D01*
X108401820Y-48101640D02*
X107799840Y-46699560D01*
X107799840Y-46699560D02*
X108701540Y-45300020D01*
X108701540Y-45300020D02*
X107601720Y-44299260D01*
X107601720Y-44299260D02*
X106301240Y-45200960D01*
X106301240Y-45200960D02*
X105099820Y-44700580D01*
X105099820Y-44700580D02*
X104701040Y-43100380D01*
X104701040Y-43100380D02*
X103199900Y-43100380D01*
X103199900Y-43100380D02*
X102900180Y-44700580D01*
X102900180Y-44700580D02*
X101599700Y-45200960D01*
X101599700Y-45200960D02*
X100200160Y-44200200D01*
X100200160Y-44200200D02*
X99100340Y-45300020D01*
X99100340Y-45300020D02*
X100101100Y-46600500D01*
X100101100Y-46600500D02*
X99400060Y-48101640D01*
X99400060Y-48101640D02*
X97799860Y-48299760D01*
X97799860Y-48299760D02*
X97700800Y-49699300D01*
X97700800Y-49699300D02*
X99301000Y-50001560D01*
X99301000Y-50001560D02*
X99900440Y-51599220D01*
X99900440Y-51599220D02*
X99001280Y-52899700D01*
X99001280Y-52899700D02*
X100002040Y-53999520D01*
X100002040Y-53999520D02*
X101299980Y-53100360D01*
X101299980Y-53100360D02*
X102001020Y-53400080D01*
X102001020Y-53400080D02*
X102900180Y-51101380D01*
X99850000Y-72625000D02*
X101050000Y-72625000D01*
X101050000Y-74375000D02*
X99850000Y-74375000D01*
X109550000Y-82225000D02*
X110750000Y-82225000D01*
X110750000Y-83975000D02*
X109550000Y-83975000D01*
X101050000Y-76375000D02*
X99850000Y-76375000D01*
X99850000Y-74625000D02*
X101050000Y-74625000D01*
X110750000Y-81975000D02*
X109550000Y-81975000D01*
X109550000Y-80225000D02*
X110750000Y-80225000D01*
X110975000Y-73450000D02*
X110975000Y-74650000D01*
X109225000Y-74650000D02*
X109225000Y-73450000D01*
X109225000Y-69850000D02*
X109225000Y-68650000D01*
X110975000Y-68650000D02*
X110975000Y-69850000D01*
X102285714Y-66102381D02*
X102285714Y-65102381D01*
X102666667Y-65102381D01*
X102761905Y-65150000D01*
X102809524Y-65197619D01*
X102857143Y-65292857D01*
X102857143Y-65435714D01*
X102809524Y-65530952D01*
X102761905Y-65578571D01*
X102666667Y-65626190D01*
X102285714Y-65626190D01*
X103809524Y-66102381D02*
X103238095Y-66102381D01*
X103523809Y-66102381D02*
X103523809Y-65102381D01*
X103428571Y-65245238D01*
X103333333Y-65340476D01*
X103238095Y-65388095D01*
X104190476Y-65197619D02*
X104238095Y-65150000D01*
X104333333Y-65102381D01*
X104571429Y-65102381D01*
X104666667Y-65150000D01*
X104714286Y-65197619D01*
X104761905Y-65292857D01*
X104761905Y-65388095D01*
X104714286Y-65530952D01*
X104142857Y-66102381D01*
X104761905Y-66102381D01*
X102828572Y-68752381D02*
X102495238Y-68276190D01*
X102257143Y-68752381D02*
X102257143Y-67752381D01*
X102638096Y-67752381D01*
X102733334Y-67800000D01*
X102780953Y-67847619D01*
X102828572Y-67942857D01*
X102828572Y-68085714D01*
X102780953Y-68180952D01*
X102733334Y-68228571D01*
X102638096Y-68276190D01*
X102257143Y-68276190D01*
X103209524Y-67847619D02*
X103257143Y-67800000D01*
X103352381Y-67752381D01*
X103590477Y-67752381D01*
X103685715Y-67800000D01*
X103733334Y-67847619D01*
X103780953Y-67942857D01*
X103780953Y-68038095D01*
X103733334Y-68180952D01*
X103161905Y-68752381D01*
X103780953Y-68752381D01*
X104685715Y-68752381D02*
X104209524Y-68752381D01*
X104209524Y-67752381D01*
X93728572Y-68752381D02*
X93395238Y-68276190D01*
X93157143Y-68752381D02*
X93157143Y-67752381D01*
X93538096Y-67752381D01*
X93633334Y-67800000D01*
X93680953Y-67847619D01*
X93728572Y-67942857D01*
X93728572Y-68085714D01*
X93680953Y-68180952D01*
X93633334Y-68228571D01*
X93538096Y-68276190D01*
X93157143Y-68276190D01*
X94680953Y-68752381D02*
X94109524Y-68752381D01*
X94395238Y-68752381D02*
X94395238Y-67752381D01*
X94300000Y-67895238D01*
X94204762Y-67990476D01*
X94109524Y-68038095D01*
X95585715Y-68752381D02*
X95109524Y-68752381D01*
X95109524Y-67752381D01*
X116333334Y-69357143D02*
X116285715Y-69404762D01*
X116142858Y-69452381D01*
X116047620Y-69452381D01*
X115904762Y-69404762D01*
X115809524Y-69309524D01*
X115761905Y-69214286D01*
X115714286Y-69023810D01*
X115714286Y-68880952D01*
X115761905Y-68690476D01*
X115809524Y-68595238D01*
X115904762Y-68500000D01*
X116047620Y-68452381D01*
X116142858Y-68452381D01*
X116285715Y-68500000D01*
X116333334Y-68547619D01*
X117285715Y-69452381D02*
X116714286Y-69452381D01*
X117000000Y-69452381D02*
X117000000Y-68452381D01*
X116904762Y-68595238D01*
X116809524Y-68690476D01*
X116714286Y-68738095D01*
X116333334Y-79857143D02*
X116285715Y-79904762D01*
X116142858Y-79952381D01*
X116047620Y-79952381D01*
X115904762Y-79904762D01*
X115809524Y-79809524D01*
X115761905Y-79714286D01*
X115714286Y-79523810D01*
X115714286Y-79380952D01*
X115761905Y-79190476D01*
X115809524Y-79095238D01*
X115904762Y-79000000D01*
X116047620Y-78952381D01*
X116142858Y-78952381D01*
X116285715Y-79000000D01*
X116333334Y-79047619D01*
X116714286Y-79047619D02*
X116761905Y-79000000D01*
X116857143Y-78952381D01*
X117095239Y-78952381D01*
X117190477Y-79000000D01*
X117238096Y-79047619D01*
X117285715Y-79142857D01*
X117285715Y-79238095D01*
X117238096Y-79380952D01*
X116666667Y-79952381D01*
X117285715Y-79952381D01*
X177657143Y-79066666D02*
X177704762Y-79114285D01*
X177752381Y-79257142D01*
X177752381Y-79352380D01*
X177704762Y-79495238D01*
X177609524Y-79590476D01*
X177514286Y-79638095D01*
X177323810Y-79685714D01*
X177180952Y-79685714D01*
X176990476Y-79638095D01*
X176895238Y-79590476D01*
X176800000Y-79495238D01*
X176752381Y-79352380D01*
X176752381Y-79257142D01*
X176800000Y-79114285D01*
X176847619Y-79066666D01*
X176752381Y-78733333D02*
X176752381Y-78114285D01*
X177133333Y-78447619D01*
X177133333Y-78304761D01*
X177180952Y-78209523D01*
X177228571Y-78161904D01*
X177323810Y-78114285D01*
X177561905Y-78114285D01*
X177657143Y-78161904D01*
X177704762Y-78209523D01*
X177752381Y-78304761D01*
X177752381Y-78590476D01*
X177704762Y-78685714D01*
X177657143Y-78733333D01*
X172833334Y-80857143D02*
X172785715Y-80904762D01*
X172642858Y-80952381D01*
X172547620Y-80952381D01*
X172404762Y-80904762D01*
X172309524Y-80809524D01*
X172261905Y-80714286D01*
X172214286Y-80523810D01*
X172214286Y-80380952D01*
X172261905Y-80190476D01*
X172309524Y-80095238D01*
X172404762Y-80000000D01*
X172547620Y-79952381D01*
X172642858Y-79952381D01*
X172785715Y-80000000D01*
X172833334Y-80047619D01*
X173690477Y-80285714D02*
X173690477Y-80952381D01*
X173452381Y-79904762D02*
X173214286Y-80619048D01*
X173833334Y-80619048D01*
X169433334Y-72857143D02*
X169385715Y-72904762D01*
X169242858Y-72952381D01*
X169147620Y-72952381D01*
X169004762Y-72904762D01*
X168909524Y-72809524D01*
X168861905Y-72714286D01*
X168814286Y-72523810D01*
X168814286Y-72380952D01*
X168861905Y-72190476D01*
X168909524Y-72095238D01*
X169004762Y-72000000D01*
X169147620Y-71952381D01*
X169242858Y-71952381D01*
X169385715Y-72000000D01*
X169433334Y-72047619D01*
X170338096Y-71952381D02*
X169861905Y-71952381D01*
X169814286Y-72428571D01*
X169861905Y-72380952D01*
X169957143Y-72333333D01*
X170195239Y-72333333D01*
X170290477Y-72380952D01*
X170338096Y-72428571D01*
X170385715Y-72523810D01*
X170385715Y-72761905D01*
X170338096Y-72857143D01*
X170290477Y-72904762D01*
X170195239Y-72952381D01*
X169957143Y-72952381D01*
X169861905Y-72904762D01*
X169814286Y-72857143D01*
X173733334Y-70457143D02*
X173685715Y-70504762D01*
X173542858Y-70552381D01*
X173447620Y-70552381D01*
X173304762Y-70504762D01*
X173209524Y-70409524D01*
X173161905Y-70314286D01*
X173114286Y-70123810D01*
X173114286Y-69980952D01*
X173161905Y-69790476D01*
X173209524Y-69695238D01*
X173304762Y-69600000D01*
X173447620Y-69552381D01*
X173542858Y-69552381D01*
X173685715Y-69600000D01*
X173733334Y-69647619D01*
X174590477Y-69552381D02*
X174400000Y-69552381D01*
X174304762Y-69600000D01*
X174257143Y-69647619D01*
X174161905Y-69790476D01*
X174114286Y-69980952D01*
X174114286Y-70361905D01*
X174161905Y-70457143D01*
X174209524Y-70504762D01*
X174304762Y-70552381D01*
X174495239Y-70552381D01*
X174590477Y-70504762D01*
X174638096Y-70457143D01*
X174685715Y-70361905D01*
X174685715Y-70123810D01*
X174638096Y-70028571D01*
X174590477Y-69980952D01*
X174495239Y-69933333D01*
X174304762Y-69933333D01*
X174209524Y-69980952D01*
X174161905Y-70028571D01*
X174114286Y-70123810D01*
X168183334Y-78657143D02*
X168135715Y-78704762D01*
X167992858Y-78752381D01*
X167897620Y-78752381D01*
X167754762Y-78704762D01*
X167659524Y-78609524D01*
X167611905Y-78514286D01*
X167564286Y-78323810D01*
X167564286Y-78180952D01*
X167611905Y-77990476D01*
X167659524Y-77895238D01*
X167754762Y-77800000D01*
X167897620Y-77752381D01*
X167992858Y-77752381D01*
X168135715Y-77800000D01*
X168183334Y-77847619D01*
X168516667Y-77752381D02*
X169183334Y-77752381D01*
X168754762Y-78752381D01*
X175933334Y-72757143D02*
X175885715Y-72804762D01*
X175742858Y-72852381D01*
X175647620Y-72852381D01*
X175504762Y-72804762D01*
X175409524Y-72709524D01*
X175361905Y-72614286D01*
X175314286Y-72423810D01*
X175314286Y-72280952D01*
X175361905Y-72090476D01*
X175409524Y-71995238D01*
X175504762Y-71900000D01*
X175647620Y-71852381D01*
X175742858Y-71852381D01*
X175885715Y-71900000D01*
X175933334Y-71947619D01*
X176504762Y-72280952D02*
X176409524Y-72233333D01*
X176361905Y-72185714D01*
X176314286Y-72090476D01*
X176314286Y-72042857D01*
X176361905Y-71947619D01*
X176409524Y-71900000D01*
X176504762Y-71852381D01*
X176695239Y-71852381D01*
X176790477Y-71900000D01*
X176838096Y-71947619D01*
X176885715Y-72042857D01*
X176885715Y-72090476D01*
X176838096Y-72185714D01*
X176790477Y-72233333D01*
X176695239Y-72280952D01*
X176504762Y-72280952D01*
X176409524Y-72328571D01*
X176361905Y-72376190D01*
X176314286Y-72471429D01*
X176314286Y-72661905D01*
X176361905Y-72757143D01*
X176409524Y-72804762D01*
X176504762Y-72852381D01*
X176695239Y-72852381D01*
X176790477Y-72804762D01*
X176838096Y-72757143D01*
X176885715Y-72661905D01*
X176885715Y-72471429D01*
X176838096Y-72376190D01*
X176790477Y-72328571D01*
X176695239Y-72280952D01*
X171733334Y-75257143D02*
X171685715Y-75304762D01*
X171542858Y-75352381D01*
X171447620Y-75352381D01*
X171304762Y-75304762D01*
X171209524Y-75209524D01*
X171161905Y-75114286D01*
X171114286Y-74923810D01*
X171114286Y-74780952D01*
X171161905Y-74590476D01*
X171209524Y-74495238D01*
X171304762Y-74400000D01*
X171447620Y-74352381D01*
X171542858Y-74352381D01*
X171685715Y-74400000D01*
X171733334Y-74447619D01*
X172209524Y-75352381D02*
X172400000Y-75352381D01*
X172495239Y-75304762D01*
X172542858Y-75257143D01*
X172638096Y-75114286D01*
X172685715Y-74923810D01*
X172685715Y-74542857D01*
X172638096Y-74447619D01*
X172590477Y-74400000D01*
X172495239Y-74352381D01*
X172304762Y-74352381D01*
X172209524Y-74400000D01*
X172161905Y-74447619D01*
X172114286Y-74542857D01*
X172114286Y-74780952D01*
X172161905Y-74876190D01*
X172209524Y-74923810D01*
X172304762Y-74971429D01*
X172495239Y-74971429D01*
X172590477Y-74923810D01*
X172638096Y-74876190D01*
X172685715Y-74780952D01*
X178957143Y-76942857D02*
X179004762Y-76990476D01*
X179052381Y-77133333D01*
X179052381Y-77228571D01*
X179004762Y-77371429D01*
X178909524Y-77466667D01*
X178814286Y-77514286D01*
X178623810Y-77561905D01*
X178480952Y-77561905D01*
X178290476Y-77514286D01*
X178195238Y-77466667D01*
X178100000Y-77371429D01*
X178052381Y-77228571D01*
X178052381Y-77133333D01*
X178100000Y-76990476D01*
X178147619Y-76942857D01*
X179052381Y-75990476D02*
X179052381Y-76561905D01*
X179052381Y-76276191D02*
X178052381Y-76276191D01*
X178195238Y-76371429D01*
X178290476Y-76466667D01*
X178338095Y-76561905D01*
X178052381Y-75371429D02*
X178052381Y-75276190D01*
X178100000Y-75180952D01*
X178147619Y-75133333D01*
X178242857Y-75085714D01*
X178433333Y-75038095D01*
X178671429Y-75038095D01*
X178861905Y-75085714D01*
X178957143Y-75133333D01*
X179004762Y-75180952D01*
X179052381Y-75276190D01*
X179052381Y-75371429D01*
X179004762Y-75466667D01*
X178957143Y-75514286D01*
X178861905Y-75561905D01*
X178671429Y-75609524D01*
X178433333Y-75609524D01*
X178242857Y-75561905D01*
X178147619Y-75514286D01*
X178100000Y-75466667D01*
X178052381Y-75371429D01*
X112961905Y-73202381D02*
X112961905Y-72202381D01*
X113200000Y-72202381D01*
X113342858Y-72250000D01*
X113438096Y-72345238D01*
X113485715Y-72440476D01*
X113533334Y-72630952D01*
X113533334Y-72773810D01*
X113485715Y-72964286D01*
X113438096Y-73059524D01*
X113342858Y-73154762D01*
X113200000Y-73202381D01*
X112961905Y-73202381D01*
X114485715Y-73202381D02*
X113914286Y-73202381D01*
X114200000Y-73202381D02*
X114200000Y-72202381D01*
X114104762Y-72345238D01*
X114009524Y-72440476D01*
X113914286Y-72488095D01*
X112861905Y-75652381D02*
X112861905Y-74652381D01*
X113100000Y-74652381D01*
X113242858Y-74700000D01*
X113338096Y-74795238D01*
X113385715Y-74890476D01*
X113433334Y-75080952D01*
X113433334Y-75223810D01*
X113385715Y-75414286D01*
X113338096Y-75509524D01*
X113242858Y-75604762D01*
X113100000Y-75652381D01*
X112861905Y-75652381D01*
X113814286Y-74747619D02*
X113861905Y-74700000D01*
X113957143Y-74652381D01*
X114195239Y-74652381D01*
X114290477Y-74700000D01*
X114338096Y-74747619D01*
X114385715Y-74842857D01*
X114385715Y-74938095D01*
X114338096Y-75080952D01*
X113766667Y-75652381D01*
X114385715Y-75652381D01*
X93852381Y-74966666D02*
X93376190Y-75300000D01*
X93852381Y-75538095D02*
X92852381Y-75538095D01*
X92852381Y-75157142D01*
X92900000Y-75061904D01*
X92947619Y-75014285D01*
X93042857Y-74966666D01*
X93185714Y-74966666D01*
X93280952Y-75014285D01*
X93328571Y-75061904D01*
X93376190Y-75157142D01*
X93376190Y-75538095D01*
X93852381Y-74014285D02*
X93852381Y-74585714D01*
X93852381Y-74300000D02*
X92852381Y-74300000D01*
X92995238Y-74395238D01*
X93090476Y-74490476D01*
X93138095Y-74585714D01*
X92900000Y-73061904D02*
X92852381Y-73157142D01*
X92852381Y-73299999D01*
X92900000Y-73442857D01*
X92995238Y-73538095D01*
X93090476Y-73585714D01*
X93280952Y-73633333D01*
X93423810Y-73633333D01*
X93614286Y-73585714D01*
X93709524Y-73538095D01*
X93804762Y-73442857D01*
X93852381Y-73299999D01*
X93852381Y-73204761D01*
X93804762Y-73061904D01*
X93757143Y-73014285D01*
X93423810Y-73014285D01*
X93423810Y-73204761D01*
X110152381Y-78700000D02*
X109152381Y-78700000D01*
X110152381Y-77652381D02*
X109676190Y-77985715D01*
X110152381Y-78223810D02*
X109152381Y-78223810D01*
X109152381Y-77842857D01*
X109200000Y-77747619D01*
X109247619Y-77700000D01*
X109342857Y-77652381D01*
X109485714Y-77652381D01*
X109580952Y-77700000D01*
X109628571Y-77747619D01*
X109676190Y-77842857D01*
X109676190Y-78223810D01*
X105223810Y-84000000D02*
X105128572Y-83952381D01*
X104985715Y-83952381D01*
X104842857Y-84000000D01*
X104747619Y-84095238D01*
X104700000Y-84190476D01*
X104652381Y-84380952D01*
X104652381Y-84523810D01*
X104700000Y-84714286D01*
X104747619Y-84809524D01*
X104842857Y-84904762D01*
X104985715Y-84952381D01*
X105080953Y-84952381D01*
X105223810Y-84904762D01*
X105271429Y-84857143D01*
X105271429Y-84523810D01*
X105080953Y-84523810D01*
X105700000Y-84952381D02*
X105700000Y-83952381D01*
X97233334Y-68752381D02*
X96900000Y-68276190D01*
X96661905Y-68752381D02*
X96661905Y-67752381D01*
X97042858Y-67752381D01*
X97138096Y-67800000D01*
X97185715Y-67847619D01*
X97233334Y-67942857D01*
X97233334Y-68085714D01*
X97185715Y-68180952D01*
X97138096Y-68228571D01*
X97042858Y-68276190D01*
X96661905Y-68276190D01*
X97614286Y-67847619D02*
X97661905Y-67800000D01*
X97757143Y-67752381D01*
X97995239Y-67752381D01*
X98090477Y-67800000D01*
X98138096Y-67847619D01*
X98185715Y-67942857D01*
X98185715Y-68038095D01*
X98138096Y-68180952D01*
X97566667Y-68752381D01*
X98185715Y-68752381D01*
X99185715Y-68752381D02*
X98852381Y-68276190D01*
X98614286Y-68752381D02*
X98614286Y-67752381D01*
X98995239Y-67752381D01*
X99090477Y-67800000D01*
X99138096Y-67847619D01*
X99185715Y-67942857D01*
X99185715Y-68085714D01*
X99138096Y-68180952D01*
X99090477Y-68228571D01*
X98995239Y-68276190D01*
X98614286Y-68276190D01*
X101552381Y-77504762D02*
X100552381Y-77504762D01*
X101552381Y-76552381D02*
X101552381Y-77028572D01*
X100552381Y-77028572D01*
X106261905Y-66102381D02*
X106261905Y-65102381D01*
X106642858Y-65102381D01*
X106738096Y-65150000D01*
X106785715Y-65197619D01*
X106833334Y-65292857D01*
X106833334Y-65435714D01*
X106785715Y-65530952D01*
X106738096Y-65578571D01*
X106642858Y-65626190D01*
X106261905Y-65626190D01*
X107166667Y-65102381D02*
X107833334Y-65102381D01*
X107404762Y-66102381D01*
X106133334Y-68852381D02*
X105800000Y-68376190D01*
X105561905Y-68852381D02*
X105561905Y-67852381D01*
X105942858Y-67852381D01*
X106038096Y-67900000D01*
X106085715Y-67947619D01*
X106133334Y-68042857D01*
X106133334Y-68185714D01*
X106085715Y-68280952D01*
X106038096Y-68328571D01*
X105942858Y-68376190D01*
X105561905Y-68376190D01*
X106514286Y-67947619D02*
X106561905Y-67900000D01*
X106657143Y-67852381D01*
X106895239Y-67852381D01*
X106990477Y-67900000D01*
X107038096Y-67947619D01*
X107085715Y-68042857D01*
X107085715Y-68138095D01*
X107038096Y-68280952D01*
X106466667Y-68852381D01*
X107085715Y-68852381D01*
X108085715Y-68852381D02*
X107752381Y-68376190D01*
X107514286Y-68852381D02*
X107514286Y-67852381D01*
X107895239Y-67852381D01*
X107990477Y-67900000D01*
X108038096Y-67947619D01*
X108085715Y-68042857D01*
X108085715Y-68185714D01*
X108038096Y-68280952D01*
X107990477Y-68328571D01*
X107895239Y-68376190D01*
X107514286Y-68376190D01*
X95942858Y-83852381D02*
X95942858Y-84566667D01*
X95895238Y-84709524D01*
X95800000Y-84804762D01*
X95657143Y-84852381D01*
X95561905Y-84852381D01*
X96942858Y-83900000D02*
X96847620Y-83852381D01*
X96704763Y-83852381D01*
X96561905Y-83900000D01*
X96466667Y-83995238D01*
X96419048Y-84090476D01*
X96371429Y-84280952D01*
X96371429Y-84423810D01*
X96419048Y-84614286D01*
X96466667Y-84709524D01*
X96561905Y-84804762D01*
X96704763Y-84852381D01*
X96800001Y-84852381D01*
X96942858Y-84804762D01*
X96990477Y-84757143D01*
X96990477Y-84423810D01*
X96800001Y-84423810D01*
X90952381Y-78161904D02*
X91666667Y-78161904D01*
X91809524Y-78209524D01*
X91904762Y-78304762D01*
X91952381Y-78447619D01*
X91952381Y-78542857D01*
X91952381Y-77209523D02*
X91952381Y-77685714D01*
X90952381Y-77685714D01*
X99652381Y-78757142D02*
X100366667Y-78757142D01*
X100509524Y-78804762D01*
X100604762Y-78900000D01*
X100652381Y-79042857D01*
X100652381Y-79138095D01*
X100652381Y-77709523D02*
X100176190Y-78042857D01*
X100652381Y-78280952D02*
X99652381Y-78280952D01*
X99652381Y-77899999D01*
X99700000Y-77804761D01*
X99747619Y-77757142D01*
X99842857Y-77709523D01*
X99985714Y-77709523D01*
X100080952Y-77757142D01*
X100128571Y-77804761D01*
X100176190Y-77899999D01*
X100176190Y-78280952D01*
X178738096Y-80000000D02*
X178642858Y-79952381D01*
X178500001Y-79952381D01*
X178357143Y-80000000D01*
X178261905Y-80095238D01*
X178214286Y-80190476D01*
X178166667Y-80380952D01*
X178166667Y-80523810D01*
X178214286Y-80714286D01*
X178261905Y-80809524D01*
X178357143Y-80904762D01*
X178500001Y-80952381D01*
X178595239Y-80952381D01*
X178738096Y-80904762D01*
X178785715Y-80857143D01*
X178785715Y-80523810D01*
X178595239Y-80523810D01*
X179214286Y-80952381D02*
X179214286Y-79952381D01*
X179785715Y-80952381D01*
X179785715Y-79952381D01*
X180261905Y-80952381D02*
X180261905Y-79952381D01*
X180500000Y-79952381D01*
X180642858Y-80000000D01*
X180738096Y-80095238D01*
X180785715Y-80190476D01*
X180833334Y-80380952D01*
X180833334Y-80523810D01*
X180785715Y-80714286D01*
X180738096Y-80809524D01*
X180642858Y-80904762D01*
X180500000Y-80952381D01*
X180261905Y-80952381D01*
X182438096Y-80000000D02*
X182342858Y-79952381D01*
X182200001Y-79952381D01*
X182057143Y-80000000D01*
X181961905Y-80095238D01*
X181914286Y-80190476D01*
X181866667Y-80380952D01*
X181866667Y-80523810D01*
X181914286Y-80714286D01*
X181961905Y-80809524D01*
X182057143Y-80904762D01*
X182200001Y-80952381D01*
X182295239Y-80952381D01*
X182438096Y-80904762D01*
X182485715Y-80857143D01*
X182485715Y-80523810D01*
X182295239Y-80523810D01*
X182914286Y-80952381D02*
X182914286Y-79952381D01*
X183485715Y-80952381D01*
X183485715Y-79952381D01*
X183961905Y-80952381D02*
X183961905Y-79952381D01*
X184200000Y-79952381D01*
X184342858Y-80000000D01*
X184438096Y-80095238D01*
X184485715Y-80190476D01*
X184533334Y-80380952D01*
X184533334Y-80523810D01*
X184485715Y-80714286D01*
X184438096Y-80809524D01*
X184342858Y-80904762D01*
X184200000Y-80952381D01*
X183961905Y-80952381D01*
X174166667Y-80571429D02*
X174928572Y-80571429D01*
X174547620Y-80952381D02*
X174547620Y-80190476D01*
X175928572Y-80952381D02*
X175357143Y-80952381D01*
X175642857Y-80952381D02*
X175642857Y-79952381D01*
X175547619Y-80095238D01*
X175452381Y-80190476D01*
X175357143Y-80238095D01*
X176833334Y-79952381D02*
X176357143Y-79952381D01*
X176309524Y-80428571D01*
X176357143Y-80380952D01*
X176452381Y-80333333D01*
X176690477Y-80333333D01*
X176785715Y-80380952D01*
X176833334Y-80428571D01*
X176880953Y-80523810D01*
X176880953Y-80761905D01*
X176833334Y-80857143D01*
X176785715Y-80904762D01*
X176690477Y-80952381D01*
X176452381Y-80952381D01*
X176357143Y-80904762D01*
X176309524Y-80857143D01*
X179838096Y-69300000D02*
X179742858Y-69252381D01*
X179600001Y-69252381D01*
X179457143Y-69300000D01*
X179361905Y-69395238D01*
X179314286Y-69490476D01*
X179266667Y-69680952D01*
X179266667Y-69823810D01*
X179314286Y-70014286D01*
X179361905Y-70109524D01*
X179457143Y-70204762D01*
X179600001Y-70252381D01*
X179695239Y-70252381D01*
X179838096Y-70204762D01*
X179885715Y-70157143D01*
X179885715Y-69823810D01*
X179695239Y-69823810D01*
X180314286Y-70252381D02*
X180314286Y-69252381D01*
X180885715Y-70252381D01*
X180885715Y-69252381D01*
X181361905Y-70252381D02*
X181361905Y-69252381D01*
X181600000Y-69252381D01*
X181742858Y-69300000D01*
X181838096Y-69395238D01*
X181885715Y-69490476D01*
X181933334Y-69680952D01*
X181933334Y-69823810D01*
X181885715Y-70014286D01*
X181838096Y-70109524D01*
X181742858Y-70204762D01*
X181600000Y-70252381D01*
X181361905Y-70252381D01*
X173752381Y-83361904D02*
X173752381Y-83838095D01*
X172752381Y-83838095D01*
X173085714Y-83028571D02*
X174085714Y-83028571D01*
X173133333Y-83028571D02*
X173085714Y-82933333D01*
X173085714Y-82742856D01*
X173133333Y-82647618D01*
X173180952Y-82599999D01*
X173276190Y-82552380D01*
X173561905Y-82552380D01*
X173657143Y-82599999D01*
X173704762Y-82647618D01*
X173752381Y-82742856D01*
X173752381Y-82933333D01*
X173704762Y-83028571D01*
X173371429Y-82123809D02*
X173371429Y-81361904D01*
X159238096Y-63552381D02*
X158904762Y-63076190D01*
X158666667Y-63552381D02*
X158666667Y-62552381D01*
X159047620Y-62552381D01*
X159142858Y-62600000D01*
X159190477Y-62647619D01*
X159238096Y-62742857D01*
X159238096Y-62885714D01*
X159190477Y-62980952D01*
X159142858Y-63028571D01*
X159047620Y-63076190D01*
X158666667Y-63076190D01*
X159666667Y-62885714D02*
X159666667Y-63885714D01*
X159666667Y-62933333D02*
X159761905Y-62885714D01*
X159952382Y-62885714D01*
X160047620Y-62933333D01*
X160095239Y-62980952D01*
X160142858Y-63076190D01*
X160142858Y-63361905D01*
X160095239Y-63457143D01*
X160047620Y-63504762D01*
X159952382Y-63552381D01*
X159761905Y-63552381D01*
X159666667Y-63504762D01*
X160571429Y-63171429D02*
X161333334Y-63171429D01*
X160952382Y-63552381D02*
X160952382Y-62790476D01*
X123009524Y-80852381D02*
X122533333Y-80852381D01*
X122533333Y-79852381D01*
X123342857Y-80852381D02*
X123342857Y-79852381D01*
X123723810Y-79852381D01*
X123819048Y-79900000D01*
X123866667Y-79947619D01*
X123914286Y-80042857D01*
X123914286Y-80185714D01*
X123866667Y-80280952D01*
X123819048Y-80328571D01*
X123723810Y-80376190D01*
X123342857Y-80376190D01*
X121909524Y-63652381D02*
X121576190Y-63176190D01*
X121338095Y-63652381D02*
X121338095Y-62652381D01*
X121719048Y-62652381D01*
X121814286Y-62700000D01*
X121861905Y-62747619D01*
X121909524Y-62842857D01*
X121909524Y-62985714D01*
X121861905Y-63080952D01*
X121814286Y-63128571D01*
X121719048Y-63176190D01*
X121338095Y-63176190D01*
X122338095Y-63652381D02*
X122338095Y-62652381D01*
X122719048Y-62652381D01*
X122814286Y-62700000D01*
X122861905Y-62747619D01*
X122909524Y-62842857D01*
X122909524Y-62985714D01*
X122861905Y-63080952D01*
X122814286Y-63128571D01*
X122719048Y-63176190D01*
X122338095Y-63176190D01*
X141471429Y-80552381D02*
X140995238Y-80552381D01*
X140995238Y-79552381D01*
X141804762Y-80552381D02*
X141804762Y-79552381D01*
X142185715Y-79552381D01*
X142280953Y-79600000D01*
X142328572Y-79647619D01*
X142376191Y-79742857D01*
X142376191Y-79885714D01*
X142328572Y-79980952D01*
X142280953Y-80028571D01*
X142185715Y-80076190D01*
X141804762Y-80076190D01*
X142804762Y-80552381D02*
X142804762Y-79885714D01*
X142804762Y-79552381D02*
X142757143Y-79600000D01*
X142804762Y-79647619D01*
X142852381Y-79600000D01*
X142804762Y-79552381D01*
X142804762Y-79647619D01*
X142171429Y-63552381D02*
X141838095Y-63076190D01*
X141600000Y-63552381D02*
X141600000Y-62552381D01*
X141980953Y-62552381D01*
X142076191Y-62600000D01*
X142123810Y-62647619D01*
X142171429Y-62742857D01*
X142171429Y-62885714D01*
X142123810Y-62980952D01*
X142076191Y-63028571D01*
X141980953Y-63076190D01*
X141600000Y-63076190D01*
X142600000Y-63552381D02*
X142600000Y-62552381D01*
X142980953Y-62552381D01*
X143076191Y-62600000D01*
X143123810Y-62647619D01*
X143171429Y-62742857D01*
X143171429Y-62885714D01*
X143123810Y-62980952D01*
X143076191Y-63028571D01*
X142980953Y-63076190D01*
X142600000Y-63076190D01*
X143600000Y-63552381D02*
X143600000Y-62885714D01*
X143600000Y-62552381D02*
X143552381Y-62600000D01*
X143600000Y-62647619D01*
X143647619Y-62600000D01*
X143600000Y-62552381D01*
X143600000Y-62647619D01*
X162690477Y-63552381D02*
X162357143Y-63076190D01*
X162119048Y-63552381D02*
X162119048Y-62552381D01*
X162500001Y-62552381D01*
X162595239Y-62600000D01*
X162642858Y-62647619D01*
X162690477Y-62742857D01*
X162690477Y-62885714D01*
X162642858Y-62980952D01*
X162595239Y-63028571D01*
X162500001Y-63076190D01*
X162119048Y-63076190D01*
X163119048Y-63552381D02*
X163119048Y-62552381D01*
X163500001Y-62552381D01*
X163595239Y-62600000D01*
X163642858Y-62647619D01*
X163690477Y-62742857D01*
X163690477Y-62885714D01*
X163642858Y-62980952D01*
X163595239Y-63028571D01*
X163500001Y-63076190D01*
X163119048Y-63076190D01*
X164119048Y-63171429D02*
X164880953Y-63171429D01*
X165352381Y-83661904D02*
X165352381Y-84138095D01*
X164352381Y-84138095D01*
X164685714Y-83328571D02*
X165685714Y-83328571D01*
X164733333Y-83328571D02*
X164685714Y-83233333D01*
X164685714Y-83042856D01*
X164733333Y-82947618D01*
X164780952Y-82899999D01*
X164876190Y-82852380D01*
X165161905Y-82852380D01*
X165257143Y-82899999D01*
X165304762Y-82947618D01*
X165352381Y-83042856D01*
X165352381Y-83233333D01*
X165304762Y-83328571D01*
X164971429Y-82423809D02*
X164971429Y-81661904D01*
X165352381Y-82042856D02*
X164590476Y-82042856D01*
X128190477Y-62800000D02*
X128095239Y-62752381D01*
X127952382Y-62752381D01*
X127809524Y-62800000D01*
X127714286Y-62895238D01*
X127666667Y-62990476D01*
X127619048Y-63180952D01*
X127619048Y-63323810D01*
X127666667Y-63514286D01*
X127714286Y-63609524D01*
X127809524Y-63704762D01*
X127952382Y-63752381D01*
X128047620Y-63752381D01*
X128190477Y-63704762D01*
X128238096Y-63657143D01*
X128238096Y-63323810D01*
X128047620Y-63323810D01*
X129238096Y-63752381D02*
X128904762Y-63276190D01*
X128666667Y-63752381D02*
X128666667Y-62752381D01*
X129047620Y-62752381D01*
X129142858Y-62800000D01*
X129190477Y-62847619D01*
X129238096Y-62942857D01*
X129238096Y-63085714D01*
X129190477Y-63180952D01*
X129142858Y-63228571D01*
X129047620Y-63276190D01*
X128666667Y-63276190D01*
X129666667Y-63752381D02*
X129666667Y-62752381D01*
X130000001Y-63466667D01*
X130333334Y-62752381D01*
X130333334Y-63752381D01*
X131957143Y-62800000D02*
X131861905Y-62752381D01*
X131719048Y-62752381D01*
X131576190Y-62800000D01*
X131480952Y-62895238D01*
X131433333Y-62990476D01*
X131385714Y-63180952D01*
X131385714Y-63323810D01*
X131433333Y-63514286D01*
X131480952Y-63609524D01*
X131576190Y-63704762D01*
X131719048Y-63752381D01*
X131814286Y-63752381D01*
X131957143Y-63704762D01*
X132004762Y-63657143D01*
X132004762Y-63323810D01*
X131814286Y-63323810D01*
X133004762Y-63752381D02*
X132671428Y-63276190D01*
X132433333Y-63752381D02*
X132433333Y-62752381D01*
X132814286Y-62752381D01*
X132909524Y-62800000D01*
X132957143Y-62847619D01*
X133004762Y-62942857D01*
X133004762Y-63085714D01*
X132957143Y-63180952D01*
X132909524Y-63228571D01*
X132814286Y-63276190D01*
X132433333Y-63276190D01*
X133909524Y-63752381D02*
X133433333Y-63752381D01*
X133433333Y-62752381D01*
X124838096Y-62800000D02*
X124742858Y-62752381D01*
X124600001Y-62752381D01*
X124457143Y-62800000D01*
X124361905Y-62895238D01*
X124314286Y-62990476D01*
X124266667Y-63180952D01*
X124266667Y-63323810D01*
X124314286Y-63514286D01*
X124361905Y-63609524D01*
X124457143Y-63704762D01*
X124600001Y-63752381D01*
X124695239Y-63752381D01*
X124838096Y-63704762D01*
X124885715Y-63657143D01*
X124885715Y-63323810D01*
X124695239Y-63323810D01*
X125885715Y-63752381D02*
X125552381Y-63276190D01*
X125314286Y-63752381D02*
X125314286Y-62752381D01*
X125695239Y-62752381D01*
X125790477Y-62800000D01*
X125838096Y-62847619D01*
X125885715Y-62942857D01*
X125885715Y-63085714D01*
X125838096Y-63180952D01*
X125790477Y-63228571D01*
X125695239Y-63276190D01*
X125314286Y-63276190D01*
X126314286Y-63752381D02*
X126314286Y-62752381D01*
X126314286Y-63228571D02*
X126885715Y-63228571D01*
X126885715Y-63752381D02*
X126885715Y-62752381D01*
X127785714Y-78102381D02*
X127785714Y-77102381D01*
X128166667Y-77102381D01*
X128261905Y-77150000D01*
X128309524Y-77197619D01*
X128357143Y-77292857D01*
X128357143Y-77435714D01*
X128309524Y-77530952D01*
X128261905Y-77578571D01*
X128166667Y-77626190D01*
X127785714Y-77626190D01*
X128690476Y-77102381D02*
X129309524Y-77102381D01*
X128976190Y-77483333D01*
X129119048Y-77483333D01*
X129214286Y-77530952D01*
X129261905Y-77578571D01*
X129309524Y-77673810D01*
X129309524Y-77911905D01*
X129261905Y-78007143D01*
X129214286Y-78054762D01*
X129119048Y-78102381D01*
X128833333Y-78102381D01*
X128738095Y-78054762D01*
X128690476Y-78007143D01*
X129690476Y-77197619D02*
X129738095Y-77150000D01*
X129833333Y-77102381D01*
X130071429Y-77102381D01*
X130166667Y-77150000D01*
X130214286Y-77197619D01*
X130261905Y-77292857D01*
X130261905Y-77388095D01*
X130214286Y-77530952D01*
X129642857Y-78102381D01*
X130261905Y-78102381D01*
X128285715Y-79900000D02*
X128190477Y-79852381D01*
X128047620Y-79852381D01*
X127904762Y-79900000D01*
X127809524Y-79995238D01*
X127761905Y-80090476D01*
X127714286Y-80280952D01*
X127714286Y-80423810D01*
X127761905Y-80614286D01*
X127809524Y-80709524D01*
X127904762Y-80804762D01*
X128047620Y-80852381D01*
X128142858Y-80852381D01*
X128285715Y-80804762D01*
X128333334Y-80757143D01*
X128333334Y-80423810D01*
X128142858Y-80423810D01*
X129238096Y-80852381D02*
X128761905Y-80852381D01*
X128761905Y-79852381D01*
X129571429Y-80852381D02*
X129571429Y-79852381D01*
X129904763Y-80566667D01*
X130238096Y-79852381D01*
X130238096Y-80852381D01*
X131852381Y-79900000D02*
X131757143Y-79852381D01*
X131614286Y-79852381D01*
X131471428Y-79900000D01*
X131376190Y-79995238D01*
X131328571Y-80090476D01*
X131280952Y-80280952D01*
X131280952Y-80423810D01*
X131328571Y-80614286D01*
X131376190Y-80709524D01*
X131471428Y-80804762D01*
X131614286Y-80852381D01*
X131709524Y-80852381D01*
X131852381Y-80804762D01*
X131900000Y-80757143D01*
X131900000Y-80423810D01*
X131709524Y-80423810D01*
X132804762Y-80852381D02*
X132328571Y-80852381D01*
X132328571Y-79852381D01*
X133614286Y-80852381D02*
X133138095Y-80852381D01*
X133138095Y-79852381D01*
X125233334Y-79900000D02*
X125138096Y-79852381D01*
X124995239Y-79852381D01*
X124852381Y-79900000D01*
X124757143Y-79995238D01*
X124709524Y-80090476D01*
X124661905Y-80280952D01*
X124661905Y-80423810D01*
X124709524Y-80614286D01*
X124757143Y-80709524D01*
X124852381Y-80804762D01*
X124995239Y-80852381D01*
X125090477Y-80852381D01*
X125233334Y-80804762D01*
X125280953Y-80757143D01*
X125280953Y-80423810D01*
X125090477Y-80423810D01*
X126185715Y-80852381D02*
X125709524Y-80852381D01*
X125709524Y-79852381D01*
X126519048Y-80852381D02*
X126519048Y-79852381D01*
X126519048Y-80328571D02*
X127090477Y-80328571D01*
X127090477Y-80852381D02*
X127090477Y-79852381D01*
X167909524Y-63652381D02*
X167433333Y-63652381D01*
X167433333Y-62652381D01*
X168242857Y-63652381D02*
X168242857Y-62652381D01*
X168814286Y-63652381D02*
X168385714Y-63080952D01*
X168814286Y-62652381D02*
X168242857Y-63223810D01*
X178285714Y-63504762D02*
X178428571Y-63552381D01*
X178666667Y-63552381D01*
X178761905Y-63504762D01*
X178809524Y-63457143D01*
X178857143Y-63361905D01*
X178857143Y-63266667D01*
X178809524Y-63171429D01*
X178761905Y-63123810D01*
X178666667Y-63076190D01*
X178476190Y-63028571D01*
X178380952Y-62980952D01*
X178333333Y-62933333D01*
X178285714Y-62838095D01*
X178285714Y-62742857D01*
X178333333Y-62647619D01*
X178380952Y-62600000D01*
X178476190Y-62552381D01*
X178714286Y-62552381D01*
X178857143Y-62600000D01*
X179190476Y-62552381D02*
X179428571Y-63552381D01*
X179619048Y-62838095D01*
X179809524Y-63552381D01*
X180047619Y-62552381D01*
X180190476Y-63647619D02*
X180952381Y-63647619D01*
X181714286Y-63552381D02*
X181142857Y-63552381D01*
X181428571Y-63552381D02*
X181428571Y-62552381D01*
X181333333Y-62695238D01*
X181238095Y-62790476D01*
X181142857Y-62838095D01*
X174185714Y-63604762D02*
X174328571Y-63652381D01*
X174566667Y-63652381D01*
X174661905Y-63604762D01*
X174709524Y-63557143D01*
X174757143Y-63461905D01*
X174757143Y-63366667D01*
X174709524Y-63271429D01*
X174661905Y-63223810D01*
X174566667Y-63176190D01*
X174376190Y-63128571D01*
X174280952Y-63080952D01*
X174233333Y-63033333D01*
X174185714Y-62938095D01*
X174185714Y-62842857D01*
X174233333Y-62747619D01*
X174280952Y-62700000D01*
X174376190Y-62652381D01*
X174614286Y-62652381D01*
X174757143Y-62700000D01*
X175090476Y-62652381D02*
X175328571Y-63652381D01*
X175519048Y-62938095D01*
X175709524Y-63652381D01*
X175947619Y-62652381D01*
X176090476Y-63747619D02*
X176852381Y-63747619D01*
X177042857Y-62747619D02*
X177090476Y-62700000D01*
X177185714Y-62652381D01*
X177423810Y-62652381D01*
X177519048Y-62700000D01*
X177566667Y-62747619D01*
X177614286Y-62842857D01*
X177614286Y-62938095D01*
X177566667Y-63080952D01*
X176995238Y-63652381D01*
X177614286Y-63652381D01*
X171180953Y-63652381D02*
X170704762Y-63652381D01*
X170704762Y-62652381D01*
X171466667Y-63366667D02*
X171942858Y-63366667D01*
X171371429Y-63652381D02*
X171704762Y-62652381D01*
X172038096Y-63652381D01*
X144742857Y-62552381D02*
X145076190Y-63552381D01*
X145409524Y-62552381D01*
X146314286Y-63552381D02*
X145980952Y-63076190D01*
X145742857Y-63552381D02*
X145742857Y-62552381D01*
X146123810Y-62552381D01*
X146219048Y-62600000D01*
X146266667Y-62647619D01*
X146314286Y-62742857D01*
X146314286Y-62885714D01*
X146266667Y-62980952D01*
X146219048Y-63028571D01*
X146123810Y-63076190D01*
X145742857Y-63076190D01*
X146742857Y-63552381D02*
X146742857Y-62552381D01*
X146742857Y-63028571D02*
X147314286Y-63028571D01*
X147314286Y-63552381D02*
X147314286Y-62552381D01*
X151957143Y-79852381D02*
X152290476Y-80852381D01*
X152623810Y-79852381D01*
X153433334Y-80852381D02*
X152957143Y-80852381D01*
X152957143Y-79852381D01*
X154242858Y-80852381D02*
X153766667Y-80852381D01*
X153766667Y-79852381D01*
X144538095Y-79852381D02*
X144871428Y-80852381D01*
X145204762Y-79852381D01*
X146014286Y-80852381D02*
X145538095Y-80852381D01*
X145538095Y-79852381D01*
X146347619Y-80852381D02*
X146347619Y-79852381D01*
X146347619Y-80328571D02*
X146919048Y-80328571D01*
X146919048Y-80852381D02*
X146919048Y-79852381D01*
X148295238Y-62552381D02*
X148628571Y-63552381D01*
X148961905Y-62552381D01*
X149866667Y-63552381D02*
X149533333Y-63076190D01*
X149295238Y-63552381D02*
X149295238Y-62552381D01*
X149676191Y-62552381D01*
X149771429Y-62600000D01*
X149819048Y-62647619D01*
X149866667Y-62742857D01*
X149866667Y-62885714D01*
X149819048Y-62980952D01*
X149771429Y-63028571D01*
X149676191Y-63076190D01*
X149295238Y-63076190D01*
X150295238Y-63552381D02*
X150295238Y-62552381D01*
X150628572Y-63266667D01*
X150961905Y-62552381D01*
X150961905Y-63552381D01*
X152061905Y-62552381D02*
X152395238Y-63552381D01*
X152728572Y-62552381D01*
X153633334Y-63552381D02*
X153300000Y-63076190D01*
X153061905Y-63552381D02*
X153061905Y-62552381D01*
X153442858Y-62552381D01*
X153538096Y-62600000D01*
X153585715Y-62647619D01*
X153633334Y-62742857D01*
X153633334Y-62885714D01*
X153585715Y-62980952D01*
X153538096Y-63028571D01*
X153442858Y-63076190D01*
X153061905Y-63076190D01*
X154538096Y-63552381D02*
X154061905Y-63552381D01*
X154061905Y-62552381D01*
X148890476Y-79752381D02*
X149223809Y-80752381D01*
X149557143Y-79752381D01*
X150366667Y-80752381D02*
X149890476Y-80752381D01*
X149890476Y-79752381D01*
X150700000Y-80752381D02*
X150700000Y-79752381D01*
X151033334Y-80466667D01*
X151366667Y-79752381D01*
X151366667Y-80752381D01*
X117683334Y-63852381D02*
X117350000Y-63376190D01*
X117111905Y-63852381D02*
X117111905Y-62852381D01*
X117492858Y-62852381D01*
X117588096Y-62900000D01*
X117635715Y-62947619D01*
X117683334Y-63042857D01*
X117683334Y-63185714D01*
X117635715Y-63280952D01*
X117588096Y-63328571D01*
X117492858Y-63376190D01*
X117111905Y-63376190D01*
X118635715Y-63852381D02*
X118064286Y-63852381D01*
X118350000Y-63852381D02*
X118350000Y-62852381D01*
X118254762Y-62995238D01*
X118159524Y-63090476D01*
X118064286Y-63138095D01*
X114433334Y-83652381D02*
X114100000Y-83176190D01*
X113861905Y-83652381D02*
X113861905Y-82652381D01*
X114242858Y-82652381D01*
X114338096Y-82700000D01*
X114385715Y-82747619D01*
X114433334Y-82842857D01*
X114433334Y-82985714D01*
X114385715Y-83080952D01*
X114338096Y-83128571D01*
X114242858Y-83176190D01*
X113861905Y-83176190D01*
X114814286Y-82747619D02*
X114861905Y-82700000D01*
X114957143Y-82652381D01*
X115195239Y-82652381D01*
X115290477Y-82700000D01*
X115338096Y-82747619D01*
X115385715Y-82842857D01*
X115385715Y-82938095D01*
X115338096Y-83080952D01*
X114766667Y-83652381D01*
X115385715Y-83652381D01*
X121033334Y-75552381D02*
X120700000Y-75076190D01*
X120461905Y-75552381D02*
X120461905Y-74552381D01*
X120842858Y-74552381D01*
X120938096Y-74600000D01*
X120985715Y-74647619D01*
X121033334Y-74742857D01*
X121033334Y-74885714D01*
X120985715Y-74980952D01*
X120938096Y-75028571D01*
X120842858Y-75076190D01*
X120461905Y-75076190D01*
X121366667Y-74552381D02*
X121985715Y-74552381D01*
X121652381Y-74933333D01*
X121795239Y-74933333D01*
X121890477Y-74980952D01*
X121938096Y-75028571D01*
X121985715Y-75123810D01*
X121985715Y-75361905D01*
X121938096Y-75457143D01*
X121890477Y-75504762D01*
X121795239Y-75552381D01*
X121509524Y-75552381D01*
X121414286Y-75504762D01*
X121366667Y-75457143D01*
X123452381Y-70566666D02*
X122976190Y-70900000D01*
X123452381Y-71138095D02*
X122452381Y-71138095D01*
X122452381Y-70757142D01*
X122500000Y-70661904D01*
X122547619Y-70614285D01*
X122642857Y-70566666D01*
X122785714Y-70566666D01*
X122880952Y-70614285D01*
X122928571Y-70661904D01*
X122976190Y-70757142D01*
X122976190Y-71138095D01*
X122785714Y-69709523D02*
X123452381Y-69709523D01*
X122404762Y-69947619D02*
X123119048Y-70185714D01*
X123119048Y-69566666D01*
X162133334Y-73352381D02*
X161800000Y-72876190D01*
X161561905Y-73352381D02*
X161561905Y-72352381D01*
X161942858Y-72352381D01*
X162038096Y-72400000D01*
X162085715Y-72447619D01*
X162133334Y-72542857D01*
X162133334Y-72685714D01*
X162085715Y-72780952D01*
X162038096Y-72828571D01*
X161942858Y-72876190D01*
X161561905Y-72876190D01*
X162990477Y-72352381D02*
X162800000Y-72352381D01*
X162704762Y-72400000D01*
X162657143Y-72447619D01*
X162561905Y-72590476D01*
X162514286Y-72780952D01*
X162514286Y-73161905D01*
X162561905Y-73257143D01*
X162609524Y-73304762D01*
X162704762Y-73352381D01*
X162895239Y-73352381D01*
X162990477Y-73304762D01*
X163038096Y-73257143D01*
X163085715Y-73161905D01*
X163085715Y-72923810D01*
X163038096Y-72828571D01*
X162990477Y-72780952D01*
X162895239Y-72733333D01*
X162704762Y-72733333D01*
X162609524Y-72780952D01*
X162561905Y-72828571D01*
X162514286Y-72923810D01*
X161783334Y-68152381D02*
X161450000Y-67676190D01*
X161211905Y-68152381D02*
X161211905Y-67152381D01*
X161592858Y-67152381D01*
X161688096Y-67200000D01*
X161735715Y-67247619D01*
X161783334Y-67342857D01*
X161783334Y-67485714D01*
X161735715Y-67580952D01*
X161688096Y-67628571D01*
X161592858Y-67676190D01*
X161211905Y-67676190D01*
X162354762Y-67580952D02*
X162259524Y-67533333D01*
X162211905Y-67485714D01*
X162164286Y-67390476D01*
X162164286Y-67342857D01*
X162211905Y-67247619D01*
X162259524Y-67200000D01*
X162354762Y-67152381D01*
X162545239Y-67152381D01*
X162640477Y-67200000D01*
X162688096Y-67247619D01*
X162735715Y-67342857D01*
X162735715Y-67390476D01*
X162688096Y-67485714D01*
X162640477Y-67533333D01*
X162545239Y-67580952D01*
X162354762Y-67580952D01*
X162259524Y-67628571D01*
X162211905Y-67676190D01*
X162164286Y-67771429D01*
X162164286Y-67961905D01*
X162211905Y-68057143D01*
X162259524Y-68104762D01*
X162354762Y-68152381D01*
X162545239Y-68152381D01*
X162640477Y-68104762D01*
X162688096Y-68057143D01*
X162735715Y-67961905D01*
X162735715Y-67771429D01*
X162688096Y-67676190D01*
X162640477Y-67628571D01*
X162545239Y-67580952D01*
X166952381Y-73016666D02*
X166476190Y-73350000D01*
X166952381Y-73588095D02*
X165952381Y-73588095D01*
X165952381Y-73207142D01*
X166000000Y-73111904D01*
X166047619Y-73064285D01*
X166142857Y-73016666D01*
X166285714Y-73016666D01*
X166380952Y-73064285D01*
X166428571Y-73111904D01*
X166476190Y-73207142D01*
X166476190Y-73588095D01*
X166952381Y-72540476D02*
X166952381Y-72350000D01*
X166904762Y-72254761D01*
X166857143Y-72207142D01*
X166714286Y-72111904D01*
X166523810Y-72064285D01*
X166142857Y-72064285D01*
X166047619Y-72111904D01*
X166000000Y-72159523D01*
X165952381Y-72254761D01*
X165952381Y-72445238D01*
X166000000Y-72540476D01*
X166047619Y-72588095D01*
X166142857Y-72635714D01*
X166380952Y-72635714D01*
X166476190Y-72588095D01*
X166523810Y-72540476D01*
X166571429Y-72445238D01*
X166571429Y-72254761D01*
X166523810Y-72159523D01*
X166476190Y-72111904D01*
X166380952Y-72064285D01*
X163057143Y-78852381D02*
X162723809Y-78376190D01*
X162485714Y-78852381D02*
X162485714Y-77852381D01*
X162866667Y-77852381D01*
X162961905Y-77900000D01*
X163009524Y-77947619D01*
X163057143Y-78042857D01*
X163057143Y-78185714D01*
X163009524Y-78280952D01*
X162961905Y-78328571D01*
X162866667Y-78376190D01*
X162485714Y-78376190D01*
X164009524Y-78852381D02*
X163438095Y-78852381D01*
X163723809Y-78852381D02*
X163723809Y-77852381D01*
X163628571Y-77995238D01*
X163533333Y-78090476D01*
X163438095Y-78138095D01*
X164628571Y-77852381D02*
X164723810Y-77852381D01*
X164819048Y-77900000D01*
X164866667Y-77947619D01*
X164914286Y-78042857D01*
X164961905Y-78233333D01*
X164961905Y-78471429D01*
X164914286Y-78661905D01*
X164866667Y-78757143D01*
X164819048Y-78804762D01*
X164723810Y-78852381D01*
X164628571Y-78852381D01*
X164533333Y-78804762D01*
X164485714Y-78757143D01*
X164438095Y-78661905D01*
X164390476Y-78471429D01*
X164390476Y-78233333D01*
X164438095Y-78042857D01*
X164485714Y-77947619D01*
X164533333Y-77900000D01*
X164628571Y-77852381D01*
X171257143Y-70652381D02*
X170923809Y-70176190D01*
X170685714Y-70652381D02*
X170685714Y-69652381D01*
X171066667Y-69652381D01*
X171161905Y-69700000D01*
X171209524Y-69747619D01*
X171257143Y-69842857D01*
X171257143Y-69985714D01*
X171209524Y-70080952D01*
X171161905Y-70128571D01*
X171066667Y-70176190D01*
X170685714Y-70176190D01*
X172209524Y-70652381D02*
X171638095Y-70652381D01*
X171923809Y-70652381D02*
X171923809Y-69652381D01*
X171828571Y-69795238D01*
X171733333Y-69890476D01*
X171638095Y-69938095D01*
X173161905Y-70652381D02*
X172590476Y-70652381D01*
X172876190Y-70652381D02*
X172876190Y-69652381D01*
X172780952Y-69795238D01*
X172685714Y-69890476D01*
X172590476Y-69938095D01*
X139357143Y-71752381D02*
X139023809Y-71276190D01*
X138785714Y-71752381D02*
X138785714Y-70752381D01*
X139166667Y-70752381D01*
X139261905Y-70800000D01*
X139309524Y-70847619D01*
X139357143Y-70942857D01*
X139357143Y-71085714D01*
X139309524Y-71180952D01*
X139261905Y-71228571D01*
X139166667Y-71276190D01*
X138785714Y-71276190D01*
X140309524Y-71752381D02*
X139738095Y-71752381D01*
X140023809Y-71752381D02*
X140023809Y-70752381D01*
X139928571Y-70895238D01*
X139833333Y-70990476D01*
X139738095Y-71038095D01*
X140690476Y-70847619D02*
X140738095Y-70800000D01*
X140833333Y-70752381D01*
X141071429Y-70752381D01*
X141166667Y-70800000D01*
X141214286Y-70847619D01*
X141261905Y-70942857D01*
X141261905Y-71038095D01*
X141214286Y-71180952D01*
X140642857Y-71752381D01*
X141261905Y-71752381D01*
X139307143Y-78252381D02*
X138973809Y-77776190D01*
X138735714Y-78252381D02*
X138735714Y-77252381D01*
X139116667Y-77252381D01*
X139211905Y-77300000D01*
X139259524Y-77347619D01*
X139307143Y-77442857D01*
X139307143Y-77585714D01*
X139259524Y-77680952D01*
X139211905Y-77728571D01*
X139116667Y-77776190D01*
X138735714Y-77776190D01*
X140259524Y-78252381D02*
X139688095Y-78252381D01*
X139973809Y-78252381D02*
X139973809Y-77252381D01*
X139878571Y-77395238D01*
X139783333Y-77490476D01*
X139688095Y-77538095D01*
X141116667Y-77585714D02*
X141116667Y-78252381D01*
X140878571Y-77204762D02*
X140640476Y-77919048D01*
X141259524Y-77919048D01*
X158657143Y-80152381D02*
X158323809Y-79676190D01*
X158085714Y-80152381D02*
X158085714Y-79152381D01*
X158466667Y-79152381D01*
X158561905Y-79200000D01*
X158609524Y-79247619D01*
X158657143Y-79342857D01*
X158657143Y-79485714D01*
X158609524Y-79580952D01*
X158561905Y-79628571D01*
X158466667Y-79676190D01*
X158085714Y-79676190D01*
X159609524Y-80152381D02*
X159038095Y-80152381D01*
X159323809Y-80152381D02*
X159323809Y-79152381D01*
X159228571Y-79295238D01*
X159133333Y-79390476D01*
X159038095Y-79438095D01*
X160466667Y-79152381D02*
X160276190Y-79152381D01*
X160180952Y-79200000D01*
X160133333Y-79247619D01*
X160038095Y-79390476D01*
X159990476Y-79580952D01*
X159990476Y-79961905D01*
X160038095Y-80057143D01*
X160085714Y-80104762D01*
X160180952Y-80152381D01*
X160371429Y-80152381D01*
X160466667Y-80104762D01*
X160514286Y-80057143D01*
X160561905Y-79961905D01*
X160561905Y-79723810D01*
X160514286Y-79628571D01*
X160466667Y-79580952D01*
X160371429Y-79533333D01*
X160180952Y-79533333D01*
X160085714Y-79580952D01*
X160038095Y-79628571D01*
X159990476Y-79723810D01*
X156857143Y-85052381D02*
X156523809Y-84576190D01*
X156285714Y-85052381D02*
X156285714Y-84052381D01*
X156666667Y-84052381D01*
X156761905Y-84100000D01*
X156809524Y-84147619D01*
X156857143Y-84242857D01*
X156857143Y-84385714D01*
X156809524Y-84480952D01*
X156761905Y-84528571D01*
X156666667Y-84576190D01*
X156285714Y-84576190D01*
X157809524Y-85052381D02*
X157238095Y-85052381D01*
X157523809Y-85052381D02*
X157523809Y-84052381D01*
X157428571Y-84195238D01*
X157333333Y-84290476D01*
X157238095Y-84338095D01*
X158142857Y-84052381D02*
X158809524Y-84052381D01*
X158380952Y-85052381D01*
X152757143Y-79752381D02*
X152423809Y-79276190D01*
X152185714Y-79752381D02*
X152185714Y-78752381D01*
X152566667Y-78752381D01*
X152661905Y-78800000D01*
X152709524Y-78847619D01*
X152757143Y-78942857D01*
X152757143Y-79085714D01*
X152709524Y-79180952D01*
X152661905Y-79228571D01*
X152566667Y-79276190D01*
X152185714Y-79276190D01*
X153709524Y-79752381D02*
X153138095Y-79752381D01*
X153423809Y-79752381D02*
X153423809Y-78752381D01*
X153328571Y-78895238D01*
X153233333Y-78990476D01*
X153138095Y-79038095D01*
X154280952Y-79180952D02*
X154185714Y-79133333D01*
X154138095Y-79085714D01*
X154090476Y-78990476D01*
X154090476Y-78942857D01*
X154138095Y-78847619D01*
X154185714Y-78800000D01*
X154280952Y-78752381D01*
X154471429Y-78752381D01*
X154566667Y-78800000D01*
X154614286Y-78847619D01*
X154661905Y-78942857D01*
X154661905Y-78990476D01*
X154614286Y-79085714D01*
X154566667Y-79133333D01*
X154471429Y-79180952D01*
X154280952Y-79180952D01*
X154185714Y-79228571D01*
X154138095Y-79276190D01*
X154090476Y-79371429D01*
X154090476Y-79561905D01*
X154138095Y-79657143D01*
X154185714Y-79704762D01*
X154280952Y-79752381D01*
X154471429Y-79752381D01*
X154566667Y-79704762D01*
X154614286Y-79657143D01*
X154661905Y-79561905D01*
X154661905Y-79371429D01*
X154614286Y-79276190D01*
X154566667Y-79228571D01*
X154471429Y-79180952D01*
X153957143Y-69752381D02*
X153623809Y-69276190D01*
X153385714Y-69752381D02*
X153385714Y-68752381D01*
X153766667Y-68752381D01*
X153861905Y-68800000D01*
X153909524Y-68847619D01*
X153957143Y-68942857D01*
X153957143Y-69085714D01*
X153909524Y-69180952D01*
X153861905Y-69228571D01*
X153766667Y-69276190D01*
X153385714Y-69276190D01*
X154909524Y-69752381D02*
X154338095Y-69752381D01*
X154623809Y-69752381D02*
X154623809Y-68752381D01*
X154528571Y-68895238D01*
X154433333Y-68990476D01*
X154338095Y-69038095D01*
X155385714Y-69752381D02*
X155576190Y-69752381D01*
X155671429Y-69704762D01*
X155719048Y-69657143D01*
X155814286Y-69514286D01*
X155861905Y-69323810D01*
X155861905Y-68942857D01*
X155814286Y-68847619D01*
X155766667Y-68800000D01*
X155671429Y-68752381D01*
X155480952Y-68752381D01*
X155385714Y-68800000D01*
X155338095Y-68847619D01*
X155290476Y-68942857D01*
X155290476Y-69180952D01*
X155338095Y-69276190D01*
X155385714Y-69323810D01*
X155480952Y-69371429D01*
X155671429Y-69371429D01*
X155766667Y-69323810D01*
X155814286Y-69276190D01*
X155861905Y-69180952D01*
X134752381Y-75242857D02*
X134276190Y-75576191D01*
X134752381Y-75814286D02*
X133752381Y-75814286D01*
X133752381Y-75433333D01*
X133800000Y-75338095D01*
X133847619Y-75290476D01*
X133942857Y-75242857D01*
X134085714Y-75242857D01*
X134180952Y-75290476D01*
X134228571Y-75338095D01*
X134276190Y-75433333D01*
X134276190Y-75814286D01*
X133847619Y-74861905D02*
X133800000Y-74814286D01*
X133752381Y-74719048D01*
X133752381Y-74480952D01*
X133800000Y-74385714D01*
X133847619Y-74338095D01*
X133942857Y-74290476D01*
X134038095Y-74290476D01*
X134180952Y-74338095D01*
X134752381Y-74909524D01*
X134752381Y-74290476D01*
X133752381Y-73671429D02*
X133752381Y-73576190D01*
X133800000Y-73480952D01*
X133847619Y-73433333D01*
X133942857Y-73385714D01*
X134133333Y-73338095D01*
X134371429Y-73338095D01*
X134561905Y-73385714D01*
X134657143Y-73433333D01*
X134704762Y-73480952D01*
X134752381Y-73576190D01*
X134752381Y-73671429D01*
X134704762Y-73766667D01*
X134657143Y-73814286D01*
X134561905Y-73861905D01*
X134371429Y-73909524D01*
X134133333Y-73909524D01*
X133942857Y-73861905D01*
X133847619Y-73814286D01*
X133800000Y-73766667D01*
X133752381Y-73671429D01*
X152652381Y-74942857D02*
X152176190Y-75276191D01*
X152652381Y-75514286D02*
X151652381Y-75514286D01*
X151652381Y-75133333D01*
X151700000Y-75038095D01*
X151747619Y-74990476D01*
X151842857Y-74942857D01*
X151985714Y-74942857D01*
X152080952Y-74990476D01*
X152128571Y-75038095D01*
X152176190Y-75133333D01*
X152176190Y-75514286D01*
X151747619Y-74561905D02*
X151700000Y-74514286D01*
X151652381Y-74419048D01*
X151652381Y-74180952D01*
X151700000Y-74085714D01*
X151747619Y-74038095D01*
X151842857Y-73990476D01*
X151938095Y-73990476D01*
X152080952Y-74038095D01*
X152652381Y-74609524D01*
X152652381Y-73990476D01*
X152652381Y-73038095D02*
X152652381Y-73609524D01*
X152652381Y-73323810D02*
X151652381Y-73323810D01*
X151795238Y-73419048D01*
X151890476Y-73514286D01*
X151938095Y-73609524D01*
D12*
X102697081Y-54203966D02*
X102914795Y-54276538D01*
X103277652Y-54276538D01*
X103422795Y-54203966D01*
X103495366Y-54131395D01*
X103567938Y-53986252D01*
X103567938Y-53841109D01*
X103495366Y-53695966D01*
X103422795Y-53623395D01*
X103277652Y-53550823D01*
X102987366Y-53478252D01*
X102842224Y-53405680D01*
X102769652Y-53333109D01*
X102697081Y-53187966D01*
X102697081Y-53042823D01*
X102769652Y-52897680D01*
X102842224Y-52825109D01*
X102987366Y-52752538D01*
X103350224Y-52752538D01*
X103567938Y-52825109D01*
X105019367Y-54276538D02*
X104148510Y-54276538D01*
X104583938Y-54276538D02*
X104583938Y-52752538D01*
X104438795Y-52970252D01*
X104293653Y-53115395D01*
X104148510Y-53187966D01*
X101281938Y-52752538D02*
X102225367Y-52752538D01*
X101717367Y-53333109D01*
X101935081Y-53333109D01*
X102080224Y-53405680D01*
X102152795Y-53478252D01*
X102225367Y-53623395D01*
X102225367Y-53986252D01*
X102152795Y-54131395D01*
X102080224Y-54203966D01*
X101935081Y-54276538D01*
X101499653Y-54276538D01*
X101354510Y-54203966D01*
X101281938Y-54131395D01*
X102878510Y-54276538D02*
X102878510Y-52752538D01*
X103459082Y-52752538D01*
X103604224Y-52825109D01*
X103676796Y-52897680D01*
X103749367Y-53042823D01*
X103749367Y-53260538D01*
X103676796Y-53405680D01*
X103604224Y-53478252D01*
X103459082Y-53550823D01*
X102878510Y-53550823D01*
X105055653Y-53260538D02*
X105055653Y-54276538D01*
X104692796Y-52679966D02*
X104329939Y-53768538D01*
X105273367Y-53768538D01*
X105636225Y-52752538D02*
X106507082Y-52752538D01*
X106071653Y-54276538D02*
X106071653Y-52752538D01*
D11*
X161252381Y-74961905D02*
X162061905Y-74961905D01*
X162157143Y-74914286D01*
X162204762Y-74866667D01*
X162252381Y-74771429D01*
X162252381Y-74580952D01*
X162204762Y-74485714D01*
X162157143Y-74438095D01*
X162061905Y-74390476D01*
X161252381Y-74390476D01*
X162252381Y-73390476D02*
X162252381Y-73961905D01*
X162252381Y-73676191D02*
X161252381Y-73676191D01*
X161395238Y-73771429D01*
X161490476Y-73866667D01*
X161538095Y-73961905D01*
X146438095Y-77452381D02*
X146438095Y-78261905D01*
X146485714Y-78357143D01*
X146533333Y-78404762D01*
X146628571Y-78452381D01*
X146819048Y-78452381D01*
X146914286Y-78404762D01*
X146961905Y-78357143D01*
X147009524Y-78261905D01*
X147009524Y-77452381D01*
X147438095Y-77547619D02*
X147485714Y-77500000D01*
X147580952Y-77452381D01*
X147819048Y-77452381D01*
X147914286Y-77500000D01*
X147961905Y-77547619D01*
X148009524Y-77642857D01*
X148009524Y-77738095D01*
X147961905Y-77880952D01*
X147390476Y-78452381D01*
X148009524Y-78452381D01*
X126538095Y-68137381D02*
X126538095Y-68946905D01*
X126585714Y-69042143D01*
X126633333Y-69089762D01*
X126728571Y-69137381D01*
X126919048Y-69137381D01*
X127014286Y-69089762D01*
X127061905Y-69042143D01*
X127109524Y-68946905D01*
X127109524Y-68137381D01*
X127490476Y-68137381D02*
X128109524Y-68137381D01*
X127776190Y-68518333D01*
X127919048Y-68518333D01*
X128014286Y-68565952D01*
X128061905Y-68613571D01*
X128109524Y-68708810D01*
X128109524Y-68946905D01*
X128061905Y-69042143D01*
X128014286Y-69089762D01*
X127919048Y-69137381D01*
X127633333Y-69137381D01*
X127538095Y-69089762D01*
X127490476Y-69042143D01*
X171452381Y-69921905D02*
X172261905Y-69921905D01*
X172357143Y-69874286D01*
X172404762Y-69826667D01*
X172452381Y-69731429D01*
X172452381Y-69540952D01*
X172404762Y-69445714D01*
X172357143Y-69398095D01*
X172261905Y-69350476D01*
X171452381Y-69350476D01*
X171452381Y-68398095D02*
X171452381Y-68874286D01*
X171928571Y-68921905D01*
X171880952Y-68874286D01*
X171833333Y-68779048D01*
X171833333Y-68540952D01*
X171880952Y-68445714D01*
X171928571Y-68398095D01*
X172023810Y-68350476D01*
X172261905Y-68350476D01*
X172357143Y-68398095D01*
X172404762Y-68445714D01*
X172452381Y-68540952D01*
X172452381Y-68779048D01*
X172404762Y-68874286D01*
X172357143Y-68921905D01*
X137152381Y-81561905D02*
X137961905Y-81561905D01*
X138057143Y-81514286D01*
X138104762Y-81466667D01*
X138152381Y-81371429D01*
X138152381Y-81180952D01*
X138104762Y-81085714D01*
X138057143Y-81038095D01*
X137961905Y-80990476D01*
X137152381Y-80990476D01*
X137152381Y-80609524D02*
X137152381Y-79942857D01*
X138152381Y-80371429D01*
X136652381Y-68561905D02*
X137461905Y-68561905D01*
X137557143Y-68514286D01*
X137604762Y-68466667D01*
X137652381Y-68371429D01*
X137652381Y-68180952D01*
X137604762Y-68085714D01*
X137557143Y-68038095D01*
X137461905Y-67990476D01*
X136652381Y-67990476D01*
X137080952Y-67371429D02*
X137033333Y-67466667D01*
X136985714Y-67514286D01*
X136890476Y-67561905D01*
X136842857Y-67561905D01*
X136747619Y-67514286D01*
X136700000Y-67466667D01*
X136652381Y-67371429D01*
X136652381Y-67180952D01*
X136700000Y-67085714D01*
X136747619Y-67038095D01*
X136842857Y-66990476D01*
X136890476Y-66990476D01*
X136985714Y-67038095D01*
X137033333Y-67085714D01*
X137080952Y-67180952D01*
X137080952Y-67371429D01*
X137128571Y-67466667D01*
X137176190Y-67514286D01*
X137271429Y-67561905D01*
X137461905Y-67561905D01*
X137557143Y-67514286D01*
X137604762Y-67466667D01*
X137652381Y-67371429D01*
X137652381Y-67180952D01*
X137604762Y-67085714D01*
X137557143Y-67038095D01*
X137461905Y-66990476D01*
X137271429Y-66990476D01*
X137176190Y-67038095D01*
X137128571Y-67085714D01*
X137080952Y-67180952D01*
X183052381Y-76661905D02*
X183861905Y-76661905D01*
X183957143Y-76614286D01*
X184004762Y-76566667D01*
X184052381Y-76471429D01*
X184052381Y-76280952D01*
X184004762Y-76185714D01*
X183957143Y-76138095D01*
X183861905Y-76090476D01*
X183052381Y-76090476D01*
X183052381Y-75185714D02*
X183052381Y-75376191D01*
X183100000Y-75471429D01*
X183147619Y-75519048D01*
X183290476Y-75614286D01*
X183480952Y-75661905D01*
X183861905Y-75661905D01*
X183957143Y-75614286D01*
X184004762Y-75566667D01*
X184052381Y-75471429D01*
X184052381Y-75280952D01*
X184004762Y-75185714D01*
X183957143Y-75138095D01*
X183861905Y-75090476D01*
X183623810Y-75090476D01*
X183528571Y-75138095D01*
X183480952Y-75185714D01*
X183433333Y-75280952D01*
X183433333Y-75471429D01*
X183480952Y-75566667D01*
X183528571Y-75614286D01*
X183623810Y-75661905D01*
X102366947Y-41853501D02*
X102033613Y-41377310D01*
X101795518Y-41853501D02*
X101795518Y-40853501D01*
X102176471Y-40853501D01*
X102271709Y-40901120D01*
X102319328Y-40948739D01*
X102366947Y-41043977D01*
X102366947Y-41186834D01*
X102319328Y-41282072D01*
X102271709Y-41329691D01*
X102176471Y-41377310D01*
X101795518Y-41377310D01*
X102795518Y-41329691D02*
X103128852Y-41329691D01*
X103271709Y-41853501D02*
X102795518Y-41853501D01*
X102795518Y-40853501D01*
X103271709Y-40853501D01*
X104033614Y-41329691D02*
X103700280Y-41329691D01*
X103700280Y-41853501D02*
X103700280Y-40853501D01*
X104176471Y-40853501D01*
X104700280Y-40853501D02*
X104700280Y-41091596D01*
X104462185Y-40996358D02*
X104700280Y-41091596D01*
X104938376Y-40996358D01*
X104557423Y-41282072D02*
X104700280Y-41091596D01*
X104843138Y-41282072D01*
X105462185Y-40853501D02*
X105462185Y-41091596D01*
X105224090Y-40996358D02*
X105462185Y-41091596D01*
X105700281Y-40996358D01*
X105319328Y-41282072D02*
X105462185Y-41091596D01*
X105605043Y-41282072D01*
X101002381Y-74042857D02*
X100526190Y-74376191D01*
X101002381Y-74614286D02*
X100002381Y-74614286D01*
X100002381Y-74233333D01*
X100050000Y-74138095D01*
X100097619Y-74090476D01*
X100192857Y-74042857D01*
X100335714Y-74042857D01*
X100430952Y-74090476D01*
X100478571Y-74138095D01*
X100526190Y-74233333D01*
X100526190Y-74614286D01*
X100097619Y-73661905D02*
X100050000Y-73614286D01*
X100002381Y-73519048D01*
X100002381Y-73280952D01*
X100050000Y-73185714D01*
X100097619Y-73138095D01*
X100192857Y-73090476D01*
X100288095Y-73090476D01*
X100430952Y-73138095D01*
X101002381Y-73709524D01*
X101002381Y-73090476D01*
X100335714Y-72233333D02*
X101002381Y-72233333D01*
X99954762Y-72471429D02*
X100669048Y-72709524D01*
X100669048Y-72090476D01*
X113652381Y-83742857D02*
X113176190Y-84076191D01*
X113652381Y-84314286D02*
X112652381Y-84314286D01*
X112652381Y-83933333D01*
X112700000Y-83838095D01*
X112747619Y-83790476D01*
X112842857Y-83742857D01*
X112985714Y-83742857D01*
X113080952Y-83790476D01*
X113128571Y-83838095D01*
X113176190Y-83933333D01*
X113176190Y-84314286D01*
X112747619Y-83361905D02*
X112700000Y-83314286D01*
X112652381Y-83219048D01*
X112652381Y-82980952D01*
X112700000Y-82885714D01*
X112747619Y-82838095D01*
X112842857Y-82790476D01*
X112938095Y-82790476D01*
X113080952Y-82838095D01*
X113652381Y-83409524D01*
X113652381Y-82790476D01*
X112652381Y-81885714D02*
X112652381Y-82361905D01*
X113128571Y-82409524D01*
X113080952Y-82361905D01*
X113033333Y-82266667D01*
X113033333Y-82028571D01*
X113080952Y-81933333D01*
X113128571Y-81885714D01*
X113223810Y-81838095D01*
X113461905Y-81838095D01*
X113557143Y-81885714D01*
X113604762Y-81933333D01*
X113652381Y-82028571D01*
X113652381Y-82266667D01*
X113604762Y-82361905D01*
X113557143Y-82409524D01*
X100902381Y-76142857D02*
X100426190Y-76476191D01*
X100902381Y-76714286D02*
X99902381Y-76714286D01*
X99902381Y-76333333D01*
X99950000Y-76238095D01*
X99997619Y-76190476D01*
X100092857Y-76142857D01*
X100235714Y-76142857D01*
X100330952Y-76190476D01*
X100378571Y-76238095D01*
X100426190Y-76333333D01*
X100426190Y-76714286D01*
X99997619Y-75761905D02*
X99950000Y-75714286D01*
X99902381Y-75619048D01*
X99902381Y-75380952D01*
X99950000Y-75285714D01*
X99997619Y-75238095D01*
X100092857Y-75190476D01*
X100188095Y-75190476D01*
X100330952Y-75238095D01*
X100902381Y-75809524D01*
X100902381Y-75190476D01*
X99902381Y-74333333D02*
X99902381Y-74523810D01*
X99950000Y-74619048D01*
X99997619Y-74666667D01*
X100140476Y-74761905D01*
X100330952Y-74809524D01*
X100711905Y-74809524D01*
X100807143Y-74761905D01*
X100854762Y-74714286D01*
X100902381Y-74619048D01*
X100902381Y-74428571D01*
X100854762Y-74333333D01*
X100807143Y-74285714D01*
X100711905Y-74238095D01*
X100473810Y-74238095D01*
X100378571Y-74285714D01*
X100330952Y-74333333D01*
X100283333Y-74428571D01*
X100283333Y-74619048D01*
X100330952Y-74714286D01*
X100378571Y-74761905D01*
X100473810Y-74809524D01*
X110957143Y-79952381D02*
X110623809Y-79476190D01*
X110385714Y-79952381D02*
X110385714Y-78952381D01*
X110766667Y-78952381D01*
X110861905Y-79000000D01*
X110909524Y-79047619D01*
X110957143Y-79142857D01*
X110957143Y-79285714D01*
X110909524Y-79380952D01*
X110861905Y-79428571D01*
X110766667Y-79476190D01*
X110385714Y-79476190D01*
X111338095Y-79047619D02*
X111385714Y-79000000D01*
X111480952Y-78952381D01*
X111719048Y-78952381D01*
X111814286Y-79000000D01*
X111861905Y-79047619D01*
X111909524Y-79142857D01*
X111909524Y-79238095D01*
X111861905Y-79380952D01*
X111290476Y-79952381D01*
X111909524Y-79952381D01*
X112242857Y-78952381D02*
X112909524Y-78952381D01*
X112480952Y-79952381D01*
X112652381Y-69892857D02*
X112176190Y-70226191D01*
X112652381Y-70464286D02*
X111652381Y-70464286D01*
X111652381Y-70083333D01*
X111700000Y-69988095D01*
X111747619Y-69940476D01*
X111842857Y-69892857D01*
X111985714Y-69892857D01*
X112080952Y-69940476D01*
X112128571Y-69988095D01*
X112176190Y-70083333D01*
X112176190Y-70464286D01*
X111652381Y-69559524D02*
X111652381Y-68940476D01*
X112033333Y-69273810D01*
X112033333Y-69130952D01*
X112080952Y-69035714D01*
X112128571Y-68988095D01*
X112223810Y-68940476D01*
X112461905Y-68940476D01*
X112557143Y-68988095D01*
X112604762Y-69035714D01*
X112652381Y-69130952D01*
X112652381Y-69416667D01*
X112604762Y-69511905D01*
X112557143Y-69559524D01*
X112652381Y-67988095D02*
X112652381Y-68559524D01*
X112652381Y-68273810D02*
X111652381Y-68273810D01*
X111795238Y-68369048D01*
X111890476Y-68464286D01*
X111938095Y-68559524D01*
M02*
